<svg width="945" height="336" viewBox="0 0 945 336" fill="none" xmlns="http://www.w3.org/2000/svg">
<path d="M0 270.433L182.797 0.29925L199.567 0.105469L203.447 335.087L162.721 335.558L159.889 91.0211L66.6622 233.767L254.959 231.591L255.375 267.482L0 270.433Z" fill="black"/>
<path d="M689.584 270.627L872.382 0.493835L889.151 0.300054L893.031 335.282L852.306 335.752L849.473 91.2157L756.247 233.961L944.544 231.785L944.959 267.676L689.584 270.627Z" fill="black"/>
<path d="M395.756 169.504C396.106 188.479 398.299 206.021 402.334 222.128C406.363 237.924 412.068 251.666 419.448 263.355C426.823 274.733 435.553 283.597 445.638 289.946C456.029 295.978 467.453 298.88 479.909 298.651C492.677 298.416 503.985 295.096 513.836 288.691C523.68 281.975 532.077 272.797 539.028 261.155C545.972 249.203 551.166 235.26 554.611 219.326C558.049 203.081 559.594 185.471 559.244 166.496C558.894 147.52 556.704 130.135 552.675 114.339C548.64 98.2314 542.935 84.4889 535.56 73.1109C528.18 61.4219 519.45 52.5583 509.371 46.5202C499.285 40.1709 487.859 37.1138 475.091 37.3487C462.635 37.5779 451.329 41.0533 441.173 47.7749C431.323 54.1797 422.925 63.3584 415.981 75.311C409.031 86.9525 403.837 100.896 400.398 117.14C396.954 133.074 395.406 150.528 395.756 169.504ZM356.052 170.234C355.45 137.571 360.055 108.547 369.867 83.161C379.678 57.7749 393.483 37.761 411.281 23.1193C429.384 8.16082 450.425 0.460985 474.403 0.0198203C498.381 -0.421344 519.536 6.50216 537.867 20.7903C556.503 34.7617 571.192 54.2513 581.933 79.2593C592.674 104.267 598.346 133.103 598.948 165.765C599.55 198.428 594.945 227.452 585.133 252.839C575.322 278.225 561.364 298.397 543.261 313.355C525.463 327.997 504.575 335.539 480.597 335.98C456.619 336.421 435.312 329.656 416.675 315.684C398.344 301.396 383.808 281.748 373.067 256.74C362.326 231.732 356.654 202.897 356.052 170.234Z" fill="black"/>
</svg>
