<svg width="1801" height="18" viewBox="0 0 1801 18" fill="none" xmlns="http://www.w3.org/2000/svg">
<path d="M0 15.9967C6.41138 16.1033 12.8228 13.6044 19.2342 8.5C31.7947 -1.5 44.3552 -1.5 56.9157 8.5C69.4762 18.5 82.0367 18.5 94.5972 8.5C107.158 -1.5 119.718 -1.5 132.279 8.5C144.839 18.5 157.4 18.5 169.96 8.5C182.521 -1.5 195.081 -1.5 207.642 8.5C220.202 18.5 232.763 18.5 245.323 8.5C257.884 -1.5 269.072 -0.5 281.633 9.5C294.193 19.5 306.754 19.5 319.314 9.5C331.875 -0.5 344.435 -0.5 356.995 9.5C369.556 19.5 382.116 19.5 394.677 9.5C407.238 -0.5 419.798 -0.5 432.359 9.5C444.919 19.5 457.48 19.5 470.04 9.5C482.601 -0.5 495.161 -0.5 507.721 9.5C520.282 19.5 532.843 19.5 545.403 9.5C557.964 -0.5 568.835 -0.5 581.396 9.5C593.956 19.5 606.517 19.5 619.077 9.5C631.638 -0.5 644.198 -0.5 656.759 9.5C669.319 19.5 681.88 19.5 694.44 9.5C707.001 -0.5 719.561 -0.5 732.122 9.5C744.682 19.5 757.243 19.5 769.803 9.5C782.364 -0.5 794.924 -0.5 807.485 9.5C820.045 19.5 832.606 19.5 845.166 9.5C857.727 -0.5 868.598 -0.5 881.159 9.5C893.719 19.5 906.28 19.5 918.84 9.5C931.401 -0.5 943.962 -0.5 956.522 9.5C969.083 19.5 981.643 19.5 994.203 9.5C1006.76 -0.5 1019.32 -0.5 1031.88 9.5C1044.45 19.5 1057.01 19.5 1069.57 9.5C1082.13 -0.5 1094.69 -0.5 1107.25 9.5C1119.81 19.5 1132.37 19.5 1144.93 9.5C1157.49 -0.5 1168.36 -0.5 1180.92 9.5C1193.48 19.5 1206.04 19.5 1218.6 9.5C1231.16 -0.5 1243.72 -0.5 1256.29 9.5C1268.85 19.5 1281.41 19.5 1293.97 9.5C1306.53 -0.5 1319.09 -0.5 1331.65 9.5C1344.21 19.5 1356.77 19.5 1369.33 9.5C1381.89 -0.5 1394.45 -0.5 1407.01 9.5C1419.57 19.5 1432.13 19.5 1444.69 9.5C1457.25 -0.5 1468.12 -0.5 1480.69 9.5C1493.25 19.5 1505.81 19.5 1518.37 9.5C1530.93 -0.5 1543.49 -0.5 1556.05 9.5C1568.61 19.5 1581.17 19.5 1593.73 9.5C1606.29 -0.5 1618.85 -0.5 1631.41 9.5C1643.97 19.5 1656.53 19.5 1669.09 9.5C1681.65 -0.5 1694.21 -0.5 1706.77 9.5C1719.33 19.5 1731.9 19.5 1744.46 9.5C1757.02 -0.5 1767.89 -0.5 1780.45 9.5C1786.97 14.6886 1793.48 17.1851 1800 16.9893" stroke="black" stroke-opacity="0.5"/>
</svg>
