<svg width="506" height="206" viewBox="0 0 506 206" fill="none" xmlns="http://www.w3.org/2000/svg">
<path d="M303.525 95.8549C309.362 91.8559 315.637 88.5316 322.226 85.9445C330.161 82.6484 339.724 81 350.917 81C360.331 81 368.57 82.4325 375.633 85.2983C382.192 87.7858 387.907 92.078 392.113 97.6755C396.038 103.061 398 109.665 398 117.486V203.5H377.035V120.354C377.157 116.805 376.428 113.277 374.91 110.063C373.569 107.448 371.533 105.251 369.023 103.711C366.323 102.076 363.355 100.926 360.257 100.312C356.817 99.6026 353.313 99.2474 349.801 99.2535C344.362 99.1999 338.942 99.9127 333.703 101.37C329.466 102.533 325.385 104.196 321.546 106.326C318.232 108.231 315.614 109.88 313.694 111.27L303.525 95.8549Z" fill="black"/>
<path d="M30.988 167.412C35.2907 172.703 40.5744 177.122 46.5511 180.429C52.5846 183.617 59.3325 185.229 66.1619 185.113C75.9212 185.113 83.7684 182.424 89.7036 177.045C92.5982 174.466 94.8928 171.29 96.4285 167.738C97.9641 164.186 98.7031 160.344 98.5948 156.479C98.5948 148.33 96.6789 141.823 92.8479 136.959C88.7925 131.933 83.6509 127.881 77.8048 125.106C71.3949 121.988 64.8037 119.251 58.0673 116.911C53.5272 115.361 48.4708 113.323 42.8967 110.799C37.225 108.22 31.8768 104.987 26.9618 101.167C21.8716 97.2371 17.6357 92.3189 14.5114 86.7118C11.2819 80.9947 9.67097 73.9669 9.67788 65.6278C9.53884 57.0745 11.9011 48.665 16.4765 41.4239C21.095 34.2218 27.6048 28.4151 35.3014 24.6325C43.8316 20.4346 53.2483 18.3357 62.7626 18.51C72.6778 18.51 81.3532 20.378 88.7894 24.114C95.9545 27.6643 102.387 32.5205 107.752 38.4311C112.748 43.8998 116.891 50.0842 120.043 56.7771L100.922 67.7106C98.5157 62.9989 95.6211 58.551 92.2848 54.4403C88.801 50.1079 84.5036 46.4912 79.6324 43.792C74.6752 41.0217 68.6163 39.6331 61.4558 39.6263C51.5406 39.6263 44.3064 42.0127 39.7524 46.7848C35.1985 51.5569 32.9323 56.8933 32.9538 62.794C32.9192 67.7098 34.2774 72.537 36.8732 76.7196C39.4866 80.9495 43.8885 84.9425 50.0779 88.6999C56.2681 92.4573 64.6815 96.1436 75.3189 99.7604C80.608 101.677 85.7642 103.937 90.7553 106.527C96.2211 109.363 101.277 112.919 105.787 117.102C110.501 121.479 114.358 126.689 117.165 132.465C120.132 138.45 121.612 145.609 121.605 153.941C121.722 161.392 120.158 168.775 117.026 175.544C114.072 181.841 109.794 187.434 104.48 191.944C99.1387 196.469 93.0207 199.997 86.4203 202.359C79.6716 204.794 72.5442 206.026 65.3652 205.997C55.7826 206.095 46.3145 203.921 37.7443 199.652C29.3394 195.445 21.801 189.706 15.5209 182.734C9.33602 175.93 4.11375 168.317 0 160.106L17.7832 148.125C21.6181 154.921 26.0361 161.374 30.988 167.412Z" fill="black"/>
<path d="M320.071 177.987C322.31 181.34 325.521 183.936 329.279 185.428C333.575 187.154 338.178 187.999 342.81 187.916C348.872 188.013 354.871 186.668 360.306 183.993C365.366 181.472 369.64 177.624 372.663 172.862C375.783 167.885 377.382 162.112 377.267 156.247L381.474 171.948C381.474 179.638 379.15 186.017 374.5 191.084C369.815 196.172 363.947 200.037 357.411 202.342C350.975 204.726 344.167 205.965 337.299 205.999C330.158 206.051 323.099 204.488 316.654 201.428C310.41 198.506 305.09 193.935 301.274 188.214C297.414 182.452 295.485 175.471 295.485 167.271C295.485 155.584 299.65 146.204 307.981 139.131C316.312 132.058 327.922 128.515 342.81 128.5C351.576 128.5 358.896 129.503 364.77 131.509C369.766 133.081 374.504 135.37 378.837 138.302C381.456 140.047 383.842 142.115 385.939 144.457V156.757C380.153 152.753 373.75 149.715 366.981 147.763C360.227 145.903 353.246 144.984 346.239 145.031C339.403 145.031 333.839 145.906 329.545 147.657C325.667 149.068 322.313 151.623 319.932 154.981C317.751 158.328 316.634 162.251 316.729 166.24C316.644 170.399 317.808 174.489 320.071 177.987Z" fill="black"/>
<path d="M180.308 203.447H159.301V0H180.308V203.447ZM230.356 107.975C226.088 102.932 219.651 100.41 211.045 100.41C205.408 100.285 199.836 101.637 194.892 104.33C190.361 106.819 186.627 110.524 184.117 115.022C181.52 119.753 180.207 125.073 180.308 130.461H173.491C173.32 121.675 175.205 112.969 178.995 105.03C182.401 97.9525 187.608 91.8823 194.103 87.4189C200.647 83.0283 208.397 80.7525 216.293 80.9019C224.7 80.9019 232.013 82.6398 238.229 86.1155C244.561 89.7191 249.609 95.1879 252.674 101.766C256.088 108.731 257.795 117.427 257.795 127.854V203.5H236.788V130.461C236.788 120.507 234.644 113.012 230.356 107.975Z" fill="black"/>
<path fill-rule="evenodd" clip-rule="evenodd" d="M394.151 142.139C394.151 141.384 394.391 140.937 394.973 140.398C395.367 140.032 395.931 139.726 396.511 139.688C397.577 139.619 398.75 140.75 398.75 142.05C398.75 144.075 396.421 145.061 394.95 143.589C394.622 143.261 394.151 142.643 394.151 142.139ZM427.876 142.139C427.876 141.421 428.34 140.781 428.883 140.491C429.579 140.119 430.03 140.191 430.601 140.951C431.963 142.761 430.318 143.712 429.364 143.712C428.856 143.712 427.876 142.689 427.876 142.139ZM416.92 141.87C416.92 140.495 418.738 139.763 419.637 140.78C420.424 141.67 420.176 142.764 419.212 143.39C419.119 143.451 418.801 143.622 418.678 143.622C418.235 143.622 417.664 143.338 417.426 143.118C417.136 142.85 416.92 142.411 416.92 141.87ZM407.451 143.757C407.254 143.757 406.883 143.693 406.712 143.64C405.943 143.401 405.648 142.678 405.648 141.915C405.648 141.043 407.007 138.899 408.726 140.651C409.355 141.29 409.642 141.819 409.241 142.62C409.161 142.779 408.938 143.079 408.812 143.18C408.441 143.477 407.974 143.757 407.451 143.757ZM388.92 136.567C388.92 135.458 389.873 134.23 391.13 134.23C392.057 134.23 393.249 135.483 393.249 136.387C393.249 137.103 393.166 137.528 392.56 138.038C391.695 138.765 388.92 139.068 388.92 136.567ZM435.135 137.646C434.739 137.646 434.431 137.668 434.131 137.344C433.521 136.684 434.065 135.354 434.729 135.354C435.467 135.354 436.131 135.485 436.207 136.444C436.254 137.036 435.69 137.646 435.135 137.646ZM444.378 136.342C444.378 135.93 444.703 135.659 445.009 135.443C446.18 134.617 447.534 135.177 447.534 136.298C447.534 136.843 447.57 137.266 447.119 137.681C446.695 138.072 445.951 138.005 445.37 138.005C445.029 138.005 444.802 137.621 444.694 137.376C444.624 137.221 444.378 136.528 444.378 136.342ZM402.041 134.5C402.975 134.5 404.496 135.706 403.77 137.122C403.191 138.253 401.631 138.786 400.681 137.608C399.274 135.863 401.169 134.5 402.041 134.5ZM424.089 135.039C425.066 135.039 425.677 136.437 424.933 137.319C424.261 138.116 422.8 137.741 422.655 136.374C422.608 135.929 422.877 135.658 423.134 135.481C423.232 135.415 423.993 135.039 424.089 135.039ZM413.178 138.005C411.327 138.005 410.991 136.044 411.908 135.212C413.383 133.875 415.578 135.811 414.23 137.436C414.092 137.603 413.982 137.693 413.791 137.808C413.666 137.884 413.351 138.005 413.178 138.005ZM383.239 131.04C383.239 129.906 383.585 129.244 384.653 128.899C385.51 128.622 386.628 128.735 387.197 129.342C388.016 130.215 387.971 131.773 387.186 132.502C386.615 133.033 385.476 133.258 384.642 132.967C383.856 132.692 383.239 131.986 383.239 131.04ZM450.33 131.13C450.33 130.196 450.757 129.907 451.605 129.838C452.532 129.763 453.427 130.821 452.599 131.953C452.315 132.341 452.096 132.347 451.724 132.303C451.321 132.255 451.03 132.196 450.754 132.01C450.504 131.842 450.33 131.524 450.33 131.13ZM394.421 130.995C394.421 130.207 395.015 129.393 395.698 129.032C396.575 128.568 397.27 128.725 397.949 129.411C398.325 129.79 398.704 130.169 398.704 130.86C398.704 132.126 397.78 132.735 396.607 132.809C395.573 132.875 394.421 132.008 394.421 130.995ZM416.92 130.86C416.92 130.402 417.825 129.193 418.806 129.337C419.105 129.381 419.419 129.532 419.607 129.754C419.94 130.148 420.219 130.88 419.956 131.504C419.509 132.563 418.146 132.807 417.428 131.971C417.247 131.761 416.92 131.22 416.92 130.86ZM440.546 129.872C441.899 129.872 441.949 131.984 440.185 131.984C439.23 131.984 439.048 129.872 440.546 129.872ZM408.173 132.568H407.046C406.222 132.568 405.693 131.776 405.693 130.95C405.693 130.434 405.73 130.27 406.078 129.806C406.257 129.569 406.514 129.378 406.774 129.241C407.512 128.856 408.101 129.061 408.67 129.466C408.9 129.63 409.11 129.893 409.254 130.142C409.564 130.673 409.336 131.61 409.004 132.093C408.846 132.324 408.535 132.568 408.173 132.568ZM429.59 132.029C428.485 132.029 428.372 131.565 428.372 130.68C428.372 129.665 429.801 129.426 430.392 129.97C430.674 130.23 430.588 130.417 430.543 130.822C430.5 131.205 430.665 131.797 430.059 131.957C429.961 131.983 429.685 132.029 429.59 132.029ZM377.468 125.513C377.468 124.215 378.909 122.816 380.218 122.816C380.927 122.816 381.393 123.248 381.763 123.614C383.537 125.372 382.117 127.894 380.173 127.894C379.354 127.894 378.832 127.597 378.314 127.141C377.871 126.752 377.468 126.159 377.468 125.513ZM456.913 126.726C456.478 126.726 456.163 126.468 455.993 126.114C455.594 125.279 456.432 124.524 456.823 124.524C457.265 124.524 457.689 124.605 458.006 124.917C458.433 125.335 458.13 126.726 456.913 126.726ZM388.65 125.333C388.65 124.158 389.932 123.041 390.904 123.041C391.407 123.041 391.662 123.017 392.138 123.249C392.386 123.37 392.522 123.494 392.697 123.681C393.271 124.291 393.249 125.07 393.249 125.827C393.249 126.873 392.329 127.625 391.175 127.625H390.949C389.776 127.625 388.65 126.503 388.65 125.333ZM413.042 127.355C412.117 127.355 411.149 126.369 411.149 125.468C411.149 124.845 411.271 124.587 411.768 124.107C413.62 122.317 416.537 125.533 413.774 127.14C413.634 127.221 413.241 127.355 413.042 127.355ZM401.951 123.311C402.673 123.311 403.127 123.422 403.608 123.906C405.299 125.607 403.181 127.625 402.041 127.625C401.728 127.625 401.465 127.497 401.244 127.386L400.613 126.935C399.58 125.91 399.603 124.28 401.094 123.535C401.35 123.407 401.56 123.311 401.951 123.311ZM445.1 125.153C445.1 124.479 446.007 124.143 446.624 124.758C447.129 125.262 447.05 125.628 446.641 126.15C446.133 126.797 445.1 126.537 445.1 125.153ZM423.863 126.951C423.28 126.951 422.314 126.023 422.399 125.403C422.51 124.597 423.159 123.85 423.954 123.85C424.359 123.85 424.72 124.176 424.96 124.375C425.171 124.55 425.165 124.551 425.338 124.762C425.391 124.827 425.622 125.18 425.622 125.243C425.622 125.664 425.298 126.186 425.087 126.418C424.832 126.699 424.278 126.951 423.863 126.951ZM435.135 126.501C434.742 126.501 434.382 126.52 434.114 126.126C433.656 125.454 433.819 124.209 434.775 124.209C435.191 124.209 435.484 124.205 435.82 124.47C436.098 124.689 436.087 124.865 436.045 125.25C435.998 125.667 435.955 126.501 435.135 126.501ZM427.831 120.075C427.831 117.925 430.094 118.122 430.679 118.854C430.907 119.138 431.077 119.66 431.077 120.165C431.077 120.615 430.092 121.603 429.544 121.603C429.433 121.603 429.065 121.443 428.945 121.392C428.399 121.158 427.831 120.734 427.831 120.075ZM439.328 119.985C439.328 118.193 441.538 118.505 441.538 119.671C441.538 121.217 441.238 121.064 440.005 121.064C439.782 121.064 439.581 120.88 439.492 120.721C439.406 120.568 439.328 120.201 439.328 119.985ZM407.632 117.828C408.807 117.828 409.706 118.706 409.706 119.806C409.706 120.532 409.575 120.903 409.018 121.457C408.036 122.437 407.005 122.318 406.04 121.437L405.557 120.84C404.975 119.737 405.654 117.828 407.632 117.828ZM382.879 119.94C382.879 118.294 384.043 117.289 385.764 117.289C387.499 117.289 388.944 119.278 388.08 121.035C387.798 121.609 387.296 122.022 386.693 122.26C385.688 122.656 384.545 122.429 383.683 121.745C383.473 121.578 383.261 121.255 383.133 120.99C383.018 120.751 382.879 120.267 382.879 119.94ZM416.604 119.895C416.604 118.264 418.575 117.126 419.796 118.422C420.383 119.045 420.605 120.173 420.183 120.849C420.153 120.898 420.164 120.875 420.125 120.93C419.796 121.393 419.2 121.873 418.633 121.873C417.807 121.873 417.413 121.705 416.91 120.941L416.757 120.642C416.696 120.485 416.604 120.084 416.604 119.895ZM396.721 122.412H396.45C395.268 122.412 394.151 121.216 394.151 120.03C394.151 119.099 394.24 118.84 394.806 118.122C394.949 117.941 395.205 117.764 395.403 117.639C395.808 117.384 396.159 117.379 396.63 117.379C397.66 117.379 400.275 119.092 398.306 121.52C398.029 121.861 397.318 122.412 396.721 122.412ZM462.594 121.199C462.137 121.199 461.421 120.739 461.421 120.165C461.421 119.19 462.552 118.496 463.328 119.298C463.448 119.422 463.728 119.822 463.703 120.013C463.654 120.395 463.264 121.199 462.594 121.199ZM451.592 119.042C451.939 119.042 452.449 119.465 452.449 120.03C452.449 120.736 451.581 121.372 450.858 120.628C450.651 120.415 450.486 119.907 450.606 119.543C450.734 119.157 451.518 119.042 451.592 119.042ZM373.816 117.244C374.707 117.244 375.727 117.25 376.475 117.651C377.593 118.251 378.05 121.271 375.695 122.443C375.006 122.786 374.17 122.802 373.467 122.535C373.225 122.443 372.85 122.215 372.701 122.04C371.736 120.907 371.439 118.372 372.842 117.532C373.054 117.405 373.505 117.244 373.816 117.244ZM466.787 114.683V114.458C466.787 113.889 467.311 113.335 468.004 113.335C469.422 113.335 469.829 115.896 468.049 115.896C467.658 115.896 467.327 115.809 467.114 115.615C466.921 115.441 466.787 115.047 466.787 114.683ZM444.604 114.728V114.503C444.604 113.405 446.356 112.722 446.86 113.693C448.148 116.177 444.604 116.299 444.604 114.728ZM410.608 114.683C410.608 113.872 410.792 113.517 411.264 112.91C412.087 111.854 413.414 111.963 414.433 112.623C415.262 113.16 415.207 113.866 415.207 114.638C415.207 116.404 413.204 117.44 411.399 116.096C411.064 115.846 410.608 115.238 410.608 114.683ZM421.834 114.548C421.834 113.595 423.044 112.391 423.773 112.391C424.447 112.391 424.855 112.549 425.273 112.963C425.763 113.448 425.892 113.846 425.892 114.548C425.892 117.456 421.834 116.679 421.834 114.548ZM399.336 114.458C399.336 113.655 399.619 113.16 399.966 112.705C400.23 112.357 400.941 111.852 401.545 111.852C402.487 111.852 403.093 111.97 403.876 112.629C404.094 112.812 404.303 113.1 404.457 113.353C405.806 115.562 402.186 118.323 400.113 116.244C399.658 115.788 399.336 115.176 399.336 114.458ZM456.056 114.323C456.056 113.588 456.945 113.161 457.601 113.866C458.024 114.322 458.054 114.73 457.646 115.189C457.002 115.911 456.056 115.49 456.056 114.323ZM391.175 117.244C389.192 117.244 388.379 116.06 388.379 114.143C388.379 111.654 388.627 111.852 391.896 111.852C392.619 111.852 393.264 112.004 393.581 112.644C393.833 113.153 393.856 114.173 393.783 114.855C393.646 116.129 392.602 117.244 391.175 117.244ZM435 116.121H434.684C434.05 116.121 433.151 115.19 433.151 114.548C433.151 113.841 433.696 113.33 434.233 112.974C434.877 112.547 435.484 112.786 436.119 113.208C436.412 113.402 436.687 113.828 436.611 114.355C436.532 114.91 436.584 115.615 435.697 115.962C435.511 116.035 435.234 116.121 435 116.121ZM407.812 111.762C406.909 111.762 406.209 111.57 405.613 110.988C404.913 110.305 404.836 109.584 404.836 108.616C404.836 107.043 405.742 106.369 407.271 106.369C408.23 106.369 408.733 106.461 409.436 107.004C409.875 107.343 410.247 108.061 410.247 108.616V109.111C410.247 110.14 408.695 111.762 407.812 111.762ZM438.607 109.111C438.607 108.585 438.937 108.103 439.328 107.807C439.501 107.676 439.629 107.531 439.839 107.417C440.066 107.294 440.248 107.18 440.521 107.208C441.815 107.339 442.613 109.406 441.646 110.297C440.508 111.346 438.607 110.08 438.607 109.111ZM451.322 110.324C450.896 110.324 450 109.79 450.14 108.969C450.199 108.624 450.35 108.273 450.543 108.065C451.097 107.465 452.582 107.576 452.708 109.123C452.741 109.522 452.505 109.81 452.268 109.963C452.073 110.089 451.497 110.324 451.322 110.324ZM429.319 106.909C430.466 106.909 432.238 108.254 431.47 109.771C430.877 110.941 429.373 111.209 428.476 110.759C427.019 110.029 427.051 108.422 427.909 107.525C428.21 107.211 428.702 106.909 429.319 106.909ZM462.368 110.144C462.328 110.144 461.376 109.576 461.376 109.155C461.376 108.82 461.43 108.543 461.703 108.313C462.732 107.446 464.124 108.696 463.102 109.707C462.983 109.825 462.556 110.144 462.368 110.144ZM416.063 108.706C416.063 108.163 416.406 107.469 416.771 107.121C418.014 105.937 419.57 106.36 420.429 107.636C420.517 107.767 420.598 107.876 420.677 108.017C421.038 108.658 421.061 109.382 420.745 110.047C420.273 111.037 419.223 111.267 418.047 111.267C416.736 111.267 416.063 109.787 416.063 108.706ZM423.863 106.055C422.626 106.055 421.293 104.662 421.293 103.628C421.293 102.97 421.436 102.615 421.869 102.09C423.972 99.5426 426.433 101.711 426.433 103.179C426.433 104.502 426.041 105.294 424.947 105.831C424.682 105.961 424.262 106.055 423.863 106.055ZM432.791 103.448C432.791 102.829 433.054 102.442 433.33 102.099C433.777 101.544 434.44 101.471 435.09 101.471C435.611 101.471 436.149 101.808 436.45 102.048C438.056 103.335 436.431 105.74 435.09 105.74C433.946 105.74 432.791 104.589 432.791 103.448ZM466.832 103.403C466.832 102.208 468.951 102.323 468.951 103.269C468.951 104.433 468.545 104.662 467.598 104.662C467.095 104.662 466.832 103.947 466.832 103.403ZM457.003 104.886C455.015 104.886 455.117 102.28 457.048 102.28C457.576 102.28 457.85 102.779 458.094 103.125C458.222 103.307 458.292 103.299 458.235 103.546C458.152 103.902 458.031 104.168 457.842 104.419C457.676 104.638 457.362 104.886 457.003 104.886ZM445.821 105.246C445.244 105.246 444.874 105.082 444.596 104.714C444.429 104.493 444.153 103.815 444.153 103.448C444.153 102.778 445.195 101.741 445.776 101.741C445.9 101.741 446.32 101.885 446.44 101.933C446.708 102.04 446.811 102.097 447.031 102.243C447.665 102.665 447.635 103.661 447.445 104.168C447.181 104.874 446.577 105.246 445.821 105.246ZM451.412 99.7635C450.144 99.7635 449.789 99.0017 449.789 97.8312C449.789 96.5573 451.433 95.8987 452.502 96.7002C453.077 97.1318 453.035 97.5826 453.035 98.1458C453.035 99.0782 452.347 99.7635 451.412 99.7635ZM438.291 98.1458C438.291 97.5372 438.398 96.9812 438.843 96.5381C438.99 96.3912 439.223 96.2555 439.419 96.1684C440.168 95.8351 441.495 95.9001 442.08 96.6617C442.379 97.0506 442.614 97.7566 442.616 98.2361C442.619 99.0528 441.123 100.954 439.624 100.053C439.311 99.8647 439.269 99.8158 439.024 99.5726C438.706 99.2568 438.291 98.7486 438.291 98.1458ZM461.061 98.0559C461.061 97.1948 461.478 96.7977 462.278 96.7977C463.871 96.7977 464.005 98.4286 463.373 99.0578C462.704 99.725 461.061 99.6688 461.061 98.0559ZM426.749 98.0559C426.749 96.6939 428.122 95.4496 429.364 95.4496C430.561 95.4496 431.3 95.9745 431.739 96.9916C432.125 97.8846 431.911 99.1134 431.335 99.7959L430.963 100.137C430.151 100.74 428.924 100.68 428.056 100.261L427.912 100.184C427.187 99.7191 426.749 98.9058 426.749 98.0559ZM473.234 96.8875C474.239 96.8875 474.722 97.5321 474.722 98.5053C474.722 99.2833 473.919 99.404 473.234 99.404C472.118 99.404 472.307 98.3437 472.275 98.1131C472.173 97.3733 472.489 96.8875 473.234 96.8875ZM432.25 92.7084C432.25 91.7344 432.515 91.3494 433.117 90.742C434.024 89.827 435.62 89.6627 436.636 90.6289C438.062 91.9856 437.545 95.135 434.82 95.135C433.389 95.135 432.25 94.0132 432.25 92.7084ZM467.959 94.0115C466.994 94.0115 466.516 93.5578 466.516 92.5286C466.516 91.417 467.264 91.4116 467.882 91.3265C469.015 91.1704 469.418 92.1281 469.133 93.1589C468.993 93.6642 468.545 94.0115 467.959 94.0115ZM445.956 94.8653C445.054 94.8653 444.187 94.067 443.933 93.3834C443.93 93.3757 443.899 93.2816 443.898 93.279C443.527 92.1606 443.83 90.8583 445.011 90.5981C447.812 89.981 449.184 92.7218 447.091 94.3786C446.864 94.5586 446.339 94.8653 445.956 94.8653ZM455.064 92.4836C455.064 92.1147 455.434 91.6603 455.675 91.4747C455.839 91.3492 455.96 91.2263 456.131 91.1204C456.282 91.0269 456.531 90.8805 456.734 90.8642C457.269 90.8216 458.536 91.3605 458.536 92.3938C458.536 93.1861 458.222 93.8927 457.526 94.1738C456.827 94.456 455.974 94.3268 455.586 93.7611C455.38 93.4608 455.064 92.7599 455.064 92.4836ZM440.636 89.6526C439.774 89.6526 439.202 89.5367 438.58 89.0502C437.802 88.4416 437.75 87.7847 437.75 86.9564C437.75 86.1304 438.514 85.1834 439.253 84.8137C440.906 83.9861 442.89 84.94 442.89 87.2709C442.89 87.9489 442.592 88.5782 442.249 88.9233C441.825 89.3493 441.299 89.6526 440.636 89.6526ZM449.248 87.1361C449.248 84.9448 451.656 84.5212 452.867 85.7311C454.786 87.6489 452.297 89.383 451.412 89.383C450.321 89.383 449.248 88.2315 449.248 87.1361ZM471.747 87.1811C471.747 86.4971 472.972 85.6082 473.46 85.6082C473.671 85.6082 474.28 86.0463 474.42 86.1796C475.169 86.8971 475.095 87.5559 474.396 88.2484C474.096 88.5448 473.85 88.7988 473.37 88.7988C472.861 88.7988 472.206 88.2723 471.956 87.7816C471.888 87.6498 471.747 87.3437 471.747 87.1811ZM460.52 87.0912C460.52 86.4588 461.788 85.3386 462.413 85.3386C463.292 85.3386 463.991 86.39 463.991 87.4057C463.991 87.7966 463.94 88.0102 463.69 88.3184C463.13 89.0097 461.637 89.0686 461.047 88.2733C460.891 88.063 460.52 87.406 460.52 87.0912ZM466.02 81.6987C466.02 80.9911 467.143 79.9012 468.004 79.9012C468.692 79.9012 469.718 80.8399 469.718 81.5189C469.718 82.1609 469.581 82.4721 469.121 82.9015C468.609 83.379 467.124 83.6992 466.56 82.9587C466.367 82.7057 466.02 82.037 466.02 81.6987ZM456.958 83.9006C455.746 83.9006 454.748 82.6858 454.748 81.8785C454.748 81.2069 454.854 80.6667 455.344 80.1803C455.965 79.5636 456.777 79.4435 457.602 79.7979C458.233 80.0687 459.077 80.8504 459.077 81.6537C459.077 82.6173 457.912 83.9006 456.958 83.9006ZM443.206 81.7885C443.206 80.4839 444.528 79.0474 445.821 79.0474C447.895 79.0474 449.309 81.7954 447.659 83.4402C447.432 83.6662 447.233 83.8251 446.91 83.9528C446.773 84.0074 446.594 84.0789 446.442 84.115C445.141 84.4232 443.992 83.8331 443.475 82.8235C443.348 82.5745 443.206 82.1636 443.206 81.7885ZM473.189 74.4188H473.505C474.282 74.4188 475.977 75.8562 474.84 77.3668C474.138 78.2986 472.859 78.1593 472.016 77.5206C470.645 76.4822 472.087 74.4188 473.189 74.4188ZM460.204 76.2164C460.204 75.1235 461.196 74.1492 462.098 74.1492C462.827 74.1492 463.165 74.3151 463.712 74.7877C463.858 74.9146 463.831 74.8803 463.961 75.0331C464.467 75.6253 464.487 75.7597 464.487 76.441C464.487 76.9506 464.137 77.458 463.851 77.6946C462.543 78.7799 460.204 78.0194 460.204 76.2164ZM451.277 78.7328C450.176 78.7328 448.707 77.497 448.707 76.2613C448.707 75.5601 449.107 74.941 449.552 74.4975C451.889 72.1687 453.847 75.0716 453.847 75.9467C453.847 76.8998 453.369 78.0894 452.399 78.5033C452.136 78.6158 451.64 78.7328 451.277 78.7328ZM467.914 72.9809C466.829 72.9809 465.705 71.6426 465.705 70.9586C465.705 69.6989 466.984 68.6668 467.824 68.6668C468.598 68.6668 469.341 69.3492 469.727 69.9607C470.583 71.3166 468.954 72.9809 467.914 72.9809ZM459.347 70.7789C459.347 71.117 459.202 71.5059 459.076 71.7213C458.666 72.42 457.726 73.2505 456.913 73.2505C456.284 73.2505 455.854 73.1612 455.39 72.7009C455.042 72.3553 454.855 72.1381 454.644 71.6465C453.533 69.0462 457.09 67.0989 458.865 69.4624C459.136 69.8234 459.347 70.3022 459.347 70.7789ZM444.108 68.0827L445.362 68.1675C446.306 68.0897 447.328 68.033 448.043 68.7445C449.178 69.8756 448.782 73.085 446.864 73.4812C446.436 73.5696 445.274 73.6682 444.757 73.5543C444.592 73.5179 444.495 73.4696 444.362 73.4014C443.377 72.8953 443.198 72.614 443.205 71.3637C443.209 70.6627 443.218 69.9246 443.162 69.2925C443.131 68.9406 443.226 68.6233 443.378 68.4336C443.541 68.2292 443.827 68.0827 444.108 68.0827ZM451.457 68.0827C450.597 68.0827 449.857 67.8555 449.393 67.3534C448.743 66.6493 448.707 65.7941 448.707 64.8472C448.707 63.1357 449.723 62.549 451.414 62.6867C452.245 62.7542 452.635 62.8356 453.274 63.3059C454.031 63.8624 454.117 64.6157 454.117 65.4763C454.117 66.1333 453.617 66.8957 453.273 67.241C452.887 67.6275 452.209 68.0827 451.457 68.0827ZM473.144 63.2295H473.55C474.87 63.2295 475.489 64.2864 475.489 65.6111C475.489 66.3215 474.213 67.5434 473.505 67.5434C472.47 67.5434 470.712 66.2247 471.301 64.6277C471.568 63.9033 472.319 63.2295 473.144 63.2295ZM462.413 67.5434C461.606 67.5434 461.068 67.3415 460.602 66.967C460.171 66.6201 459.934 65.8716 459.934 65.2516C459.934 64.5799 460.297 64.0573 460.643 63.7121C461.734 62.6254 462.995 62.7497 464.027 63.7782L464.514 64.416C465.056 65.303 464.715 66.1642 464.048 66.8359C463.698 67.1882 463.097 67.5434 462.413 67.5434ZM468.094 62.0611H467.689C466.477 62.0611 465.434 61.234 465.434 60.0389C465.434 59.2491 465.615 58.7566 466.189 58.1845C467.102 57.2741 468.591 57.2364 469.527 58.1618C470.087 58.7153 470.304 59.1273 470.304 59.949C470.304 60.4981 470.01 61.1167 469.639 61.4436C469.296 61.7454 468.722 62.0611 468.094 62.0611ZM456.687 57.2078C458.286 57.2078 459.618 58.5948 459.618 59.8591C459.618 61.1241 457.934 62.6003 456.913 62.6003C456.388 62.6003 456.172 62.5846 455.64 62.2506C454.491 61.5294 453.817 60.1177 454.373 58.8114C454.764 57.8936 455.534 57.2078 456.687 57.2078ZM462.413 56.8933C460.12 56.8933 458.893 54.7411 460.191 53.0154C461.816 50.8551 464.289 51.7139 464.731 53.6392C465.117 55.3156 464.358 56.8933 462.413 56.8933ZM454.162 48.8045C454.162 48.3597 454.194 47.2194 454.373 46.8577C454.734 46.1285 456.34 46.2881 457.273 46.2881C458.818 46.2881 459.618 47.0709 459.618 48.7147C459.618 49.5739 459.535 50.3242 458.948 50.9681C458.548 51.4074 457.655 51.6806 457.003 51.6806C456.042 51.6806 454.942 51.8028 454.477 50.9175C454.159 50.3122 454.244 49.867 454.205 49.3911C454.188 49.1878 454.162 49.073 454.162 48.8045ZM462.368 46.2431C460.704 46.2431 459.663 45.121 459.663 43.457C459.663 41.5499 460.12 40.8057 462.278 40.8057C463.064 40.8057 463.951 40.9589 464.385 41.3122C465.88 42.529 465.011 46.2431 462.368 46.2431ZM454.117 32.8068C454.117 33.6667 454.253 34.2861 454.877 34.7912C456.477 36.0865 458.971 34.5265 459.501 36.0686C459.868 37.1343 459.618 39.0821 459.258 39.9976C458.915 40.8704 458.546 40.7608 457.409 40.7608C456.669 40.7608 455.558 40.6794 454.872 40.8389C454.472 40.9317 454.294 41.0927 454.209 41.4815C453.933 42.7453 454.321 44.1255 454.1 45.3724C453.927 46.3503 453.009 46.2431 452.178 46.2431C451.238 46.2431 450.246 46.1475 449.661 46.5202C449.049 46.9101 448.662 47.5291 448.662 48.3103C448.662 49.0231 448.539 50.5407 448.871 51.157C449.01 51.4151 449.197 51.6033 449.5 51.6987C450.602 52.045 452.963 51.1606 453.801 52.4454C454.362 53.3063 454.634 54.8908 454.087 55.8746C453.238 57.4014 451.054 57.1629 449.473 57.1629C449.164 57.1629 448.863 57.0994 448.754 56.8014C448.669 56.5708 448.707 56.0815 448.707 55.7699C448.707 55.0508 448.707 54.3318 448.707 53.6129C448.707 52.7988 448.776 52.2376 448.22 51.9414C447.619 51.6215 446.387 51.6806 445.596 51.6806C443.327 51.6806 442.644 54.5506 443.512 56.0492C444.872 58.3993 447.852 56.2036 448.528 57.5208C448.918 58.2813 448.684 59.3185 448.66 60.1273C448.645 60.6282 448.715 61.122 448.588 61.5388C447.89 63.8484 444.503 61.598 443.512 63.1744C443.231 63.6199 443.19 64.2692 443.161 64.802C443.008 67.6163 443.694 68.083 440.456 68.0827C439.265 68.0826 438.226 68.2477 437.845 69.4354C437.762 69.6947 437.702 69.9442 437.704 70.2837C437.711 71.0334 437.443 72.8537 438.156 73.2956C438.737 73.6562 439.738 73.61 440.411 73.61C441.44 73.61 442.327 73.364 442.771 74.1335C443.482 75.3646 443.648 78.57 441.226 79.0517C440.237 79.2484 438.796 79.4839 438.174 78.4454C437.851 77.9054 437.746 77.2863 437.751 76.4404L437.703 75.2749C437.561 73.4601 436.373 73.565 434.82 73.565C434.42 73.565 433.991 73.6714 433.707 73.8041C433.315 73.9873 433.196 74.0704 432.914 74.3617C432.183 75.1166 432.044 76.7409 432.39 77.7844C432.483 78.0666 432.654 78.3544 432.899 78.5355C434.191 79.4916 436.673 78.7014 437.224 79.2579C437.884 79.9248 437.915 82.0623 437.621 83.0082C437.083 84.7415 435.22 84.4848 433.738 84.4848C431.624 84.4848 432.295 84.2344 432.295 81.4291C432.295 79.8501 431.465 79.0025 429.77 79.0025H429.184C427.931 79.0025 426.704 80.5251 426.704 81.7885C426.704 85.8757 430.602 83.9454 431.827 84.6815C432.199 84.9051 432.2 84.994 432.258 85.5102C432.3 85.8847 432.289 86.2976 432.243 86.7251C432.143 87.6634 432.062 89.0169 431.33 89.5895C430.663 90.1106 430 89.9212 429.184 89.9222C426.875 89.925 426.749 90.0806 426.749 87.6304C426.749 86.0189 426.959 85.1844 425.39 84.6255C424.105 84.1673 422.937 84.4017 422.003 85.3274C421.731 85.597 421.531 85.8695 421.389 86.2431C421.001 87.2664 421.14 88.9838 422.157 89.6453C423.151 90.2911 424.783 89.7613 426.01 90.0751C426.806 90.2788 426.704 91.2655 426.704 91.9444C426.704 92.4264 426.753 92.7595 426.751 93.2041C426.744 94.5759 426.141 95.049 425.009 95.3334C424.691 95.4132 424.232 95.4944 423.863 95.4944C423.127 95.4944 421.91 95.2359 421.511 94.9184C420.763 94.3242 421.338 93.4847 421.338 92.5735C421.338 91.7272 421.288 90.996 420.674 90.4501C419.856 89.7236 417.262 89.6502 416.468 90.6855C416.368 90.8169 416.274 90.9126 416.184 91.0758C415.631 92.0733 415.465 94.0748 416.344 94.9452C417.356 95.9473 420.085 95.0804 420.826 95.5563C421.407 95.9299 421.248 98.0012 421.248 98.7299C421.248 99.3745 420.765 100.078 420.322 100.413C419.686 100.892 417.764 101.263 416.892 100.734C415.249 99.7373 416.046 97.416 415.74 96.446C415.671 96.2268 415.532 96.0331 415.35 95.8952C415.302 95.8589 415.331 95.8808 415.272 95.8406C414.819 95.5314 413.682 95.3147 412.997 95.3147C411.962 95.3147 410.981 95.8608 410.498 96.6438C410.089 97.3062 410.215 99.4765 410.39 100.116C410.651 101.075 411.547 100.929 412.366 100.932C413.517 100.936 414.741 100.614 415.442 101.731C415.858 102.394 415.938 104.038 415.613 104.752C415.069 105.944 413.874 106.324 412.501 106.324C411.07 106.324 410.285 105.242 410.291 103.809C410.304 100.75 409.967 100.842 407.181 100.842C406.282 100.842 405.471 100.975 405.114 101.523C404.288 102.794 405.429 105.294 404.199 106.093C403.924 106.271 403.46 106.26 403.033 106.28C401.981 106.33 400.767 106.507 399.735 106.151C399.546 106.086 399.501 106.111 399.426 105.965C399.36 105.838 399.379 105.668 399.38 105.516L399.352 102.627C399.319 102.402 399.305 102.295 399.228 102.118C398.85 101.25 396.263 99.9723 394.5 101.729C393.539 102.688 393.713 103.851 394.015 105.066C394.108 105.441 394.212 105.869 394.452 106.114C394.708 106.376 395.319 106.302 395.729 106.324C396.612 106.371 397.697 106.526 398.588 106.298C398.83 106.236 399.205 106.069 399.381 106.055C399.381 106.948 399.291 107.789 399.291 108.706C399.291 109.786 399.487 110.39 398.897 111.055C398.571 111.422 397.545 111.852 396.856 111.852C395.784 111.852 394.124 111.784 393.897 110.487C393.778 109.805 393.916 107.534 393.844 107.304C393.601 106.53 392.144 106.01 391.445 106.01C390.757 106.01 390.063 106.123 389.544 106.542C387.335 108.325 389.042 111.455 387.909 111.743C387.794 111.772 387.425 111.807 387.299 111.808C386.784 111.815 386.441 111.762 385.945 111.762C385.447 111.762 385.089 111.809 384.591 111.806C382.721 111.795 382.911 112.825 382.833 114.233C382.819 114.484 382.844 114.697 382.868 114.876C382.906 115.16 382.842 115.816 382.712 116.09C382.482 116.573 382.024 116.83 381.533 117.027C380.453 117.46 378.944 117.35 377.983 116.731C377.125 116.178 377.492 115.09 377.421 114.236C377.361 113.517 377.423 113.689 377.423 113.02C377.423 111.602 373.445 111.274 372.383 112.356C371.705 113.046 371.922 113.576 371.922 114.728C371.922 115.109 371.877 115.3 371.878 115.673C371.883 116.573 371.346 117.244 370.344 117.244H368.586C367.054 117.244 366.465 116.93 366.465 115.493C366.465 115.021 366.422 114.715 366.422 114.233C366.422 113.235 366.662 112.946 365.602 112.309C365.255 112.1 365.013 112.02 364.591 111.879C363.492 111.511 362.085 111.661 361.452 112.606C360.947 113.36 360.876 114.398 360.876 115.447C360.876 117.938 363.954 117.037 365.518 117.381C366.207 117.532 366.377 118.042 366.377 118.727V121.199C366.377 121.837 366.215 122.282 365.789 122.501C365.517 122.64 364.638 122.816 364.212 122.816C364.272 123.073 365.117 124.458 365.288 124.666C365.35 124.742 365.497 124.924 365.559 124.98C365.778 125.179 366.017 125.326 366.286 125.468C366.685 124.874 366.212 124.226 366.846 123.419C367.25 122.904 367.861 122.72 368.768 122.725L369.995 122.81C370.325 122.881 370.659 123.057 370.886 123.22C371.726 123.822 371.877 124.364 371.877 125.333C371.877 126.717 371.152 127.989 369.806 128.167C369.665 128.186 369.634 128.187 369.483 128.204C369.341 128.22 369.262 128.192 369.262 128.344C369.262 129.346 370.489 130.77 371.471 130.77H371.877C371.877 130.072 372.136 129.465 372.654 128.983C374.068 127.668 376.389 128.23 377.089 129.98C377.475 130.944 377.503 131.741 376.78 132.512C376.561 132.746 376 133.391 375.749 133.505C375.279 133.72 374.825 133.569 375.542 134.533C376.493 135.811 377.423 135.322 378.359 134.489C379.042 133.881 380.18 133.751 381.095 134.166C381.867 134.516 382.608 135.233 382.608 136.208C382.608 138.035 381.508 138.172 383.149 138.994C384.594 139.717 384.247 139.353 385.449 139.353C386.951 139.353 387.699 140.237 388.289 141.421C388.987 142.82 390.638 143.435 392.154 143.68C392.784 143.782 393.506 143.924 394.106 144.162L395.883 144.861C396.211 144.992 396.456 145.087 396.805 145.156C397.196 145.235 397.469 145.779 398.704 145.779C399.976 145.779 402.016 144.681 402.959 145.179C403.251 145.333 403.757 145.994 404.036 146.308C404.511 146.844 405.123 147.397 405.918 147.397C406.476 147.397 406.686 147.297 406.856 147.449C406.986 147.566 407.061 147.634 407.225 147.72C408.415 148.346 409.934 147.849 410.8 146.96C411.382 146.363 411.413 145.562 412.458 145.421C413.205 145.32 414.492 145.366 414.782 146.203C414.85 146.4 414.873 146.635 414.93 146.819C414.998 147.04 415.07 147.2 415.199 147.36C415.434 147.652 415.78 147.891 416.289 147.891H420.482C421.503 147.891 421.829 147.295 422.18 146.663C422.842 145.473 424.128 145.153 425.236 145.984C425.501 146.182 425.901 146.768 426.253 146.768C428.097 146.768 429.493 146.833 431.187 146.159C431.643 145.977 432.006 145.744 432.431 145.555C434.988 144.422 435.923 144.816 436.875 144.458C437.26 144.314 438.377 143.775 438.665 143.5C439.493 142.709 438.607 142.329 438.607 141.915C438.607 141.431 439.459 140.072 440.275 140.072C440.972 140.072 442.265 140.262 442.209 141.189C442.165 141.925 441.829 141.87 443.116 141.87C444.149 141.87 445.16 141.244 445.812 140.828C447.956 139.458 447.634 139.358 450.435 137.975C451.444 137.478 452.474 136.904 453.357 136.214L454.129 135.591C454.223 135.501 454.281 135.427 454.377 135.343C454.48 135.253 454.521 135.242 454.626 135.142C454.742 135.032 454.756 134.988 454.852 134.873C456.098 133.387 458.14 133.227 459.239 131.786C459.804 131.044 459.694 130.441 460.689 129.456C461.323 128.827 462.066 128.337 462.801 127.831C463.96 127.034 464.742 126.096 465.374 124.823C466.488 122.581 466.94 123.185 468.173 121.951C468.491 121.634 468.798 121.347 469.039 120.972C469.263 120.622 469.696 119.577 469.957 119.056C470.726 117.523 472.419 115.65 473.424 114.062C473.826 113.426 473.956 113.184 473.956 112.391C473.956 111.768 473.724 110.856 473.396 110.567C472.877 110.112 472.017 110.433 472.017 109.38C472.017 108.857 472.133 108.558 472.358 108.237C472.573 107.93 473.091 107.717 473.505 107.717C473.801 107.717 474.059 107.83 474.291 107.922C474.429 107.977 474.601 108.024 474.668 108.131C474.738 108.244 474.714 108.326 474.767 108.436C474.925 108.394 475.325 107.903 475.478 107.751C475.719 107.51 475.937 107.299 476.106 106.991C476.568 106.144 476.387 105.286 477.003 103.699C477.489 102.447 477.678 101.435 478.554 100.349C478.667 100.209 478.779 100.11 478.891 99.9634C479.651 98.9639 479.407 97.5441 479.411 96.3484C479.414 95.5426 479.565 94.618 478.679 94.2921C478.132 94.0909 478.127 94.3191 477.709 93.8662C477.037 93.1395 477.203 92.438 477.743 91.6749C477.988 91.3286 478.343 91.0457 478.825 91.0457C479.053 91.0457 479.541 91.1131 479.682 91.1805C480.008 90.5664 480.323 89.9321 480.544 89.209C481.027 87.6341 481.167 85.7627 480.765 84.1247C480.701 83.8652 480.641 83.6472 480.565 83.3803L480.223 82.6424C480.063 83.2411 478.578 83.932 477.687 82.9235C477.175 82.3444 476.929 80.9604 477.657 80.3999C478.456 79.7854 479.528 80.3016 480.167 80.9456C480.295 81.0743 480.394 81.1981 480.539 81.2943C480.539 80.8892 480.448 80.5454 480.448 80.081C480.448 78.8584 480.719 77.8241 480.719 76.6208C480.719 75.8982 480.535 75.1871 480.415 74.587C480.269 73.8575 480.166 73.3709 479.635 73.0273C479.36 72.8493 479.142 72.7918 478.826 72.6659C477.771 72.2466 476.932 72.2997 476.932 70.7789C476.932 70.2725 477.063 69.8903 477.248 69.5668C477.875 68.4757 479.411 69.4215 479.411 67.0491C479.411 65.5604 478.309 63.6149 477.549 62.3449C476.935 61.3189 476.308 60.4329 476.122 59.0932C476.036 58.4724 476.139 57.9411 475.915 57.4118C475.624 56.7218 475.091 56.6236 474.407 56.6236C473.741 56.6236 471.936 57.4797 471.122 55.3143C470.758 54.3475 470.865 53.2138 471.486 52.5896C471.973 52.1005 472.035 52.1729 472.573 51.9201C473.183 51.6334 472.73 50.4837 472.417 50.0683C472.141 49.7017 471.803 49.4663 471.663 49.023C471.574 48.7426 471.526 48.6248 471.16 48.6248C471.192 48.4897 471.213 48.4007 471.151 48.2318C470.984 47.7739 470.259 48.053 470.259 48.4451C470.259 48.9206 470.732 50.0217 469.532 50.9112C468.531 51.6526 466.862 51.7929 465.964 50.7931C465.462 50.2339 464.963 48.8734 465.419 47.9802C465.522 47.7774 465.55 47.7029 465.684 47.526C465.812 47.3576 465.91 47.2753 466.054 47.1306C466.293 46.8908 466.61 46.6336 466.936 46.4816C467.458 46.2383 468.217 46.2204 468.811 46.4726C469.01 46.5569 469.101 46.6886 469.312 46.7374C469.59 46.5514 469.537 46.3679 469.537 45.9285C468.929 45.7874 469.151 45.1755 468.977 44.6894L468.395 43.4267C467.463 41.7078 466.015 42.5167 464.653 39.7871C464.067 38.6135 463.391 37.3828 462.242 36.6622C460.917 35.831 459.803 35.919 459.076 34.2904C458.421 32.8207 457.111 31.9555 455.771 31.1584C455.211 30.825 454.689 30.612 454.348 31.5538C454.247 31.8328 454.117 32.4412 454.117 32.8068Z" fill="#20E0A1"/>
<path fill-rule="evenodd" clip-rule="evenodd" d="M379.316 111.853C379.603 111.853 379.777 111.84 379.999 111.815L381.378 111.82C382.392 111.952 382.752 112.065 382.957 110.449C383.041 109.785 383.003 107.889 382.595 107.372C382.405 107.131 382.233 106.976 381.975 106.822C379.774 105.511 377.487 106.805 377.336 108.756C377.255 109.798 377.284 111.136 378.248 111.615C378.482 111.731 378.986 111.853 379.316 111.853Z" fill="#20E0A1"/>
<path fill-rule="evenodd" clip-rule="evenodd" d="M448.661 38.0658C448.661 38.9967 448.896 39.6428 449.511 40.14C450.391 40.8527 451.3 40.807 452.403 40.807C454.402 40.807 454.162 39.7948 454.162 37.931C454.162 36.4612 453.548 35.3247 451.952 35.3247H451.547C450.088 35.3247 448.661 36.6264 448.661 38.0658Z" fill="#20E0A1"/>
<path fill-rule="evenodd" clip-rule="evenodd" d="M437.706 59.7707C437.706 60.2975 437.758 60.6177 438.023 61.0725L438.466 61.6644C438.913 62.154 439.897 62.6467 440.637 62.6467C441.362 62.6467 442.275 62.6856 442.738 62.0896C443.057 61.6791 443.192 61.1112 443.208 60.5361C443.238 59.4591 443.492 58.3086 442.29 57.6732C441.796 57.4118 440.749 57.1061 440.25 57.1802C439.362 57.3118 438.788 57.7359 438.266 58.3965C438.161 58.5295 438.096 58.6266 438.012 58.7724C437.894 58.9756 437.706 59.4677 437.706 59.7707Z" fill="#20E0A1"/>
<path fill-rule="evenodd" clip-rule="evenodd" d="M399.291 98.2802C399.291 99.7532 400.473 100.886 401.771 100.886C402.415 100.886 402.834 100.917 403.456 100.724C403.813 100.613 403.986 100.5 404.217 100.269C405.136 99.3536 404.976 97.444 404.08 96.4276C403.966 96.2978 403.887 96.1782 403.755 96.0775C402.879 95.408 402.21 95.1196 401.064 95.7332C400.516 96.0266 399.916 96.6251 399.621 97.1712C399.484 97.4251 399.291 97.918 399.291 98.2802Z" fill="#20E0A1"/>
<path fill-rule="evenodd" clip-rule="evenodd" d="M366.421 109.065C366.421 109.846 366.597 110.647 367.232 111.134C367.512 111.348 367.636 111.465 368.011 111.615C368.363 111.755 368.627 111.803 369.101 111.819C370.683 111.874 371.922 111.309 371.922 109.56C371.922 108.58 371.688 107.991 371.137 107.286C370.804 106.86 370.044 106.324 369.307 106.324C368.513 106.324 367.833 106.825 367.424 107.234C367.15 107.508 367.006 107.661 366.79 107.995C366.634 108.236 366.421 108.687 366.421 109.065Z" fill="#20E0A1"/>
<path fill-rule="evenodd" clip-rule="evenodd" d="M385.764 106.37C388.338 106.37 389.148 103.483 387.58 101.864C386.665 100.92 385.708 100.628 384.516 101.262C383.107 102.012 382.048 104.216 383.679 105.662C384.135 106.067 384.914 106.37 385.764 106.37Z" fill="#20E0A1"/>
<path fill-rule="evenodd" clip-rule="evenodd" d="M446.272 46.2887C447.891 46.2887 448.707 45.376 448.707 43.6824C448.707 42.3044 447.297 40.7615 446.227 40.7615C444.843 40.7615 443.134 42.3651 443.169 43.5434C443.213 45.0059 444.727 46.2887 446.272 46.2887Z" fill="#20E0A1"/>
<path fill-rule="evenodd" clip-rule="evenodd" d="M404.837 92.7087C404.837 94.1183 406.377 95.4499 407.542 95.4499C408.33 95.4499 409.023 95.1631 409.447 94.7869C410.623 93.744 410.555 91.7735 409.43 90.872C409.291 90.7604 409.238 90.6915 409.074 90.5979C406.91 89.3649 404.837 91.4201 404.837 92.7087Z" fill="#20E0A1"/>
<path fill-rule="evenodd" clip-rule="evenodd" d="M432.475 65.6122C432.475 67.2331 434.24 68.6939 436.212 67.8987C437.177 67.5092 437.626 66.5728 437.731 65.4583C437.798 64.757 437.295 64.0372 436.971 63.6478C436.578 63.1773 435.78 62.7362 435.045 62.7362C434.329 62.7362 433.557 63.2281 433.234 63.6282C432.785 64.1852 432.475 64.8245 432.475 65.6122Z" fill="#20E0A1"/>
<path fill-rule="evenodd" clip-rule="evenodd" d="M355.736 108.346C355.736 109.631 356.744 111.218 357.963 111.699C358.728 112.001 359.406 111.753 359.988 111.282C360.429 110.925 360.966 110.233 360.966 109.47C360.966 107.862 359.604 106.324 358.216 106.324C357.571 106.324 355.736 107.765 355.736 108.346Z" fill="#20E0A1"/>
<path fill-rule="evenodd" clip-rule="evenodd" d="M388.605 98.3707C388.605 99.1713 388.918 99.6132 389.326 100.078C389.399 100.161 389.533 100.271 389.631 100.359C390.608 101.238 392.014 100.974 392.968 100.023C393.453 99.539 393.835 98.9251 393.835 98.1011C393.835 97.0458 392.339 95.6745 391.039 95.6745C389.65 95.6745 388.605 96.9824 388.605 98.3707Z" fill="#20E0A1"/>
<path fill-rule="evenodd" clip-rule="evenodd" d="M372.149 103.851C372.149 104.213 372.262 104.589 372.374 104.84C372.565 105.271 372.867 105.594 373.23 105.874C374.132 106.571 375.187 106.477 376.09 105.848C376.501 105.561 376.773 105.249 377.038 104.815C377.314 104.362 377.442 103.868 377.29 103.265C376.883 101.644 374.151 99.9486 372.607 102.286C372.384 102.624 372.149 103.305 372.149 103.851Z" fill="#20E0A1"/>
<path fill-rule="evenodd" clip-rule="evenodd" d="M437.976 48.8939C437.976 50.6126 440.222 52.9243 442.315 50.8374C444.409 48.751 442.393 46.5122 440.726 46.5122C440.206 46.5122 439.994 46.5458 439.527 46.7553C438.776 47.0926 437.976 48.0328 437.976 48.8939Z" fill="#20E0A1"/>
<path fill-rule="evenodd" clip-rule="evenodd" d="M432.249 70.8694C432.249 69.4678 430.971 68.3529 429.634 68.3529C428.292 68.3529 426.577 70.0642 427.096 71.5118C427.398 72.3546 428.255 73.2151 429.113 73.5009C430.585 73.991 432.249 72.0713 432.249 70.8694Z" fill="#20E0A1"/>
<path fill-rule="evenodd" clip-rule="evenodd" d="M413.087 89.9677C414.547 89.9677 415.702 88.3737 415.702 87.3165C415.702 86.0673 414.425 84.755 412.997 84.755C412.337 84.755 411.76 85.2502 411.34 85.6649C410.552 86.4438 410.294 87.3391 410.817 88.3657C411.217 89.1503 412.18 89.9677 413.087 89.9677Z" fill="#20E0A1"/>
<path fill-rule="evenodd" clip-rule="evenodd" d="M418.633 84.4854C419.841 84.4854 421.204 83.0714 421.23 81.9185C421.26 80.6058 419.36 78.5491 417.659 79.5604C416.075 80.5021 415.366 82.0741 416.886 83.5754C416.995 83.6832 417.088 83.7921 417.203 83.8886C417.539 84.1711 418.154 84.4854 418.633 84.4854Z" fill="#20E0A1"/>
<path fill-rule="evenodd" clip-rule="evenodd" d="M446.091 30.11C444.765 30.11 442.169 32.2901 444.209 34.3231C445.261 35.3719 446.734 35.2655 447.851 34.425C448.314 34.0765 448.702 33.2669 448.657 32.6789C448.583 31.7176 447.859 30.7927 447.099 30.4089C446.847 30.2817 446.444 30.11 446.091 30.11Z" fill="#20E0A1"/>
<path fill-rule="evenodd" clip-rule="evenodd" d="M421.519 76.3521C421.519 77.5689 422.696 78.7787 423.908 78.7787C424.805 78.7787 425.48 78.7299 426.08 77.9774C426.42 77.5516 426.749 76.621 426.749 76.1274C426.749 75.7827 426.571 75.4955 426.425 75.2815C425.942 74.5715 424.973 73.8356 424.089 73.8356C423.112 73.8356 421.519 75.2615 421.519 76.3521Z" fill="#20E0A1"/>
<path fill-rule="evenodd" clip-rule="evenodd" d="M361.191 103.629C361.191 105.881 363.834 106.756 365.404 105.581C366.262 104.94 366.339 103.656 365.881 102.729C365.497 101.951 364.626 101.157 363.625 101.157C362.592 101.157 361.191 102.585 361.191 103.629Z" fill="#20E0A1"/>
<path fill-rule="evenodd" clip-rule="evenodd" d="M396.72 95.1805C397.919 95.1805 399.065 94.1378 399.065 92.7538C399.065 91.1912 397.371 90.1897 396.007 90.5598C395.131 90.7975 394.404 91.4829 394.178 92.3771C394.031 92.9598 394.188 93.4206 394.405 93.8483C394.795 94.618 395.812 95.1805 396.72 95.1805Z" fill="#20E0A1"/>
<path fill-rule="evenodd" clip-rule="evenodd" d="M432.746 54.4215C432.746 55.6483 433.921 56.9379 434.956 56.9379C435.685 56.9379 436.139 56.6376 436.625 56.2649L437.15 55.6202C437.435 55.0853 437.435 55.0012 437.435 54.4215C437.435 53.2367 436.198 51.9948 435.181 51.9948C434.69 51.9948 434.491 51.9923 433.999 52.2994C433.865 52.3832 433.807 52.4466 433.693 52.5335C433.223 52.8911 432.746 53.7907 432.746 54.4215Z" fill="#20E0A1"/>
<path fill-rule="evenodd" clip-rule="evenodd" d="M438.246 37.9305V38.245C438.246 39.2326 439.385 40.5368 440.591 40.5368C441.753 40.5368 442.936 39.3318 442.936 38.0203C442.936 36.7211 441.25 34.9613 439.614 35.8329C439.419 35.9364 439.087 36.1929 438.961 36.3507C438.623 36.7737 438.246 37.3273 438.246 37.9305Z" fill="#20E0A1"/>
<path fill-rule="evenodd" clip-rule="evenodd" d="M377.918 98.0115C377.918 99.0271 378.171 99.9372 379.047 100.392C380.184 100.982 381.654 100.43 382.336 99.2684C382.964 98.1973 382.679 95.9443 379.993 95.9443C378.738 95.9443 377.918 96.8487 377.918 98.0115Z" fill="#20E0A1"/>
<path fill-rule="evenodd" clip-rule="evenodd" d="M404.386 87.4047C404.386 86.2112 403.407 85.0231 402.312 85.0231C401.624 85.0231 401.373 85.0925 400.81 85.548C398.735 87.2254 400.562 89.3109 401.634 89.6078C402.88 89.9527 404.386 88.6732 404.386 87.4047Z" fill="#20E0A1"/>
<path fill-rule="evenodd" clip-rule="evenodd" d="M366.963 98.2361C366.963 98.6818 366.963 98.8754 367.242 99.3064C367.636 99.9154 368.386 100.618 369.173 100.618C370.183 100.618 371.607 99.263 371.607 98.2811C371.607 97.3571 370.207 95.9443 369.128 95.9443C367.989 95.9443 366.963 97.2673 366.963 98.2361Z" fill="#20E0A1"/>
<path fill-rule="evenodd" clip-rule="evenodd" d="M432.746 43.5021C432.746 44.4244 433.366 45.0973 434.143 45.4801C434.984 45.8942 435.991 45.7835 436.68 45.1758C438.639 43.4477 436.314 41.1548 435.111 41.3162C434.501 41.3981 433.966 41.5746 433.523 41.9849C433.176 42.3071 432.746 42.8582 432.746 43.5021Z" fill="#20E0A1"/>
<path fill-rule="evenodd" clip-rule="evenodd" d="M429.589 62.1071C430.079 62.1071 430.27 62.1029 430.718 61.8835C431.017 61.7366 431.087 61.6709 431.314 61.4444C433.082 59.6828 430.85 57.7032 429.635 57.7032C428.518 57.7032 427.308 58.7881 427.269 59.8717C427.258 60.188 427.35 60.519 427.469 60.7602C427.816 61.4644 428.702 62.1071 429.589 62.1071Z" fill="#20E0A1"/>
<path fill-rule="evenodd" clip-rule="evenodd" d="M383.42 92.7077C383.42 93.4437 383.739 93.8536 384.243 94.3596C385.033 95.1534 385.976 95.4447 386.836 94.6288C387.25 94.2359 387.839 93.6149 387.839 92.9773C387.839 92.3514 387.479 91.6909 387.174 91.3486C386.715 90.834 386.278 90.5057 385.494 90.5057C384.659 90.5057 383.42 91.7778 383.42 92.7077Z" fill="#20E0A1"/>
<path fill-rule="evenodd" clip-rule="evenodd" d="M438.246 27.1449C438.246 28.0757 439.519 29.3468 440.456 29.3468C442.215 29.3468 443.426 27.1797 442.111 25.6301C441.281 24.6523 439.938 24.7548 439.024 25.6731C438.682 26.0174 438.246 26.4855 438.246 27.1449Z" fill="#20E0A1"/>
<path fill-rule="evenodd" clip-rule="evenodd" d="M358.352 100.348C359.075 100.348 359.371 100.18 359.852 99.6864C360.594 98.9238 360.55 97.9 359.985 97.058C359.627 96.524 358.905 95.9443 358.217 95.9443C357.262 95.9443 355.956 97.2576 355.979 98.186C355.995 98.811 356.404 99.2976 356.762 99.6414C357.069 99.9371 357.772 100.348 358.352 100.348Z" fill="#20E0A1"/>
<path fill-rule="evenodd" clip-rule="evenodd" d="M405.378 81.8781C405.378 82.7318 406.502 83.8232 407.535 83.9556C408.584 84.0902 409.751 83.0801 409.751 82.0129V81.7882C409.751 80.8316 408.633 79.5863 407.677 79.5863C406.538 79.5863 405.378 80.7507 405.378 81.8781Z" fill="#20E0A1"/>
<path fill-rule="evenodd" clip-rule="evenodd" d="M422.06 65.4313C422.06 66.6405 423.06 67.7065 424.096 67.5526C425.552 67.3365 426.208 66.7149 426.208 65.2965C426.208 64.9485 425.94 64.4888 425.739 64.2364L425.226 63.7136C423.8 62.4652 422.06 63.8811 422.06 65.4313Z" fill="#20E0A1"/>
<path fill-rule="evenodd" clip-rule="evenodd" d="M416.56 70.9599C416.56 72.0442 417.594 73.027 418.363 73.027C418.922 73.027 419.382 72.9808 419.858 72.6292C420.679 72.023 420.974 71.003 420.529 70.105C419.773 68.581 417.79 68.6747 417.066 69.3968C416.746 69.7153 416.56 70.3354 416.56 70.9599Z" fill="#20E0A1"/>
<path fill-rule="evenodd" clip-rule="evenodd" d="M427.56 48.7594C427.56 49.465 427.594 49.9915 428.157 50.5461C428.782 51.1613 429.43 51.4132 430.296 50.9469C430.911 50.6157 431.708 49.7215 431.708 49.029C431.708 48.1732 430.693 47.0443 429.737 46.8569C428.786 46.6705 427.56 47.6068 427.56 48.7594Z" fill="#20E0A1"/>
<path fill-rule="evenodd" clip-rule="evenodd" d="M433.016 32.5809C433.016 33.2019 433.244 33.682 433.53 34.0456C434.336 35.0699 435.741 35.0074 436.508 34.039C437.103 33.2887 437.433 32.7086 436.909 31.7572C436.449 30.9244 435.384 30.1075 434.217 30.6771C433.56 30.9979 433.016 31.8041 433.016 32.5809Z" fill="#20E0A1"/>
<path fill-rule="evenodd" clip-rule="evenodd" d="M411.103 76.1727V76.5322C411.103 77.4461 411.997 78.5094 413.087 78.5094C414.28 78.5094 415.251 77.549 415.251 76.3075C415.251 75.2821 414.17 74.3752 413.132 74.3752C412.751 74.3752 412.53 74.3792 412.165 74.5344C411.522 74.8072 411.103 75.5049 411.103 76.1727Z" fill="#20E0A1"/>
<path fill-rule="evenodd" clip-rule="evenodd" d="M376.837 92.7995C376.837 92.198 376.643 91.6875 376.187 91.3353C375.509 90.8098 375.234 90.7773 374.403 90.7773C372.87 90.7773 371.999 92.9381 373.422 94.3616C374.925 95.8664 376.837 93.6982 376.837 92.7995Z" fill="#20E0A1"/>
<path fill-rule="evenodd" clip-rule="evenodd" d="M352.805 94.8666C353.755 94.8666 355.953 93.0408 354.26 91.3496C353.686 90.7758 353.144 90.7773 352.399 90.7773C351.905 90.7773 351.472 90.9912 351.255 91.4345C351.058 91.8387 351.039 92.5285 351.002 93.0284C350.984 93.2728 351.082 93.5928 351.165 93.7597C351.339 94.1086 351.719 94.4817 352.057 94.6687C352.223 94.7608 352.565 94.8666 352.805 94.8666Z" fill="#20E0A1"/>
<path fill-rule="evenodd" clip-rule="evenodd" d="M361.733 92.7545C361.733 93.7751 362.587 94.8666 363.582 94.8666C364.175 94.8666 364.664 94.6683 365.036 94.2492C366.42 92.6881 365.047 90.7773 363.897 90.7773H363.537C362.595 90.7773 361.733 91.8019 361.733 92.7545Z" fill="#20E0A1"/>
<path fill-rule="evenodd" clip-rule="evenodd" d="M389.146 87.3613C389.146 88.5858 390.807 90.3922 392.404 88.8108C393.195 88.0275 393.245 86.7517 392.494 85.912C391.186 84.4484 389.146 85.8538 389.146 87.3613Z" fill="#20E0A1"/>
<path fill-rule="evenodd" clip-rule="evenodd" d="M427.56 38.0664C427.56 38.7098 427.751 38.9527 428.225 39.4264C429.361 40.5635 431.438 40.0002 431.438 38.1113C431.438 36.2292 429.409 35.5214 428.202 36.729C427.903 37.0284 427.56 37.4918 427.56 38.0664Z" fill="#20E0A1"/>
<path fill-rule="evenodd" clip-rule="evenodd" d="M356.277 87.1828C356.277 88.4596 357.945 90.0277 359.514 88.566C360.531 87.6179 360.233 86.2778 359.01 85.5378C357.676 84.7312 356.277 86.2602 356.277 87.1828Z" fill="#20E0A1"/>
<path fill-rule="evenodd" clip-rule="evenodd" d="M422.33 54.4677C422.33 55.3049 422.608 55.9637 423.417 56.26C424.123 56.5183 424.898 56.3056 425.358 55.7334C426.023 54.9066 426.227 54.049 425.385 53.2203C424.836 52.68 424.623 52.5803 423.863 52.5803C422.84 52.5803 422.33 53.4925 422.33 54.4677Z" fill="#20E0A1"/>
<path fill-rule="evenodd" clip-rule="evenodd" d="M394.916 81.6994V82.1039C394.916 83.0395 395.555 83.6767 396.494 83.6767C396.846 83.6767 397.096 83.6591 397.423 83.4788C397.956 83.1844 398.523 82.558 398.523 81.9241C398.523 80.926 397.612 79.9019 396.855 79.9019H396.584C395.73 79.9019 394.916 80.8424 394.916 81.6994Z" fill="#20E0A1"/>
<path fill-rule="evenodd" clip-rule="evenodd" d="M378.459 87.3154C378.459 88.435 378.919 89.1578 380.127 89.1578C381.024 89.1578 383.017 87.9785 381.526 86.0113C380.475 84.6242 378.459 85.5973 378.459 87.3154Z" fill="#20E0A1"/>
<path fill-rule="evenodd" clip-rule="evenodd" d="M427.831 26.9646V27.2791C427.831 27.9927 429.125 30.0853 430.841 28.3917C430.994 28.2409 431.12 28.0779 431.228 27.8788C431.621 27.1525 431.385 26.4347 430.841 25.8972C430.54 25.6005 430.161 25.2569 429.634 25.2569C428.613 25.2569 427.831 26.1118 427.831 26.9646Z" fill="#20E0A1"/>
<path fill-rule="evenodd" clip-rule="evenodd" d="M367.459 87.7646C367.459 88.3139 367.586 88.6231 368.219 88.8494C368.857 89.0773 369.511 89.3074 370.093 88.9072C371.904 87.6611 370.894 85.5627 369.398 85.5627C367.949 85.5627 367.459 86.3075 367.459 87.7646Z" fill="#20E0A1"/>
<path fill-rule="evenodd" clip-rule="evenodd" d="M435.045 23.5959C436.46 23.5959 437.516 22.1154 436.997 21.5608C436.624 21.1617 434.78 20.1358 434.234 20.1358C433.228 20.1358 432.42 22.0524 433.821 23.1535C434.103 23.3748 434.551 23.5959 435.045 23.5959Z" fill="#20E0A1"/>
<path fill-rule="evenodd" clip-rule="evenodd" d="M422.33 43.5473C422.33 44.3995 423.287 45.3897 424.133 45.3897C424.964 45.3897 425.937 44.4422 425.937 43.5024C425.937 42.6874 425.018 41.615 423.998 41.615C423.267 41.615 422.33 42.7863 422.33 43.5473Z" fill="#20E0A1"/>
<path fill-rule="evenodd" clip-rule="evenodd" d="M424.043 34.4687C424.988 34.4687 425.892 33.6177 425.892 32.7611C425.892 32.3905 425.703 31.7971 425.575 31.5495C425.207 30.8389 424.679 30.9186 424.088 30.9186C422.859 30.9186 422.496 31.5937 422.346 32.691C422.239 33.4726 423.335 34.4687 424.043 34.4687Z" fill="#20E0A1"/>
<path fill-rule="evenodd" clip-rule="evenodd" d="M418.768 61.7453C419.923 61.7453 421.13 59.9005 419.954 58.7213C419.126 57.8915 417.099 58.0016 416.878 59.9959C416.798 60.7146 416.887 60.9306 417.363 61.2584C417.607 61.4266 418.376 61.7453 418.768 61.7453Z" fill="#20E0A1"/>
<path fill-rule="evenodd" clip-rule="evenodd" d="M403.98 76.3503C403.98 74.8833 401.545 73.7088 400.582 75.7052C400.52 75.8333 400.434 76.0506 400.408 76.2017C400.304 76.8292 400.971 77.9007 401.798 78.1657C402.186 78.2899 402.576 78.1681 402.873 77.9886C403.359 77.6956 403.98 77.0882 403.98 76.3503Z" fill="#20E0A1"/>
<path fill-rule="evenodd" clip-rule="evenodd" d="M352.535 83.4071C353.344 83.4071 354.384 83.3238 354.384 82.1937C354.384 81.4048 354.355 80.5264 353.489 80.2094C352.883 79.9877 351.102 79.9935 351.046 81.2038C350.994 82.3103 350.873 83.4071 352.535 83.4071Z" fill="#20E0A1"/>
<path fill-rule="evenodd" clip-rule="evenodd" d="M405.874 70.8241C405.874 71.0338 405.991 71.4208 406.062 71.5804C406.248 72.0014 406.603 72.3247 407.026 72.5067C407.791 72.8359 408.378 72.7796 408.935 72.0772C409.4 71.4899 409.702 70.964 409.266 70.2748C409.185 70.1481 408.966 69.8693 408.857 69.7831C408.036 69.132 407.412 68.859 406.538 69.7337C406.298 69.9742 405.874 70.4504 405.874 70.8241Z" fill="#20E0A1"/>
<path fill-rule="evenodd" clip-rule="evenodd" d="M411.463 65.3427C411.463 66.0123 411.519 66.2172 412.014 66.6809C412.308 66.9561 412.838 67.0503 413.357 67.0503C413.909 67.0503 414.2 66.7919 414.474 66.5012C414.666 66.2974 414.935 65.6835 414.935 65.2977C414.935 64.2454 412.641 62.7306 411.642 64.6671C411.553 64.8391 411.463 65.0792 411.463 65.3427Z" fill="#20E0A1"/>
<path fill-rule="evenodd" clip-rule="evenodd" d="M416.876 37.8847C416.876 39.7123 418.809 40.1904 419.683 39.2447C420.165 38.7239 420.34 37.9302 419.988 37.254C419.535 36.381 418.27 36.1133 417.409 36.7983C417.135 37.0159 416.876 37.4068 416.876 37.8847Z" fill="#20E0A1"/>
<path fill-rule="evenodd" clip-rule="evenodd" d="M383.961 81.7419C383.961 82.11 384.289 82.6467 384.456 82.8666C385.069 83.6766 387.297 83.8676 387.297 81.5172C387.297 80.5682 386.214 80.1241 385.629 80.1241C384.959 80.1241 383.961 81.1012 383.961 81.7419Z" fill="#20E0A1"/>
<path fill-rule="evenodd" clip-rule="evenodd" d="M422.375 21.7526C422.375 22.4378 423.507 23.3253 423.908 23.3253C424.339 23.3253 424.925 23.084 425.16 22.8657C425.985 22.1007 426.013 20 423.908 20C423.413 20 423.081 20.2811 422.864 20.5769C422.713 20.7819 422.375 21.4303 422.375 21.7526Z" fill="#20E0A1"/>
<path fill-rule="evenodd" clip-rule="evenodd" d="M362.048 81.7421C362.048 83.4638 363.953 83.8238 364.834 82.946C365.306 82.476 365.481 81.8035 365.219 81.1883C365.131 80.9813 365.046 80.849 364.916 80.6814C364.566 80.2317 363.705 79.8745 363.039 80.3483C362.644 80.6293 362.048 81.2027 362.048 81.7421Z" fill="#20E0A1"/>
<path fill-rule="evenodd" clip-rule="evenodd" d="M416.92 48.9849C416.92 50.3147 418.826 51.245 419.768 50.0712C419.922 49.8805 420.211 49.2557 420.211 48.9399C420.211 48.2505 419.419 47.3256 418.55 47.3727C417.715 47.4179 416.92 48.1119 416.92 48.9849Z" fill="#20E0A1"/>
<path fill-rule="evenodd" clip-rule="evenodd" d="M416.876 27.235C416.876 27.7898 417.967 28.8078 418.589 28.8078C418.95 28.8078 419.44 28.5185 419.639 28.3264C420.321 27.6701 420.371 26.6221 419.684 25.9643C419.233 25.5328 418.501 25.4103 417.899 25.6935C417.692 25.7912 417.58 25.9269 417.428 26.0774C417.266 26.2368 417.174 26.3538 417.07 26.5751C416.991 26.7454 416.876 27.0141 416.876 27.235Z" fill="#20E0A1"/>
<path fill-rule="evenodd" clip-rule="evenodd" d="M373.004 81.9687C373.004 82.4105 374.08 83.4068 374.762 83.4068C375.254 83.4068 375.868 83.0168 376.116 82.5092C376.354 82.0231 376.369 81.5208 376.114 81.0263C375.855 80.5251 375.09 80.1007 374.511 80.1863C373.593 80.3218 373.004 81.2486 373.004 81.9687Z" fill="#20E0A1"/>
<path fill-rule="evenodd" clip-rule="evenodd" d="M358.126 74.777C358 74.8074 357.936 74.7719 357.768 74.825C357.035 75.0572 356.477 75.9124 356.563 76.4668C356.667 77.1441 357.798 77.9948 358.343 77.9562C359.112 77.9016 359.977 77.0878 359.862 76.2406C359.746 75.3853 359.273 74.9153 358.487 74.775C358.449 74.7682 358.299 74.742 358.293 74.7417C358.052 74.7325 358.164 74.7679 358.126 74.777Z" fill="#20E0A1"/>
<path fill-rule="evenodd" clip-rule="evenodd" d="M411.646 32.3126V32.8968C411.646 34.1565 413.581 34.6843 414.32 33.6751C415.143 32.5514 414.563 31.0094 413.088 31.0094C412.321 31.0094 411.646 31.5376 411.646 32.3126Z" fill="#20E0A1"/>
<path fill-rule="evenodd" clip-rule="evenodd" d="M411.419 21.6628C411.419 22.5138 412.246 23.2356 412.862 23.2356C413.382 23.2356 413.873 23.1786 414.266 22.7481C414.363 22.642 414.518 22.4176 414.57 22.2871C414.808 21.6936 414.745 21.0799 414.271 20.6626C414.138 20.5459 413.51 20.1799 413.313 20.1799C412.634 20.1799 411.925 20.4592 411.617 21.006C411.554 21.1182 411.419 21.5171 411.419 21.6628Z" fill="#20E0A1"/>
<path fill-rule="evenodd" clip-rule="evenodd" d="M352.58 72.4857C353.759 72.4857 355.153 71.2186 353.832 69.8897C353.682 69.7397 353.559 69.5925 353.392 69.4736C352.413 68.7745 351.552 69.4787 351.414 70.8295C351.363 71.3205 351.368 71.6739 351.621 71.9585C351.827 72.1906 352.164 72.4857 352.58 72.4857Z" fill="#20E0A1"/>
<path fill-rule="evenodd" clip-rule="evenodd" d="M400.462 21.7074C400.462 21.9467 400.52 22.1131 400.611 22.2785C400.67 22.3868 400.677 22.3983 400.759 22.4897L400.946 22.6627C401.298 22.9559 401.709 23.0555 402.221 23.0555C403.127 23.0555 403.663 22.1892 403.663 21.3029C403.663 20.8827 403.309 20.6184 403.018 20.4636C402.546 20.2127 402.318 20.1075 401.924 20.1975C401.175 20.3687 400.462 20.8303 400.462 21.7074Z" fill="#20E0A1"/>
<path fill-rule="evenodd" clip-rule="evenodd" d="M406.19 27.0545C406.19 27.4773 406.213 27.8312 406.494 28.1447C407.01 28.7215 408.187 28.6392 408.659 28.1678C409.003 27.8251 409.12 27.6627 409.12 27.0994C409.12 26.5505 408.767 25.9982 408.293 25.8121C407.935 25.6717 406.937 25.6937 406.583 26.0086C406.334 26.2304 406.19 26.6022 406.19 27.0545Z" fill="#20E0A1"/>
<path fill-rule="evenodd" clip-rule="evenodd" d="M389.687 76.5299C389.687 78.3401 392.482 78.2625 392.482 76.6198V75.9458C392.482 75.3455 391.915 74.9571 391.31 74.9571H390.949C390.118 74.9571 389.687 75.6941 389.687 76.5299Z" fill="#20E0A1"/>
<path fill-rule="evenodd" clip-rule="evenodd" d="M411.646 43.5919C411.646 45.5945 414.441 45.452 414.441 43.8166C414.441 43.1347 414.364 42.1539 413.404 42.1539C412.803 42.1539 412.47 42.1114 412.016 42.5681C411.781 42.8046 411.646 43.1386 411.646 43.5919Z" fill="#20E0A1"/>
<path fill-rule="evenodd" clip-rule="evenodd" d="M411.69 54.2883V54.558C411.69 55.6453 412.603 55.8611 413.493 55.8611C414.277 55.8611 415.201 54.4105 414.16 53.4443C413.345 52.6879 411.69 53.1743 411.69 54.2883Z" fill="#20E0A1"/>
<path fill-rule="evenodd" clip-rule="evenodd" d="M451.006 29.6165L451.725 29.5696C452.059 29.5835 452.072 29.6591 452.449 29.5716C452.612 29.232 452.442 28.8762 452.284 28.5669C451.802 27.6235 450.803 27.1431 449.666 27.0407C449.3 27.0078 448.932 27.1559 448.897 27.5576C448.87 27.8652 449.522 29.0166 449.931 29.2944C450.221 29.4912 450.623 29.6165 451.006 29.6165Z" fill="#20E0A1"/>
<path fill-rule="evenodd" clip-rule="evenodd" d="M395.189 71.0499C395.189 72.2689 396.114 72.2183 396.857 72.2183C397.873 72.2183 397.984 71.325 397.984 70.5556C397.984 70.1917 397.778 69.9314 397.566 69.7586C396.943 69.2497 395.189 69.3065 395.189 71.0499Z" fill="#20E0A1"/>
<path fill-rule="evenodd" clip-rule="evenodd" d="M384.277 27.2341C384.277 27.6789 384.477 28.012 384.78 28.2153C384.938 28.3208 385.066 28.3939 385.267 28.4489C386.763 28.8581 387.818 27.009 386.678 26.0087C386.425 25.7864 386.017 25.6842 385.621 25.7418C384.803 25.8609 384.277 26.4209 384.277 27.2341Z" fill="#20E0A1"/>
<path fill-rule="evenodd" clip-rule="evenodd" d="M362.273 48.8946C362.273 50.2055 363.824 50.7616 364.697 49.8279C365.17 49.322 365.651 47.5914 363.445 47.5914C362.661 47.5914 362.273 48.1387 362.273 48.8946Z" fill="#20E0A1"/>
<path fill-rule="evenodd" clip-rule="evenodd" d="M367.82 76.1255C367.82 77.525 368.257 77.6983 369.398 77.6983C370.877 77.6983 371.081 74.9571 369.037 74.9571C368.422 74.9571 367.82 75.5281 367.82 76.1255Z" fill="#20E0A1"/>
<path fill-rule="evenodd" clip-rule="evenodd" d="M407.407 61.2512C407.871 61.2512 408.331 61.2152 408.698 60.9644C409.212 60.6121 408.875 59.4188 408.606 59.0224C408.144 58.3401 406.372 58.2011 406.229 59.9005C406.166 60.658 406.703 61.2512 407.407 61.2512Z" fill="#20E0A1"/>
<path fill-rule="evenodd" clip-rule="evenodd" d="M400.734 65.2519C400.734 65.8847 401.146 66.7348 401.816 66.7348C402.582 66.7348 403.484 66.5238 403.484 65.6114C403.484 65.4231 403.452 65.471 403.448 65.3374C403.441 65.1222 403.484 65.2876 403.484 65.0721C403.484 64.2673 402.658 64.0835 401.906 64.0835C401.33 64.0835 400.734 64.6782 400.734 65.2519Z" fill="#20E0A1"/>
<path fill-rule="evenodd" clip-rule="evenodd" d="M356.864 65.2518C356.864 65.935 357.326 66.7348 357.991 66.7348C358.817 66.7348 359.614 66.5326 359.614 65.5664C359.614 64.1437 358.129 63.7274 357.352 64.3453C357.13 64.5218 356.864 64.8749 356.864 65.2518Z" fill="#20E0A1"/>
<path fill-rule="evenodd" clip-rule="evenodd" d="M362.364 59.9486C362.364 60.8314 363.325 61.3879 363.789 61.3257C364.526 61.227 365.024 60.5184 365.024 59.679C365.024 59.2265 364.835 59.0344 364.585 58.8131C364.193 58.4653 363.188 58.3492 362.723 58.9582C362.543 59.1935 362.364 59.5369 362.364 59.9486Z" fill="#20E0A1"/>
<path fill-rule="evenodd" clip-rule="evenodd" d="M362.319 70.7802C362.319 71.7923 363.308 72.2583 363.711 72.2484C364.276 72.2345 365.024 71.5418 365.024 70.7352C365.024 69.0532 362.319 69.064 362.319 70.7802Z" fill="#20E0A1"/>
<path fill-rule="evenodd" clip-rule="evenodd" d="M367.775 43.4111C367.775 43.8437 367.944 44.2271 368.167 44.4576C368.98 45.2972 370.548 44.8736 370.547 43.6363C370.547 43.105 370.306 42.6434 369.864 42.4068C369.108 42.0016 367.775 42.4324 367.775 43.4111Z" fill="#20E0A1"/>
<path fill-rule="evenodd" clip-rule="evenodd" d="M373.275 37.9303C373.275 39.8079 374.947 39.5923 375.509 38.9882C375.75 38.7287 375.879 38.4617 375.998 38.0807C376.094 37.776 376.013 37.6814 375.626 37.2042C375.557 37.1188 375.379 36.934 375.286 36.8699C374.544 36.3598 373.275 36.9022 373.275 37.9303Z" fill="#20E0A1"/>
<path fill-rule="evenodd" clip-rule="evenodd" d="M356.817 54.8717C356.817 55.038 356.904 55.2287 356.989 55.3292C357.24 55.6249 358.027 55.7705 358.44 55.7705C359.019 55.7705 359.338 55.2014 359.484 54.743C359.586 54.4205 359.538 54.2773 359.402 53.9582C358.967 52.9432 356.817 52.3316 356.817 54.8717Z" fill="#20E0A1"/>
<path fill-rule="evenodd" clip-rule="evenodd" d="M378.775 76.3951C378.775 77.3015 380.136 78.2838 381.086 77.2155C381.828 76.381 381.569 74.9571 379.947 74.9571C379.215 74.9571 378.775 75.7958 378.775 76.3951Z" fill="#20E0A1"/>
<path fill-rule="evenodd" clip-rule="evenodd" d="M396.45 28.4495C396.915 28.4495 397.219 28.4201 397.553 27.9756C398.043 27.3242 398.137 26.736 397.545 26.1454C397.143 25.7454 396.423 25.6261 395.955 25.889C395.882 25.9302 395.846 25.9684 395.78 26.0286C395.48 26.3 395.311 26.6634 395.248 27.12C395.159 27.7724 395.875 28.4495 396.45 28.4495Z" fill="#20E0A1"/>
<path fill-rule="evenodd" clip-rule="evenodd" d="M373.275 70.8702C373.275 71.5209 373.698 71.7961 374.174 72.0858C374.534 72.3044 374.419 72.3014 374.892 72.1227C375.656 71.8343 376.264 71.0753 375.922 70.2986C375.671 69.7273 375.068 69.5221 374.402 69.5221C373.778 69.5221 373.275 70.2327 373.275 70.8702Z" fill="#20E0A1"/>
<path fill-rule="evenodd" clip-rule="evenodd" d="M397.938 37.9751C397.938 37.5764 397.834 37.2882 397.59 37.064C397.466 36.95 396.962 36.672 396.766 36.672C396.361 36.672 395.716 37.0117 395.438 37.4155C394.796 38.3459 395.871 39.8439 397.113 39.2649C397.536 39.0678 397.938 38.5756 397.938 37.9751Z" fill="#20E0A1"/>
<path fill-rule="evenodd" clip-rule="evenodd" d="M373.319 49.0738C373.319 50.1176 374.702 50.7234 375.558 49.8678C375.795 49.632 376.024 49.1854 376.024 48.7592C376.024 48.6192 375.9 48.4143 375.845 48.3085C375.22 47.0964 373.319 47.4851 373.319 49.0738Z" fill="#20E0A1"/>
<path fill-rule="evenodd" clip-rule="evenodd" d="M400.734 32.4487C400.734 33.1625 401.192 33.9766 401.906 33.9766C402.2 33.9766 402.433 33.9699 402.681 33.8054C403.09 33.5345 403.484 32.617 403.484 32.4038C403.484 32.0498 402.321 30.615 401.173 31.6283C400.992 31.7885 400.734 32.1363 400.734 32.4487Z" fill="#20E0A1"/>
<path fill-rule="evenodd" clip-rule="evenodd" d="M378.775 43.5935C378.775 44.6365 380.168 45.3906 381.086 44.3688C381.285 44.1464 381.525 43.5766 381.525 43.3688C381.525 42.8764 380.818 42.2005 380.127 42.2005C379.395 42.2005 378.775 42.8605 378.775 43.5935Z" fill="#20E0A1"/>
<path fill-rule="evenodd" clip-rule="evenodd" d="M400.689 43.4588C400.689 43.956 400.845 44.2289 401.104 44.4824C401.466 44.8362 401.836 44.8968 402.357 44.8968C403.258 44.8968 403.766 43.403 403.069 42.6593C402.785 42.3567 402.579 42.3846 402.129 42.4227C401.69 42.46 401.371 42.4001 401.106 42.6161C400.874 42.8044 400.689 43.0591 400.689 43.4588Z" fill="#20E0A1"/>
<path fill-rule="evenodd" clip-rule="evenodd" d="M384.277 38.0653C384.277 39.1554 385.69 39.9424 386.564 38.9065C386.892 38.5166 387.141 38.0086 386.879 37.494C386.796 37.3311 386.688 37.2535 386.566 37.1317C385.717 36.2845 384.277 36.914 384.277 38.0653Z" fill="#20E0A1"/>
<path fill-rule="evenodd" clip-rule="evenodd" d="M380.308 33.8415C381.023 33.8415 381.395 33.0299 381.536 32.4535C381.595 32.2133 380.798 31.2351 380.218 31.2351C379.747 31.2351 379.42 31.2275 379.108 31.7467C378.909 32.0793 378.492 33.197 379.225 33.5734C379.507 33.7185 379.879 33.8415 380.308 33.8415Z" fill="#20E0A1"/>
<path fill-rule="evenodd" clip-rule="evenodd" d="M389.957 32.2677C389.957 32.4482 389.99 32.4121 389.989 32.5372L389.957 32.9867C389.957 33.8108 391.306 34.371 392.064 33.4685C392.184 33.3251 392.258 33.2041 392.335 33.0201C393.051 31.3211 390.521 30.7686 390.064 31.8346C390.03 31.9146 389.957 32.1811 389.957 32.2677Z" fill="#20E0A1"/>
<path fill-rule="evenodd" clip-rule="evenodd" d="M368.045 54.0188C368.045 54.7007 367.923 55.2224 368.412 55.5401C369.45 56.2143 370.53 55.3114 370.507 54.4284C370.478 53.2853 369.099 52.8037 368.417 53.3559C368.229 53.5078 368.045 53.6963 368.045 54.0188Z" fill="#20E0A1"/>
<path fill-rule="evenodd" clip-rule="evenodd" d="M368.811 66.5094C369.018 66.5094 369.016 66.4688 369.168 66.4734C369.583 66.4859 369.76 66.6535 370.199 66.185C370.471 65.8952 370.48 65.5612 370.48 65.2062C370.48 64.3667 369.166 63.5773 368.325 64.3623C367.342 65.2801 367.993 66.5094 368.811 66.5094Z" fill="#20E0A1"/>
<path fill-rule="evenodd" clip-rule="evenodd" d="M406.414 48.6713L406.441 48.9812C406.437 49.1425 406.295 49.4491 406.521 49.7777C406.738 50.0916 407.027 50.1452 407.483 50.2144C408.365 50.3485 408.894 49.6569 408.894 48.7612C408.894 47.5428 406.414 47.1596 406.414 48.6713Z" fill="#20E0A1"/>
<path fill-rule="evenodd" clip-rule="evenodd" d="M354.833 105.066C355.217 105.066 355.612 103.491 354.595 102.293C354.339 101.992 353.677 101.479 353.255 101.381C353.255 102.256 353.114 103.203 353.35 103.848C353.565 104.436 354.342 105.066 354.833 105.066Z" fill="#20E0A1"/>
<path fill-rule="evenodd" clip-rule="evenodd" d="M384.457 70.6424C384.457 72.9715 386.982 72.3598 386.982 70.6873C386.982 69.8989 385.871 69.579 385.771 69.5785C385.592 69.5776 385.021 69.7556 384.881 69.8511C384.66 70.0015 384.457 70.2952 384.457 70.6424Z" fill="#20E0A1"/>
<path fill-rule="evenodd" clip-rule="evenodd" d="M400.913 54.3332C400.913 54.9869 401.083 55.5915 401.815 55.5915C402.025 55.5915 401.876 55.5375 402.118 55.5585C402.209 55.5664 402.274 55.5915 402.446 55.5915C403.776 55.5915 403.7 53.1199 402.086 53.1199C401.391 53.1199 400.913 53.6391 400.913 54.3332Z" fill="#20E0A1"/>
<path fill-rule="evenodd" clip-rule="evenodd" d="M389.957 65.6127C389.957 66.3698 390.491 66.6912 391.22 66.6912C392.176 66.6912 392.824 65.4017 391.999 64.611C391.353 63.991 389.957 64.1213 389.957 65.6127Z" fill="#20E0A1"/>
<path fill-rule="evenodd" clip-rule="evenodd" d="M406.505 38.0201C406.505 39.2393 407.349 39.1884 408.083 39.1884C408.547 39.1884 408.698 38.6168 408.758 38.1982C409.029 36.3066 406.505 36.4181 406.505 38.0201Z" fill="#20E0A1"/>
<path fill-rule="evenodd" clip-rule="evenodd" d="M391.219 44.5802C391.652 44.5802 391.823 44.4673 392.077 44.1317C392.419 43.6795 392.466 43.7316 392.373 43.342C392.068 42.0694 390.809 41.9516 390.236 42.5221C389.57 43.1852 390.279 44.5802 391.219 44.5802Z" fill="#20E0A1"/>
<path fill-rule="evenodd" clip-rule="evenodd" d="M373.501 60.0831C373.501 61.5791 375.531 61.5108 375.772 59.9608C375.918 59.0191 375.224 58.8248 374.403 58.8248C373.658 58.8248 373.501 59.3516 373.501 60.0831Z" fill="#20E0A1"/>
<path fill-rule="evenodd" clip-rule="evenodd" d="M395.504 60.1289C395.504 60.8391 396.355 61.0726 397.082 61.0726C398.057 61.0726 398.311 58.7807 396.586 58.7807C395.848 58.7807 395.504 59.3983 395.504 60.1289Z" fill="#20E0A1"/>
<path fill-rule="evenodd" clip-rule="evenodd" d="M379.993 66.5083C381.333 66.5083 381.649 65.1069 380.561 64.459C380.376 64.3486 380.223 64.2279 380.005 64.3136C379.517 64.5056 379.026 65.1643 379.137 65.7412C379.21 66.1237 379.545 66.5083 379.993 66.5083Z" fill="#20E0A1"/>
<path fill-rule="evenodd" clip-rule="evenodd" d="M390.409 22.5167C390.409 23.4484 390.8 23.3256 391.491 23.3256C392.517 23.3256 392.972 21.663 392.528 21.663H390.995C390.588 21.663 390.409 22.1012 390.409 22.5167Z" fill="#20E0A1"/>
<path fill-rule="evenodd" clip-rule="evenodd" d="M395.728 48.8934C395.728 49.4803 396.003 49.5621 396.451 49.7909C396.627 49.881 396.625 49.9231 396.765 50.0168C397.397 49.6836 397.712 49.6253 397.712 48.9833C397.712 48.7076 397.548 48.408 397.408 48.2523C396.9 47.6838 396.674 47.91 396.118 48.2488C395.896 48.3844 395.728 48.5577 395.728 48.8934Z" fill="#20E0A1"/>
<path fill-rule="evenodd" clip-rule="evenodd" d="M385.404 49.5682C386.429 49.5682 386.353 48.1751 385.63 48.1751C385.315 48.1751 384.952 48.5156 384.887 48.7862C384.834 49.0061 384.969 49.5682 385.404 49.5682Z" fill="#20E0A1"/>
<path fill-rule="evenodd" clip-rule="evenodd" d="M379.317 54.4228C379.317 55.0312 379.943 55.0069 380.309 55.0069C380.895 55.0069 380.842 53.8835 380.309 53.8835C379.941 53.8835 379.317 53.9378 379.317 54.4228Z" fill="#20E0A1"/>
<path fill-rule="evenodd" clip-rule="evenodd" d="M385.088 59.8584C385.088 60.6554 386.17 60.707 386.17 59.6787C386.17 59.1109 385.088 59.3506 385.088 59.8584Z" fill="#20E0A1"/>
<path d="M457.993 204H437V83.5649H457.993V204ZM486.872 102.027C484.11 100.985 481.17 100.498 478.219 100.592C472.962 100.592 468.849 101.904 465.879 104.527C462.761 107.38 460.609 111.13 459.719 115.258C458.512 120.33 457.932 125.531 457.993 130.743H448.541C448.374 121.966 450.119 113.257 453.656 105.218C456.634 98.3759 461.174 92.3224 466.913 87.5426C472.326 83.1819 477.832 81.0015 483.43 81.0015C487.563 80.9662 491.678 81.5391 495.642 82.7035C499.62 83.9825 503.192 86.2821 506 89.3715L494.48 106.601C492.13 104.788 489.577 103.253 486.872 102.027Z" fill="black"/>
</svg>
