<svg width="264" height="221" viewBox="0 0 264 221" fill="none" xmlns="http://www.w3.org/2000/svg">
<path d="M180.482 220.352H157.84V0H180.482V220.352ZM234.424 116.947C229.824 111.484 222.887 108.753 213.611 108.753C207.535 108.618 201.53 110.083 196.201 112.999C191.318 115.695 187.293 119.708 184.587 124.58C181.789 129.704 180.374 135.466 180.482 141.301H173.134C172.951 131.785 174.982 122.356 179.067 113.757C182.738 106.092 188.351 99.517 195.35 94.6828C202.404 89.9274 210.757 87.4625 219.268 87.6243C228.329 87.6243 236.211 89.5066 242.91 93.2711C249.735 97.1742 255.176 103.097 258.48 110.222C262.159 117.766 264 127.185 264 138.477V220.409H241.358V141.301C241.358 130.52 239.047 122.403 234.424 116.947Z" fill="black"/>
<path fill-rule="evenodd" clip-rule="evenodd" d="M106.456 192.822C106.456 191.775 106.786 191.156 107.587 190.408C108.129 189.902 108.904 189.477 109.702 189.425C111.168 189.329 112.78 190.897 112.78 192.697C112.78 195.505 109.578 196.871 107.556 194.831C107.105 194.376 106.456 193.519 106.456 192.822ZM152.834 192.822C152.834 191.826 153.471 190.94 154.218 190.538C155.175 190.023 155.796 190.122 156.582 191.175C158.454 193.683 156.193 195.002 154.88 195.002C154.181 195.002 152.834 193.584 152.834 192.822ZM137.768 192.448C137.768 190.544 140.267 189.529 141.504 190.938C142.586 192.172 142.245 193.688 140.92 194.556C140.792 194.639 140.354 194.877 140.186 194.877C139.577 194.877 138.792 194.484 138.464 194.178C138.065 193.807 137.768 193.199 137.768 192.448ZM124.747 195.064C124.476 195.064 123.966 194.975 123.731 194.902C122.672 194.57 122.267 193.568 122.267 192.511C122.267 191.302 124.136 188.332 126.5 190.759C127.364 191.645 127.759 192.378 127.208 193.488C127.098 193.708 126.791 194.125 126.617 194.265C126.108 194.675 125.465 195.064 124.747 195.064ZM99.2638 185.1C99.2638 183.563 100.574 181.862 102.302 181.862C103.577 181.862 105.216 183.598 105.216 184.851C105.216 185.842 105.103 186.431 104.269 187.138C103.079 188.145 99.2638 188.565 99.2638 185.1ZM162.817 186.594C162.271 186.594 161.848 186.625 161.436 186.176C160.597 185.261 161.345 183.418 162.259 183.418C163.273 183.418 164.186 183.6 164.29 184.929C164.355 185.75 163.579 186.594 162.817 186.594ZM175.527 184.788C175.527 184.217 175.974 183.841 176.395 183.542C178.004 182.397 179.868 183.174 179.868 184.726C179.868 185.482 179.917 186.068 179.296 186.644C178.713 187.185 177.69 187.093 176.891 187.093C176.423 187.093 176.111 186.561 175.961 186.221C175.866 186.005 175.527 185.045 175.527 184.788ZM117.307 182.235C118.592 182.235 120.683 183.906 119.685 185.869C118.888 187.436 116.743 188.175 115.437 186.542C113.502 184.124 116.107 182.235 117.307 182.235ZM147.626 182.983C148.97 182.983 149.81 184.92 148.787 186.141C147.862 187.246 145.853 186.726 145.655 184.833C145.59 184.215 145.96 183.84 146.314 183.595C146.447 183.503 147.495 182.983 147.626 182.983ZM132.621 187.093C130.077 187.093 129.614 184.375 130.876 183.222C132.903 181.369 135.923 184.052 134.069 186.305C133.879 186.535 133.728 186.66 133.465 186.819C133.293 186.925 132.859 187.093 132.621 187.093ZM91.4515 177.44C91.4515 175.868 91.9266 174.951 93.3953 174.473C94.5744 174.089 96.1119 174.246 96.8943 175.087C98.0199 176.296 97.9578 178.456 96.8791 179.466C96.0929 180.203 94.5275 180.514 93.3809 180.11C92.2995 179.73 91.4515 178.751 91.4515 177.44ZM183.712 177.565C183.712 176.27 184.298 175.87 185.465 175.775C186.74 175.671 187.971 177.137 186.832 178.706C186.441 179.243 186.141 179.252 185.629 179.19C185.075 179.123 184.674 179.043 184.295 178.785C183.951 178.552 183.712 178.112 183.712 177.565ZM106.828 177.378C106.828 176.286 107.645 175.158 108.584 174.658C109.791 174.015 110.745 174.232 111.68 175.182C112.197 175.708 112.718 176.234 112.718 177.191C112.718 178.945 111.447 179.789 109.834 179.892C108.412 179.983 106.828 178.782 106.828 177.378ZM137.768 177.191C137.768 176.556 139.013 174.88 140.362 175.081C140.772 175.142 141.205 175.35 141.464 175.658C141.921 176.204 142.304 177.218 141.942 178.083C141.329 179.551 139.454 179.889 138.466 178.731C138.218 178.44 137.768 177.69 137.768 177.191ZM170.257 175.821C172.119 175.821 172.186 178.748 169.761 178.748C168.448 178.748 168.197 175.821 170.257 175.821ZM125.739 179.557H124.189C123.056 179.557 122.329 178.461 122.329 177.315C122.329 176.6 122.379 176.373 122.859 175.73C123.105 175.402 123.458 175.136 123.816 174.948C124.831 174.413 125.64 174.697 126.422 175.259C126.739 175.487 127.027 175.851 127.226 176.195C127.652 176.932 127.338 178.23 126.882 178.9C126.665 179.219 126.237 179.557 125.739 179.557ZM155.19 178.81C153.672 178.81 153.516 178.168 153.516 176.942C153.516 175.535 155.482 175.203 156.295 175.957C156.682 176.317 156.564 176.577 156.502 177.138C156.442 177.668 156.669 178.49 155.836 178.711C155.701 178.747 155.321 178.81 155.19 178.81ZM83.5151 169.78C83.5151 167.982 85.4962 166.044 87.2973 166.044C88.2717 166.044 88.913 166.642 89.4209 167.149C91.8606 169.586 89.9079 173.081 87.2353 173.081C86.1086 173.081 85.3906 172.668 84.6781 172.037C84.0685 171.497 83.5151 170.676 83.5151 169.78ZM192.764 171.462C192.167 171.462 191.733 171.104 191.5 170.614C190.95 169.456 192.104 168.41 192.64 168.41C193.249 168.41 193.832 168.522 194.268 168.954C194.854 169.535 194.438 171.462 192.764 171.462ZM98.8918 169.531C98.8918 167.902 100.655 166.355 101.992 166.355C102.683 166.355 103.034 166.322 103.689 166.644C104.03 166.811 104.216 166.982 104.458 167.241C105.247 168.088 105.216 169.167 105.216 170.216C105.216 171.665 103.951 172.707 102.364 172.707H102.054C100.44 172.707 98.8918 171.152 98.8918 169.531ZM132.435 172.333C131.163 172.333 129.831 170.967 129.831 169.718C129.831 168.855 130 168.498 130.682 167.833C133.229 165.351 137.241 169.809 133.441 172.036C133.249 172.148 132.708 172.333 132.435 172.333ZM117.183 166.729C118.176 166.729 118.8 166.883 119.462 167.553C121.787 169.911 118.875 172.707 117.307 172.707C116.877 172.707 116.515 172.53 116.21 172.376L115.344 171.752C113.923 170.331 113.953 168.072 116.004 167.039C116.357 166.862 116.646 166.729 117.183 166.729ZM176.519 169.282C176.519 168.348 177.767 167.883 178.615 168.734C179.31 169.432 179.201 169.94 178.638 170.663C177.94 171.56 176.519 171.199 176.519 169.282ZM147.316 171.773C146.514 171.773 145.185 170.487 145.302 169.628C145.454 168.512 146.348 167.476 147.44 167.476C147.998 167.476 148.494 167.928 148.823 168.204C149.114 168.447 149.106 168.447 149.344 168.74C149.417 168.83 149.734 169.32 149.734 169.407C149.734 169.99 149.289 170.714 148.999 171.035C148.647 171.424 147.886 171.773 147.316 171.773ZM162.817 171.15C162.276 171.15 161.781 171.176 161.412 170.631C160.782 169.699 161.006 167.974 162.321 167.974C162.894 167.974 163.296 167.968 163.759 168.336C164.141 168.64 164.126 168.882 164.067 169.416C164.004 169.994 163.944 171.15 162.817 171.15ZM152.772 162.245C152.772 159.265 155.884 159.538 156.689 160.553C157.002 160.946 157.236 161.67 157.236 162.369C157.236 162.993 155.881 164.362 155.128 164.362C154.975 164.362 154.469 164.14 154.304 164.069C153.554 163.745 152.772 163.158 152.772 162.245ZM168.583 162.12C168.583 159.637 171.621 160.069 171.621 161.684C171.621 163.827 171.209 163.615 169.513 163.615C169.206 163.615 168.931 163.36 168.808 163.14C168.69 162.927 168.583 162.419 168.583 162.12ZM124.995 159.131C126.612 159.131 127.847 160.348 127.847 161.871C127.847 162.878 127.667 163.392 126.902 164.16C125.55 165.518 124.133 165.353 122.806 164.133L122.142 163.304C121.342 161.776 122.275 159.131 124.995 159.131ZM90.9555 162.058C90.9555 159.777 92.5563 158.384 94.9236 158.384C97.3092 158.384 99.2965 161.14 98.1084 163.575C97.7206 164.37 97.0305 164.943 96.2014 165.272C94.8191 165.821 93.2467 165.507 92.0618 164.559C91.773 164.328 91.4813 163.88 91.3055 163.512C91.1472 163.182 90.9555 162.51 90.9555 162.058ZM137.334 161.996C137.334 159.735 140.043 158.158 141.722 159.954C142.529 160.818 142.835 162.38 142.255 163.317C142.213 163.385 142.228 163.354 142.175 163.43C141.722 164.072 140.902 164.736 140.124 164.736C138.987 164.736 138.446 164.504 137.755 163.445L137.544 163.031C137.46 162.813 137.334 162.256 137.334 161.996ZM109.99 165.483H109.618C107.992 165.483 106.456 163.826 106.456 162.183C106.456 160.893 106.579 160.533 107.358 159.539C107.555 159.288 107.906 159.042 108.179 158.869C108.736 158.515 109.218 158.508 109.866 158.508C111.282 158.508 114.878 160.882 112.17 164.248C111.79 164.72 110.812 165.483 109.99 165.483ZM200.576 163.802C199.949 163.802 198.964 163.165 198.964 162.369C198.964 161.019 200.519 160.057 201.586 161.168C201.751 161.34 202.136 161.894 202.102 162.158C202.034 162.688 201.499 163.802 200.576 163.802ZM185.448 160.813C185.924 160.813 186.626 161.399 186.626 162.183C186.626 163.161 185.432 164.042 184.437 163.011C184.153 162.716 183.926 162.012 184.092 161.507C184.268 160.972 185.345 160.813 185.448 160.813ZM78.4928 158.322C79.7177 158.322 81.1206 158.329 82.1494 158.885C83.6864 159.717 84.3152 163.902 81.0773 165.526C80.1289 166.001 78.9803 166.024 78.0128 165.654C77.6795 165.527 77.1651 165.211 76.9598 164.968C75.6326 163.398 75.2238 159.885 77.1534 158.72C77.4447 158.544 78.0646 158.322 78.4928 158.322ZM206.343 154.772V154.46C206.343 153.671 207.063 152.904 208.017 152.904C209.967 152.904 210.526 156.453 208.079 156.453C207.541 156.453 207.086 156.332 206.792 156.064C206.527 155.823 206.343 155.276 206.343 154.772ZM175.837 154.834V154.523C175.837 153.001 178.248 152.055 178.94 153.4C180.711 156.843 175.837 157.011 175.837 154.834ZM129.087 154.772C129.087 153.649 129.341 153.156 129.99 152.316C131.121 150.852 132.946 151.003 134.347 151.917C135.488 152.662 135.411 153.64 135.411 154.71C135.411 157.158 132.657 158.593 130.176 156.73C129.715 156.385 129.087 155.542 129.087 154.772ZM144.526 154.585C144.526 153.264 146.19 151.596 147.192 151.596C148.119 151.596 148.68 151.815 149.255 152.389C149.929 153.061 150.106 153.612 150.106 154.585C150.106 158.615 144.526 157.539 144.526 154.585ZM113.587 154.46C113.587 153.348 113.976 152.662 114.453 152.031C114.817 151.549 115.794 150.849 116.625 150.849C117.919 150.849 118.753 151.012 119.831 151.925C120.13 152.179 120.417 152.578 120.63 152.929C122.484 155.99 117.506 159.816 114.656 156.936C114.029 156.303 113.587 155.455 113.587 154.46ZM191.586 154.274C191.586 153.255 192.809 152.662 193.71 153.641C194.292 154.272 194.334 154.837 193.772 155.473C192.887 156.474 191.586 155.89 191.586 154.274ZM102.364 158.322C99.6371 158.322 98.5198 156.681 98.5198 154.025C98.5198 150.574 98.8606 150.849 103.356 150.849C104.35 150.849 105.237 151.059 105.673 151.947C106.019 152.652 106.051 154.066 105.95 155.011C105.762 156.777 104.326 158.322 102.364 158.322ZM162.631 156.765H162.197C161.324 156.765 160.089 155.475 160.089 154.585C160.089 153.605 160.838 152.897 161.576 152.404C162.462 151.812 163.297 152.143 164.17 152.728C164.572 152.997 164.95 153.587 164.847 154.318C164.738 155.087 164.809 156.064 163.59 156.545C163.333 156.646 162.952 156.765 162.631 156.765ZM125.243 150.724C124.001 150.724 123.039 150.459 122.219 149.652C121.257 148.705 121.151 147.706 121.151 146.365C121.151 144.184 122.396 143.251 124.499 143.251C125.818 143.251 126.509 143.378 127.476 144.131C128.08 144.6 128.591 145.596 128.591 146.365V147.05C128.591 148.476 126.457 150.724 125.243 150.724ZM167.591 147.05C167.591 146.321 168.045 145.654 168.583 145.243C168.82 145.062 168.996 144.86 169.284 144.703C169.598 144.532 169.848 144.375 170.223 144.413C172.003 144.595 173.099 147.459 171.77 148.694C170.205 150.148 167.591 148.394 167.591 147.05ZM185.076 148.731C184.49 148.731 183.258 147.992 183.451 146.854C183.532 146.376 183.74 145.889 184.005 145.6C184.766 144.77 186.808 144.923 186.982 147.067C187.027 147.619 186.703 148.019 186.377 148.232C186.109 148.406 185.317 148.731 185.076 148.731ZM154.818 143.998C156.395 143.998 158.833 145.863 157.776 147.965C156.961 149.587 154.892 149.958 153.659 149.335C151.656 148.322 151.699 146.095 152.879 144.853C153.293 144.418 153.969 143.998 154.818 143.998ZM200.266 148.482C200.211 148.482 198.902 147.695 198.902 147.112C198.902 146.647 198.976 146.264 199.352 145.945C200.767 144.743 202.681 146.476 201.276 147.877C201.112 148.041 200.525 148.482 200.266 148.482ZM136.59 146.489C136.59 145.737 137.061 144.775 137.564 144.293C139.272 142.653 141.413 143.238 142.593 145.006C142.714 145.187 142.826 145.339 142.935 145.534C143.431 146.423 143.463 147.426 143.027 148.347C142.379 149.719 140.935 150.039 139.318 150.039C137.515 150.039 136.59 147.987 136.59 146.489ZM147.316 142.815C145.615 142.815 143.782 140.885 143.782 139.452C143.782 138.541 143.977 138.048 144.574 137.32C147.465 133.79 150.85 136.796 150.85 138.829C150.85 140.663 150.31 141.761 148.806 142.505C148.442 142.685 147.864 142.815 147.316 142.815ZM159.593 139.203C159.593 138.345 159.955 137.809 160.335 137.333C160.949 136.564 161.861 136.463 162.755 136.463C163.47 136.463 164.211 136.929 164.625 137.263C166.833 139.045 164.599 142.379 162.755 142.379C161.181 142.379 159.593 140.784 159.593 139.203ZM206.405 139.141C206.405 137.484 209.319 137.643 209.319 138.954C209.319 140.568 208.761 140.885 207.459 140.885C206.767 140.885 206.405 139.893 206.405 139.141ZM192.888 141.196C190.155 141.196 190.295 137.584 192.95 137.584C193.676 137.584 194.054 138.275 194.388 138.755C194.565 139.008 194.661 138.996 194.582 139.339C194.469 139.832 194.303 140.2 194.042 140.548C193.814 140.852 193.381 141.196 192.888 141.196ZM177.511 141.694C176.718 141.694 176.209 141.468 175.827 140.957C175.597 140.651 175.217 139.711 175.217 139.203C175.217 138.274 176.65 136.837 177.449 136.837C177.62 136.837 178.198 137.036 178.363 137.103C178.731 137.251 178.872 137.33 179.175 137.532C180.047 138.117 180.006 139.498 179.745 140.201C179.382 141.179 178.551 141.694 177.511 141.694ZM185.2 134.097C183.456 134.097 182.968 133.041 182.968 131.419C182.968 129.653 185.229 128.741 186.698 129.851C187.489 130.45 187.432 131.074 187.432 131.855C187.432 133.147 186.486 134.097 185.2 134.097ZM167.157 131.855C167.157 131.011 167.303 130.241 167.915 129.627C168.117 129.423 168.438 129.235 168.707 129.114C169.737 128.652 171.562 128.743 172.367 129.798C172.777 130.337 173.101 131.315 173.104 131.98C173.108 133.112 171.051 135.747 168.989 134.498C168.558 134.237 168.501 134.169 168.164 133.832C167.728 133.394 167.157 132.69 167.157 131.855ZM198.468 131.73C198.468 130.537 199.042 129.986 200.142 129.986C202.333 129.986 202.517 132.247 201.649 133.119C200.728 134.043 198.468 133.965 198.468 131.73ZM151.284 131.73C151.284 129.843 153.173 128.118 154.88 128.118C156.526 128.118 157.543 128.846 158.147 130.255C158.678 131.493 158.383 133.196 157.591 134.141L157.079 134.614C155.963 135.45 154.275 135.366 153.081 134.786L152.883 134.679C151.887 134.035 151.284 132.908 151.284 131.73ZM215.209 130.111C216.59 130.111 217.255 131.004 217.255 132.353C217.255 133.431 216.15 133.598 215.209 133.598C213.674 133.598 213.934 132.129 213.89 131.809C213.749 130.784 214.183 130.111 215.209 130.111ZM158.849 124.319C158.849 122.97 159.214 122.436 160.042 121.594C161.289 120.326 163.484 120.099 164.88 121.438C166.841 123.318 166.13 127.682 162.383 127.682C160.415 127.682 158.849 126.128 158.849 124.319ZM207.955 126.125C206.627 126.125 205.971 125.497 205.971 124.07C205.971 122.53 207 122.522 207.849 122.404C209.406 122.188 209.962 123.515 209.569 124.944C209.377 125.644 208.76 126.125 207.955 126.125ZM177.697 127.309C176.457 127.309 175.265 126.202 174.915 125.255C174.911 125.244 174.869 125.114 174.868 125.11C174.357 123.56 174.773 121.756 176.398 121.395C180.25 120.54 182.135 124.338 179.258 126.634C178.945 126.884 178.223 127.309 177.697 127.309ZM190.222 124.008C190.222 123.497 190.73 122.867 191.062 122.61C191.287 122.436 191.454 122.266 191.689 122.119C191.898 121.989 192.239 121.786 192.519 121.764C193.253 121.705 194.996 122.451 194.996 123.883C194.996 124.981 194.565 125.961 193.608 126.35C192.647 126.741 191.474 126.562 190.94 125.778C190.656 125.362 190.222 124.391 190.222 124.008ZM170.381 120.085C169.196 120.085 168.41 119.924 167.554 119.25C166.484 118.406 166.413 117.496 166.413 116.348C166.413 115.203 167.463 113.891 168.479 113.379C170.752 112.232 173.481 113.554 173.481 116.784C173.481 117.724 173.071 118.596 172.599 119.074C172.016 119.664 171.293 120.085 170.381 120.085ZM182.224 116.597C182.224 113.56 185.535 112.973 187.2 114.65C189.84 117.308 186.417 119.711 185.2 119.711C183.7 119.711 182.224 118.115 182.224 116.597ZM213.163 116.66C213.163 115.712 214.848 114.48 215.519 114.48C215.809 114.48 216.647 115.087 216.839 115.272C217.87 116.266 217.767 117.179 216.806 118.139C216.395 118.549 216.056 118.901 215.395 118.901C214.696 118.901 213.795 118.172 213.451 117.492C213.358 117.309 213.163 116.885 213.163 116.66ZM197.724 116.535C197.724 115.659 199.468 114.106 200.328 114.106C201.537 114.106 202.499 115.563 202.499 116.971C202.499 117.513 202.427 117.809 202.084 118.236C201.313 119.194 199.261 119.275 198.449 118.173C198.235 117.882 197.724 116.971 197.724 116.535ZM205.289 109.062C205.289 108.081 206.832 106.571 208.017 106.571C208.963 106.571 210.373 107.872 210.373 108.813C210.373 109.702 210.185 110.134 209.552 110.729C208.849 111.391 206.807 111.834 206.03 110.808C205.765 110.457 205.289 109.531 205.289 109.062ZM192.826 112.113C191.16 112.113 189.788 110.43 189.788 109.311C189.788 108.38 189.933 107.632 190.607 106.958C191.461 106.103 192.577 105.937 193.713 106.428C194.58 106.803 195.74 107.886 195.74 109C195.74 110.335 194.138 112.113 192.826 112.113ZM173.915 109.186C173.915 107.378 175.733 105.388 177.511 105.388C180.363 105.388 182.308 109.196 180.038 111.475C179.726 111.789 179.453 112.009 179.009 112.186C178.82 112.261 178.574 112.36 178.365 112.41C176.577 112.838 174.996 112.02 174.285 110.621C174.11 110.276 173.915 109.706 173.915 109.186ZM215.147 98.9734H215.581C216.649 98.9734 218.98 100.965 217.416 103.059C216.452 104.35 214.693 104.157 213.533 103.272C211.649 101.833 213.631 98.9734 215.147 98.9734ZM197.29 101.464C197.29 99.9499 198.654 98.5997 199.894 98.5997C200.897 98.5997 201.363 98.8296 202.114 99.4845C202.315 99.6604 202.277 99.6129 202.457 99.8247C203.153 100.645 203.181 100.832 203.181 101.776C203.181 102.482 202.698 103.185 202.306 103.513C200.507 105.017 197.29 103.963 197.29 101.464ZM185.014 104.952C183.5 104.952 181.48 103.239 181.48 101.527C181.48 100.555 182.03 99.697 182.642 99.0823C185.855 95.855 188.548 99.8779 188.548 101.091C188.548 102.412 187.891 104.06 186.557 104.634C186.195 104.79 185.514 104.952 185.014 104.952ZM207.893 96.9806C206.401 96.9806 204.855 95.126 204.855 94.1782C204.855 92.4324 206.613 91.0021 207.769 91.0021C208.834 91.0021 209.855 91.9477 210.386 92.7951C211.563 94.6742 209.323 96.9806 207.893 96.9806ZM196.112 93.9291C196.112 94.3976 195.912 94.9365 195.739 95.2351C195.175 96.2034 193.883 97.3543 192.764 97.3543C191.899 97.3543 191.308 97.2305 190.67 96.5926C190.191 96.1137 189.934 95.8127 189.645 95.1314C188.116 91.5279 193.008 88.8293 195.449 92.1046C195.821 92.6049 196.112 93.2684 196.112 93.9291ZM175.155 90.1926L176.88 90.3101C178.178 90.2023 179.584 90.1237 180.566 91.1098C182.128 92.6772 181.584 97.1249 178.946 97.674C178.357 97.7965 176.759 97.9331 176.048 97.7752C175.821 97.7248 175.688 97.6579 175.505 97.5634C174.15 96.862 173.905 96.4721 173.914 94.7395C173.92 93.768 173.931 92.7451 173.855 91.8692C173.813 91.3814 173.943 90.9417 174.151 90.6789C174.376 90.3956 174.769 90.1926 175.155 90.1926ZM185.262 90.1926C184.079 90.1926 183.061 89.8778 182.424 89.182C181.53 88.2062 181.48 87.021 181.48 85.7088C181.48 83.337 182.877 82.524 185.203 82.7147C186.345 82.8083 186.881 82.9211 187.76 83.5728C188.801 84.344 188.92 85.388 188.92 86.5806C188.92 87.4911 188.232 88.5477 187.759 89.0261C187.229 89.5618 186.295 90.1926 185.262 90.1926ZM215.085 83.4669H215.643C217.458 83.4669 218.309 84.9316 218.309 86.7675C218.309 87.752 216.555 89.4453 215.581 89.4453C214.158 89.4453 211.74 87.6177 212.55 85.4046C212.917 84.4007 213.951 83.4669 215.085 83.4669ZM200.328 89.4453C199.219 89.4453 198.478 89.1655 197.838 88.6465C197.245 88.1658 196.918 87.1285 196.918 86.2693C196.918 85.3384 197.418 84.6142 197.894 84.1358C199.394 82.6298 201.128 82.8021 202.548 84.2273L203.217 85.1112C203.962 86.3405 203.493 87.5339 202.576 88.4648C202.095 88.9529 201.269 89.4453 200.328 89.4453ZM208.141 81.8477H207.583C205.917 81.8477 204.483 80.7016 204.483 79.0453C204.483 77.9509 204.731 77.2683 205.52 76.4755C206.777 75.2139 208.824 75.1616 210.111 76.444C210.881 77.2111 211.179 77.7821 211.179 78.9208C211.179 79.6817 210.775 80.539 210.265 80.992C209.794 81.4103 209.004 81.8477 208.141 81.8477ZM192.454 75.122C194.653 75.122 196.484 77.044 196.484 78.7962C196.484 80.5492 194.169 82.595 192.764 82.595C192.042 82.595 191.746 82.5732 191.014 82.1104C189.434 81.1109 188.508 79.1545 189.272 77.3442C189.81 76.0724 190.869 75.122 192.454 75.122ZM200.328 74.6861C197.175 74.6861 195.487 71.7035 197.272 69.312C199.506 66.3182 202.907 67.5084 203.516 70.1765C204.046 72.4998 203.002 74.6861 200.328 74.6861ZM188.982 63.4765C188.982 62.8601 189.026 61.2798 189.272 60.7785C189.768 59.768 191.976 59.9892 193.26 59.9892C195.384 59.9892 196.484 61.0741 196.484 63.352C196.484 64.5427 196.37 65.5824 195.563 66.4748C195.013 67.0836 193.785 67.4622 192.888 67.4622C191.567 67.4622 190.055 67.6316 189.415 66.4048C188.977 65.5658 189.095 64.9489 189.041 64.2894C189.018 64.0076 188.982 63.8485 188.982 63.4765ZM200.266 59.9269C197.978 59.9269 196.546 58.3718 196.546 56.0658C196.546 53.4229 197.175 52.3916 200.142 52.3916C201.223 52.3916 202.443 52.6039 203.04 53.0936C205.096 54.7797 203.9 59.9269 200.266 59.9269ZM188.92 41.3066C188.92 42.4982 189.106 43.3566 189.964 44.0566C192.165 45.8517 195.595 43.6898 196.324 45.8269C196.828 47.3037 196.484 50.0029 195.989 51.2716C195.518 52.4813 195.01 52.3293 193.446 52.3293C192.429 52.3293 190.902 52.2166 189.958 52.4375C189.408 52.5663 189.163 52.7893 189.046 53.328C188.667 55.0796 189.2 56.9922 188.897 58.7202C188.659 60.0754 187.395 59.9269 186.254 59.9269C184.961 59.9269 183.596 59.7943 182.792 60.3109C181.951 60.8511 181.418 61.709 181.418 62.7915C181.418 63.7794 181.249 65.8825 181.706 66.7366C181.897 67.0943 182.153 67.3551 182.571 67.4873C184.085 67.9672 187.333 66.7416 188.485 68.5221C189.257 69.7152 189.63 71.911 188.878 73.2743C187.711 75.3902 184.707 75.0597 182.534 75.0597C182.108 75.0597 181.695 74.9717 181.544 74.5587C181.427 74.2391 181.48 73.5611 181.48 73.1292C181.48 72.1328 181.48 71.1364 181.48 70.14C181.48 69.0119 181.575 68.2341 180.81 67.8236C179.984 67.3803 178.29 67.4622 177.201 67.4622C174.082 67.4622 173.143 71.4396 174.336 73.5163C176.207 76.7732 180.304 73.7303 181.234 75.5557C181.771 76.6096 181.449 78.047 181.416 79.1679C181.395 79.8621 181.49 80.5463 181.317 81.1239C180.356 84.3246 175.699 81.206 174.335 83.3906C173.95 84.008 173.893 84.9077 173.853 85.6462C173.643 89.5462 174.587 90.193 170.133 90.1926C168.495 90.1925 167.067 90.4213 166.543 92.0673C166.429 92.4266 166.346 92.7723 166.35 93.2428C166.358 94.2818 165.991 96.8044 166.971 97.4168C167.77 97.9165 169.146 97.8524 170.071 97.8524C171.487 97.8524 172.706 97.5116 173.317 98.5779C174.294 100.284 174.523 104.726 171.193 105.394C169.832 105.666 167.851 105.993 166.996 104.553C166.551 103.805 166.407 102.947 166.414 101.775L166.348 100.16C166.152 97.6447 164.519 97.7901 162.383 97.7901C161.833 97.7901 161.243 97.9376 160.853 98.1215C160.313 98.3753 160.15 98.4904 159.762 98.8942C158.757 99.9403 158.566 102.191 159.041 103.637C159.17 104.029 159.404 104.427 159.741 104.678C161.519 106.003 164.931 104.908 165.688 105.679C166.596 106.604 166.64 109.566 166.236 110.877C165.495 113.279 162.934 112.923 160.895 112.923C157.988 112.923 158.911 112.576 158.911 108.688C158.911 106.5 157.769 105.325 155.438 105.325H154.632C152.909 105.325 151.222 107.436 151.222 109.186C151.222 114.851 156.583 112.176 158.267 113.196C158.779 113.506 158.781 113.629 158.86 114.344C158.917 114.863 158.902 115.435 158.84 116.028C158.701 117.328 158.591 119.204 157.583 119.997C156.666 120.719 155.755 120.457 154.632 120.458C151.457 120.462 151.284 120.678 151.284 117.282C151.284 115.049 151.573 113.892 149.416 113.118C147.648 112.483 146.043 112.808 144.758 114.091C144.384 114.464 144.109 114.842 143.914 115.36C143.38 116.778 143.571 119.158 144.97 120.074C146.336 120.97 148.58 120.235 150.267 120.67C151.363 120.952 151.222 122.32 151.222 123.261C151.222 123.929 151.29 124.39 151.287 125.006C151.277 126.907 150.448 127.563 148.892 127.957C148.455 128.068 147.822 128.18 147.316 128.18C146.304 128.18 144.63 127.822 144.081 127.382C143.052 126.559 143.844 125.395 143.844 124.133C143.844 122.96 143.775 121.946 142.93 121.19C141.805 120.183 138.238 120.081 137.147 121.516C137.008 121.698 136.879 121.831 136.755 122.057C135.995 123.439 135.767 126.213 136.975 127.419C138.367 128.808 142.12 127.607 143.139 128.266C143.938 128.784 143.72 131.654 143.72 132.664C143.72 133.557 143.056 134.533 142.446 134.997C141.572 135.661 138.928 136.174 137.73 135.442C135.469 134.06 136.565 130.843 136.145 129.499C136.05 129.195 135.859 128.927 135.608 128.736C135.542 128.685 135.582 128.716 135.501 128.66C134.878 128.232 133.315 127.931 132.373 127.931C130.949 127.931 129.601 128.688 128.937 129.773C128.375 130.691 128.548 133.699 128.787 134.585C129.147 135.914 130.379 135.712 131.505 135.716C133.089 135.722 134.772 135.275 135.735 136.823C136.307 137.741 136.418 140.02 135.97 141.01C135.223 142.662 133.579 143.189 131.691 143.189C129.723 143.189 128.644 141.688 128.652 139.703C128.669 135.463 128.206 135.591 124.375 135.591C123.139 135.591 122.023 135.776 121.533 136.535C120.397 138.296 121.965 141.761 120.274 142.868C119.896 143.115 119.258 143.099 118.671 143.127C117.224 143.196 115.554 143.442 114.136 142.949C113.876 142.858 113.814 142.893 113.71 142.691C113.621 142.515 113.645 142.279 113.648 142.068L113.608 138.064C113.564 137.753 113.544 137.604 113.438 137.359C112.919 136.156 109.361 134.386 106.937 136.821C105.615 138.149 105.855 139.761 106.27 141.445C106.398 141.965 106.541 142.557 106.871 142.897C107.223 143.261 108.062 143.158 108.627 143.188C109.841 143.253 111.332 143.468 112.558 143.153C112.892 143.067 113.407 142.835 113.648 142.815C113.648 144.052 113.524 145.218 113.524 146.489C113.524 147.985 113.795 148.823 112.983 149.744C112.535 150.253 111.124 150.849 110.176 150.849C108.702 150.849 106.42 150.755 106.108 148.957C105.944 148.013 106.133 144.865 106.034 144.547C105.7 143.474 103.697 142.753 102.736 142.753C101.789 142.753 100.835 142.909 100.122 143.49C97.084 145.962 99.4314 150.299 97.8733 150.697C97.7143 150.738 97.2075 150.787 97.0342 150.789C96.3257 150.797 95.8546 150.724 95.1716 150.724C94.4879 150.724 93.9946 150.79 93.3107 150.785C90.7383 150.77 91.0004 152.197 90.8931 154.149C90.874 154.496 90.9071 154.792 90.9406 155.04C90.9937 155.433 90.9057 156.343 90.7268 156.722C90.4105 157.391 89.7795 157.748 89.105 158.02C87.6194 158.62 85.544 158.468 84.2232 157.61C83.0436 156.844 83.5477 155.337 83.4498 154.152C83.3675 153.156 83.4531 153.395 83.4531 152.468C83.4531 150.503 77.9833 150.048 76.5225 151.547C75.5905 152.504 75.8887 153.238 75.8887 154.834C75.8887 155.362 75.8259 155.627 75.8285 156.144C75.8347 157.392 75.0966 158.322 73.7187 158.322H71.3005C69.1946 158.322 68.3844 157.887 68.3843 155.895C68.3842 155.241 68.3244 154.817 68.3244 154.149C68.3244 152.766 68.6553 152.365 67.1974 151.482C66.7198 151.193 66.3867 151.082 65.8068 150.886C64.2963 150.377 62.3606 150.584 61.4905 151.894C60.7962 152.939 60.698 154.377 60.698 155.831C60.698 159.283 64.9304 158.034 67.0819 158.511C68.0294 158.721 68.2624 159.428 68.2624 160.377V163.802C68.2624 164.687 68.0407 165.303 67.4546 165.606C67.0801 165.8 65.8716 166.044 65.2863 166.044C65.3689 166.4 66.5302 168.319 66.765 168.606C66.8512 168.712 67.0524 168.964 67.1376 169.042C67.4397 169.318 67.7686 169.521 68.1384 169.718C68.6871 168.895 68.036 167.998 68.9075 166.878C69.4632 166.165 70.3039 165.91 71.5505 165.917L73.2388 166.035C73.6925 166.133 74.1508 166.377 74.4639 166.603C75.6192 167.438 75.8268 168.189 75.8268 169.531C75.8268 171.449 74.8294 173.212 72.9789 173.459C72.7847 173.485 72.7419 173.486 72.5336 173.51C72.3386 173.532 72.2306 173.493 72.2306 173.704C72.2306 175.093 73.9177 177.066 75.2687 177.066H75.8268C75.8268 176.098 76.1826 175.258 76.8952 174.59C78.8391 172.767 82.0305 173.546 82.9939 175.971C83.5251 177.307 83.5632 178.412 82.5695 179.479C82.2673 179.804 81.4966 180.698 81.1507 180.857C80.5046 181.154 79.88 180.945 80.8658 182.281C82.1737 184.052 83.453 183.375 84.74 182.22C85.6799 181.377 87.2437 181.197 88.5025 181.772C89.5647 182.257 90.5834 183.25 90.5834 184.602C90.5834 187.135 89.0706 187.324 91.3275 188.463C93.3137 189.464 92.8377 188.961 94.4896 188.961C96.5558 188.961 97.5842 190.186 98.3957 191.826C99.356 193.766 101.625 194.618 103.71 194.957C104.577 195.099 105.57 195.295 106.394 195.624L108.839 196.594C109.29 196.776 109.627 196.907 110.106 197.003C110.644 197.111 111.02 197.866 112.718 197.866C114.467 197.866 117.272 196.344 118.569 197.034C118.97 197.248 119.667 198.163 120.05 198.599C120.704 199.342 121.545 200.108 122.639 200.108C123.406 200.108 123.694 199.969 123.928 200.181C124.107 200.343 124.21 200.436 124.435 200.555C126.072 201.423 128.16 200.735 129.352 199.502C130.153 198.675 130.194 197.565 131.631 197.37C132.659 197.23 134.429 197.293 134.827 198.453C134.921 198.726 134.953 199.052 135.031 199.307C135.124 199.613 135.223 199.835 135.401 200.057C135.724 200.462 136.2 200.793 136.9 200.793H142.666C144.07 200.793 144.519 199.966 145.002 199.091C145.912 197.442 147.68 196.998 149.204 198.15C149.568 198.425 150.118 199.236 150.602 199.236C153.138 199.236 155.058 199.326 157.388 198.392C158.014 198.141 158.513 197.817 159.097 197.556C162.614 195.985 163.9 196.531 165.21 196.035C165.738 195.835 167.275 195.088 167.67 194.707C168.81 193.611 167.591 193.085 167.591 192.511C167.591 191.841 168.763 189.957 169.885 189.957C170.843 189.957 172.621 190.22 172.544 191.505C172.483 192.525 172.022 192.448 173.791 192.448C175.212 192.448 176.603 191.582 177.5 191.004C180.447 189.106 180.004 188.967 183.857 187.051C185.243 186.362 186.66 185.567 187.875 184.611L188.937 183.747C189.065 183.622 189.145 183.52 189.277 183.403C189.418 183.278 189.475 183.264 189.62 183.125C189.778 182.972 189.798 182.911 189.93 182.752C191.643 180.693 194.452 180.471 195.963 178.474C196.74 177.446 196.589 176.611 197.957 175.245C198.829 174.374 199.85 173.694 200.862 172.993C202.455 171.889 203.53 170.589 204.4 168.825C205.932 165.717 206.553 166.554 208.249 164.845C208.686 164.405 209.109 164.008 209.44 163.487C209.748 163.003 210.344 161.555 210.703 160.833C211.759 158.709 214.087 156.113 215.469 153.912C216.022 153.031 216.201 152.695 216.201 151.596C216.201 150.732 215.883 149.469 215.431 149.069C214.718 148.437 213.535 148.882 213.535 147.423C213.535 146.699 213.694 146.284 214.004 145.839C214.299 145.414 215.012 145.119 215.581 145.119C215.989 145.119 216.343 145.276 216.662 145.403C216.852 145.479 217.088 145.544 217.18 145.693C217.277 145.849 217.244 145.963 217.317 146.116C217.535 146.057 218.084 145.377 218.294 145.166C218.626 144.832 218.926 144.54 219.157 144.112C219.793 142.939 219.545 141.75 220.391 139.55C221.059 137.815 221.32 136.412 222.525 134.907C222.679 134.714 222.834 134.577 222.988 134.374C224.034 132.988 223.697 131.021 223.703 129.364C223.707 128.247 223.914 126.966 222.696 126.514C221.945 126.235 221.937 126.552 221.362 125.924C220.439 124.917 220.667 123.945 221.41 122.887C221.747 122.407 222.235 122.015 222.898 122.015C223.211 122.015 223.882 122.109 224.076 122.202C224.524 121.351 224.957 120.472 225.262 119.47C225.925 117.287 226.118 114.694 225.564 112.424C225.477 112.064 225.395 111.762 225.29 111.392L224.82 110.37C224.599 111.199 222.558 112.157 221.332 110.759C220.627 109.957 220.289 108.039 221.291 107.262C222.39 106.41 223.864 107.126 224.743 108.018C224.918 108.197 225.055 108.368 225.254 108.501C225.254 107.94 225.13 107.464 225.13 106.82C225.13 105.126 225.502 103.692 225.502 102.025C225.502 101.024 225.248 100.038 225.083 99.2065C224.883 98.1954 224.741 97.5211 224.011 97.045C223.633 96.7982 223.333 96.7186 222.898 96.5441C221.448 95.9631 220.293 96.0366 220.293 93.9291C220.293 93.2273 220.474 92.6976 220.729 92.2494C221.591 90.7372 223.704 92.0479 223.704 88.7602C223.704 86.6972 222.187 84.001 221.142 82.2411C220.297 80.8192 219.435 79.5913 219.18 77.7348C219.062 76.8744 219.204 76.1382 218.896 75.4046C218.495 74.4484 217.762 74.3124 216.821 74.3124C215.906 74.3124 213.424 75.4987 212.304 72.4978C211.804 71.1581 211.95 69.587 212.805 68.7219C213.475 68.0441 213.56 68.1445 214.3 67.7941C215.138 67.3968 214.515 65.8035 214.085 65.2279C213.706 64.7198 213.241 64.3936 213.048 63.7793C212.925 63.3906 212.86 63.2274 212.357 63.2274C212.4 63.0402 212.429 62.9169 212.344 62.6828C212.115 62.0483 211.117 62.435 211.117 62.9784C211.117 63.6374 211.768 65.1633 210.117 66.3959C208.742 67.4234 206.446 67.6178 205.211 66.2324C204.52 65.4574 203.835 63.5719 204.461 62.3341C204.603 62.0531 204.642 61.9498 204.827 61.7047C205.002 61.4713 205.137 61.3573 205.335 61.1567C205.664 60.8244 206.1 60.468 206.548 60.2574C207.266 59.9202 208.309 59.8953 209.126 60.2448C209.4 60.3616 209.526 60.5442 209.815 60.6119C210.198 60.3541 210.125 60.0998 210.125 59.4909C209.289 59.2953 209.594 58.4473 209.355 57.7737L208.555 56.0238C207.272 53.6417 205.282 54.7627 203.408 50.98C202.602 49.3536 201.673 47.648 200.093 46.6494C198.271 45.4976 196.738 45.6195 195.739 43.3625C194.838 41.3259 193.037 40.1268 191.194 39.0221C190.424 38.5601 189.707 38.2649 189.237 39.5701C189.098 39.9567 188.92 40.7998 188.92 41.3066Z" fill="#20E0A1"/>
<path fill-rule="evenodd" clip-rule="evenodd" d="M86.0567 150.851C86.4515 150.851 86.6898 150.832 86.9958 150.798L88.8923 150.805C90.2863 150.988 90.7808 151.144 91.0628 148.904C91.1785 147.985 91.1262 145.357 90.5653 144.641C90.3036 144.307 90.0673 144.092 89.7124 143.879C86.6866 142.061 83.5404 143.854 83.3332 146.559C83.2225 148.002 83.2614 149.857 84.5879 150.52C84.9088 150.681 85.6029 150.851 86.0567 150.851Z" fill="#20E0A1"/>
<path fill-rule="evenodd" clip-rule="evenodd" d="M181.417 48.5946C181.417 49.8846 181.74 50.78 182.585 51.4691C183.796 52.4567 185.046 52.3933 186.563 52.3933C189.311 52.3933 188.981 50.9906 188.981 48.4078C188.981 46.3708 188.137 44.7958 185.943 44.7958H185.385C183.379 44.7958 181.417 46.5999 181.417 48.5946Z" fill="#20E0A1"/>
<path fill-rule="evenodd" clip-rule="evenodd" d="M166.352 78.6736C166.352 79.4037 166.424 79.8474 166.788 80.4777L167.397 81.298C168.011 81.9765 169.364 82.6593 170.382 82.6593C171.38 82.6593 172.634 82.7132 173.271 81.8872C173.71 81.3183 173.896 80.5314 173.918 79.7343C173.96 78.2418 174.309 76.6475 172.656 75.7669C171.976 75.4046 170.537 74.981 169.85 75.0836C168.629 75.2661 167.84 75.8538 167.122 76.7693C166.977 76.9536 166.889 77.0882 166.772 77.2902C166.61 77.5717 166.352 78.2538 166.352 78.6736Z" fill="#20E0A1"/>
<path fill-rule="evenodd" clip-rule="evenodd" d="M113.525 132.041C113.525 134.082 115.151 135.653 116.935 135.653C117.822 135.653 118.397 135.695 119.253 135.427C119.744 135.274 119.981 135.117 120.299 134.797C121.562 133.528 121.344 130.882 120.111 129.474C119.954 129.294 119.846 129.128 119.664 128.988C118.459 128.061 117.539 127.661 115.963 128.511C115.209 128.918 114.384 129.747 113.979 130.504C113.791 130.856 113.525 131.539 113.525 132.041Z" fill="#20E0A1"/>
<path fill-rule="evenodd" clip-rule="evenodd" d="M68.3236 146.987C68.3236 148.069 68.5655 149.179 69.4382 149.853C69.8235 150.151 69.9941 150.313 70.5105 150.52C70.9941 150.714 71.3565 150.781 72.0083 150.803C74.1843 150.879 75.8879 150.097 75.8879 147.672C75.8879 146.314 75.5658 145.498 74.8086 144.522C74.3503 143.93 73.3055 143.188 72.2917 143.188C71.2008 143.188 70.2657 143.883 69.7031 144.45C69.3267 144.829 69.1278 145.041 68.831 145.504C68.6165 145.839 68.3236 146.463 68.3236 146.987Z" fill="#20E0A1"/>
<path fill-rule="evenodd" clip-rule="evenodd" d="M94.9231 143.252C98.4631 143.252 99.5763 139.251 97.42 137.008C96.1622 135.7 94.8468 135.294 93.2071 136.173C91.2691 137.212 89.8134 140.267 92.0558 142.271C92.683 142.832 93.7548 143.252 94.9231 143.252Z" fill="#20E0A1"/>
<path fill-rule="evenodd" clip-rule="evenodd" d="M178.132 59.9901C180.358 59.9901 181.48 58.7252 181.48 56.3781C181.48 54.4685 179.541 52.3303 178.07 52.3303C176.166 52.3303 173.816 54.5527 173.865 56.1855C173.925 58.2123 176.007 59.9901 178.132 59.9901Z" fill="#20E0A1"/>
<path fill-rule="evenodd" clip-rule="evenodd" d="M121.152 124.32C121.152 126.273 123.269 128.119 124.872 128.119C125.955 128.119 126.908 127.721 127.491 127.2C129.108 125.755 129.015 123.024 127.468 121.774C127.277 121.62 127.204 121.524 126.978 121.395C124.002 119.686 121.152 122.534 121.152 124.32Z" fill="#20E0A1"/>
<path fill-rule="evenodd" clip-rule="evenodd" d="M159.158 86.769C159.158 89.0153 161.586 91.0397 164.297 89.9376C165.624 89.3978 166.241 88.1001 166.387 86.5557C166.478 85.5838 165.787 84.5863 165.341 84.0466C164.801 83.3946 163.703 82.7833 162.692 82.7833C161.708 82.7833 160.647 83.465 160.203 84.0195C159.585 84.7913 159.158 85.6773 159.158 86.769Z" fill="#20E0A1"/>
<path fill-rule="evenodd" clip-rule="evenodd" d="M53.6296 145.991C53.6296 147.771 55.0166 149.971 56.692 150.637C57.7441 151.056 58.6765 150.711 59.4776 150.058C60.0834 149.565 60.822 148.606 60.822 147.548C60.822 145.32 58.9497 143.188 57.0398 143.188C56.1536 143.188 53.6296 145.186 53.6296 145.991Z" fill="#20E0A1"/>
<path fill-rule="evenodd" clip-rule="evenodd" d="M98.8297 132.166C98.8297 133.276 99.2605 133.888 99.8221 134.533C99.9223 134.648 100.106 134.8 100.241 134.922C101.584 136.141 103.518 135.773 104.83 134.456C105.497 133.785 106.022 132.935 106.022 131.793C106.022 130.33 103.965 128.43 102.178 128.43C100.267 128.43 98.8297 130.242 98.8297 132.166Z" fill="#20E0A1"/>
<path fill-rule="evenodd" clip-rule="evenodd" d="M76.1998 139.762C76.1998 140.262 76.3559 140.784 76.5094 141.132C76.7729 141.729 77.1883 142.177 77.6869 142.565C78.927 143.531 80.3778 143.4 81.6201 142.528C82.1855 142.131 82.5593 141.698 82.9234 141.097C83.3034 140.469 83.4787 139.784 83.2707 138.95C82.7108 136.703 78.9535 134.353 76.8305 137.593C76.5236 138.061 76.1998 139.005 76.1998 139.762Z" fill="#20E0A1"/>
<path fill-rule="evenodd" clip-rule="evenodd" d="M166.723 63.6004C166.723 65.9822 169.811 69.1858 172.691 66.2937C175.569 63.4023 172.797 60.2997 170.505 60.2997C169.79 60.2997 169.498 60.3463 168.856 60.6366C167.823 61.1041 166.723 62.4071 166.723 63.6004Z" fill="#20E0A1"/>
<path fill-rule="evenodd" clip-rule="evenodd" d="M158.848 94.0544C158.848 92.1122 157.091 90.567 155.252 90.567C153.406 90.567 151.048 92.9386 151.761 94.9447C152.177 96.1127 153.355 97.3052 154.535 97.7012C156.559 98.3805 158.848 95.7201 158.848 94.0544Z" fill="#20E0A1"/>
<path fill-rule="evenodd" clip-rule="evenodd" d="M132.497 120.521C134.505 120.521 136.093 118.312 136.093 116.847C136.093 115.116 134.337 113.297 132.373 113.297C131.465 113.297 130.672 113.984 130.095 114.558C129.01 115.638 128.656 116.878 129.375 118.301C129.925 119.388 131.25 120.521 132.497 120.521Z" fill="#20E0A1"/>
<path fill-rule="evenodd" clip-rule="evenodd" d="M140.123 112.924C141.785 112.924 143.659 110.964 143.695 109.367C143.736 107.547 141.124 104.697 138.784 106.099C136.606 107.404 135.63 109.582 137.721 111.663C137.871 111.812 137.999 111.963 138.157 112.097C138.619 112.488 139.465 112.924 140.123 112.924Z" fill="#20E0A1"/>
<path fill-rule="evenodd" clip-rule="evenodd" d="M177.883 37.5693C176.059 37.5693 172.489 40.5904 175.294 43.4079C176.741 44.8614 178.766 44.7139 180.302 43.5491C180.939 43.0661 181.473 41.9441 181.411 41.1293C181.31 39.7971 180.314 38.5154 179.269 37.9835C178.922 37.8072 178.368 37.5693 177.883 37.5693Z" fill="#20E0A1"/>
<path fill-rule="evenodd" clip-rule="evenodd" d="M144.092 101.652C144.092 103.339 145.71 105.015 147.378 105.015C148.61 105.015 149.54 104.948 150.365 103.905C150.831 103.315 151.284 102.025 151.284 101.341C151.284 100.863 151.039 100.465 150.839 100.169C150.175 99.1849 148.842 98.165 147.626 98.165C146.283 98.165 144.092 100.141 144.092 101.652Z" fill="#20E0A1"/>
<path fill-rule="evenodd" clip-rule="evenodd" d="M61.1311 139.453C61.1311 142.574 64.7666 143.787 66.9254 142.159C68.1044 141.27 68.2103 139.491 67.5809 138.206C67.0528 137.128 65.8546 136.028 64.4793 136.028C63.0575 136.028 61.1311 138.006 61.1311 139.453Z" fill="#20E0A1"/>
<path fill-rule="evenodd" clip-rule="evenodd" d="M109.99 127.745C111.639 127.745 113.214 126.3 113.214 124.382C113.214 122.217 110.884 120.829 109.009 121.342C107.805 121.671 106.805 122.621 106.494 123.86C106.292 124.668 106.508 125.306 106.806 125.899C107.343 126.966 108.74 127.745 109.99 127.745Z" fill="#20E0A1"/>
<path fill-rule="evenodd" clip-rule="evenodd" d="M159.532 71.2606C159.532 72.9608 161.147 74.7479 162.57 74.7479C163.573 74.7479 164.197 74.3317 164.865 73.8153L165.588 72.9218C165.979 72.1805 165.98 72.064 165.98 71.2606C165.98 69.6186 164.278 67.8977 162.88 67.8977C162.204 67.8977 161.93 67.8943 161.254 68.3198C161.069 68.4359 160.99 68.5237 160.833 68.6441C160.187 69.1398 159.532 70.3865 159.532 71.2606Z" fill="#20E0A1"/>
<path fill-rule="evenodd" clip-rule="evenodd" d="M167.095 48.4071V48.8429C167.095 50.2116 168.66 52.0189 170.319 52.0189C171.917 52.0189 173.543 50.349 173.543 48.5316C173.543 46.7311 171.225 44.2923 168.975 45.5002C168.708 45.6436 168.251 45.9991 168.077 46.2177C167.613 46.8039 167.095 47.5712 167.095 48.4071Z" fill="#20E0A1"/>
<path fill-rule="evenodd" clip-rule="evenodd" d="M84.1344 131.669C84.1344 133.076 84.4822 134.337 85.6865 134.967C87.2499 135.785 89.272 135.02 90.209 133.41C91.0733 131.926 90.6814 128.804 86.9866 128.804C85.2611 128.804 84.1344 130.057 84.1344 131.669Z" fill="#20E0A1"/>
<path fill-rule="evenodd" clip-rule="evenodd" d="M120.531 116.969C120.531 115.316 119.186 113.669 117.679 113.669C116.733 113.669 116.388 113.765 115.614 114.396C112.761 116.721 115.273 119.611 116.748 120.023C118.461 120.501 120.531 118.727 120.531 116.969Z" fill="#20E0A1"/>
<path fill-rule="evenodd" clip-rule="evenodd" d="M69.0694 131.98C69.0694 132.597 69.0692 132.866 69.4527 133.463C69.9947 134.307 71.0261 135.28 72.1075 135.28C73.4974 135.28 75.4557 133.403 75.4557 132.042C75.4557 130.762 73.5301 128.804 72.0455 128.804C70.4805 128.804 69.0694 130.637 69.0694 131.98Z" fill="#20E0A1"/>
<path fill-rule="evenodd" clip-rule="evenodd" d="M159.532 56.1283C159.532 57.4065 160.384 58.339 161.453 58.8695C162.608 59.4434 163.994 59.2899 164.941 58.4478C167.635 56.0529 164.438 52.8754 162.783 53.0991C161.944 53.2125 161.209 53.4572 160.6 54.0257C160.122 54.4722 159.532 55.2359 159.532 56.1283Z" fill="#20E0A1"/>
<path fill-rule="evenodd" clip-rule="evenodd" d="M155.19 81.9115C155.864 81.9115 156.127 81.9056 156.742 81.6016C157.154 81.3981 157.249 81.3071 157.562 80.9931C159.993 78.5518 156.924 75.8085 155.252 75.8085C153.717 75.8085 152.053 77.312 152 78.8136C151.984 79.252 152.111 79.7107 152.275 80.045C152.752 81.0209 153.97 81.9115 155.19 81.9115Z" fill="#20E0A1"/>
<path fill-rule="evenodd" clip-rule="evenodd" d="M91.7004 124.318C91.7004 125.338 92.1392 125.907 92.8314 126.608C93.9175 127.708 95.2153 128.111 96.3972 126.981C96.9663 126.436 97.7767 125.576 97.7767 124.692C97.7767 123.825 97.2816 122.909 96.8618 122.435C96.2307 121.722 95.6308 121.267 94.5525 121.267C93.4034 121.267 91.7004 123.03 91.7004 124.318Z" fill="#20E0A1"/>
<path fill-rule="evenodd" clip-rule="evenodd" d="M167.095 33.4601C167.095 34.7501 168.846 36.5116 170.133 36.5116C172.553 36.5116 174.218 33.5083 172.409 31.3609C171.268 30.0059 169.421 30.1479 168.164 31.4205C167.694 31.8976 167.095 32.5463 167.095 33.4601Z" fill="#20E0A1"/>
<path fill-rule="evenodd" clip-rule="evenodd" d="M57.2271 134.907C58.2216 134.907 58.6289 134.674 59.2902 133.99C60.3107 132.933 60.2493 131.514 59.4728 130.347C58.9804 129.607 57.9874 128.804 57.0411 128.804C55.7278 128.804 53.9319 130.624 53.9646 131.91C53.9866 132.777 54.549 133.451 55.0403 133.927C55.4629 134.337 56.4302 134.907 57.2271 134.907Z" fill="#20E0A1"/>
<path fill-rule="evenodd" clip-rule="evenodd" d="M121.895 109.311C121.895 110.494 123.442 112.006 124.862 112.19C126.305 112.376 127.909 110.976 127.909 109.497V109.186C127.909 107.86 126.371 106.134 125.057 106.134C123.49 106.134 121.895 107.748 121.895 109.311Z" fill="#20E0A1"/>
<path fill-rule="evenodd" clip-rule="evenodd" d="M144.836 86.5183C144.836 88.194 146.211 89.6713 147.636 89.4581C149.638 89.1585 150.541 88.2971 150.541 86.3315C150.541 85.8492 150.171 85.212 149.895 84.8624L149.191 84.1378C147.228 82.4078 144.836 84.37 144.836 86.5183Z" fill="#20E0A1"/>
<path fill-rule="evenodd" clip-rule="evenodd" d="M137.273 94.1799C137.273 95.6825 138.694 97.0445 139.753 97.0445C140.522 97.0445 141.153 96.9806 141.808 96.4932C142.937 95.6532 143.343 94.2397 142.731 92.9951C141.691 90.8831 138.964 91.013 137.968 92.0137C137.529 92.455 137.273 93.3144 137.273 94.1799Z" fill="#20E0A1"/>
<path fill-rule="evenodd" clip-rule="evenodd" d="M152.4 63.414C152.4 64.3918 152.446 65.1215 153.221 65.89C154.08 66.7426 154.971 67.0917 156.162 66.4454C157.008 65.9865 158.104 64.7473 158.104 63.7877C158.104 62.6016 156.708 61.0372 155.393 60.7774C154.085 60.5192 152.4 61.8167 152.4 63.414Z" fill="#20E0A1"/>
<path fill-rule="evenodd" clip-rule="evenodd" d="M159.903 40.9935C159.903 41.854 160.216 42.5194 160.61 43.0233C161.718 44.4428 163.649 44.3561 164.704 43.0141C165.522 41.9743 165.977 41.1704 165.255 39.852C164.623 38.6978 163.159 37.5658 161.554 38.3551C160.65 38.7997 159.903 39.917 159.903 40.9935Z" fill="#20E0A1"/>
<path fill-rule="evenodd" clip-rule="evenodd" d="M129.769 101.404V101.902C129.769 103.169 130.997 104.642 132.497 104.642C134.137 104.642 135.473 103.311 135.473 101.591C135.473 100.17 133.986 98.9129 132.559 98.9129C132.034 98.9129 131.731 98.9185 131.228 99.1335C130.345 99.5116 129.769 100.479 129.769 101.404Z" fill="#20E0A1"/>
<path fill-rule="evenodd" clip-rule="evenodd" d="M82.6478 124.446C82.6478 123.612 82.3798 122.905 81.754 122.416C80.8207 121.688 80.4435 121.643 79.2997 121.643C77.1916 121.643 75.9941 124.638 77.9504 126.61C80.0186 128.696 82.6478 125.691 82.6478 124.446Z" fill="#20E0A1"/>
<path fill-rule="evenodd" clip-rule="evenodd" d="M49.5995 127.31C50.9062 127.31 53.928 124.78 51.6001 122.436C50.8103 121.641 50.0656 121.643 49.0415 121.643C48.3621 121.643 47.7658 121.94 47.468 122.554C47.1966 123.114 47.1704 124.07 47.1201 124.763C47.0955 125.102 47.2304 125.545 47.3446 125.776C47.583 126.26 48.1057 126.777 48.5705 127.036C48.7997 127.164 49.2689 127.31 49.5995 127.31Z" fill="#20E0A1"/>
<path fill-rule="evenodd" clip-rule="evenodd" d="M61.8769 124.383C61.8769 125.798 63.0517 127.31 64.419 127.31C65.2346 127.31 65.9081 127.035 66.4191 126.455C68.3226 124.291 66.4346 121.643 64.853 121.643H64.357C63.0621 121.643 61.8769 123.063 61.8769 124.383Z" fill="#20E0A1"/>
<path fill-rule="evenodd" clip-rule="evenodd" d="M99.5742 116.909C99.5742 118.606 101.858 121.11 104.054 118.918C105.142 117.833 105.21 116.065 104.178 114.901C102.379 112.873 99.5742 114.82 99.5742 116.909Z" fill="#20E0A1"/>
<path fill-rule="evenodd" clip-rule="evenodd" d="M152.4 48.5954C152.4 49.487 152.663 49.8236 153.313 50.4801C154.876 52.0559 157.732 51.2753 157.732 48.6576C157.732 46.0493 154.943 45.0685 153.283 46.742C152.871 47.1569 152.4 47.7991 152.4 48.5954Z" fill="#20E0A1"/>
<path fill-rule="evenodd" clip-rule="evenodd" d="M54.3742 116.662C54.3742 118.431 56.6677 120.605 58.8249 118.579C60.2242 117.265 59.8145 115.408 58.132 114.382C56.2982 113.264 54.3742 115.383 54.3742 116.662Z" fill="#20E0A1"/>
<path fill-rule="evenodd" clip-rule="evenodd" d="M145.207 71.3246C145.207 72.4849 145.589 73.3979 146.703 73.8085C147.673 74.1664 148.739 73.8716 149.372 73.0787C150.286 71.9329 150.566 70.7444 149.409 69.596C148.654 68.8473 148.36 68.7091 147.315 68.7091C145.909 68.7091 145.207 69.9732 145.207 71.3246Z" fill="#20E0A1"/>
<path fill-rule="evenodd" clip-rule="evenodd" d="M107.509 109.063V109.623C107.509 110.92 108.388 111.803 109.679 111.803C110.163 111.803 110.507 111.779 110.956 111.529C111.689 111.121 112.469 110.253 112.469 109.374C112.469 107.991 111.216 106.572 110.175 106.572H109.803C108.628 106.572 107.509 107.875 107.509 109.063Z" fill="#20E0A1"/>
<path fill-rule="evenodd" clip-rule="evenodd" d="M84.8778 116.846C84.8778 118.397 85.5099 119.399 87.1719 119.399C88.405 119.399 91.1459 117.765 89.0953 115.038C87.6494 113.116 84.8778 114.465 84.8778 116.846Z" fill="#20E0A1"/>
<path fill-rule="evenodd" clip-rule="evenodd" d="M152.772 33.2103V33.6461C152.772 34.6351 154.552 37.535 156.911 35.188C157.121 34.9791 157.296 34.7531 157.444 34.4772C157.984 33.4706 157.659 32.476 156.911 31.731C156.498 31.3199 155.977 30.8438 155.252 30.8438C153.848 30.8438 152.772 32.0285 152.772 33.2103Z" fill="#20E0A1"/>
<path fill-rule="evenodd" clip-rule="evenodd" d="M69.7507 117.468C69.7507 118.229 69.925 118.658 70.796 118.972C71.6732 119.287 72.5734 119.606 73.3733 119.052C75.8635 117.325 74.475 114.417 72.4168 114.417C70.4247 114.417 69.7507 115.449 69.7507 117.468Z" fill="#20E0A1"/>
<path fill-rule="evenodd" clip-rule="evenodd" d="M162.693 28.5419C164.639 28.5419 166.091 26.4902 165.377 25.7215C164.864 25.1685 162.327 23.7468 161.577 23.7468C160.194 23.7468 159.082 26.4029 161.01 27.9288C161.397 28.2354 162.013 28.5419 162.693 28.5419Z" fill="#20E0A1"/>
<path fill-rule="evenodd" clip-rule="evenodd" d="M145.207 56.191C145.207 57.372 146.523 58.7442 147.687 58.7442C148.83 58.7442 150.168 57.4311 150.168 56.1287C150.168 54.9992 148.903 53.5131 147.501 53.5131C146.495 53.5131 145.207 55.1363 145.207 56.191Z" fill="#20E0A1"/>
<path fill-rule="evenodd" clip-rule="evenodd" d="M147.564 43.6096C148.862 43.6096 150.106 42.4303 150.106 41.2432C150.106 40.7296 149.845 39.9073 149.669 39.5641C149.164 38.5794 148.437 38.6899 147.626 38.6899C145.934 38.6899 145.436 39.6255 145.23 41.1461C145.083 42.2292 146.59 43.6096 147.564 43.6096Z" fill="#20E0A1"/>
<path fill-rule="evenodd" clip-rule="evenodd" d="M140.31 81.4101C141.897 81.4101 143.557 78.8536 141.94 77.2194C140.802 76.0694 138.014 76.222 137.71 78.9858C137.6 79.9817 137.722 80.281 138.377 80.7353C138.713 80.9684 139.77 81.4101 140.31 81.4101Z" fill="#20E0A1"/>
<path fill-rule="evenodd" clip-rule="evenodd" d="M119.973 101.65C119.973 99.6171 116.625 97.9893 115.301 100.756C115.216 100.934 115.096 101.235 115.062 101.444C114.918 102.314 115.835 103.799 116.973 104.166C117.506 104.338 118.042 104.169 118.451 103.92C119.119 103.514 119.973 102.673 119.973 101.65Z" fill="#20E0A1"/>
<path fill-rule="evenodd" clip-rule="evenodd" d="M49.228 111.429C50.3412 111.429 51.77 111.314 51.77 109.748C51.77 108.655 51.7311 107.437 50.5398 106.998C49.7062 106.691 47.2573 106.699 47.18 108.376C47.1094 109.91 46.9425 111.429 49.228 111.429Z" fill="#20E0A1"/>
<path fill-rule="evenodd" clip-rule="evenodd" d="M122.578 93.9916C122.578 94.2823 122.739 94.8187 122.836 95.0398C123.092 95.6233 123.58 96.0712 124.162 96.3235C125.214 96.7797 126.021 96.7017 126.787 95.7283C127.427 94.9144 127.842 94.1856 127.242 93.2304C127.131 93.0549 126.829 92.6685 126.68 92.5491C125.552 91.6468 124.693 91.2685 123.491 92.4806C123.161 92.8139 122.578 93.4738 122.578 93.9916Z" fill="#20E0A1"/>
<path fill-rule="evenodd" clip-rule="evenodd" d="M130.264 86.3955C130.264 87.3235 130.341 87.6074 131.022 88.25C131.426 88.6313 132.154 88.7619 132.868 88.7619C133.627 88.7619 134.028 88.4037 134.404 88.0009C134.668 87.7185 135.038 86.8677 135.038 86.3332C135.038 84.8748 131.884 82.7755 130.51 85.4593C130.388 85.6976 130.264 86.0303 130.264 86.3955Z" fill="#20E0A1"/>
<path fill-rule="evenodd" clip-rule="evenodd" d="M137.707 48.3436C137.707 50.8764 140.365 51.5389 141.568 50.2283C142.23 49.5065 142.47 48.4066 141.987 47.4696C141.364 46.2597 139.625 45.8888 138.44 46.8381C138.064 47.1396 137.707 47.6813 137.707 48.3436Z" fill="#20E0A1"/>
<path fill-rule="evenodd" clip-rule="evenodd" d="M92.4438 109.122C92.4438 109.632 92.8949 110.376 93.124 110.68C93.9678 111.803 97.0319 112.068 97.0319 108.81C97.0319 107.495 95.5425 106.88 94.7378 106.88C93.8163 106.88 92.4438 108.234 92.4438 109.122Z" fill="#20E0A1"/>
<path fill-rule="evenodd" clip-rule="evenodd" d="M145.269 25.9873C145.269 26.9369 146.826 28.1669 147.378 28.1669C147.969 28.1669 148.775 27.8325 149.099 27.5299C150.234 26.4698 150.273 23.5586 147.378 23.5586C146.697 23.5586 146.241 23.9481 145.941 24.358C145.734 24.6421 145.269 25.5407 145.269 25.9873Z" fill="#20E0A1"/>
<path fill-rule="evenodd" clip-rule="evenodd" d="M62.31 109.122C62.31 111.508 64.9293 112.007 66.1412 110.79C66.7902 110.139 67.0309 109.207 66.6703 108.355C66.5489 108.068 66.4326 107.884 66.2536 107.652C65.7731 107.029 64.5887 106.534 63.673 107.191C63.1298 107.58 62.31 108.375 62.31 109.122Z" fill="#20E0A1"/>
<path fill-rule="evenodd" clip-rule="evenodd" d="M137.768 63.7265C137.768 65.5693 140.389 66.8586 141.685 65.2319C141.895 64.9676 142.294 64.1017 142.294 63.6642C142.294 62.7087 141.204 61.427 140.009 61.4923C138.862 61.5549 137.768 62.5166 137.768 63.7265Z" fill="#20E0A1"/>
<path fill-rule="evenodd" clip-rule="evenodd" d="M137.707 33.585C137.707 34.3539 139.208 35.7646 140.063 35.7646C140.56 35.7646 141.233 35.3637 141.507 35.0975C142.444 34.188 142.513 32.7357 141.568 31.824C140.949 31.226 139.942 31.0564 139.114 31.4488C138.829 31.5841 138.676 31.7723 138.466 31.9809C138.244 32.2017 138.117 32.3638 137.975 32.6705C137.865 32.9065 137.707 33.2789 137.707 33.585Z" fill="#20E0A1"/>
<path fill-rule="evenodd" clip-rule="evenodd" d="M77.3763 109.436C77.3763 110.048 78.8555 111.429 79.7944 111.429C80.4706 111.429 81.315 110.889 81.6561 110.185C81.9828 109.512 82.0035 108.815 81.6528 108.13C81.2972 107.436 80.2448 106.847 79.4481 106.966C78.1866 107.154 77.3763 108.438 77.3763 109.436Z" fill="#20E0A1"/>
<path fill-rule="evenodd" clip-rule="evenodd" d="M56.9167 99.4698C56.7431 99.5118 56.6558 99.4626 56.4249 99.5363C55.4157 99.858 54.6496 101.043 54.7668 101.811C54.9101 102.75 56.4659 103.929 57.2144 103.875C58.2718 103.8 59.4616 102.672 59.3037 101.498C59.1442 100.313 58.4937 99.6613 57.4131 99.4669C57.3611 99.4576 57.1542 99.4212 57.1467 99.4209C56.8152 99.4081 56.9693 99.4571 56.9167 99.4698Z" fill="#20E0A1"/>
<path fill-rule="evenodd" clip-rule="evenodd" d="M130.515 40.6216V41.4312C130.515 43.177 133.177 43.9083 134.193 42.5098C135.324 40.9526 134.526 38.8157 132.499 38.8157C131.443 38.8157 130.515 39.5476 130.515 40.6216Z" fill="#20E0A1"/>
<path fill-rule="evenodd" clip-rule="evenodd" d="M130.203 25.8629C130.203 27.0422 131.34 28.0425 132.187 28.0425C132.902 28.0425 133.578 27.9636 134.119 27.367C134.252 27.22 134.465 26.9089 134.537 26.7281C134.863 25.9056 134.777 25.0551 134.125 24.4769C133.943 24.3151 133.078 23.8079 132.807 23.8079C131.874 23.8079 130.899 24.1949 130.475 24.9527C130.388 25.1082 130.203 25.661 130.203 25.8629Z" fill="#20E0A1"/>
<path fill-rule="evenodd" clip-rule="evenodd" d="M49.2894 96.2944C50.9108 96.2944 52.8284 94.5383 51.0111 92.6968C50.806 92.4889 50.6363 92.285 50.4072 92.1202C49.0603 91.1514 47.8767 92.1273 47.6861 93.9991C47.6168 94.6796 47.623 95.1694 47.9707 95.5638C48.2543 95.8854 48.7185 96.2944 49.2894 96.2944Z" fill="#20E0A1"/>
<path fill-rule="evenodd" clip-rule="evenodd" d="M115.136 25.9247C115.136 26.2564 115.215 26.4869 115.34 26.7162C115.421 26.8663 115.431 26.8821 115.544 27.0088L115.802 27.2487C116.285 27.655 116.85 27.793 117.554 27.793C118.8 27.793 119.538 26.5924 119.538 25.3642C119.538 24.7818 119.05 24.4156 118.65 24.2011C118.001 23.8534 117.688 23.7076 117.145 23.8323C116.116 24.0695 115.136 24.7092 115.136 25.9247Z" fill="#20E0A1"/>
<path fill-rule="evenodd" clip-rule="evenodd" d="M123.012 33.3348C123.012 33.9207 123.044 34.4113 123.43 34.8457C124.14 35.645 125.758 35.531 126.408 34.8777C126.88 34.4028 127.042 34.1777 127.042 33.3971C127.042 32.6363 126.557 31.871 125.904 31.6131C125.411 31.4186 124.04 31.449 123.553 31.8854C123.21 32.1928 123.012 32.7081 123.012 33.3348Z" fill="#20E0A1"/>
<path fill-rule="evenodd" clip-rule="evenodd" d="M100.318 101.899C100.318 104.407 104.162 104.3 104.162 102.024V101.089C104.162 100.258 103.382 99.7193 102.55 99.7193H102.054C100.911 99.7193 100.318 100.741 100.318 101.899Z" fill="#20E0A1"/>
<path fill-rule="evenodd" clip-rule="evenodd" d="M130.515 56.2528C130.515 59.0279 134.359 58.8305 134.359 56.5641C134.359 55.6191 134.252 54.2599 132.933 54.2599C132.106 54.2599 131.648 54.201 131.024 54.8339C130.701 55.1616 130.515 55.6245 130.515 56.2528Z" fill="#20E0A1"/>
<path fill-rule="evenodd" clip-rule="evenodd" d="M130.575 71.0761V71.4498C130.575 72.9566 131.831 73.2557 133.055 73.2557C134.134 73.2557 135.404 71.2453 133.972 69.9065C132.851 68.8582 130.575 69.5322 130.575 71.0761Z" fill="#20E0A1"/>
<path fill-rule="evenodd" clip-rule="evenodd" d="M184.641 36.8854L185.631 36.8203C186.09 36.8397 186.107 36.9443 186.625 36.8231C186.85 36.3525 186.617 35.8594 186.399 35.4308C185.736 34.1234 184.363 33.4577 182.799 33.3158C182.296 33.2701 181.79 33.4753 181.742 34.0321C181.705 34.4584 182.601 36.054 183.163 36.4389C183.562 36.7117 184.114 36.8854 184.641 36.8854Z" fill="#20E0A1"/>
<path fill-rule="evenodd" clip-rule="evenodd" d="M107.884 94.3047C107.884 95.994 109.156 95.9238 110.178 95.9238C111.576 95.9238 111.728 94.6859 111.728 93.6196C111.728 93.1153 111.444 92.7546 111.153 92.5151C110.297 91.8099 107.884 91.8885 107.884 94.3047Z" fill="#20E0A1"/>
<path fill-rule="evenodd" clip-rule="evenodd" d="M92.8781 33.5837C92.8781 34.2002 93.1531 34.6618 93.5703 34.9435C93.7871 35.0898 93.963 35.191 94.24 35.2673C96.2969 35.8343 97.7479 33.2718 96.1808 31.8856C95.8326 31.5775 95.2717 31.4359 94.7271 31.5157C93.6016 31.6808 92.8781 32.4569 92.8781 33.5837Z" fill="#20E0A1"/>
<path fill-rule="evenodd" clip-rule="evenodd" d="M62.619 63.6014C62.619 65.4179 64.7525 66.1887 65.9529 64.8948C66.6034 64.1936 67.2648 61.7954 64.2311 61.7954C63.1525 61.7954 62.619 62.5538 62.619 63.6014Z" fill="#20E0A1"/>
<path fill-rule="evenodd" clip-rule="evenodd" d="M70.247 101.338C70.247 103.278 70.8481 103.518 72.4172 103.518C74.4515 103.518 74.7313 99.7193 71.9211 99.7193C71.0755 99.7193 70.247 100.511 70.247 101.338Z" fill="#20E0A1"/>
<path fill-rule="evenodd" clip-rule="evenodd" d="M124.686 80.7253C125.324 80.7253 125.956 80.6755 126.461 80.3279C127.169 79.8398 126.705 78.1861 126.335 77.6367C125.699 76.6912 123.262 76.4985 123.066 78.8535C122.979 79.9033 123.717 80.7253 124.686 80.7253Z" fill="#20E0A1"/>
<path fill-rule="evenodd" clip-rule="evenodd" d="M115.509 86.2696C115.509 87.1466 116.076 88.3247 116.997 88.3247C118.051 88.3247 119.291 88.0322 119.291 86.7678C119.291 86.5069 119.247 86.5732 119.241 86.3881C119.232 86.0899 119.291 86.3191 119.291 86.0205C119.291 84.9052 118.155 84.6504 117.121 84.6504C116.33 84.6504 115.509 85.4746 115.509 86.2696Z" fill="#20E0A1"/>
<path fill-rule="evenodd" clip-rule="evenodd" d="M55.1808 86.2696C55.1808 87.2163 55.816 88.3246 56.7309 88.3246C57.8673 88.3246 58.963 88.0445 58.963 86.7054C58.963 84.7338 56.9205 84.1569 55.852 85.0132C55.5467 85.2578 55.1808 85.7472 55.1808 86.2696Z" fill="#20E0A1"/>
<path fill-rule="evenodd" clip-rule="evenodd" d="M62.7443 78.9203C62.7443 80.1437 64.0655 80.9148 64.704 80.8286C65.7171 80.6918 66.4025 79.7099 66.4025 78.5466C66.4025 77.9195 66.142 77.6532 65.7991 77.3467C65.26 76.8647 63.8775 76.7037 63.2378 77.5478C62.9907 77.8738 62.7443 78.3496 62.7443 78.9203Z" fill="#20E0A1"/>
<path fill-rule="evenodd" clip-rule="evenodd" d="M62.6823 93.9308C62.6823 95.3334 64.0433 95.9793 64.5965 95.9656C65.3737 95.9463 66.4024 94.9863 66.4024 93.8685C66.4024 91.5376 62.6823 91.5525 62.6823 93.9308Z" fill="#20E0A1"/>
<path fill-rule="evenodd" clip-rule="evenodd" d="M70.185 56.0022C70.185 56.6016 70.4183 57.1331 70.7251 57.4524C71.8433 58.616 73.9982 58.0289 73.9976 56.3143C73.9974 55.578 73.6663 54.9382 73.0587 54.6104C72.0181 54.0489 70.185 54.6459 70.185 56.0022Z" fill="#20E0A1"/>
<path fill-rule="evenodd" clip-rule="evenodd" d="M77.7485 48.4068C77.7485 51.0087 80.0479 50.71 80.8203 49.8729C81.1522 49.5132 81.3298 49.1432 81.494 48.6153C81.6254 48.193 81.5146 48.0619 80.9825 47.4005C80.8872 47.2822 80.6421 47.0261 80.5138 46.9372C79.4934 46.2303 77.7485 46.9821 77.7485 48.4068Z" fill="#20E0A1"/>
<path fill-rule="evenodd" clip-rule="evenodd" d="M55.1163 71.8845C55.1163 72.115 55.2359 72.3793 55.353 72.5186C55.6975 72.9283 56.7802 73.13 57.3484 73.13C58.1446 73.13 58.5833 72.3414 58.7836 71.7061C58.9246 71.2592 58.8586 71.0609 58.6708 70.6186C58.0735 69.212 55.1163 68.3645 55.1163 71.8845Z" fill="#20E0A1"/>
<path fill-rule="evenodd" clip-rule="evenodd" d="M85.3121 101.712C85.3121 102.968 87.1845 104.33 88.4901 102.849C89.5101 101.693 89.1543 99.7193 86.9241 99.7193C85.918 99.7193 85.3121 100.882 85.3121 101.712Z" fill="#20E0A1"/>
<path fill-rule="evenodd" clip-rule="evenodd" d="M109.619 35.2681C110.258 35.2681 110.675 35.2273 111.135 34.6113C111.808 33.7086 111.938 32.8935 111.124 32.0751C110.572 31.5207 109.58 31.3554 108.938 31.7197C108.837 31.7768 108.788 31.8297 108.697 31.9132C108.285 32.2893 108.052 32.7929 107.966 33.4257C107.843 34.3297 108.827 35.2681 109.619 35.2681Z" fill="#20E0A1"/>
<path fill-rule="evenodd" clip-rule="evenodd" d="M77.7485 94.0556C77.7485 94.9573 78.3299 95.3387 78.9856 95.7402C79.48 96.0431 79.3223 96.0389 79.9727 95.7914C81.0232 95.3916 81.8594 94.3398 81.3893 93.2635C81.0435 92.4717 80.2151 92.1873 79.2986 92.1873C78.4401 92.1873 77.7485 93.1721 77.7485 94.0556Z" fill="#20E0A1"/>
<path fill-rule="evenodd" clip-rule="evenodd" d="M111.664 48.4689C111.664 47.9164 111.521 47.517 111.185 47.2063C111.015 47.0483 110.322 46.6629 110.052 46.6629C109.496 46.6629 108.61 47.1338 108.226 47.6934C107.343 48.9827 108.822 51.0586 110.53 50.2563C111.111 49.9832 111.664 49.301 111.664 48.4689Z" fill="#20E0A1"/>
<path fill-rule="evenodd" clip-rule="evenodd" d="M77.8094 63.8496C77.8094 65.2962 79.7116 66.1357 80.8891 64.95C81.2136 64.6232 81.5295 64.0044 81.5295 63.4138C81.5295 63.2197 81.3585 62.9357 81.2834 62.7891C80.4232 61.1094 77.8094 61.648 77.8094 63.8496Z" fill="#20E0A1"/>
<path fill-rule="evenodd" clip-rule="evenodd" d="M115.509 40.8103C115.509 41.7994 116.139 42.9276 117.121 42.9276C117.525 42.9276 117.846 42.9184 118.187 42.6904C118.749 42.315 119.291 41.0435 119.291 40.748C119.291 40.2575 117.692 38.2691 116.113 39.6734C115.864 39.8953 115.509 40.3773 115.509 40.8103Z" fill="#20E0A1"/>
<path fill-rule="evenodd" clip-rule="evenodd" d="M85.3121 56.255C85.3121 57.7004 87.228 58.7454 88.4898 57.3294C88.7645 57.0211 89.0943 56.2316 89.0943 55.9436C89.0943 55.2612 88.1216 54.3245 87.1722 54.3245C86.165 54.3245 85.3121 55.2391 85.3121 56.255Z" fill="#20E0A1"/>
<path fill-rule="evenodd" clip-rule="evenodd" d="M115.447 56.0683C115.447 56.7573 115.663 57.1355 116.019 57.4868C116.515 57.9771 117.025 58.0611 117.741 58.0611C118.98 58.0611 119.679 55.9909 118.72 54.9603C118.33 54.541 118.046 54.5796 117.428 54.6325C116.824 54.6841 116.386 54.6011 116.02 54.9004C115.702 55.1615 115.447 55.5144 115.447 56.0683Z" fill="#20E0A1"/>
<path fill-rule="evenodd" clip-rule="evenodd" d="M92.8781 48.5938C92.8781 50.1046 94.8216 51.1952 96.0229 49.7596C96.4751 49.2192 96.8173 48.5153 96.4565 47.8021C96.3422 47.5764 96.1942 47.4688 96.0263 47.3C94.8587 46.126 92.8781 46.9984 92.8781 48.5938Z" fill="#20E0A1"/>
<path fill-rule="evenodd" clip-rule="evenodd" d="M87.421 42.7405C88.4043 42.7405 88.9157 41.6158 89.1096 40.8169C89.1904 40.484 88.0945 39.1285 87.2969 39.1285C86.649 39.1285 86.1995 39.1179 85.7707 39.8375C85.4961 40.2983 84.9233 41.8473 85.9307 42.369C86.319 42.57 86.8299 42.7405 87.421 42.7405Z" fill="#20E0A1"/>
<path fill-rule="evenodd" clip-rule="evenodd" d="M100.69 40.5594C100.69 40.8096 100.734 40.7596 100.734 40.9329L100.69 41.5558C100.69 42.6978 102.545 43.4742 103.587 42.2236C103.752 42.0247 103.854 41.8571 103.96 41.6022C104.944 39.2476 101.465 38.4819 100.836 39.9592C100.789 40.0701 100.69 40.4395 100.69 40.5594Z" fill="#20E0A1"/>
<path fill-rule="evenodd" clip-rule="evenodd" d="M70.5564 70.7025C70.5564 71.6475 70.3887 72.3706 71.0614 72.8109C72.4889 73.7451 73.9736 72.4939 73.9429 71.2702C73.903 69.686 72.0064 69.0186 71.0677 69.7839C70.8094 69.9944 70.5564 70.2556 70.5564 70.7025Z" fill="#20E0A1"/>
<path fill-rule="evenodd" clip-rule="evenodd" d="M71.6108 88.0123C71.8945 88.0123 71.892 87.9561 72.101 87.9624C72.6722 87.9797 72.9158 88.212 73.5194 87.5628C73.8929 87.1611 73.9049 86.6983 73.9049 86.2063C73.9049 85.0429 72.099 83.949 70.9424 85.0368C69.5901 86.3087 70.4854 88.0123 71.6108 88.0123Z" fill="#20E0A1"/>
<path fill-rule="evenodd" clip-rule="evenodd" d="M123.32 63.2919L123.358 63.7214C123.351 63.9449 123.156 64.3698 123.468 64.8251C123.765 65.2601 124.163 65.3345 124.79 65.4304C126.004 65.6161 126.731 64.6577 126.731 63.4165C126.731 61.728 123.32 61.197 123.32 63.2919Z" fill="#20E0A1"/>
<path fill-rule="evenodd" clip-rule="evenodd" d="M52.3883 141.445C52.9168 141.445 53.4599 139.263 52.0603 137.602C51.7095 137.185 50.7986 136.474 50.2183 136.338C50.2183 137.55 50.0249 138.863 50.3494 139.756C50.6451 140.571 51.7131 141.445 52.3883 141.445Z" fill="#20E0A1"/>
<path fill-rule="evenodd" clip-rule="evenodd" d="M93.1263 93.7399C93.1263 96.9676 96.5984 96.12 96.5984 93.8021C96.5984 92.7095 95.0704 92.2663 94.9335 92.2655C94.6863 92.2643 93.9015 92.511 93.7086 92.6433C93.4046 92.8517 93.1263 93.2587 93.1263 93.7399Z" fill="#20E0A1"/>
<path fill-rule="evenodd" clip-rule="evenodd" d="M115.756 71.1383C115.756 72.0441 115.99 72.8821 116.996 72.8821C117.285 72.8821 117.08 72.8073 117.413 72.8363C117.538 72.8473 117.627 72.8821 117.864 72.8821C119.693 72.8821 119.588 69.4569 117.368 69.4569C116.413 69.4569 115.756 70.1764 115.756 71.1383Z" fill="#20E0A1"/>
<path fill-rule="evenodd" clip-rule="evenodd" d="M100.69 86.7696C100.69 87.8189 101.423 88.2642 102.426 88.2642C103.741 88.2642 104.631 86.4772 103.498 85.3815C102.609 84.5222 100.69 84.7028 100.69 86.7696Z" fill="#20E0A1"/>
<path fill-rule="evenodd" clip-rule="evenodd" d="M123.445 48.5312C123.445 50.2208 124.606 50.1503 125.615 50.1503C126.253 50.1503 126.461 49.3582 126.543 48.778C126.916 46.1567 123.445 46.3111 123.445 48.5312Z" fill="#20E0A1"/>
<path fill-rule="evenodd" clip-rule="evenodd" d="M102.425 57.6223C103.02 57.6223 103.255 57.4659 103.604 57.0009C104.075 56.3741 104.14 56.4464 104.011 55.9065C103.592 54.1429 101.861 53.9796 101.073 54.7702C100.158 55.6892 101.133 57.6223 102.425 57.6223Z" fill="#20E0A1"/>
<path fill-rule="evenodd" clip-rule="evenodd" d="M78.06 79.1065C78.06 81.1798 80.8514 81.0852 81.1824 78.9372C81.3835 77.6321 80.4293 77.3628 79.3 77.3628C78.2759 77.3628 78.06 78.0928 78.06 79.1065Z" fill="#20E0A1"/>
<path fill-rule="evenodd" clip-rule="evenodd" d="M108.318 79.17C108.318 80.1543 109.488 80.4778 110.488 80.4778C111.829 80.4778 112.177 77.3017 109.806 77.3017C108.791 77.3017 108.318 78.1576 108.318 79.17Z" fill="#20E0A1"/>
<path fill-rule="evenodd" clip-rule="evenodd" d="M86.9874 88.0107C88.8304 88.0107 89.2646 86.0687 87.7687 85.1709C87.5138 85.0179 87.3034 84.8505 87.004 84.9692C86.3333 85.2354 85.6571 86.1482 85.8095 86.9477C85.9105 87.4778 86.3718 88.0107 86.9874 88.0107Z" fill="#20E0A1"/>
<path fill-rule="evenodd" clip-rule="evenodd" d="M101.31 27.0463C101.31 28.3375 101.849 28.1673 102.798 28.1673C104.21 28.1673 104.836 25.8632 104.224 25.8632H102.116C101.557 25.8632 101.31 26.4705 101.31 27.0463Z" fill="#20E0A1"/>
<path fill-rule="evenodd" clip-rule="evenodd" d="M108.626 63.5997C108.626 64.413 109.003 64.5264 109.619 64.8434C109.862 64.9683 109.859 65.0267 110.052 65.1565C110.921 64.6948 111.354 64.6139 111.354 63.7242C111.354 63.3422 111.128 62.9271 110.936 62.7112C110.237 61.9234 109.926 62.2368 109.162 62.7063C108.857 62.8942 108.626 63.1345 108.626 63.5997Z" fill="#20E0A1"/>
<path fill-rule="evenodd" clip-rule="evenodd" d="M94.4285 64.5348C95.8382 64.5348 95.7329 62.6043 94.7385 62.6043C94.3055 62.6043 93.8064 63.0761 93.7167 63.4511C93.6438 63.7559 93.8296 64.5348 94.4285 64.5348Z" fill="#20E0A1"/>
<path fill-rule="evenodd" clip-rule="evenodd" d="M86.0579 71.2624C86.0579 72.1056 86.9181 72.0719 87.422 72.0719C88.2274 72.0719 88.1547 70.5151 87.422 70.5151C86.9152 70.5151 86.0579 70.5903 86.0579 71.2624Z" fill="#20E0A1"/>
<path fill-rule="evenodd" clip-rule="evenodd" d="M93.9937 78.7952C93.9937 79.8996 95.4818 79.9711 95.4818 78.5461C95.4818 77.7593 93.9937 78.0914 93.9937 78.7952Z" fill="#20E0A1"/>
<path d="M33.3994 178.606C38.037 184.336 43.7319 189.122 50.1737 192.704C56.6767 196.157 63.9498 197.903 71.3106 197.778C81.8294 197.778 90.2873 194.865 96.6843 189.04C99.8042 186.246 102.277 182.806 103.933 178.959C105.588 175.112 106.384 170.951 106.267 166.764C106.267 157.938 104.202 150.891 100.073 145.623C95.7023 140.178 90.1606 135.79 83.8596 132.784C76.9509 129.407 69.8467 126.443 62.5861 123.909C57.6927 122.229 52.2428 120.022 46.2349 117.289C40.1219 114.495 34.3574 110.993 29.0599 106.856C23.5737 102.6 19.0082 97.2731 15.6407 91.2001C12.1599 85.0078 10.4236 77.3961 10.431 68.3641C10.2812 59.1001 12.8272 49.9918 17.7587 42.149C22.7366 34.3485 29.753 28.0593 38.0486 23.9624C47.2426 19.4157 57.3921 17.1424 67.6467 17.3312C78.3336 17.3312 87.6841 19.3544 95.699 23.4008C103.422 27.2461 110.354 32.5058 116.137 38.9076C121.522 44.8307 125.988 51.5289 129.385 58.7779L108.775 70.62C106.182 65.5168 103.062 60.6993 99.4664 56.247C95.7114 51.5546 91.0797 47.6374 85.8294 44.7139C80.4864 41.7134 73.956 40.2095 66.2383 40.202C55.5515 40.202 47.7543 42.7867 42.846 47.9554C37.9376 53.124 35.4951 58.9038 35.5183 65.2948C35.481 70.6191 36.9449 75.8474 39.7427 80.3775C42.5595 84.959 47.3039 89.2837 53.975 93.3533C60.6469 97.423 69.7151 101.416 81.1802 105.333C86.8809 107.408 92.4384 109.856 97.8179 112.662C103.709 115.733 109.159 119.585 114.019 124.115C119.1 128.856 123.257 134.499 126.282 140.755C129.481 147.238 131.076 154.991 131.068 164.016C131.195 172.086 129.509 180.082 126.133 187.413C122.949 194.234 118.338 200.291 112.611 205.176C106.854 210.077 100.26 213.898 93.1455 216.457C85.8716 219.094 78.1895 220.428 70.452 220.397C60.1236 220.504 49.9187 218.148 40.6816 213.525C31.6226 208.968 23.4975 202.753 16.7287 195.201C10.0626 187.831 4.43388 179.586 0 170.692L19.1671 157.716C23.3005 165.077 28.0622 172.066 33.3994 178.606Z" fill="black"/>
</svg>
