<svg width="274" height="273" viewBox="0 0 274 273" fill="none" xmlns="http://www.w3.org/2000/svg">
<path fill-rule="evenodd" clip-rule="evenodd" d="M90.9481 260.501C90.9481 258.889 91.4541 257.936 92.6811 256.785C93.5116 256.007 94.7004 255.352 95.9227 255.272C98.1692 255.125 100.641 257.538 100.641 260.309C100.641 264.63 95.7329 266.732 92.6336 263.593C91.9419 262.892 90.9481 261.574 90.9481 260.501ZM162.031 260.501C162.031 258.968 163.008 257.604 164.153 256.985C165.62 256.192 166.57 256.345 167.775 257.966C170.645 261.826 167.179 263.855 165.167 263.855C164.096 263.855 162.031 261.673 162.031 260.501ZM138.939 259.926C138.939 256.994 142.77 255.432 144.665 257.601C146.324 259.5 145.801 261.833 143.77 263.168C143.574 263.297 142.903 263.663 142.645 263.663C141.712 263.663 140.508 263.058 140.005 262.588C139.395 262.017 138.939 261.08 138.939 259.926ZM118.982 263.951C118.566 263.951 117.785 263.814 117.424 263.701C115.802 263.191 115.181 261.648 115.181 260.021C115.181 258.162 118.045 253.59 121.67 257.325C122.994 258.69 123.599 259.817 122.754 261.525C122.586 261.864 122.115 262.505 121.849 262.721C121.068 263.353 120.083 263.951 118.982 263.951ZM79.9245 248.616C79.9245 246.251 81.9319 243.632 84.581 243.632C86.5353 243.632 89.0475 246.304 89.0475 248.233C89.0475 249.759 88.8738 250.665 87.5954 251.752C85.772 253.303 79.9245 253.949 79.9245 248.616ZM177.331 250.916C176.495 250.916 175.846 250.963 175.214 250.272C173.929 248.864 175.075 246.028 176.476 246.028C178.031 246.028 179.429 246.308 179.59 248.353C179.689 249.617 178.5 250.916 177.331 250.916ZM196.813 248.137C196.813 247.257 197.498 246.679 198.142 246.219C200.609 244.457 203.465 245.652 203.465 248.041C203.465 249.205 203.54 250.106 202.589 250.992C201.696 251.825 200.128 251.683 198.903 251.683C198.185 251.683 197.707 250.864 197.477 250.342C197.331 250.009 196.813 248.532 196.813 248.137ZM107.579 244.207C109.548 244.207 112.754 246.779 111.224 249.8C110.002 252.212 106.715 253.349 104.713 250.836C101.747 247.114 105.741 244.207 107.579 244.207ZM154.049 245.357C156.108 245.357 157.396 248.338 155.828 250.219C154.411 251.919 151.331 251.119 151.028 248.205C150.929 247.255 151.495 246.677 152.037 246.3C152.242 246.158 153.848 245.357 154.049 245.357ZM131.051 251.683C127.152 251.683 126.442 247.501 128.376 245.726C131.483 242.874 136.111 247.003 133.27 250.47C132.979 250.825 132.747 251.017 132.345 251.263C132.08 251.424 131.416 251.683 131.051 251.683ZM67.9506 236.827C67.9506 234.409 68.6788 232.997 70.9299 232.261C72.737 231.67 75.0936 231.912 76.2928 233.206C78.018 235.067 77.9228 238.391 76.2695 239.946C75.0644 241.079 72.6652 241.558 70.9078 240.937C69.2504 240.352 67.9506 238.845 67.9506 236.827ZM209.357 237.019C209.357 235.027 210.256 234.41 212.044 234.264C213.998 234.105 215.885 236.36 214.139 238.775C213.54 239.602 213.08 239.616 212.296 239.521C211.447 239.418 210.832 239.294 210.25 238.897C209.723 238.538 209.357 237.861 209.357 237.019ZM91.5183 236.731C91.5183 235.052 92.7709 233.315 94.2099 232.545C96.0588 231.556 97.5221 231.89 98.9549 233.353C99.7469 234.161 100.546 234.971 100.546 236.444C100.546 239.144 98.5975 240.442 96.1255 240.601C93.9452 240.742 91.5183 238.892 91.5183 236.731ZM138.939 236.444C138.939 235.467 140.847 232.888 142.915 233.196C143.544 233.29 144.207 233.611 144.603 234.085C145.305 234.924 145.891 236.485 145.337 237.817C144.397 240.076 141.524 240.597 140.01 238.814C139.629 238.366 138.939 237.212 138.939 236.444ZM188.735 234.335C191.588 234.335 191.692 238.84 187.975 238.84C185.962 238.84 185.578 234.335 188.735 234.335ZM120.503 240.086H118.127C116.39 240.086 115.276 238.398 115.276 236.636C115.276 235.534 115.353 235.185 116.088 234.196C116.465 233.69 117.006 233.282 117.555 232.992C119.111 232.169 120.351 232.606 121.55 233.471C122.035 233.821 122.477 234.382 122.782 234.912C123.435 236.046 122.954 238.043 122.255 239.074C121.922 239.566 121.266 240.086 120.503 240.086ZM165.643 238.936C163.315 238.936 163.077 237.948 163.077 236.061C163.077 233.895 166.089 233.384 167.335 234.545C167.929 235.099 167.748 235.499 167.652 236.362C167.561 237.179 167.909 238.443 166.631 238.783C166.424 238.838 165.843 238.936 165.643 238.936ZM55.7866 225.039C55.7866 222.27 58.823 219.288 61.5835 219.288C63.077 219.288 64.06 220.208 64.8384 220.989C68.5777 224.739 65.5848 230.118 61.4885 230.118C59.7617 230.118 58.6612 229.484 57.5692 228.512C56.6348 227.681 55.7866 226.418 55.7866 225.039ZM223.231 227.626C222.316 227.626 221.651 227.077 221.294 226.322C220.451 224.54 222.219 222.93 223.041 222.93C223.974 222.93 224.867 223.102 225.537 223.768C226.435 224.661 225.796 227.626 223.231 227.626ZM79.3543 224.655C79.3543 222.149 82.0561 219.767 84.1059 219.767C85.1658 219.767 85.7037 219.716 86.7065 220.211C87.229 220.469 87.5151 220.733 87.8851 221.131C89.0942 222.434 89.0475 224.095 89.0475 225.71C89.0475 227.94 87.1078 229.543 84.6761 229.543H84.2009C81.7269 229.543 79.3543 227.15 79.3543 224.655ZM130.766 228.968C128.816 228.968 126.775 226.865 126.775 224.943C126.775 223.615 127.033 223.065 128.079 222.041C131.983 218.223 138.131 225.082 132.307 228.51C132.013 228.683 131.184 228.968 130.766 228.968ZM107.388 220.342C108.912 220.342 109.868 220.579 110.882 221.611C114.446 225.24 109.982 229.543 107.579 229.543C106.92 229.543 106.365 229.27 105.898 229.033L104.57 228.073C102.392 225.887 102.439 222.409 105.582 220.82C106.123 220.547 106.566 220.342 107.388 220.342ZM198.333 224.272C198.333 222.834 200.246 222.118 201.545 223.429C202.611 224.503 202.443 225.285 201.581 226.397C200.51 227.777 198.333 227.223 198.333 224.272ZM153.574 228.106C152.345 228.106 150.307 226.126 150.487 224.804C150.72 223.086 152.089 221.492 153.764 221.492C154.618 221.492 155.379 222.188 155.884 222.613C156.329 222.986 156.316 222.987 156.681 223.438C156.793 223.576 157.28 224.33 157.28 224.464C157.28 225.361 156.598 226.475 156.153 226.969C155.614 227.568 154.447 228.106 153.574 228.106ZM177.331 227.147C176.502 227.147 175.744 227.187 175.178 226.347C174.213 224.914 174.557 222.259 176.571 222.259C177.449 222.259 178.066 222.25 178.775 222.816C179.361 223.283 179.337 223.656 179.248 224.478C179.15 225.368 179.06 227.147 177.331 227.147ZM161.936 213.442C161.936 208.855 166.706 209.276 167.94 210.837C168.418 211.443 168.779 212.557 168.779 213.633C168.779 214.593 166.701 216.7 165.547 216.7C165.312 216.7 164.537 216.359 164.284 216.249C163.134 215.751 161.936 214.847 161.936 213.442ZM186.169 213.25C186.169 209.428 190.826 210.093 190.826 212.579C190.826 215.876 190.194 215.55 187.595 215.55C187.124 215.55 186.702 215.158 186.514 214.819C186.333 214.492 186.169 213.709 186.169 213.25ZM119.362 208.649C121.84 208.649 123.734 210.522 123.734 212.867C123.734 214.416 123.457 215.207 122.285 216.389C120.213 218.479 118.041 218.224 116.007 216.347L114.989 215.072C113.764 212.72 115.194 208.649 119.362 208.649ZM67.1904 213.154C67.1904 209.643 69.644 207.499 73.2723 207.499C76.9286 207.499 79.9747 211.742 78.1537 215.489C77.5592 216.713 76.5015 217.593 75.2308 218.1C73.1121 218.946 70.7022 218.462 68.8861 217.003C68.4435 216.647 67.9963 215.958 67.7269 215.392C67.4842 214.883 67.1904 213.85 67.1904 213.154ZM138.273 213.058C138.273 209.579 142.426 207.151 145 209.916C146.237 211.245 146.706 213.65 145.816 215.092C145.752 215.196 145.776 215.148 145.694 215.265C145 216.253 143.744 217.275 142.55 217.275C140.808 217.275 139.979 216.919 138.919 215.288L138.596 214.651C138.468 214.315 138.273 213.459 138.273 213.058ZM96.3649 218.425H95.7947C93.3025 218.425 90.9481 215.875 90.9481 213.346C90.9481 211.36 91.1366 210.806 92.3302 209.277C92.6316 208.89 93.1702 208.512 93.5884 208.245C94.4416 207.701 95.1804 207.691 96.1748 207.691C98.3453 207.691 103.856 211.344 99.706 216.524C99.1231 217.251 97.6237 218.425 96.3649 218.425ZM235.205 215.838C234.244 215.838 232.734 214.857 232.734 213.633C232.734 211.554 235.117 210.074 236.753 211.785C237.005 212.048 237.596 212.901 237.544 213.308C237.44 214.123 236.619 215.838 235.205 215.838ZM212.018 211.237C212.748 211.237 213.823 212.14 213.823 213.346C213.823 214.851 211.993 216.207 210.469 214.62C210.034 214.167 209.685 213.083 209.939 212.306C210.209 211.483 211.861 211.237 212.018 211.237ZM48.0891 207.404C49.9664 207.404 52.1166 207.415 53.6934 208.271C56.0491 209.551 57.0129 215.993 52.0502 218.491C50.5967 219.222 48.8363 219.258 47.3533 218.688C46.8425 218.492 46.054 218.006 45.7394 217.632C43.7052 215.216 43.0786 209.809 46.0361 208.017C46.4826 207.746 47.4327 207.404 48.0891 207.404ZM244.043 201.94V201.461C244.043 200.247 245.147 199.065 246.609 199.065C249.598 199.065 250.454 204.528 246.704 204.528C245.879 204.528 245.182 204.342 244.732 203.929C244.326 203.557 244.043 202.716 244.043 201.94ZM197.288 202.036V201.557C197.288 199.215 200.982 197.759 202.043 199.829C204.758 205.127 197.288 205.387 197.288 202.036ZM125.634 201.94C125.634 200.212 126.023 199.454 127.018 198.161C128.752 195.908 131.549 196.139 133.697 197.547C135.445 198.694 135.328 200.198 135.328 201.845C135.328 205.612 131.106 207.821 127.303 204.954C126.597 204.422 125.634 203.125 125.634 201.94ZM149.297 201.653C149.297 199.62 151.847 197.052 153.384 197.052C154.804 197.052 155.664 197.389 156.545 198.273C157.578 199.307 157.85 200.156 157.85 201.653C157.85 207.855 149.297 206.199 149.297 201.653ZM101.877 201.461C101.877 199.749 102.474 198.693 103.205 197.721C103.762 196.981 105.26 195.902 106.533 195.902C108.518 195.902 109.796 196.155 111.447 197.559C111.906 197.95 112.346 198.564 112.672 199.104C115.514 203.815 107.884 209.704 103.516 205.271C102.555 204.297 101.877 202.992 101.877 201.461ZM221.426 201.174C221.426 199.606 223.299 198.694 224.681 200.2C225.573 201.171 225.638 202.041 224.776 203.019C223.42 204.56 221.426 203.662 221.426 201.174ZM84.6761 207.404C80.4967 207.404 78.7841 204.878 78.7841 200.79C78.7841 195.48 79.3065 195.902 86.1965 195.902C87.7193 195.902 89.08 196.226 89.7476 197.592C90.2783 198.678 90.3279 200.854 90.173 202.309C89.8838 205.026 87.6834 207.404 84.6761 207.404ZM177.046 205.007H176.381C175.043 205.007 173.15 203.023 173.15 201.653C173.15 200.145 174.298 199.056 175.429 198.297C176.787 197.386 178.067 197.894 179.406 198.794C180.021 199.208 180.602 200.118 180.443 201.242C180.275 202.426 180.384 203.929 178.516 204.669C178.123 204.824 177.539 205.007 177.046 205.007ZM119.742 195.711C117.839 195.711 116.365 195.303 115.107 194.06C113.633 192.604 113.47 191.065 113.47 189.002C113.47 185.646 115.378 184.21 118.602 184.21C120.623 184.21 121.683 184.405 123.166 185.563C124.091 186.286 124.874 187.818 124.874 189.002V190.056C124.874 192.252 121.603 195.711 119.742 195.711ZM184.649 190.056C184.649 188.934 185.345 187.908 186.169 187.276C186.533 186.996 186.802 186.686 187.244 186.444C187.724 186.181 188.107 185.939 188.683 185.998C191.411 186.278 193.091 190.686 191.054 192.586C188.655 194.824 184.649 192.124 184.649 190.056ZM211.447 192.644C210.549 192.644 208.661 191.506 208.957 189.755C209.081 189.019 209.4 188.269 209.806 187.825C210.973 186.547 214.103 186.783 214.37 190.082C214.439 190.933 213.941 191.548 213.441 191.875C213.031 192.143 211.817 192.644 211.447 192.644ZM165.072 185.36C167.489 185.36 171.225 188.23 169.605 191.465C168.356 193.96 165.185 194.531 163.296 193.573C160.225 192.014 160.292 188.587 162.1 186.675C162.734 186.005 163.771 185.36 165.072 185.36ZM234.73 192.26C234.646 192.26 232.639 191.049 232.639 190.152C232.639 189.436 232.753 188.846 233.329 188.355C235.497 186.505 238.431 189.173 236.277 191.329C236.026 191.581 235.126 192.26 234.73 192.26ZM137.133 189.193C137.133 188.035 137.856 186.556 138.626 185.814C141.245 183.289 144.525 184.19 146.334 186.91C146.52 187.19 146.691 187.423 146.858 187.723C147.618 189.091 147.668 190.635 147 192.052C146.006 194.165 143.794 194.656 141.315 194.656C138.552 194.656 137.133 191.499 137.133 189.193ZM153.574 183.539C150.966 183.539 148.157 180.568 148.157 178.363C148.157 176.96 148.456 176.202 149.37 175.082C153.803 169.649 158.99 174.275 158.99 177.405C158.99 180.227 158.162 181.916 155.857 183.062C155.3 183.339 154.414 183.539 153.574 183.539ZM172.39 177.98C172.39 176.659 172.945 175.834 173.527 175.102C174.468 173.917 175.866 173.763 177.236 173.763C178.333 173.763 179.469 174.48 180.102 174.993C183.488 177.737 180.062 182.868 177.236 182.868C174.824 182.868 172.39 180.413 172.39 177.98ZM244.138 177.884C244.138 175.334 248.605 175.579 248.605 177.596C248.605 180.08 247.749 180.568 245.754 180.568C244.693 180.568 244.138 179.042 244.138 177.884ZM223.421 181.047C219.232 181.047 219.447 175.488 223.516 175.488C224.629 175.488 225.208 176.551 225.721 177.29C225.991 177.679 226.138 177.661 226.017 178.188C225.844 178.947 225.589 179.514 225.189 180.05C224.841 180.517 224.177 181.047 223.421 181.047ZM199.854 181.813C198.637 181.813 197.858 181.465 197.272 180.68C196.92 180.208 196.338 178.761 196.338 177.98C196.338 176.549 198.533 174.338 199.759 174.338C200.021 174.338 200.906 174.645 201.158 174.747C201.723 174.976 201.939 175.096 202.403 175.408C203.74 176.308 203.677 178.433 203.277 179.515C202.721 181.021 201.448 181.813 199.854 181.813ZM211.637 170.121C208.964 170.121 208.216 168.496 208.216 165.999C208.216 163.282 211.682 161.878 213.934 163.587C215.147 164.508 215.059 165.469 215.059 166.67C215.059 168.659 213.609 170.121 211.637 170.121ZM183.983 166.67C183.983 165.372 184.208 164.186 185.145 163.241C185.456 162.928 185.947 162.639 186.359 162.453C187.938 161.742 190.736 161.881 191.968 163.505C192.598 164.334 193.094 165.84 193.098 166.863C193.105 168.605 189.951 172.66 186.792 170.738C186.131 170.337 186.044 170.232 185.528 169.713C184.858 169.04 183.983 167.956 183.983 166.67ZM231.974 166.479C231.974 164.642 232.853 163.795 234.54 163.795C237.898 163.795 238.18 167.274 236.849 168.615C235.437 170.038 231.974 169.919 231.974 166.479ZM159.656 166.479C159.656 163.574 162.55 160.92 165.167 160.92C167.69 160.92 169.248 162.039 170.174 164.209C170.987 166.113 170.535 168.734 169.322 170.19L168.537 170.917C166.826 172.204 164.239 172.075 162.41 171.182L162.107 171.017C160.579 170.026 159.656 168.291 159.656 166.479ZM257.633 163.987C259.749 163.987 260.769 165.361 260.769 167.437C260.769 169.097 259.075 169.354 257.633 169.354C255.28 169.354 255.678 167.092 255.611 166.601C255.395 165.023 256.06 163.987 257.633 163.987ZM171.249 155.073C171.249 152.996 171.809 152.175 173.078 150.879C174.989 148.928 178.353 148.578 180.493 150.638C183.499 153.532 182.41 160.249 176.666 160.249C173.65 160.249 171.249 157.856 171.249 155.073ZM246.514 157.853C244.479 157.853 243.473 156.885 243.473 154.69C243.473 152.319 245.05 152.308 246.352 152.126C248.738 151.793 249.59 153.836 248.988 156.034C248.693 157.112 247.748 157.853 246.514 157.853ZM200.139 159.674C198.238 159.674 196.41 157.971 195.874 156.513C195.868 156.497 195.803 156.296 195.801 156.29C195.019 153.905 195.657 151.127 198.147 150.572C204.051 149.256 206.941 155.102 202.531 158.636C202.052 159.02 200.945 159.674 200.139 159.674ZM219.335 154.594C219.335 153.807 220.114 152.838 220.623 152.442C220.968 152.174 221.223 151.912 221.584 151.687C221.903 151.487 222.427 151.175 222.855 151.14C223.981 151.049 226.652 152.198 226.652 154.402C226.652 156.092 225.992 157.599 224.525 158.199C223.051 158.801 221.253 158.525 220.435 157.319C220.001 156.678 219.335 155.183 219.335 154.594ZM188.925 148.556C187.109 148.556 185.903 148.309 184.592 147.271C182.952 145.973 182.843 144.572 182.843 142.805C182.843 141.044 184.453 139.024 186.009 138.235C189.494 136.47 193.677 138.505 193.677 143.476C193.677 144.922 193.048 146.264 192.324 147.001C191.431 147.909 190.323 148.556 188.925 148.556ZM207.076 143.189C207.076 138.515 212.152 137.612 214.704 140.192C218.749 144.282 213.503 147.981 211.637 147.981C209.338 147.981 207.076 145.525 207.076 143.189ZM254.497 143.285C254.497 141.826 257.079 139.93 258.108 139.93C258.552 139.93 259.837 140.864 260.13 141.149C261.711 142.679 261.553 144.084 260.08 145.561C259.449 146.193 258.93 146.735 257.918 146.735C256.846 146.735 255.465 145.612 254.937 144.565C254.796 144.284 254.497 143.631 254.497 143.285ZM230.834 143.093C230.834 141.744 233.506 139.355 234.825 139.355C236.677 139.355 238.151 141.597 238.151 143.764C238.151 144.598 238.042 145.053 237.515 145.71C236.335 147.185 233.189 147.31 231.945 145.614C231.616 145.166 230.834 143.764 230.834 143.093ZM242.428 131.592C242.428 130.083 244.793 127.758 246.609 127.758C248.059 127.758 250.22 129.76 250.22 131.208C250.22 132.577 249.933 133.241 248.963 134.157C247.884 135.176 244.754 135.858 243.564 134.279C243.157 133.739 242.428 132.313 242.428 131.592ZM223.326 136.288C220.772 136.288 218.67 133.697 218.67 131.975C218.67 130.543 218.892 129.391 219.925 128.353C221.235 127.038 222.945 126.782 224.685 127.538C226.015 128.115 227.793 129.783 227.793 131.496C227.793 133.551 225.338 136.288 223.326 136.288ZM194.342 131.783C194.342 129.001 197.129 125.937 199.854 125.937C204.224 125.937 207.205 131.798 203.727 135.306C203.249 135.788 202.829 136.127 202.15 136.399C201.859 136.516 201.483 136.668 201.162 136.745C198.421 137.403 195.998 136.144 194.909 133.991C194.641 133.46 194.342 132.583 194.342 131.783ZM257.537 116.065H258.203C259.84 116.065 263.413 119.131 261.016 122.353C259.537 124.34 256.841 124.043 255.064 122.681C252.175 120.466 255.213 116.065 257.537 116.065ZM230.169 119.899C230.169 117.568 232.259 115.49 234.16 115.49C235.696 115.49 236.41 115.844 237.561 116.852C237.87 117.123 237.812 117.049 238.087 117.375C239.154 118.638 239.196 118.925 239.196 120.378C239.196 121.465 238.457 122.547 237.856 123.052C235.099 125.366 230.169 123.744 230.169 119.899ZM211.352 125.266C209.032 125.266 205.936 122.63 205.936 119.995C205.936 118.499 206.779 117.179 207.717 116.233C212.642 111.266 216.769 117.457 216.769 119.324C216.769 121.357 215.762 123.894 213.718 124.777C213.163 125.017 212.119 125.266 211.352 125.266ZM246.419 112.998C244.132 112.998 241.762 110.144 241.762 108.685C241.762 105.998 244.458 103.797 246.229 103.797C247.861 103.797 249.427 105.253 250.24 106.557C252.044 109.449 248.611 112.998 246.419 112.998ZM228.363 108.302C228.363 109.023 228.057 109.852 227.79 110.312C226.926 111.802 224.946 113.573 223.231 113.573C221.906 113.573 221 113.383 220.022 112.401C219.288 111.664 218.894 111.201 218.451 110.152C216.107 104.606 223.605 100.453 227.346 105.494C227.917 106.264 228.363 107.285 228.363 108.302ZM196.242 102.551L198.886 102.732C200.876 102.566 203.03 102.445 204.536 103.963C206.93 106.375 206.095 113.22 202.052 114.065C201.15 114.254 198.701 114.464 197.61 114.221C197.263 114.144 197.058 114.041 196.779 113.895C194.702 112.816 194.325 112.216 194.341 109.549C194.349 108.054 194.366 106.48 194.25 105.132C194.185 104.381 194.385 103.704 194.704 103.3C195.048 102.864 195.65 102.551 196.242 102.551ZM211.733 102.551C209.919 102.551 208.36 102.067 207.383 100.996C206.012 99.4942 205.936 97.6702 205.936 95.6507C205.936 92.0004 208.077 90.7491 211.643 91.0427C213.393 91.1868 214.214 91.3604 215.562 92.3634C217.157 93.5503 217.339 95.1569 217.339 96.9924C217.339 98.3938 216.285 100.02 215.559 100.756C214.747 101.581 213.316 102.551 211.733 102.551ZM257.442 92.2004H258.298C261.08 92.2004 262.384 94.4546 262.384 97.28C262.384 98.7952 259.696 101.401 258.203 101.401C256.022 101.401 252.316 98.5886 253.557 95.1825C254.12 93.6376 255.704 92.2004 257.442 92.2004ZM234.825 101.401C233.124 101.401 231.989 100.971 231.007 100.172C230.098 99.432 229.598 97.8356 229.598 96.5133C229.598 95.0806 230.364 93.966 231.094 93.2298C233.392 90.912 236.051 91.1771 238.226 93.3706L239.253 94.7309C240.394 96.6229 239.676 98.4596 238.27 99.8922C237.533 100.644 236.266 101.401 234.825 101.401ZM246.799 89.7084H245.944C243.39 89.7084 241.192 87.9445 241.192 85.3954C241.192 83.711 241.573 82.6605 242.782 81.4405C244.708 79.4987 247.846 79.4184 249.818 81.392C250.998 82.5726 251.455 83.4512 251.455 85.2038C251.455 86.3749 250.837 87.6943 250.055 88.3914C249.332 89.0352 248.121 89.7084 246.799 89.7084ZM222.756 79.3573C226.126 79.3573 228.933 82.3154 228.933 85.012C228.933 87.7099 225.385 90.8585 223.231 90.8585C222.125 90.8585 221.671 90.825 220.55 90.1127C218.128 88.5744 216.707 85.5635 217.879 82.7773C218.703 80.82 220.326 79.3573 222.756 79.3573ZM234.825 78.6864C229.992 78.6864 227.404 74.0963 230.14 70.4156C233.565 65.8081 238.778 67.6398 239.711 71.7461C240.523 75.3216 238.923 78.6864 234.825 78.6864ZM217.434 61.4347C217.434 60.486 217.502 58.0539 217.879 57.2824C218.639 55.7271 222.024 56.0675 223.992 56.0675C227.246 56.0675 228.933 57.7372 228.933 61.2431C228.933 63.0755 228.758 64.6757 227.521 66.0491C226.678 66.986 224.796 67.5687 223.421 67.5687C221.396 67.5687 219.078 67.8295 218.098 65.9413C217.427 64.6502 217.607 63.7007 217.524 62.6857C217.489 62.252 217.434 62.0072 217.434 61.4347ZM234.73 55.9717C231.223 55.9717 229.028 53.5784 229.028 50.0294C229.028 45.9619 229.992 44.3746 234.54 44.3746C236.197 44.3746 238.066 44.7015 238.981 45.455C242.132 48.05 240.299 55.9717 234.73 55.9717ZM217.339 27.3146C217.339 29.1486 217.625 30.4696 218.94 31.5469C222.313 34.3096 227.57 30.9824 228.687 34.2714C229.459 36.5443 228.933 40.6985 228.175 42.6511C227.452 44.5127 226.673 44.2789 224.277 44.2789C222.717 44.2789 220.377 44.1053 218.93 44.4454C218.087 44.6435 217.712 44.9867 217.533 45.8159C216.952 48.5115 217.769 51.4551 217.304 54.1146C216.939 56.2003 215.003 55.9717 213.253 55.9717C211.272 55.9717 209.18 55.7677 207.947 56.5627C206.658 57.3941 205.841 58.7144 205.841 60.3805C205.841 61.9007 205.582 65.1376 206.283 66.452C206.576 67.0026 206.968 67.4039 207.608 67.6074C209.929 68.3459 214.906 66.4597 216.672 69.2C217.855 71.0361 218.428 74.4155 217.276 76.5138C215.487 79.7702 210.883 79.2615 207.551 79.2615C206.9 79.2615 206.266 79.1261 206.035 78.4905C205.856 77.9986 205.936 76.9551 205.936 76.2904C205.936 74.7569 205.936 73.2234 205.936 71.69C205.936 69.9537 206.081 68.7567 204.909 68.1249C203.643 67.4427 201.046 67.5687 199.379 67.5687C194.598 67.5687 193.158 73.69 194.986 76.8862C197.854 81.8986 204.134 77.2155 205.559 80.0248C206.382 81.6468 205.889 83.859 205.838 85.584C205.806 86.6524 205.952 87.7055 205.686 88.5945C204.214 93.5204 197.075 88.7208 194.986 92.083C194.395 93.0332 194.307 94.4178 194.246 95.5544C193.925 101.557 195.371 102.552 188.545 102.551C186.034 102.551 183.846 102.903 183.043 105.437C182.868 105.989 182.74 106.522 182.746 107.246C182.759 108.845 182.196 112.727 183.698 113.67C184.923 114.439 187.032 114.34 188.45 114.34C190.62 114.34 192.489 113.815 193.425 115.457C194.923 118.082 195.273 124.919 190.17 125.946C188.084 126.366 185.047 126.868 183.736 124.653C183.055 123.501 182.834 122.181 182.844 120.377L182.743 117.891C182.443 114.02 179.941 114.244 176.666 114.244C175.824 114.244 174.919 114.471 174.321 114.754C173.494 115.145 173.243 115.322 172.649 115.943C171.11 117.553 170.816 121.018 171.545 123.243C171.742 123.845 172.101 124.459 172.617 124.845C175.342 126.884 180.572 125.199 181.733 126.386C183.124 127.808 183.191 132.367 182.571 134.385C181.436 138.081 177.511 137.534 174.385 137.534C169.93 137.534 171.344 137 171.344 131.017C171.344 127.649 169.595 125.841 166.023 125.841H164.787C162.146 125.841 159.56 129.089 159.56 131.783C159.56 140.501 167.777 136.384 170.358 137.954C171.142 138.431 171.145 138.62 171.267 139.721C171.354 140.52 171.332 141.4 171.235 142.312C171.024 144.313 170.854 147.2 169.31 148.421C167.905 149.533 166.507 149.129 164.787 149.131C159.921 149.137 159.656 149.469 159.656 144.243C159.656 140.806 160.098 139.026 156.792 137.834C154.082 136.857 151.622 137.357 149.653 139.331C149.08 139.906 148.658 140.487 148.359 141.284C147.541 143.467 147.833 147.129 149.978 148.54C152.072 149.918 155.511 148.788 158.097 149.457C159.776 149.891 159.561 151.996 159.56 153.444C159.56 154.472 159.664 155.182 159.659 156.131C159.644 159.056 158.374 160.065 155.989 160.672C155.319 160.842 154.35 161.016 153.574 161.016C152.022 161.016 149.457 160.464 148.615 159.787C147.039 158.52 148.252 156.729 148.252 154.786C148.252 152.981 148.146 151.421 146.85 150.257C145.127 148.707 139.66 148.551 137.987 150.759C137.775 151.039 137.577 151.243 137.387 151.591C136.222 153.719 135.873 157.988 137.725 159.844C139.857 161.981 145.61 160.132 147.171 161.147C148.396 161.944 148.062 166.362 148.062 167.916C148.062 169.291 147.044 170.792 146.109 171.506C144.769 172.528 140.717 173.319 138.881 172.192C135.416 170.065 137.096 165.114 136.451 163.045C136.306 162.577 136.014 162.164 135.629 161.87C135.528 161.793 135.59 161.84 135.466 161.754C134.51 161.094 132.115 160.632 130.671 160.632C128.489 160.632 126.422 161.797 125.404 163.467C124.542 164.88 124.807 169.508 125.175 170.872C125.727 172.918 127.615 172.606 129.341 172.613C131.767 172.622 134.347 171.934 135.824 174.316C136.701 175.73 136.87 179.237 136.184 180.76C135.039 183.303 132.518 184.114 129.626 184.114C126.609 184.114 124.955 181.804 124.967 178.749C124.994 172.224 124.284 172.421 118.412 172.421C116.518 172.421 114.807 172.705 114.056 173.874C112.315 176.584 114.719 181.916 112.126 183.62C111.548 184.001 110.569 183.975 109.67 184.019C107.452 184.125 104.893 184.504 102.718 183.744C102.321 183.605 102.225 183.658 102.067 183.347C101.929 183.076 101.967 182.714 101.971 182.389L101.91 176.227C101.842 175.748 101.811 175.519 101.649 175.142C100.854 173.29 95.4004 170.566 91.6844 174.314C89.6584 176.357 90.0268 178.838 90.6628 181.43C90.8591 182.23 91.0777 183.142 91.5832 183.665C92.124 184.224 93.4099 184.067 94.2746 184.113C96.1356 184.213 98.4219 184.544 100.301 184.058C100.812 183.926 101.602 183.57 101.972 183.539C101.972 185.443 101.782 187.237 101.782 189.193C101.782 191.496 102.196 192.785 100.952 194.203C100.265 194.986 98.1026 195.902 96.65 195.902C94.3906 195.902 90.8923 195.758 90.4139 192.991C90.1627 191.538 90.4529 186.694 90.3011 186.204C89.7897 184.552 86.719 183.443 85.2463 183.443C83.7956 183.443 82.3326 183.684 81.2393 184.577C76.5835 188.381 80.1814 195.057 77.7933 195.67C77.5496 195.732 76.7728 195.807 76.5072 195.81C75.4213 195.824 74.6992 195.711 73.6525 195.711C72.6045 195.711 71.8484 195.812 70.8003 195.805C66.8576 195.781 67.2593 197.978 67.0948 200.982C67.0656 201.516 67.1163 201.972 67.1676 202.353C67.249 202.958 67.1142 204.358 66.8399 204.941C66.3551 205.972 65.388 206.52 64.3543 206.939C62.0773 207.863 58.8963 207.629 56.872 206.309C55.064 205.13 55.8366 202.81 55.6866 200.987C55.5604 199.454 55.6916 199.821 55.6916 198.394C55.6916 195.37 47.3081 194.67 45.0691 196.978C43.6406 198.451 44.0978 199.579 44.0978 202.036C44.0978 202.849 44.0015 203.257 44.0054 204.052C44.015 205.972 42.8837 207.404 40.7717 207.404H37.0655C33.8377 207.404 32.596 206.735 32.5959 203.669C32.5958 202.663 32.5041 202.01 32.5041 200.982C32.5041 198.853 33.0113 198.236 30.7767 196.878C30.0446 196.433 29.5342 196.261 28.6453 195.96C26.3302 195.177 23.3634 195.495 22.0298 197.511C20.9657 199.119 20.8152 201.333 20.8152 203.57C20.8152 208.884 27.302 206.962 30.5997 207.695C32.0518 208.018 32.409 209.106 32.409 210.566V215.838C32.409 217.2 32.0692 218.148 31.171 218.615C30.597 218.913 28.7447 219.288 27.8475 219.288C27.9741 219.836 29.7542 222.79 30.114 223.232C30.2461 223.394 30.5544 223.782 30.685 223.902C31.1481 224.327 31.6521 224.64 32.219 224.943C33.0599 223.676 32.0621 222.295 33.3977 220.573C34.2495 219.474 35.5381 219.083 37.4486 219.093L40.0363 219.275C40.7317 219.425 41.4341 219.801 41.9139 220.149C43.6847 221.433 44.0028 222.589 44.0028 224.655C44.0028 227.607 42.4742 230.32 39.638 230.7C39.3403 230.74 39.2747 230.743 38.9555 230.778C38.6566 230.812 38.491 230.753 38.491 231.077C38.491 233.214 41.0768 236.252 43.1476 236.252H44.0028C44.0028 234.762 44.5482 233.469 45.6404 232.441C48.6198 229.636 53.5112 230.835 54.9879 234.566C55.802 236.623 55.8604 238.323 54.3373 239.966C53.8741 240.466 52.6929 241.841 52.1628 242.086C51.1725 242.544 50.2152 242.221 51.7262 244.277C53.7307 247.004 55.6914 245.961 57.664 244.184C59.1045 242.886 61.5014 242.609 63.4308 243.494C65.0588 244.241 66.6202 245.769 66.6202 247.849C66.6202 251.748 64.3015 252.039 67.7606 253.791C70.8049 255.333 70.0752 254.558 72.6071 254.558C75.774 254.558 77.3501 256.444 78.594 258.967C80.0658 261.953 83.544 263.264 86.7393 263.787C88.0684 264.004 89.5902 264.306 90.8532 264.813L94.5999 266.306C95.2919 266.585 95.8082 266.787 96.5418 266.935C97.367 267.102 97.943 268.264 100.546 268.264C103.226 268.264 107.526 265.921 109.514 266.983C110.128 267.312 111.196 268.721 111.783 269.391C112.785 270.536 114.074 271.714 115.751 271.714C116.927 271.714 117.368 271.5 117.727 271.826C118.001 272.075 118.159 272.219 118.504 272.402C121.013 273.737 124.214 272.678 126.04 270.782C127.267 269.508 127.331 267.801 129.534 267.5C131.108 267.285 133.822 267.381 134.432 269.167C134.576 269.587 134.624 270.089 134.744 270.482C134.887 270.952 135.039 271.293 135.311 271.635C135.806 272.258 136.535 272.768 137.608 272.768H146.446C148.599 272.768 149.286 271.495 150.026 270.149C151.421 267.611 154.132 266.927 156.467 268.7C157.025 269.123 157.868 270.372 158.61 270.372C162.497 270.372 165.44 270.51 169.01 269.073C169.971 268.686 170.735 268.188 171.631 267.786C177.02 265.369 178.991 266.209 180.999 265.446C181.809 265.138 184.164 263.988 184.77 263.402C186.517 261.715 184.649 260.905 184.649 260.021C184.649 258.99 186.445 256.092 188.165 256.092C189.633 256.092 192.358 256.496 192.24 258.473C192.147 260.044 191.44 259.926 194.152 259.926C196.329 259.926 198.461 258.592 199.835 257.703C204.353 254.782 203.674 254.568 209.579 251.619C211.704 250.558 213.876 249.335 215.738 247.863L217.365 246.533C217.562 246.342 217.685 246.184 217.886 246.005C218.103 245.813 218.19 245.79 218.412 245.576C218.655 245.341 218.685 245.247 218.888 245.002C221.514 241.834 225.819 241.491 228.134 238.418C229.326 236.837 229.093 235.551 231.19 233.449C232.527 232.108 234.092 231.063 235.642 229.984C238.085 228.284 239.732 226.283 241.065 223.569C243.413 218.785 244.366 220.073 246.965 217.443C247.635 216.766 248.283 216.155 248.79 215.354C249.262 214.609 250.175 212.379 250.726 211.268C252.345 207.999 255.913 204.004 258.031 200.617C258.879 199.261 259.153 198.745 259.153 197.052C259.153 195.724 258.665 193.778 257.973 193.163C256.88 192.191 255.067 192.876 255.067 190.631C255.067 189.516 255.31 188.877 255.785 188.192C256.237 187.539 257.331 187.085 258.203 187.085C258.827 187.085 259.37 187.326 259.86 187.522C260.151 187.638 260.512 187.738 260.654 187.967C260.802 188.208 260.752 188.383 260.864 188.618C261.197 188.529 262.038 187.481 262.36 187.157C262.87 186.643 263.329 186.193 263.684 185.535C264.658 183.73 264.277 181.899 265.575 178.514C266.599 175.843 266.998 173.685 268.845 171.368C269.082 171.072 269.319 170.861 269.554 170.547C271.158 168.415 270.642 165.387 270.652 162.837C270.658 161.118 270.974 159.146 269.108 158.451C267.956 158.022 267.945 158.509 267.063 157.543C265.648 155.993 265.997 154.497 267.136 152.869C267.652 152.13 268.401 151.527 269.416 151.527C269.897 151.527 270.925 151.671 271.222 151.815C271.909 150.505 272.572 149.152 273.04 147.61C274.057 144.251 274.352 140.259 273.504 136.766C273.369 136.213 273.244 135.748 273.083 135.178L272.362 133.604C272.024 134.881 268.896 136.355 267.016 134.204C265.937 132.969 265.419 130.017 266.955 128.822C268.639 127.511 270.898 128.612 272.244 129.986C272.513 130.26 272.724 130.524 273.028 130.729C273.028 129.865 272.838 129.132 272.838 128.141C272.838 125.534 273.408 123.328 273.408 120.762C273.408 119.22 273.019 117.704 272.767 116.424C272.46 114.868 272.242 113.83 271.124 113.097C270.544 112.718 270.084 112.595 269.417 112.327C267.195 111.432 265.425 111.545 265.425 108.302C265.425 107.222 265.701 106.407 266.093 105.717C267.414 103.39 270.652 105.407 270.652 100.347C270.652 97.1719 268.328 93.0224 266.725 90.3138C265.431 88.1255 264.11 86.2357 263.719 83.3785C263.537 82.0543 263.755 80.9213 263.283 79.7923C262.669 78.3207 261.545 78.1114 260.103 78.1114C258.701 78.1114 254.896 79.9372 253.179 75.3187C252.413 73.2569 252.638 70.8388 253.948 69.5075C254.975 68.4643 255.105 68.6188 256.238 68.0796C257.524 67.468 256.569 65.016 255.91 64.1301C255.328 63.3481 254.616 62.8461 254.32 61.9006C254.132 61.3025 254.031 61.0513 253.261 61.0513C253.328 60.7632 253.371 60.5734 253.241 60.213C252.89 59.2366 251.361 59.8318 251.361 60.668C251.361 61.6823 252.358 64.0307 249.828 65.9277C247.72 67.509 244.201 67.8082 242.309 65.676C241.25 64.4833 240.199 61.5815 241.159 59.6765C241.377 59.2439 241.436 59.085 241.719 58.7078C241.989 58.3486 242.194 58.1731 242.499 57.8645C243.003 57.3529 243.671 56.8045 244.357 56.4804C245.458 55.9615 247.057 55.9231 248.309 56.461C248.728 56.6408 248.921 56.9218 249.365 57.0259C249.952 56.6292 249.84 56.2378 249.84 55.3007C248.559 54.9997 249.026 53.6945 248.659 52.658L247.433 49.9648C245.468 46.2986 242.417 48.0239 239.545 42.2022C238.31 39.6991 236.886 37.0743 234.465 35.5373C231.672 33.7646 229.323 33.9523 227.792 30.4786C226.41 27.3442 223.65 25.4989 220.826 23.7987C219.644 23.0877 218.545 22.6333 217.826 24.6422C217.612 25.2371 217.339 26.5346 217.339 27.3146Z" fill="#20E0A1"/>
<path fill-rule="evenodd" clip-rule="evenodd" d="M59.6822 195.906C60.2873 195.906 60.6525 195.878 61.1215 195.824L64.0282 195.836C66.1648 196.117 66.9226 196.357 67.3549 192.91C67.5322 191.496 67.452 187.451 66.5924 186.349C66.1914 185.835 65.829 185.504 65.2851 185.176C60.6475 182.379 55.8254 185.138 55.5078 189.3C55.3382 191.522 55.3978 194.376 57.4309 195.397C57.9228 195.644 58.9866 195.906 59.6822 195.906Z" fill="#20E0A1"/>
<path fill-rule="evenodd" clip-rule="evenodd" d="M205.839 38.5311C205.839 40.5164 206.334 41.8945 207.63 42.9549C209.487 44.4749 211.402 44.3774 213.727 44.3774C217.939 44.3774 217.433 42.2186 217.433 38.2435C217.433 35.1086 216.14 32.6846 212.777 32.6846H211.921C208.846 32.6846 205.839 35.4611 205.839 38.5311Z" fill="#20E0A1"/>
<path fill-rule="evenodd" clip-rule="evenodd" d="M182.749 84.8234C182.749 85.947 182.859 86.6298 183.418 87.5999L184.351 88.8624C185.293 89.9066 187.367 90.9574 188.926 90.9574C190.456 90.9574 192.379 91.0404 193.355 89.7692C194.028 88.8936 194.312 87.6825 194.346 86.4559C194.41 84.1588 194.945 81.7051 192.412 80.3498C191.37 79.7923 189.164 79.1403 188.111 79.2983C186.24 79.5791 185.03 80.4836 183.93 81.8925C183.708 82.1762 183.572 82.3834 183.394 82.6942C183.145 83.1275 182.749 84.1772 182.749 84.8234Z" fill="#20E0A1"/>
<path fill-rule="evenodd" clip-rule="evenodd" d="M101.782 166.957C101.782 170.099 104.274 172.516 107.009 172.516C108.368 172.516 109.249 172.58 110.561 172.169C111.314 171.932 111.677 171.691 112.165 171.199C114.101 169.246 113.766 165.173 111.877 163.006C111.636 162.729 111.47 162.474 111.192 162.259C109.345 160.831 107.934 160.216 105.519 161.525C104.364 162.151 103.099 163.427 102.478 164.592C102.189 165.133 101.782 166.184 101.782 166.957Z" fill="#20E0A1"/>
<path fill-rule="evenodd" clip-rule="evenodd" d="M32.5028 189.96C32.5028 191.625 32.8736 193.333 34.2111 194.371C34.8016 194.829 35.0631 195.077 35.8547 195.397C36.5958 195.696 37.1513 195.798 38.1503 195.833C41.4854 195.95 44.0965 194.745 44.0965 191.014C44.0965 188.923 43.6029 187.668 42.4423 186.165C41.7398 185.255 40.1386 184.113 38.5847 184.113C36.9127 184.113 35.4795 185.182 34.6172 186.054C34.0402 186.638 33.7353 186.965 33.2804 187.677C32.9517 188.192 32.5028 189.153 32.5028 189.96Z" fill="#20E0A1"/>
<path fill-rule="evenodd" clip-rule="evenodd" d="M73.2715 184.211C78.6972 184.211 80.4034 178.053 77.0985 174.601C75.1707 172.588 73.1545 171.963 70.6415 173.316C67.6711 174.916 65.44 179.617 68.8769 182.701C69.8382 183.564 71.4809 184.211 73.2715 184.211Z" fill="#20E0A1"/>
<path fill-rule="evenodd" clip-rule="evenodd" d="M200.804 56.069C204.217 56.069 205.936 54.1223 205.936 50.5101C205.936 47.571 202.964 44.2803 200.709 44.2803C197.792 44.2803 194.19 47.7007 194.265 50.2136C194.357 53.3329 197.547 56.069 200.804 56.069Z" fill="#20E0A1"/>
<path fill-rule="evenodd" clip-rule="evenodd" d="M113.472 155.074C113.472 158.08 116.717 160.921 119.174 160.921C120.833 160.921 122.294 160.309 123.188 159.506C125.667 157.282 125.524 153.079 123.153 151.157C122.86 150.919 122.748 150.772 122.402 150.572C117.841 147.942 113.472 152.326 113.472 155.074Z" fill="#20E0A1"/>
<path fill-rule="evenodd" clip-rule="evenodd" d="M171.724 97.2823C171.724 100.739 175.445 103.855 179.6 102.159C181.635 101.328 182.58 99.331 182.803 96.9541C182.943 95.4583 181.884 93.9232 181.2 93.0925C180.372 92.089 178.69 91.1483 177.14 91.1483C175.632 91.1483 174.005 92.1975 173.325 93.0508C172.378 94.2387 171.724 95.6022 171.724 97.2823Z" fill="#20E0A1"/>
<path fill-rule="evenodd" clip-rule="evenodd" d="M9.9815 188.426C9.9815 191.166 12.1074 194.551 14.6752 195.577C16.2878 196.221 17.7168 195.691 18.9446 194.686C19.8731 193.927 21.0052 192.451 21.0052 190.822C21.0052 187.393 18.1356 184.113 15.2082 184.113C13.85 184.113 9.9815 187.187 9.9815 188.426Z" fill="#20E0A1"/>
<path fill-rule="evenodd" clip-rule="evenodd" d="M79.2591 167.15C79.2591 168.858 79.9195 169.8 80.7802 170.792C80.9338 170.969 81.2154 171.203 81.4217 171.391C83.4806 173.266 86.4449 172.701 88.455 170.674C89.4785 169.642 90.2827 168.332 90.2827 166.575C90.2827 164.324 87.1302 161.4 84.3908 161.4C81.4613 161.4 79.2591 164.189 79.2591 167.15Z" fill="#20E0A1"/>
<path fill-rule="evenodd" clip-rule="evenodd" d="M44.5746 178.839C44.5746 179.61 44.8138 180.413 45.049 180.949C45.453 181.868 46.0896 182.556 46.8538 183.154C48.7546 184.641 50.9782 184.439 52.8821 183.097C53.7487 182.486 54.3217 181.82 54.8797 180.894C55.4622 179.928 55.7308 178.874 55.4121 177.59C54.5539 174.132 48.7951 170.515 45.5412 175.501C45.0708 176.222 44.5746 177.674 44.5746 178.839Z" fill="#20E0A1"/>
<path fill-rule="evenodd" clip-rule="evenodd" d="M183.318 61.6252C183.318 65.2909 188.051 70.2214 192.465 65.7704C196.877 61.3205 192.627 56.5455 189.115 56.5455C188.019 56.5455 187.571 56.6172 186.588 57.064C185.005 57.7835 183.318 59.7888 183.318 61.6252Z" fill="#20E0A1"/>
<path fill-rule="evenodd" clip-rule="evenodd" d="M171.249 108.495C171.249 105.506 168.555 103.128 165.737 103.128C162.908 103.128 159.294 106.778 160.387 109.865C161.023 111.663 162.829 113.498 164.638 114.107C167.741 115.153 171.249 111.058 171.249 108.495Z" fill="#20E0A1"/>
<path fill-rule="evenodd" clip-rule="evenodd" d="M130.861 149.228C133.938 149.228 136.373 145.828 136.373 143.573C136.373 140.909 133.68 138.11 130.671 138.11C129.279 138.11 128.063 139.166 127.178 140.051C125.516 141.712 124.974 143.622 126.076 145.811C126.919 147.485 128.949 149.228 130.861 149.228Z" fill="#20E0A1"/>
<path fill-rule="evenodd" clip-rule="evenodd" d="M142.55 137.535C145.096 137.535 147.968 134.519 148.023 132.061C148.087 129.261 144.083 124.874 140.497 127.031C137.159 129.04 135.663 132.392 138.867 135.594C139.097 135.824 139.293 136.057 139.535 136.262C140.244 136.865 141.54 137.535 142.55 137.535Z" fill="#20E0A1"/>
<path fill-rule="evenodd" clip-rule="evenodd" d="M200.423 21.5628C197.628 21.5628 192.156 26.2124 196.455 30.5485C198.673 32.7855 201.777 32.5585 204.131 30.7659C205.107 30.0226 205.925 28.2957 205.83 27.0418C205.676 24.9914 204.149 23.0189 202.547 22.2002C202.016 21.929 201.166 21.5628 200.423 21.5628Z" fill="#20E0A1"/>
<path fill-rule="evenodd" clip-rule="evenodd" d="M148.632 120.188C148.632 122.784 151.112 125.364 153.668 125.364C155.557 125.364 156.982 125.26 158.246 123.655C158.961 122.747 159.655 120.762 159.655 119.709C159.655 118.974 159.28 118.362 158.973 117.905C157.955 116.391 155.912 114.821 154.048 114.821C151.99 114.821 148.632 117.863 148.632 120.188Z" fill="#20E0A1"/>
<path fill-rule="evenodd" clip-rule="evenodd" d="M21.479 178.364C21.479 183.167 27.051 185.034 30.3598 182.529C32.1669 181.161 32.3291 178.423 31.3645 176.445C30.5551 174.786 28.7186 173.093 26.6106 173.093C24.4315 173.093 21.479 176.138 21.479 178.364Z" fill="#20E0A1"/>
<path fill-rule="evenodd" clip-rule="evenodd" d="M96.3647 160.346C98.8914 160.346 101.306 158.122 101.306 155.17C101.306 151.837 97.7353 149.702 94.8609 150.491C93.0153 150.998 91.4828 152.46 91.0065 154.367C90.6961 155.61 91.027 156.592 91.4842 157.505C92.307 159.146 94.4491 160.346 96.3647 160.346Z" fill="#20E0A1"/>
<path fill-rule="evenodd" clip-rule="evenodd" d="M172.296 73.4145C172.296 76.0312 174.771 78.7817 176.953 78.7817C178.491 78.7817 179.447 78.1411 180.471 77.3463L181.578 75.9713C182.178 74.8303 182.179 74.651 182.179 73.4145C182.179 70.8875 179.571 68.239 177.428 68.239C176.393 68.239 175.972 68.2337 174.936 68.8885C174.653 69.0673 174.531 69.2024 174.29 69.3878C173.301 70.1506 172.296 72.0692 172.296 73.4145Z" fill="#20E0A1"/>
<path fill-rule="evenodd" clip-rule="evenodd" d="M183.889 38.2424V38.9132C183.889 41.0196 186.287 43.8012 188.83 43.8012C191.279 43.8012 193.772 41.2311 193.772 38.434C193.772 35.663 190.218 31.9096 186.77 33.7686C186.361 33.9893 185.66 34.5364 185.394 34.873C184.682 35.7751 183.889 36.956 183.889 38.2424Z" fill="#20E0A1"/>
<path fill-rule="evenodd" clip-rule="evenodd" d="M56.7359 166.384C56.7359 168.55 57.2689 170.491 59.1147 171.46C61.511 172.719 64.6102 171.541 66.0463 169.065C67.371 166.78 66.7704 161.975 61.1073 161.975C58.4627 161.975 56.7359 163.904 56.7359 166.384Z" fill="#20E0A1"/>
<path fill-rule="evenodd" clip-rule="evenodd" d="M112.521 143.762C112.521 141.216 110.459 138.682 108.15 138.682C106.7 138.682 106.171 138.83 104.984 139.802C100.611 143.379 104.461 147.827 106.722 148.46C109.347 149.196 112.521 146.467 112.521 143.762Z" fill="#20E0A1"/>
<path fill-rule="evenodd" clip-rule="evenodd" d="M33.6459 166.863C33.6459 167.814 33.6455 168.226 34.2334 169.146C35.064 170.445 36.6449 171.943 38.3023 171.943C40.4326 171.943 43.4341 169.053 43.4341 166.959C43.4341 164.988 40.4828 161.975 38.2073 161.975C35.8086 161.975 33.6459 164.797 33.6459 166.863Z" fill="#20E0A1"/>
<path fill-rule="evenodd" clip-rule="evenodd" d="M172.296 50.1255C172.296 52.0927 173.602 53.5279 175.24 54.3444C177.012 55.2276 179.135 54.9913 180.587 53.6953C184.717 50.0095 179.816 45.1192 177.279 45.4635C175.994 45.638 174.867 46.0147 173.934 46.8896C173.202 47.5768 172.296 48.7522 172.296 50.1255Z" fill="#20E0A1"/>
<path fill-rule="evenodd" clip-rule="evenodd" d="M165.642 89.8066C166.674 89.8066 167.078 89.7975 168.02 89.3297C168.652 89.0164 168.798 88.8763 169.277 88.3931C173.003 84.6359 168.299 80.4139 165.737 80.4139C163.384 80.4139 160.834 82.7278 160.752 85.0388C160.728 85.7135 160.923 86.4194 161.173 86.9339C161.905 88.4358 163.772 89.8066 165.642 89.8066Z" fill="#20E0A1"/>
<path fill-rule="evenodd" clip-rule="evenodd" d="M68.3322 155.072C68.3322 156.642 69.0046 157.516 70.0656 158.595C71.7303 160.288 73.7193 160.909 75.5309 159.169C76.4031 158.331 77.6452 157.007 77.6452 155.647C77.6452 154.312 76.8864 152.903 76.2429 152.173C75.2757 151.076 74.3562 150.376 72.7035 150.376C70.9422 150.376 68.3322 153.089 68.3322 155.072Z" fill="#20E0A1"/>
<path fill-rule="evenodd" clip-rule="evenodd" d="M183.889 15.2387C183.889 17.224 186.572 19.935 188.545 19.935C192.253 19.935 194.805 15.3129 192.034 12.0079C190.285 9.92249 187.453 10.1411 185.528 12.0997C184.806 12.8339 183.889 13.8323 183.889 15.2387Z" fill="#20E0A1"/>
<path fill-rule="evenodd" clip-rule="evenodd" d="M15.4954 171.368C17.0196 171.368 17.6438 171.01 18.6574 169.956C20.2215 168.33 20.1275 166.146 18.9373 164.35C18.1826 163.211 16.6606 161.975 15.2103 161.975C13.1974 161.975 10.4449 164.776 10.495 166.756C10.5286 168.089 11.3906 169.127 12.1437 169.86C12.7914 170.491 14.274 171.368 15.4954 171.368Z" fill="#20E0A1"/>
<path fill-rule="evenodd" clip-rule="evenodd" d="M114.611 131.974C114.611 133.795 116.981 136.123 119.158 136.405C121.37 136.692 123.829 134.538 123.829 132.262V131.783C123.829 129.742 121.472 127.086 119.458 127.086C117.056 127.086 114.611 129.57 114.611 131.974Z" fill="#20E0A1"/>
<path fill-rule="evenodd" clip-rule="evenodd" d="M149.773 96.8965C149.773 99.4754 151.879 101.749 154.064 101.421C157.133 100.96 158.516 99.6341 158.516 96.609C158.516 95.8667 157.949 94.8862 157.527 94.348L156.447 93.2329C153.439 90.5703 149.773 93.5903 149.773 96.8965Z" fill="#20E0A1"/>
<path fill-rule="evenodd" clip-rule="evenodd" d="M138.18 108.688C138.18 111 140.359 113.097 141.982 113.097C143.16 113.097 144.128 112.998 145.132 112.248C146.862 110.955 147.485 108.78 146.545 106.865C144.952 103.614 140.773 103.814 139.246 105.354C138.573 106.033 138.18 107.356 138.18 108.688Z" fill="#20E0A1"/>
<path fill-rule="evenodd" clip-rule="evenodd" d="M161.365 61.3385C161.365 62.8433 161.437 63.9663 162.624 65.149C163.941 66.4612 165.306 66.9986 167.132 66.0039C168.428 65.2976 170.108 63.3904 170.108 61.9135C170.108 60.0882 167.969 57.6805 165.952 57.2807C163.949 56.8832 161.365 58.8801 161.365 61.3385Z" fill="#20E0A1"/>
<path fill-rule="evenodd" clip-rule="evenodd" d="M172.865 26.8328C172.865 28.1571 173.346 29.1812 173.949 29.9567C175.647 32.1413 178.607 32.0079 180.225 29.9425C181.478 28.3423 182.175 27.105 181.069 25.076C180.1 23.2997 177.856 21.5574 175.396 22.7723C174.01 23.4564 172.865 25.176 172.865 26.8328Z" fill="#20E0A1"/>
<path fill-rule="evenodd" clip-rule="evenodd" d="M126.679 119.806V120.573C126.679 122.522 128.562 124.79 130.86 124.79C133.374 124.79 135.422 122.741 135.422 120.093C135.422 117.906 133.143 115.972 130.956 115.972C130.151 115.972 129.687 115.981 128.916 116.312C127.562 116.894 126.679 118.382 126.679 119.806Z" fill="#20E0A1"/>
<path fill-rule="evenodd" clip-rule="evenodd" d="M54.4573 155.268C54.4573 153.985 54.0465 152.896 53.0874 152.145C51.6569 151.024 51.0788 150.955 49.3257 150.955C46.0947 150.955 44.2593 155.563 47.2577 158.599C50.4275 161.809 54.4573 157.184 54.4573 155.268Z" fill="#20E0A1"/>
<path fill-rule="evenodd" clip-rule="evenodd" d="M3.80465 159.676C5.80737 159.676 10.4389 155.782 6.87085 152.175C5.66044 150.951 4.51906 150.955 2.94937 150.955C1.90811 150.955 0.99413 151.411 0.537757 152.356C0.121679 153.218 0.0814968 154.69 0.00449932 155.756C-0.0332137 156.277 0.173536 156.96 0.34852 157.316C0.713977 158.06 1.51504 158.856 2.22755 159.254C2.57875 159.451 3.29788 159.676 3.80465 159.676Z" fill="#20E0A1"/>
<path fill-rule="evenodd" clip-rule="evenodd" d="M22.622 155.172C22.622 157.348 24.4227 159.676 26.5183 159.676C27.7684 159.676 28.8005 159.253 29.5839 158.36C32.5013 155.03 29.6076 150.955 27.1835 150.955H26.4233C24.4385 150.955 22.622 153.14 22.622 155.172Z" fill="#20E0A1"/>
<path fill-rule="evenodd" clip-rule="evenodd" d="M80.4002 143.669C80.4002 146.281 83.9008 150.133 87.2668 146.76C88.9339 145.09 89.0384 142.369 87.4565 140.578C84.6994 137.456 80.4002 140.454 80.4002 143.669Z" fill="#20E0A1"/>
<path fill-rule="evenodd" clip-rule="evenodd" d="M161.365 38.5322C161.365 39.9045 161.768 40.4225 162.766 41.4328C165.16 43.858 169.538 42.6566 169.538 38.628C169.538 34.6138 165.263 33.1042 162.719 35.6798C162.088 36.3183 161.365 37.3068 161.365 38.5322Z" fill="#20E0A1"/>
<path fill-rule="evenodd" clip-rule="evenodd" d="M11.1227 143.288C11.1227 146.011 14.638 149.356 17.9442 146.238C20.0889 144.216 19.4611 141.358 16.8822 139.78C14.0717 138.06 11.1227 141.321 11.1227 143.288Z" fill="#20E0A1"/>
<path fill-rule="evenodd" clip-rule="evenodd" d="M150.342 73.5131C150.342 75.2987 150.927 76.7039 152.633 77.3359C154.121 77.8867 155.755 77.433 156.724 76.2126C158.125 74.4493 158.555 72.6202 156.781 70.8527C155.624 69.7004 155.174 69.4877 153.573 69.4877C151.417 69.4877 150.342 71.4333 150.342 73.5131Z" fill="#20E0A1"/>
<path fill-rule="evenodd" clip-rule="evenodd" d="M92.5615 131.593V132.456C92.5615 134.451 93.909 135.811 95.8876 135.811C96.6296 135.811 97.1566 135.773 97.8448 135.388C98.9679 134.761 100.164 133.425 100.164 132.073C100.164 129.944 98.243 127.76 96.6479 127.76H96.0777C94.2773 127.76 92.5615 129.766 92.5615 131.593Z" fill="#20E0A1"/>
<path fill-rule="evenodd" clip-rule="evenodd" d="M57.8752 143.571C57.8752 145.959 58.8441 147.501 61.3914 147.501C63.2813 147.501 67.4823 144.985 64.3394 140.79C62.1232 137.831 57.8752 139.907 57.8752 143.571Z" fill="#20E0A1"/>
<path fill-rule="evenodd" clip-rule="evenodd" d="M161.936 14.8542V15.525C161.936 17.047 164.664 21.51 168.28 17.898C168.602 17.5764 168.869 17.2287 169.096 16.804C169.925 15.2549 169.426 13.7241 168.28 12.5776C167.647 11.9448 166.848 11.2121 165.737 11.2121C163.585 11.2121 161.936 13.0354 161.936 14.8542Z" fill="#20E0A1"/>
<path fill-rule="evenodd" clip-rule="evenodd" d="M34.6901 144.529C34.6901 145.701 34.9572 146.36 36.2922 146.843C37.6367 147.329 39.0164 147.82 40.2424 146.966C44.0591 144.308 41.931 139.833 38.7764 139.833C35.7231 139.833 34.6901 141.421 34.6901 144.529Z" fill="#20E0A1"/>
<path fill-rule="evenodd" clip-rule="evenodd" d="M177.142 7.66947C180.124 7.66947 182.35 4.51175 181.256 3.32881C180.469 2.47766 176.581 0.28961 175.431 0.28961C173.311 0.28961 171.607 4.37738 174.561 6.72583C175.155 7.19776 176.1 7.66947 177.142 7.66947Z" fill="#20E0A1"/>
<path fill-rule="evenodd" clip-rule="evenodd" d="M150.342 50.222C150.342 52.0396 152.359 54.1515 154.143 54.1515C155.894 54.1515 157.944 52.1306 157.944 50.1261C157.944 48.3879 156.006 46.1007 153.858 46.1007C152.316 46.1007 150.342 48.5988 150.342 50.222Z" fill="#20E0A1"/>
<path fill-rule="evenodd" clip-rule="evenodd" d="M153.953 30.859C155.943 30.859 157.849 29.0441 157.849 27.217C157.849 26.4265 157.45 25.1611 157.18 24.6329C156.406 23.1174 155.292 23.2874 154.048 23.2874C151.456 23.2874 150.692 24.7273 150.376 27.0676C150.15 28.7346 152.46 30.859 153.953 30.859Z" fill="#20E0A1"/>
<path fill-rule="evenodd" clip-rule="evenodd" d="M142.835 89.0349C145.268 89.0349 147.813 85.1003 145.333 82.5853C143.589 80.8154 139.317 81.0503 138.85 85.3038C138.682 86.8365 138.87 87.2972 139.873 87.9963C140.388 88.3551 142.007 89.0349 142.835 89.0349Z" fill="#20E0A1"/>
<path fill-rule="evenodd" clip-rule="evenodd" d="M111.665 120.185C111.665 117.056 106.534 114.551 104.504 118.809C104.374 119.082 104.191 119.545 104.138 119.868C103.918 121.206 105.323 123.491 107.067 124.056C107.885 124.321 108.706 124.062 109.333 123.679C110.356 123.054 111.665 121.759 111.665 120.185Z" fill="#20E0A1"/>
<path fill-rule="evenodd" clip-rule="evenodd" d="M3.23515 135.235C4.94144 135.235 7.13138 135.058 7.13138 132.648C7.13138 130.965 7.07167 129.091 5.24573 128.415C3.9682 127.943 0.214745 127.955 0.0963302 130.536C-0.0119826 132.896 -0.267781 135.235 3.23515 135.235Z" fill="#20E0A1"/>
<path fill-rule="evenodd" clip-rule="evenodd" d="M115.657 108.398C115.657 108.846 115.905 109.671 116.053 110.011C116.446 110.909 117.194 111.599 118.086 111.987C119.698 112.689 120.935 112.569 122.109 111.071C123.09 109.818 123.726 108.697 122.806 107.227C122.637 106.956 122.174 106.362 121.945 106.178C120.215 104.789 118.899 104.207 117.057 106.073C116.551 106.586 115.657 107.601 115.657 108.398Z" fill="#20E0A1"/>
<path fill-rule="evenodd" clip-rule="evenodd" d="M127.438 96.7075C127.438 98.1357 127.556 98.5727 128.599 99.5616C129.219 100.149 130.336 100.349 131.429 100.349C132.593 100.349 133.207 99.7983 133.784 99.1783C134.189 98.7437 134.755 97.4343 134.755 96.6116C134.755 94.3672 129.921 91.1363 127.815 95.2667C127.628 95.6334 127.438 96.1454 127.438 96.7075Z" fill="#20E0A1"/>
<path fill-rule="evenodd" clip-rule="evenodd" d="M138.846 38.1447C138.846 42.0427 142.92 43.0623 144.763 41.0453C145.778 39.9345 146.147 38.2417 145.406 36.7997C144.45 34.9375 141.785 34.3668 139.97 35.8277C139.393 36.2917 138.846 37.1254 138.846 38.1447Z" fill="#20E0A1"/>
<path fill-rule="evenodd" clip-rule="evenodd" d="M69.4715 131.684C69.4715 132.469 70.1629 133.614 70.5141 134.083C71.8073 135.81 76.5037 136.218 76.5037 131.205C76.5037 129.181 74.2209 128.234 72.9875 128.234C71.5752 128.234 69.4715 130.317 69.4715 131.684Z" fill="#20E0A1"/>
<path fill-rule="evenodd" clip-rule="evenodd" d="M150.437 3.73787C150.437 5.19928 152.823 7.09233 153.668 7.09233C154.575 7.09233 155.81 6.57761 156.307 6.1119C158.045 4.48035 158.105 0 153.668 0C152.625 0 151.925 0.599507 151.467 1.23037C151.149 1.66755 150.437 3.05052 150.437 3.73787Z" fill="#20E0A1"/>
<path fill-rule="evenodd" clip-rule="evenodd" d="M23.2858 131.684C23.2858 135.356 27.3005 136.124 29.1578 134.252C30.1525 133.25 30.5216 131.815 29.9688 130.503C29.7828 130.062 29.6046 129.779 29.3301 129.422C28.5937 128.463 26.7783 127.701 25.3749 128.712C24.5424 129.311 23.2858 130.534 23.2858 131.684Z" fill="#20E0A1"/>
<path fill-rule="evenodd" clip-rule="evenodd" d="M138.939 61.8193C138.939 64.6556 142.956 66.6397 144.943 64.1362C145.265 63.7295 145.877 62.3969 145.877 61.7235C145.877 60.253 144.206 58.2805 142.374 58.3809C140.616 58.4772 138.939 59.9573 138.939 61.8193Z" fill="#20E0A1"/>
<path fill-rule="evenodd" clip-rule="evenodd" d="M138.846 15.431C138.846 16.6142 141.146 18.7854 142.457 18.7854C143.218 18.7854 144.25 18.1684 144.67 17.7587C146.107 16.359 146.212 14.1237 144.764 12.7207C143.815 11.8004 142.272 11.5392 141.003 12.1432C140.565 12.3515 140.331 12.641 140.009 12.9621C139.669 13.3019 139.474 13.5515 139.256 14.0234C139.089 14.3867 138.846 14.9598 138.846 15.431Z" fill="#20E0A1"/>
<path fill-rule="evenodd" clip-rule="evenodd" d="M46.3777 132.168C46.3777 133.11 48.6449 135.235 50.0839 135.235C51.1204 135.235 52.4145 134.403 52.9374 133.32C53.4381 132.284 53.4698 131.212 52.9323 130.158C52.3873 129.089 50.7743 128.184 49.5533 128.366C47.6198 128.655 46.3777 130.632 46.3777 132.168Z" fill="#20E0A1"/>
<path fill-rule="evenodd" clip-rule="evenodd" d="M15.0196 116.829C14.7535 116.894 14.6198 116.818 14.2657 116.932C12.7191 117.427 11.5448 119.251 11.7245 120.433C11.9442 121.878 14.3287 123.692 15.4758 123.61C17.0966 123.493 18.9202 121.758 18.6782 119.951C18.4337 118.126 17.4367 117.124 15.7804 116.825C15.7008 116.81 15.3836 116.754 15.3721 116.754C14.864 116.734 15.1001 116.81 15.0196 116.829Z" fill="#20E0A1"/>
<path fill-rule="evenodd" clip-rule="evenodd" d="M127.822 26.2604V27.5064C127.822 30.1932 131.902 31.3188 133.459 29.1664C135.193 26.7698 133.971 23.481 130.863 23.481C129.245 23.481 127.822 24.6075 127.822 26.2604Z" fill="#20E0A1"/>
<path fill-rule="evenodd" clip-rule="evenodd" d="M127.345 3.54645C127.345 5.36139 129.087 6.90091 130.386 6.90091C131.481 6.90091 132.518 6.77945 133.346 5.86128C133.55 5.63499 133.877 5.15627 133.987 4.87802C134.487 3.6121 134.355 2.30317 133.356 1.41331C133.077 1.16427 131.751 0.38364 131.336 0.38364C129.906 0.38364 128.411 0.979298 127.761 2.1456C127.628 2.3849 127.345 3.23572 127.345 3.54645Z" fill="#20E0A1"/>
<path fill-rule="evenodd" clip-rule="evenodd" d="M3.3293 111.942C5.81443 111.942 8.75347 109.24 5.9682 106.405C5.65382 106.085 5.39375 105.772 5.04255 105.518C2.97821 104.027 1.16406 105.529 0.871894 108.41C0.765714 109.457 0.775256 110.211 1.30818 110.818C1.74277 111.313 2.45438 111.942 3.3293 111.942Z" fill="#20E0A1"/>
<path fill-rule="evenodd" clip-rule="evenodd" d="M104.251 3.64151C104.251 4.15204 104.373 4.50681 104.564 4.85965C104.689 5.09058 104.703 5.11503 104.878 5.30996L105.272 5.67911C106.013 6.30443 106.878 6.51679 107.957 6.51679C109.868 6.51679 110.998 4.66914 110.998 2.77892C110.998 1.8826 110.251 1.31898 109.637 0.988773C108.643 0.453676 108.162 0.229315 107.332 0.421302C105.753 0.786373 104.251 1.77087 104.251 3.64151Z" fill="#20E0A1"/>
<path fill-rule="evenodd" clip-rule="evenodd" d="M116.323 15.0458C116.323 15.9476 116.372 16.7025 116.963 17.3711C118.051 18.6013 120.532 18.4259 121.528 17.4203C122.252 16.6895 122.5 16.3431 122.5 15.1417C122.5 13.9709 121.756 12.793 120.756 12.3962C120.001 12.0967 117.899 12.1435 117.152 12.8152C116.626 13.2883 116.323 14.0813 116.323 15.0458Z" fill="#20E0A1"/>
<path fill-rule="evenodd" clip-rule="evenodd" d="M81.5395 120.568C81.5395 124.428 87.4314 124.263 87.4314 120.759V119.322C87.4314 118.042 86.2362 117.213 84.9606 117.213H84.2003C82.4494 117.213 81.5395 118.785 81.5395 120.568Z" fill="#20E0A1"/>
<path fill-rule="evenodd" clip-rule="evenodd" d="M127.822 50.3172C127.822 54.5882 133.714 54.2843 133.714 50.7963C133.714 49.3419 133.551 47.2501 131.528 47.2501C130.262 47.2501 129.56 47.1594 128.603 48.1335C128.107 48.6378 127.822 49.3502 127.822 50.3172Z" fill="#20E0A1"/>
<path fill-rule="evenodd" clip-rule="evenodd" d="M127.915 73.1306V73.7057C127.915 76.0248 129.839 76.4851 131.717 76.4851C133.369 76.4851 135.316 73.3911 133.121 71.3305C131.403 69.7172 127.915 70.7545 127.915 73.1306Z" fill="#20E0A1"/>
<path fill-rule="evenodd" clip-rule="evenodd" d="M210.781 20.5103L212.298 20.4101C213.002 20.4399 213.028 20.601 213.822 20.4144C214.167 19.6902 213.809 18.9313 213.476 18.2716C212.459 16.2595 210.355 15.2349 207.958 15.0166C207.187 14.9463 206.411 15.2621 206.337 16.119C206.28 16.775 207.654 19.2307 208.516 19.8232C209.128 20.2429 209.974 20.5103 210.781 20.5103Z" fill="#20E0A1"/>
<path fill-rule="evenodd" clip-rule="evenodd" d="M93.1358 108.88C93.1358 111.48 95.0855 111.372 96.652 111.372C98.7947 111.372 99.0277 109.467 99.0277 107.826C99.0277 107.049 98.5931 106.494 98.1474 106.126C96.8342 105.04 93.1358 105.161 93.1358 108.88Z" fill="#20E0A1"/>
<path fill-rule="evenodd" clip-rule="evenodd" d="M70.1372 15.4289C70.1372 16.3777 70.5586 17.088 71.1982 17.5216C71.5304 17.7468 71.8 17.9025 72.2245 18.02C75.3771 18.8927 77.6011 14.9488 75.1992 12.8154C74.6655 12.3413 73.8059 12.1234 72.9712 12.2463C71.2461 12.5003 70.1372 13.6946 70.1372 15.4289Z" fill="#20E0A1"/>
<path fill-rule="evenodd" clip-rule="evenodd" d="M23.7594 61.6269C23.7594 64.4226 27.0295 65.6088 28.8692 63.6174C29.8663 62.5382 30.88 58.8473 26.2303 58.8473C24.5771 58.8473 23.7594 60.0146 23.7594 61.6269Z" fill="#20E0A1"/>
<path fill-rule="evenodd" clip-rule="evenodd" d="M35.4508 119.705C35.4508 122.69 36.372 123.06 38.777 123.06C41.8949 123.06 42.3238 117.213 38.0167 117.213C36.7206 117.213 35.4508 118.431 35.4508 119.705Z" fill="#20E0A1"/>
<path fill-rule="evenodd" clip-rule="evenodd" d="M118.889 87.981C119.866 87.981 120.836 87.9043 121.609 87.3694C122.694 86.6181 121.983 84.073 121.417 83.2275C120.442 81.7723 116.707 81.4757 116.406 85.1002C116.272 86.7159 117.404 87.981 118.889 87.981Z" fill="#20E0A1"/>
<path fill-rule="evenodd" clip-rule="evenodd" d="M104.824 96.5138C104.824 97.8635 105.692 99.6766 107.104 99.6766C108.72 99.6766 110.62 99.2264 110.62 97.2805C110.62 96.8789 110.552 96.981 110.543 96.6962C110.529 96.2372 110.62 96.5899 110.62 96.1304C110.62 94.4139 108.879 94.0219 107.294 94.0219C106.081 94.0219 104.824 95.2903 104.824 96.5138Z" fill="#20E0A1"/>
<path fill-rule="evenodd" clip-rule="evenodd" d="M12.3589 96.5137C12.3589 97.9707 13.3326 99.6765 14.7347 99.6765C16.4766 99.6765 18.1559 99.2453 18.1559 97.1845C18.1559 94.1502 15.0253 93.2622 13.3877 94.5801C12.9198 94.9566 12.3589 95.7098 12.3589 96.5137Z" fill="#20E0A1"/>
<path fill-rule="evenodd" clip-rule="evenodd" d="M23.9515 85.203C23.9515 87.0858 25.9765 88.2726 26.9551 88.1399C28.5078 87.9294 29.5583 86.4182 29.5583 84.6279C29.5583 83.6628 29.1592 83.253 28.6335 82.7812C27.8073 82.0394 25.6883 81.7915 24.7079 83.0906C24.3292 83.5925 23.9515 84.3248 23.9515 85.203Z" fill="#20E0A1"/>
<path fill-rule="evenodd" clip-rule="evenodd" d="M23.8564 108.305C23.8564 110.463 25.9424 111.457 26.7903 111.436C27.9815 111.406 29.5583 109.929 29.5583 108.209C29.5583 104.621 23.8564 104.644 23.8564 108.305Z" fill="#20E0A1"/>
<path fill-rule="evenodd" clip-rule="evenodd" d="M35.3557 49.9315C35.3557 50.8541 35.7133 51.6719 36.1836 52.1635C37.8973 53.9542 41.2002 53.0507 41.1994 50.4118C41.1989 49.2787 40.6915 48.294 39.7603 47.7895C38.1654 46.9253 35.3557 47.8441 35.3557 49.9315Z" fill="#20E0A1"/>
<path fill-rule="evenodd" clip-rule="evenodd" d="M46.9483 38.242C46.9483 42.2465 50.4726 41.7867 51.6564 40.4983C52.1651 39.9448 52.4372 39.3754 52.689 38.5628C52.8904 37.9129 52.7205 37.7112 51.905 36.6933C51.759 36.5112 51.3832 36.1171 51.1865 35.9803C49.6226 34.8923 46.9483 36.0493 46.9483 38.242Z" fill="#20E0A1"/>
<path fill-rule="evenodd" clip-rule="evenodd" d="M12.2601 74.3748C12.2601 74.7295 12.4435 75.1363 12.623 75.3507C13.151 75.9812 14.8103 76.2917 15.6812 76.2917C16.9016 76.2917 17.5739 75.078 17.881 74.1003C18.0971 73.4124 17.996 73.1071 17.7081 72.4265C16.7926 70.2617 12.2601 68.9573 12.2601 74.3748Z" fill="#20E0A1"/>
<path fill-rule="evenodd" clip-rule="evenodd" d="M58.5409 120.28C58.5409 122.213 61.4107 124.308 63.4118 122.03C64.9751 120.25 64.4298 117.213 61.0116 117.213C59.4696 117.213 58.5409 119.002 58.5409 120.28Z" fill="#20E0A1"/>
<path fill-rule="evenodd" clip-rule="evenodd" d="M95.7952 18.0212C96.7745 18.0212 97.4149 17.9584 98.1191 17.0105C99.1511 15.6211 99.3498 14.3667 98.1018 13.1071C97.2563 12.2539 95.7367 11.9994 94.7519 12.5602C94.5975 12.6481 94.522 12.7295 94.3819 12.8579C93.7509 13.4367 93.394 14.2118 93.2619 15.1857C93.0733 16.577 94.5822 18.0212 95.7952 18.0212Z" fill="#20E0A1"/>
<path fill-rule="evenodd" clip-rule="evenodd" d="M46.9483 108.497C46.9483 109.884 47.8394 110.471 48.8443 111.089C49.6021 111.555 49.3604 111.549 50.3573 111.168C51.9673 110.553 53.249 108.934 52.5285 107.278C51.9985 106.059 50.7288 105.621 49.3241 105.621C48.0083 105.621 46.9483 107.137 46.9483 108.497Z" fill="#20E0A1"/>
<path fill-rule="evenodd" clip-rule="evenodd" d="M98.9308 38.3376C98.9308 37.4872 98.711 36.8725 98.1966 36.3944C97.935 36.1512 96.8731 35.5581 96.4599 35.5581C95.6069 35.5581 94.2486 36.2829 93.6611 37.1441C92.3078 39.1284 94.5747 42.3232 97.1918 41.0884C98.0827 40.6681 98.9308 39.6182 98.9308 38.3376Z" fill="#20E0A1"/>
<path fill-rule="evenodd" clip-rule="evenodd" d="M47.0415 62.0089C47.0415 64.2352 49.957 65.5272 51.7617 63.7024C52.2592 63.1994 52.7434 62.2471 52.7434 61.3381C52.7434 61.0393 52.4813 60.6024 52.3662 60.3767C51.0477 57.7916 47.0415 58.6206 47.0415 62.0089Z" fill="#20E0A1"/>
<path fill-rule="evenodd" clip-rule="evenodd" d="M104.824 26.5508C104.824 28.0731 105.789 29.8095 107.294 29.8095C107.913 29.8095 108.405 29.7952 108.928 29.4444C109.789 28.8666 110.62 26.9097 110.62 26.4549C110.62 25.7001 108.169 22.6398 105.749 24.801C105.367 25.1427 104.824 25.8843 104.824 26.5508Z" fill="#20E0A1"/>
<path fill-rule="evenodd" clip-rule="evenodd" d="M58.5409 50.3206C58.5409 52.5451 61.4773 54.1533 63.4114 51.9741C63.8324 51.4997 64.3378 50.2845 64.3378 49.8413C64.3378 48.791 62.847 47.3494 61.3918 47.3494C59.848 47.3494 58.5409 48.7571 58.5409 50.3206Z" fill="#20E0A1"/>
<path fill-rule="evenodd" clip-rule="evenodd" d="M104.728 50.0332C104.728 51.0936 105.059 51.6757 105.605 52.2164C106.366 52.9709 107.147 53.1002 108.244 53.1002C110.143 53.1002 111.215 49.9141 109.745 48.328C109.148 47.6827 108.712 47.7421 107.765 47.8235C106.838 47.9029 106.167 47.7751 105.607 48.2358C105.119 48.6376 104.728 49.1808 104.728 50.0332Z" fill="#20E0A1"/>
<path fill-rule="evenodd" clip-rule="evenodd" d="M70.1372 38.5298C70.1372 40.855 73.1161 42.5334 74.9573 40.3239C75.6502 39.4924 76.1747 38.4089 75.6217 37.3114C75.4466 36.9639 75.2197 36.7984 74.9624 36.5387C73.1728 34.7318 70.1372 36.0744 70.1372 38.5298Z" fill="#20E0A1"/>
<path fill-rule="evenodd" clip-rule="evenodd" d="M61.7731 29.5214C63.2803 29.5214 64.0641 27.7904 64.3613 26.561C64.4851 26.0486 62.8055 23.9625 61.583 23.9625C60.59 23.9625 59.901 23.9462 59.2438 25.0536C58.8228 25.7628 57.945 28.1468 59.489 28.9496C60.0842 29.259 60.8672 29.5214 61.7731 29.5214Z" fill="#20E0A1"/>
<path fill-rule="evenodd" clip-rule="evenodd" d="M82.1101 26.1647C82.1101 26.5497 82.1785 26.4727 82.1777 26.7395L82.1101 27.6982C82.1101 29.4558 84.9536 30.6506 86.5502 28.7258C86.8039 28.4199 86.9592 28.1619 87.1224 27.7695C88.6302 24.1458 83.2976 22.9674 82.3345 25.241C82.2622 25.4117 82.1101 25.9801 82.1101 26.1647Z" fill="#20E0A1"/>
<path fill-rule="evenodd" clip-rule="evenodd" d="M35.9249 72.5557C35.9249 74.0101 35.6679 75.1228 36.699 75.8005C38.8869 77.2383 41.1626 75.3126 41.1154 73.4294C41.0542 70.9913 38.1474 69.9641 36.7087 71.1418C36.3127 71.4659 35.9249 71.8679 35.9249 72.5557Z" fill="#20E0A1"/>
<path fill-rule="evenodd" clip-rule="evenodd" d="M37.541 99.1958C37.9759 99.1958 37.9721 99.1093 38.2924 99.1191C39.1678 99.1457 39.5413 99.5032 40.4663 98.504C41.0388 97.8859 41.0572 97.1735 41.0572 96.4164C41.0572 94.6258 38.2893 92.9423 36.5166 94.6165C34.4439 96.574 35.8162 99.1958 37.541 99.1958Z" fill="#20E0A1"/>
<path fill-rule="evenodd" clip-rule="evenodd" d="M116.796 61.1506L116.853 61.8115C116.843 62.1556 116.544 62.8094 117.022 63.5102C117.478 64.1797 118.088 64.2941 119.049 64.4417C120.908 64.7276 122.022 63.2526 122.022 61.3423C122.022 58.7437 116.796 57.9264 116.796 61.1506Z" fill="#20E0A1"/>
<path fill-rule="evenodd" clip-rule="evenodd" d="M8.07903 181.43C8.88907 181.43 9.72134 178.072 7.5763 175.515C7.03855 174.875 5.6425 173.78 4.75298 173.571C4.75298 175.436 4.45667 177.456 4.9539 178.831C5.40724 180.085 7.04416 181.43 8.07903 181.43Z" fill="#20E0A1"/>
<path fill-rule="evenodd" clip-rule="evenodd" d="M70.5176 108.011C70.5176 112.978 75.8392 111.674 75.8392 108.106C75.8392 106.425 73.4973 105.743 73.2876 105.742C72.9086 105.74 71.7057 106.119 71.4101 106.323C70.9442 106.644 70.5176 107.27 70.5176 108.011Z" fill="#20E0A1"/>
<path fill-rule="evenodd" clip-rule="evenodd" d="M105.202 73.2264C105.202 74.6204 105.56 75.91 107.103 75.91C107.545 75.91 107.231 75.7949 107.741 75.8396C107.933 75.8565 108.069 75.91 108.433 75.91C111.236 75.91 111.076 70.6386 107.673 70.6386C106.209 70.6386 105.202 71.746 105.202 73.2264Z" fill="#20E0A1"/>
<path fill-rule="evenodd" clip-rule="evenodd" d="M82.1101 97.2833C82.1101 98.8982 83.234 99.5835 84.7709 99.5835C86.7869 99.5835 88.1512 96.8333 86.414 95.1469C85.0518 93.8245 82.1101 94.1024 82.1101 97.2833Z" fill="#20E0A1"/>
<path fill-rule="evenodd" clip-rule="evenodd" d="M116.987 38.4334C116.987 41.0337 118.766 40.9253 120.313 40.9253C121.291 40.9253 121.609 39.7062 121.735 38.8133C122.307 34.779 116.987 35.0167 116.987 38.4334Z" fill="#20E0A1"/>
<path fill-rule="evenodd" clip-rule="evenodd" d="M84.7696 52.4249C85.682 52.4249 86.0414 52.1841 86.5771 51.4685C87.2991 50.5039 87.3977 50.6151 87.2011 49.7842C86.5587 47.07 83.9056 46.8187 82.6981 48.0355C81.2945 49.4498 82.7889 52.4249 84.7696 52.4249Z" fill="#20E0A1"/>
<path fill-rule="evenodd" clip-rule="evenodd" d="M47.4257 85.4897C47.4257 88.6804 51.7041 88.5349 52.2113 85.229C52.5195 83.2205 51.0571 82.806 49.3262 82.806C47.7565 82.806 47.4257 83.9295 47.4257 85.4897Z" fill="#20E0A1"/>
<path fill-rule="evenodd" clip-rule="evenodd" d="M93.8015 85.5874C93.8015 87.1021 95.5952 87.6001 97.1276 87.6001C99.1824 87.6001 99.7171 82.712 96.0823 82.712C94.5268 82.712 93.8015 84.0292 93.8015 85.5874Z" fill="#20E0A1"/>
<path fill-rule="evenodd" clip-rule="evenodd" d="M61.1085 99.1934C63.9333 99.1934 64.5988 96.2046 62.3061 94.8228C61.9154 94.5873 61.5929 94.3298 61.134 94.5125C60.106 94.9221 59.0697 96.327 59.3032 97.5574C59.458 98.3732 60.165 99.1934 61.1085 99.1934Z" fill="#20E0A1"/>
<path fill-rule="evenodd" clip-rule="evenodd" d="M83.0611 5.36773C83.0611 7.35484 83.8872 7.0929 85.3418 7.0929C87.5057 7.0929 88.4644 3.54679 87.5276 3.54679H84.2965C83.4392 3.54679 83.0611 4.48148 83.0611 5.36773Z" fill="#20E0A1"/>
<path fill-rule="evenodd" clip-rule="evenodd" d="M94.2733 61.6242C94.2733 62.8759 94.8515 63.0504 95.7965 63.5383C96.1686 63.7306 96.1632 63.8204 96.4589 64.0202C97.7908 63.3096 98.4546 63.1852 98.4546 61.8159C98.4546 61.2279 98.1086 60.589 97.8148 60.2568C96.7431 59.0444 96.266 59.5267 95.0957 60.2493C94.6272 60.5385 94.2733 60.9082 94.2733 61.6242Z" fill="#20E0A1"/>
<path fill-rule="evenodd" clip-rule="evenodd" d="M72.5135 63.0634C74.674 63.0634 74.5127 60.0923 72.9886 60.0923C72.3249 60.0923 71.56 60.8184 71.4225 61.3956C71.3108 61.8647 71.5955 63.0634 72.5135 63.0634Z" fill="#20E0A1"/>
<path fill-rule="evenodd" clip-rule="evenodd" d="M59.6839 73.4173C59.6839 74.7151 61.0024 74.6632 61.7746 74.6632C63.0091 74.6632 62.8977 72.2672 61.7746 72.2672C60.9979 72.2672 59.6839 72.383 59.6839 73.4173Z" fill="#20E0A1"/>
<path fill-rule="evenodd" clip-rule="evenodd" d="M71.8471 85.0105C71.8471 86.7103 74.1278 86.8203 74.1278 84.6272C74.1278 83.4163 71.8471 83.9274 71.8471 85.0105Z" fill="#20E0A1"/>
</svg>