<svg width="402" height="401" viewBox="0 0 402 401" fill="none" xmlns="http://www.w3.org/2000/svg">
<path fill-rule="evenodd" clip-rule="evenodd" d="M133.435 382.64C133.435 380.273 134.177 378.873 135.977 377.183C137.196 376.039 138.94 375.078 140.733 374.96C144.029 374.744 147.656 378.288 147.656 382.358C147.656 388.705 140.455 391.793 135.908 387.182C134.893 386.153 133.435 384.217 133.435 382.64ZM237.725 382.64C237.725 380.388 239.158 378.385 240.837 377.476C242.989 376.312 244.384 376.536 246.152 378.917C250.363 384.587 245.277 387.567 242.326 387.567C240.754 387.567 237.725 384.362 237.725 382.64ZM203.844 381.795C203.844 377.489 209.465 375.195 212.246 378.381C214.68 381.17 213.912 384.597 210.932 386.559C210.645 386.748 209.66 387.286 209.282 387.286C207.913 387.286 206.147 386.396 205.409 385.706C204.514 384.867 203.844 383.491 203.844 381.795ZM174.565 387.708C173.955 387.708 172.808 387.507 172.28 387.341C169.899 386.591 168.988 384.326 168.988 381.936C168.988 379.205 173.19 372.49 178.508 377.976C180.451 379.98 181.338 381.636 180.099 384.145C179.853 384.643 179.162 385.585 178.771 385.901C177.625 386.829 176.18 387.708 174.565 387.708ZM117.261 365.183C117.261 361.709 120.207 357.863 124.093 357.863C126.96 357.863 130.646 361.787 130.646 364.62C130.646 366.862 130.392 368.193 128.516 369.79C125.841 372.067 117.261 373.016 117.261 365.183ZM260.172 368.562C258.945 368.562 257.993 368.631 257.066 367.615C255.181 365.548 256.863 361.382 258.917 361.382C261.199 361.382 263.25 361.793 263.486 364.797C263.631 366.653 261.887 368.562 260.172 368.562ZM288.754 364.479C288.754 363.187 289.76 362.338 290.705 361.662C294.324 359.074 298.514 360.829 298.514 364.339C298.514 366.048 298.624 367.372 297.23 368.673C295.918 369.896 293.618 369.688 291.822 369.688C290.767 369.688 290.066 368.486 289.729 367.718C289.515 367.23 288.754 365.059 288.754 364.479ZM157.834 358.707C160.724 358.707 165.427 362.485 163.182 366.923C161.39 370.465 156.567 372.135 153.629 368.443C149.279 362.978 155.138 358.707 157.834 358.707ZM226.013 360.397C229.035 360.397 230.924 364.776 228.624 367.538C226.545 370.035 222.026 368.86 221.581 364.58C221.435 363.184 222.267 362.334 223.062 361.781C223.362 361.572 225.718 360.397 226.013 360.397ZM192.272 369.688C186.551 369.688 185.51 363.545 188.347 360.938C192.906 356.749 199.695 362.814 195.527 367.907C195.1 368.428 194.76 368.709 194.17 369.071C193.782 369.308 192.807 369.688 192.272 369.688ZM99.6939 347.867C99.6939 344.314 100.762 342.241 104.065 341.159C106.716 340.291 110.174 340.648 111.933 342.548C114.464 345.282 114.325 350.165 111.899 352.448C110.131 354.113 106.611 354.816 104.033 353.904C101.601 353.044 99.6939 350.832 99.6939 347.867ZM307.158 348.149C307.158 345.223 308.478 344.317 311.101 344.103C313.968 343.868 316.737 347.181 314.174 350.728C313.297 351.943 312.621 351.963 311.47 351.823C310.225 351.672 309.323 351.49 308.469 350.908C307.696 350.38 307.158 349.385 307.158 348.149ZM134.271 347.726C134.271 345.259 136.109 342.709 138.22 341.578C140.933 340.124 143.08 340.615 145.182 342.763C146.344 343.951 147.517 345.14 147.517 347.304C147.517 351.269 144.658 353.177 141.031 353.411C137.832 353.617 134.271 350.9 134.271 347.726ZM203.844 347.304C203.844 345.869 206.644 342.081 209.678 342.534C210.6 342.671 211.574 343.143 212.155 343.84C213.185 345.072 214.045 347.365 213.232 349.321C211.852 352.639 207.637 353.404 205.416 350.786C204.857 350.127 203.844 348.432 203.844 347.304ZM276.903 344.207C281.089 344.207 281.242 350.824 275.788 350.824C272.834 350.824 272.272 344.207 276.903 344.207ZM176.796 352.654H173.31C170.762 352.654 169.128 350.174 169.128 347.586C169.128 345.968 169.241 345.455 170.32 344.003C170.872 343.259 171.666 342.659 172.471 342.233C174.754 341.024 176.573 341.667 178.332 342.938C179.044 343.452 179.693 344.276 180.14 345.054C181.098 346.719 180.392 349.653 179.367 351.167C178.878 351.889 177.915 352.654 176.796 352.654ZM243.023 350.964C239.608 350.964 239.258 349.513 239.258 346.741C239.258 343.56 243.678 342.81 245.506 344.515C246.377 345.328 246.112 345.916 245.971 347.184C245.838 348.383 246.349 350.24 244.474 350.74C244.17 350.821 243.318 350.964 243.023 350.964ZM81.8475 330.551C81.8475 326.485 86.3024 322.104 90.3524 322.104C92.5436 322.104 93.9858 323.456 95.1278 324.603C100.614 330.112 96.2229 338.013 90.2131 338.013C87.6796 338.013 86.065 337.08 84.4628 335.653C83.0919 334.433 81.8475 332.577 81.8475 330.551ZM327.515 334.352C326.172 334.352 325.196 333.545 324.672 332.436C323.435 329.818 326.029 327.454 327.236 327.454C328.604 327.454 329.915 327.707 330.897 328.685C332.215 329.996 331.278 334.352 327.515 334.352ZM116.425 329.988C116.425 326.306 120.389 322.808 123.396 322.808C124.951 322.808 125.74 322.733 127.212 323.461C127.978 323.84 128.398 324.227 128.941 324.812C130.715 326.726 130.646 329.165 130.646 331.537C130.646 334.813 127.801 337.168 124.233 337.168H123.536C119.906 337.168 116.425 333.653 116.425 329.988ZM191.854 336.323C188.993 336.323 185.998 333.234 185.998 330.41C185.998 328.46 186.377 327.652 187.912 326.149C193.639 320.539 202.66 330.615 194.115 335.65C193.684 335.904 192.467 336.323 191.854 336.323ZM157.555 323.653C159.79 323.653 161.193 324.001 162.68 325.517C167.909 330.847 161.36 337.168 157.834 337.168C156.868 337.168 156.054 336.767 155.369 336.419L153.42 335.009C150.225 331.797 150.294 326.689 154.905 324.355C155.699 323.953 156.348 323.653 157.555 323.653ZM290.985 329.425C290.985 327.313 293.792 326.262 295.698 328.186C297.261 329.765 297.015 330.913 295.75 332.547C294.179 334.574 290.985 333.76 290.985 329.425ZM225.316 335.056C223.513 335.056 220.524 332.149 220.787 330.207C221.13 327.683 223.139 325.342 225.595 325.342C226.849 325.342 227.965 326.365 228.706 326.988C229.358 327.537 229.34 327.537 229.875 328.2C230.039 328.403 230.753 329.51 230.753 329.706C230.753 331.025 229.754 332.661 229.101 333.387C228.31 334.267 226.597 335.056 225.316 335.056ZM260.172 333.648C258.956 333.648 257.844 333.707 257.014 332.473C255.598 330.369 256.101 326.469 259.057 326.469C260.345 326.469 261.25 326.455 262.29 327.286C263.15 327.973 263.116 328.521 262.984 329.728C262.841 331.035 262.708 333.648 260.172 333.648ZM237.585 313.517C237.585 306.78 244.583 307.398 246.394 309.691C247.096 310.581 247.624 312.217 247.624 313.798C247.624 315.209 244.576 318.303 242.883 318.303C242.538 318.303 241.4 317.802 241.03 317.641C239.343 316.908 237.585 315.581 237.585 313.517ZM273.139 313.235C273.139 307.621 279.971 308.598 279.971 312.25C279.971 317.093 279.044 316.614 275.23 316.614C274.54 316.614 273.92 316.038 273.645 315.54C273.379 315.06 273.139 313.91 273.139 313.235ZM175.123 306.478C178.758 306.478 181.536 309.229 181.536 312.672C181.536 314.948 181.131 316.11 179.411 317.846C176.372 320.915 173.185 320.542 170.2 317.784L168.706 315.912C166.909 312.457 169.007 306.478 175.123 306.478ZM98.5786 313.095C98.5786 307.937 102.178 304.788 107.502 304.788C112.866 304.788 117.335 311.02 114.663 316.525C113.791 318.322 112.239 319.615 110.375 320.36C107.267 321.602 103.731 320.892 101.067 318.748C100.417 318.225 99.761 317.212 99.3657 316.382C99.0097 315.635 98.5786 314.117 98.5786 313.095ZM202.868 312.954C202.868 307.843 208.961 304.277 212.737 308.339C214.552 310.29 215.24 313.823 213.935 315.941C213.841 316.093 213.875 316.024 213.755 316.195C212.738 317.647 210.894 319.148 209.143 319.148C206.586 319.148 205.37 318.624 203.815 316.229L203.341 315.293C203.154 314.8 202.868 313.543 202.868 312.954ZM141.382 320.837H140.546C136.889 320.837 133.435 317.091 133.435 313.376C133.435 310.46 133.711 309.646 135.463 307.399C135.905 306.831 136.695 306.276 137.309 305.884C138.56 305.085 139.644 305.07 141.103 305.07C144.288 305.07 152.373 310.435 146.284 318.044C145.429 319.113 143.229 320.837 141.382 320.837ZM345.082 317.036C343.671 317.036 341.457 315.597 341.457 313.798C341.457 310.745 344.952 308.57 347.353 311.083C347.723 311.47 348.589 312.723 348.513 313.321C348.361 314.518 347.156 317.036 345.082 317.036ZM311.062 310.279C312.134 310.279 313.711 311.605 313.711 313.376C313.711 315.588 311.026 317.579 308.79 315.248C308.152 314.583 307.64 312.99 308.013 311.849C308.409 310.639 310.832 310.279 311.062 310.279ZM70.5541 304.648C73.3084 304.648 76.4631 304.665 78.7764 305.922C82.2326 307.801 83.6467 317.264 76.3656 320.933C74.2331 322.008 71.6503 322.06 69.4746 321.223C68.7252 320.935 67.5683 320.221 67.1067 319.673C64.1222 316.123 63.203 308.181 67.542 305.548C68.1971 305.151 69.591 304.648 70.5541 304.648ZM358.049 296.623V295.919C358.049 294.135 359.668 292.4 361.813 292.4C366.198 292.4 367.455 300.424 361.953 300.424C360.743 300.424 359.72 300.151 359.059 299.545C358.464 298.998 358.049 297.763 358.049 296.623ZM289.451 296.764V296.06C289.451 292.62 294.871 290.481 296.428 293.521C300.411 301.304 289.451 301.686 289.451 296.764ZM184.325 296.623C184.325 294.085 184.895 292.971 186.355 291.071C188.899 287.762 193.003 288.102 196.153 290.17C198.718 291.854 198.546 294.064 198.546 296.482C198.546 302.016 192.352 305.26 186.773 301.05C185.737 300.269 184.325 298.364 184.325 296.623ZM219.042 296.201C219.042 293.215 222.783 289.443 225.037 289.443C227.122 289.443 228.382 289.938 229.676 291.236C231.191 292.755 231.59 294.002 231.59 296.201C231.59 305.311 219.042 302.879 219.042 296.201ZM149.469 295.919C149.469 293.404 150.345 291.854 151.418 290.426C152.235 289.339 154.432 287.754 156.3 287.754C159.212 287.754 161.087 288.124 163.51 290.188C164.183 290.761 164.829 291.663 165.307 292.457C169.476 299.377 158.283 308.027 151.873 301.516C150.464 300.084 149.469 298.168 149.469 295.919ZM324.865 295.497C324.865 293.195 327.614 291.854 329.642 294.066C330.95 295.493 331.045 296.77 329.781 298.208C327.792 300.47 324.865 299.152 324.865 295.497ZM124.233 304.648C118.101 304.648 115.588 300.938 115.588 294.934C115.588 287.134 116.355 287.754 126.464 287.754C128.698 287.754 130.694 288.23 131.674 290.236C132.452 291.831 132.525 295.028 132.298 297.164C131.873 301.155 128.645 304.648 124.233 304.648ZM259.754 301.128H258.778C256.815 301.128 254.038 298.213 254.038 296.201C254.038 293.986 255.722 292.386 257.381 291.271C259.374 289.933 261.252 290.68 263.216 292.002C264.119 292.61 264.97 293.946 264.737 295.597C264.492 297.336 264.652 299.544 261.91 300.631C261.333 300.859 260.477 301.128 259.754 301.128ZM175.681 287.472C172.889 287.472 170.725 286.873 168.88 285.048C166.717 282.909 166.479 280.649 166.479 277.618C166.479 272.689 169.278 270.579 174.007 270.579C176.973 270.579 178.527 270.866 180.703 272.568C182.06 273.629 183.21 275.879 183.21 277.618V279.167C183.21 282.391 178.41 287.472 175.681 287.472ZM270.908 279.167C270.908 277.519 271.929 276.012 273.138 275.083C273.673 274.672 274.067 274.217 274.716 273.861C275.42 273.474 275.982 273.119 276.826 273.206C280.829 273.617 283.294 280.091 280.305 282.883C276.785 286.171 270.908 282.205 270.908 279.167ZM310.226 282.968C308.908 282.968 306.138 281.297 306.571 278.724C306.754 277.643 307.222 276.542 307.817 275.89C309.53 274.012 314.122 274.359 314.513 279.205C314.615 280.454 313.885 281.358 313.151 281.838C312.55 282.232 310.768 282.968 310.226 282.968ZM242.186 272.268C245.732 272.268 251.213 276.484 248.837 281.236C247.004 284.901 242.352 285.74 239.58 284.332C235.075 282.043 235.173 277.008 237.826 274.2C238.756 273.216 240.277 272.268 242.186 272.268ZM344.385 282.404C344.261 282.404 341.318 280.626 341.318 279.307C341.318 278.256 341.484 277.39 342.329 276.668C345.51 273.951 349.814 277.869 346.655 281.036C346.286 281.406 344.966 282.404 344.385 282.404ZM201.195 277.9C201.195 276.198 202.256 274.025 203.386 272.935C207.229 269.226 212.041 270.55 214.695 274.546C214.967 274.956 215.218 275.299 215.464 275.74C216.579 277.749 216.651 280.016 215.672 282.099C214.214 285.201 210.967 285.924 207.33 285.924C203.277 285.924 201.195 281.286 201.195 277.9ZM225.316 269.593C221.49 269.593 217.369 265.23 217.369 261.991C217.369 259.931 217.808 258.817 219.149 257.172C225.652 249.192 233.263 255.986 233.263 260.583C233.263 264.728 232.048 267.21 228.666 268.893C227.849 269.3 226.549 269.593 225.316 269.593ZM252.922 261.428C252.922 259.488 253.737 258.276 254.591 257.201C255.971 255.461 258.023 255.234 260.033 255.234C261.642 255.234 263.308 256.288 264.238 257.042C269.204 261.072 264.179 268.608 260.033 268.608C256.493 268.608 252.922 265.002 252.922 261.428ZM358.188 261.287C358.188 257.543 364.741 257.901 364.741 260.865C364.741 264.514 363.486 265.229 360.558 265.229C359.002 265.229 358.188 262.989 358.188 261.287ZM327.793 265.933C321.646 265.933 321.963 257.768 327.933 257.768C329.566 257.768 330.414 259.33 331.167 260.415C331.563 260.986 331.779 260.96 331.602 261.735C331.347 262.849 330.974 263.681 330.387 264.469C329.876 265.155 328.903 265.933 327.793 265.933ZM293.216 267.059C291.431 267.059 290.288 266.547 289.428 265.394C288.911 264.701 288.057 262.576 288.057 261.428C288.057 259.327 291.279 256.078 293.077 256.078C293.461 256.078 294.76 256.53 295.13 256.68C295.958 257.016 296.276 257.193 296.956 257.651C298.918 258.972 298.825 262.095 298.238 263.684C297.422 265.895 295.555 267.059 293.216 267.059ZM310.505 249.884C306.582 249.884 305.485 247.497 305.485 243.831C305.485 239.84 310.571 237.776 313.874 240.287C315.653 241.64 315.524 243.052 315.524 244.816C315.524 247.737 313.398 249.884 310.505 249.884ZM269.932 244.816C269.932 242.909 270.261 241.168 271.636 239.779C272.092 239.319 272.813 238.894 273.417 238.621C275.734 237.577 279.838 237.781 281.647 240.167C282.571 241.385 283.299 243.597 283.304 245.099C283.314 247.658 278.688 253.615 274.052 250.791C273.083 250.201 272.954 250.048 272.198 249.286C271.215 248.297 269.932 246.705 269.932 244.816ZM340.342 244.534C340.342 241.837 341.631 240.593 344.106 240.593C349.032 240.593 349.447 245.702 347.493 247.673C345.422 249.763 340.342 249.588 340.342 244.534ZM234.239 244.534C234.239 240.268 238.486 236.369 242.326 236.369C246.027 236.369 248.312 238.014 249.671 241.2C250.864 243.998 250.201 247.847 248.421 249.986L247.269 251.054C244.759 252.944 240.964 252.755 238.28 251.443L237.835 251.201C235.594 249.745 234.239 247.197 234.239 244.534ZM377.986 240.874C381.092 240.874 382.587 242.893 382.587 245.942C382.587 248.38 380.103 248.758 377.986 248.758C374.535 248.758 375.119 245.436 375.02 244.714C374.704 242.396 375.68 240.874 377.986 240.874ZM251.249 227.782C251.249 224.73 252.07 223.524 253.932 221.621C256.736 218.755 261.672 218.24 264.812 221.267C269.221 225.517 267.624 235.384 259.196 235.384C254.772 235.384 251.249 231.87 251.249 227.782ZM361.674 231.864C358.688 231.864 357.212 230.443 357.212 227.218C357.212 223.736 359.526 223.719 361.436 223.452C364.937 222.963 366.186 225.964 365.304 229.193C364.871 230.776 363.484 231.864 361.674 231.864ZM293.634 234.539C290.845 234.539 288.164 232.038 287.378 229.896C287.369 229.872 287.273 229.577 287.271 229.569C286.123 226.066 287.058 221.986 290.712 221.171C299.373 219.237 303.614 227.824 297.144 233.014C296.441 233.578 294.817 234.539 293.634 234.539ZM321.798 227.078C321.798 225.922 322.941 224.498 323.688 223.917C324.193 223.524 324.568 223.139 325.098 222.807C325.566 222.514 326.335 222.055 326.963 222.004C328.615 221.871 332.534 223.559 332.534 226.796C332.534 229.278 331.564 231.492 329.412 232.373C327.25 233.257 324.612 232.852 323.412 231.08C322.775 230.139 321.798 227.943 321.798 227.078ZM277.182 218.208C274.518 218.208 272.749 217.846 270.825 216.321C268.418 214.415 268.259 212.357 268.259 209.762C268.259 207.174 270.621 204.207 272.904 203.049C278.017 200.456 284.153 203.445 284.153 210.747C284.153 212.871 283.232 214.843 282.169 215.924C280.858 217.258 279.233 218.208 277.182 218.208ZM303.812 210.325C303.812 203.46 311.259 202.133 315.003 205.923C320.939 211.931 313.242 217.364 310.505 217.364C307.132 217.364 303.812 213.756 303.812 210.325ZM373.385 210.466C373.385 208.323 377.174 205.538 378.684 205.538C379.335 205.538 381.22 206.911 381.651 207.328C383.97 209.576 383.738 211.64 381.577 213.81C380.652 214.738 379.89 215.534 378.405 215.534C376.833 215.534 374.806 213.884 374.032 212.347C373.824 211.934 373.385 210.975 373.385 210.466ZM338.668 210.184C338.668 208.203 342.589 204.694 344.524 204.694C347.242 204.694 349.404 207.987 349.404 211.17C349.404 212.394 349.244 213.063 348.472 214.029C346.739 216.195 342.124 216.379 340.299 213.887C339.817 213.229 338.668 211.17 338.668 210.184ZM355.678 193.29C355.678 191.074 359.149 187.659 361.813 187.659C363.94 187.659 367.111 190.6 367.111 192.727C367.111 194.738 366.69 195.713 365.266 197.059C363.684 198.555 359.092 199.558 357.346 197.238C356.749 196.445 355.678 194.35 355.678 193.29ZM327.654 200.189C323.906 200.189 320.822 196.383 320.822 193.854C320.822 191.75 321.148 190.058 322.664 188.533C324.585 186.602 327.094 186.225 329.648 187.336C331.598 188.184 334.207 190.633 334.207 193.15C334.207 196.168 330.605 200.189 327.654 200.189ZM285.129 193.572C285.129 189.485 289.218 184.984 293.216 184.984C299.628 184.984 304.001 193.594 298.898 198.746C298.197 199.454 297.581 199.952 296.585 200.352C296.159 200.523 295.606 200.747 295.136 200.86C291.114 201.826 287.559 199.977 285.962 196.814C285.568 196.034 285.129 194.747 285.129 193.572ZM377.847 170.484H378.823C381.225 170.484 386.467 174.987 382.95 179.719C380.781 182.638 376.825 182.202 374.218 180.201C369.98 176.948 374.437 170.484 377.847 170.484ZM337.693 176.115C337.693 172.692 340.759 169.639 343.548 169.639C345.803 169.639 346.85 170.159 348.539 171.64C348.992 172.037 348.907 171.93 349.311 172.409C350.876 174.264 350.938 174.685 350.938 176.819C350.938 178.416 349.853 180.005 348.972 180.746C344.926 184.146 337.693 181.764 337.693 176.115ZM310.086 183.999C306.682 183.999 302.139 180.127 302.139 176.256C302.139 174.059 303.377 172.12 304.753 170.73C311.979 163.435 318.034 172.529 318.034 175.271C318.034 178.256 316.556 181.983 313.557 183.28C312.742 183.632 311.211 183.999 310.086 183.999ZM361.534 165.979C358.179 165.979 354.702 161.787 354.702 159.644C354.702 155.697 358.657 152.464 361.255 152.464C363.65 152.464 365.947 154.602 367.14 156.517C369.787 160.765 364.751 165.979 361.534 165.979ZM335.043 159.081C335.043 160.14 334.594 161.358 334.203 162.033C332.935 164.222 330.03 166.824 327.515 166.824C325.57 166.824 324.241 166.544 322.806 165.102C321.729 164.019 321.151 163.339 320.501 161.799C317.062 153.653 328.063 147.552 333.551 154.956C334.39 156.087 335.043 157.587 335.043 159.081ZM287.918 150.634L291.797 150.9C294.715 150.656 297.875 150.478 300.085 152.708C303.598 156.251 302.373 166.305 296.442 167.547C295.119 167.823 291.524 168.132 289.925 167.775C289.415 167.662 289.115 167.51 288.704 167.297C285.658 165.711 285.105 164.83 285.127 160.913C285.14 158.717 285.165 156.404 284.994 154.424C284.898 153.322 285.192 152.328 285.66 151.733C286.165 151.093 287.048 150.634 287.918 150.634ZM310.644 150.634C307.984 150.634 305.696 149.922 304.262 148.349C302.252 146.143 302.139 143.464 302.139 140.498C302.139 135.136 305.281 133.298 310.512 133.729C313.08 133.941 314.285 134.196 316.263 135.669C318.603 137.413 318.87 139.773 318.87 142.469C318.87 144.527 317.323 146.915 316.259 147.997C315.067 149.208 312.968 150.634 310.644 150.634ZM377.707 135.43H378.962C383.044 135.43 384.958 138.741 384.958 142.891C384.958 145.117 381.013 148.945 378.823 148.945C375.623 148.945 370.186 144.813 372.007 139.81C372.833 137.541 375.157 135.43 377.707 135.43ZM344.524 148.945C342.029 148.945 340.363 148.312 338.923 147.139C337.59 146.052 336.856 143.707 336.856 141.765C336.856 139.661 337.98 138.023 339.051 136.942C342.422 133.537 346.323 133.927 349.514 137.149L351.021 139.147C352.695 141.926 351.641 144.624 349.579 146.728C348.498 147.832 346.639 148.945 344.524 148.945ZM362.092 131.769H360.837C357.091 131.769 353.866 129.179 353.866 125.434C353.866 122.96 354.424 121.417 356.199 119.625C359.024 116.773 363.628 116.655 366.522 119.554C368.253 121.288 368.924 122.579 368.924 125.153C368.924 126.873 368.016 128.811 366.869 129.835C365.809 130.781 364.032 131.769 362.092 131.769ZM326.817 116.565C331.762 116.565 335.88 120.91 335.88 124.871C335.88 128.834 330.674 133.459 327.515 133.459C325.891 133.459 325.225 133.41 323.58 132.363C320.027 130.104 317.943 125.681 319.663 121.589C320.871 118.714 323.252 116.565 326.817 116.565ZM344.524 115.58C337.433 115.58 333.637 108.837 337.651 103.431C342.676 96.6632 350.324 99.3537 351.693 105.385C352.885 110.637 350.536 115.58 344.524 115.58ZM319.01 90.2393C319.01 88.8457 319.108 85.2733 319.662 84.1401C320.777 81.8556 325.743 82.3556 328.63 82.3556C333.405 82.3556 335.88 84.8082 335.88 89.9578C335.88 92.6494 335.623 94.9999 333.809 97.0171C332.572 98.3934 329.81 99.2492 327.793 99.2492C324.822 99.2492 321.422 99.6323 319.983 96.8589C318.999 94.9623 319.263 93.5678 319.142 92.0768C319.09 91.4398 319.01 91.0801 319.01 90.2393ZM344.385 82.2148C339.239 82.2148 336.02 78.6994 336.02 73.4865C336.02 67.5119 337.434 65.1803 344.106 65.1803C346.537 65.1803 349.279 65.6604 350.621 66.7673C355.245 70.579 352.556 82.2148 344.385 82.2148ZM318.87 40.1214C318.87 42.8153 319.289 44.7557 321.218 46.3382C326.167 50.3961 333.881 45.5089 335.52 50.3401C336.652 53.6786 335.879 59.7805 334.767 62.6486C333.707 65.3832 332.565 65.0397 329.048 65.0397C326.761 65.0397 323.327 64.7848 321.204 65.2843C319.967 65.5753 319.416 66.0794 319.154 67.2974C318.302 71.2569 319.5 75.5806 318.818 79.487C318.283 82.5507 315.442 82.2148 312.875 82.2148C309.968 82.2148 306.899 81.9152 305.09 83.0829C303.198 84.3042 302 86.2435 302 88.6907C302 90.9238 301.621 95.6783 302.648 97.6089C303.079 98.4177 303.654 99.0071 304.593 99.3061C307.999 100.391 315.301 97.6202 317.891 101.645C319.627 104.342 320.468 109.306 318.777 112.388C316.153 117.172 309.397 116.424 304.509 116.424C303.553 116.424 302.624 116.225 302.284 115.292C302.022 114.569 302.139 113.037 302.139 112.06C302.139 109.808 302.139 107.555 302.139 105.303C302.139 102.753 302.353 100.994 300.633 100.066C298.776 99.0642 294.966 99.2492 292.519 99.2492C285.505 99.2492 283.392 108.241 286.075 112.935C290.282 120.298 299.496 113.419 301.586 117.546C302.794 119.928 302.07 123.177 301.995 125.711C301.949 127.281 302.163 128.828 301.774 130.133C299.613 137.369 289.139 130.319 286.074 135.257C285.208 136.653 285.078 138.687 284.989 140.356C284.518 149.173 286.64 150.635 276.624 150.634C272.941 150.634 269.73 151.151 268.552 154.872C268.295 155.684 268.108 156.466 268.117 157.529C268.136 159.878 267.31 165.581 269.513 166.965C271.311 168.095 274.405 167.95 276.485 167.95C279.669 167.95 282.411 167.18 283.784 169.59C285.981 173.447 286.495 183.489 279.008 184.998C275.948 185.614 271.492 186.352 269.569 183.098C268.569 181.407 268.245 179.467 268.261 176.817L268.113 173.166C267.672 167.48 264 167.809 259.196 167.809C257.96 167.809 256.633 168.143 255.755 168.558C254.543 169.132 254.175 169.392 253.303 170.305C251.044 172.67 250.613 177.759 251.682 181.028C251.971 181.912 252.498 182.813 253.255 183.381C257.253 186.376 264.926 183.901 266.63 185.644C268.671 187.733 268.769 194.429 267.86 197.393C266.194 202.823 260.435 202.019 255.85 202.019C249.314 202.019 251.388 201.234 251.388 192.446C251.388 187.499 248.821 184.844 243.581 184.844H241.768C237.893 184.844 234.1 189.614 234.1 193.572C234.1 206.376 246.155 200.329 249.942 202.635C251.092 203.336 251.097 203.614 251.274 205.231C251.403 206.404 251.37 207.698 251.229 209.037C250.918 211.977 250.67 216.217 248.404 218.011C246.342 219.643 244.292 219.05 241.768 219.053C234.628 219.062 234.239 219.549 234.239 211.873C234.239 206.825 234.888 204.21 230.038 202.46C226.062 201.024 222.453 201.759 219.565 204.658C218.723 205.503 218.104 206.357 217.665 207.527C216.465 210.733 216.894 216.113 220.041 218.186C223.113 220.209 228.159 218.549 231.952 219.532C234.415 220.17 234.1 223.261 234.1 225.388C234.1 226.898 234.251 227.942 234.244 229.335C234.223 233.632 232.359 235.114 228.86 236.005C227.877 236.256 226.455 236.51 225.316 236.51C223.04 236.51 219.277 235.7 218.041 234.705C215.728 232.844 217.508 230.214 217.508 227.359C217.508 224.708 217.352 222.417 215.452 220.707C212.923 218.431 204.903 218.201 202.448 221.445C202.137 221.856 201.847 222.156 201.567 222.667C199.858 225.792 199.346 232.063 202.063 234.789C205.192 237.929 213.633 235.213 215.922 236.704C217.719 237.874 217.229 244.363 217.229 246.646C217.229 248.666 215.736 250.871 214.364 251.919C212.399 253.42 206.454 254.581 203.76 252.926C198.676 249.802 201.141 242.53 200.195 239.491C199.981 238.804 199.554 238.197 198.989 237.765C198.841 237.652 198.931 237.72 198.749 237.594C197.347 236.626 193.832 235.947 191.714 235.947C188.513 235.947 185.481 237.658 183.987 240.111C182.723 242.186 183.112 248.985 183.651 250.987C184.46 253.993 187.231 253.535 189.763 253.545C193.323 253.558 197.107 252.548 199.275 256.047C200.561 258.123 200.809 263.275 199.803 265.512C198.122 269.247 194.425 270.438 190.181 270.438C185.755 270.438 183.327 267.046 183.346 262.558C183.385 252.974 182.344 253.263 173.729 253.263C170.95 253.263 168.44 253.68 167.338 255.397C164.783 259.377 168.31 267.21 164.506 269.714C163.658 270.272 162.222 270.235 160.903 270.299C157.649 270.455 153.894 271.011 150.703 269.895C150.12 269.691 149.98 269.769 149.748 269.312C149.545 268.914 149.601 268.383 149.607 267.905L149.518 258.854C149.418 258.15 149.373 257.814 149.135 257.26C147.968 254.54 139.967 250.538 134.515 256.043C131.543 259.044 132.083 262.689 133.016 266.496C133.304 267.672 133.625 269.01 134.367 269.779C135.16 270.601 137.047 270.369 138.315 270.437C141.046 270.584 144.4 271.07 147.157 270.356C147.906 270.162 149.065 269.639 149.608 269.593C149.608 272.39 149.329 275.026 149.329 277.9C149.329 281.281 149.937 283.175 148.112 285.258C147.104 286.408 143.932 287.754 141.8 287.754C138.485 287.754 133.353 287.543 132.651 283.477C132.282 281.344 132.708 274.228 132.486 273.508C131.735 271.082 127.23 269.453 125.069 269.453C122.941 269.453 120.795 269.807 119.19 271.119C112.36 276.706 117.638 286.512 114.135 287.412C113.777 287.504 112.637 287.614 112.248 287.619C110.655 287.638 109.595 287.472 108.059 287.472C106.522 287.472 105.413 287.621 103.875 287.611C98.0903 287.576 98.6797 290.803 98.4383 295.215C98.3955 296 98.4699 296.67 98.5452 297.23C98.6646 298.118 98.4668 300.175 98.0643 301.031C97.3531 302.545 95.9343 303.35 94.4176 303.966C91.0768 305.323 86.41 304.979 83.4399 303.04C80.7873 301.308 81.9209 297.9 81.7007 295.223C81.5156 292.97 81.7081 293.51 81.7081 291.414C81.7081 286.973 69.4083 285.943 66.1233 289.334C64.0275 291.497 64.6982 293.155 64.6982 296.764C64.6982 297.958 64.5569 298.556 64.5627 299.724C64.5767 302.545 62.9169 304.648 59.8184 304.648H54.3808C49.6451 304.648 47.8233 303.665 47.8231 299.162C47.823 297.684 47.6884 296.726 47.6884 295.215C47.6884 292.089 48.4326 291.181 45.1541 289.187C44.0801 288.533 43.3311 288.281 42.0271 287.839C38.6305 286.688 34.2776 287.156 32.3211 290.117C30.7599 292.479 30.539 295.731 30.539 299.017C30.539 306.822 40.0562 303.998 44.8944 305.076C47.025 305.55 47.549 307.148 47.549 309.293V317.036C47.549 319.037 47.0505 320.43 45.7326 321.115C44.8904 321.553 42.1728 322.104 40.8566 322.104C41.0423 322.909 43.6539 327.248 44.1818 327.898C44.3757 328.136 44.828 328.706 45.0196 328.882C45.699 329.505 46.4386 329.966 47.2702 330.41C48.5039 328.55 47.04 326.522 48.9996 323.992C50.2493 322.378 52.1398 321.803 54.9429 321.818L58.7394 322.085C59.7596 322.306 60.7901 322.858 61.4941 323.369C64.0922 325.256 64.5589 326.953 64.5589 329.988C64.5589 334.323 62.3162 338.309 58.155 338.867C57.7183 338.926 57.622 338.93 57.1536 338.982C56.7151 339.032 56.4722 338.946 56.4722 339.42C56.4722 342.56 60.266 347.023 63.3041 347.023H64.5589C64.5589 344.834 65.3591 342.934 66.9615 341.424C71.3326 337.304 78.5092 339.065 80.6756 344.545C81.87 347.567 81.9558 350.065 79.7212 352.478C79.0416 353.211 77.3085 355.231 76.5308 355.591C75.0778 356.264 73.6733 355.79 75.8902 358.81C78.8311 362.815 81.7078 361.283 84.602 358.673C86.7154 356.767 90.2321 356.36 93.0627 357.66C95.4513 358.757 97.7421 361.002 97.7421 364.057C97.7421 369.783 94.3402 370.212 99.4151 372.785C103.882 375.05 102.811 373.912 106.526 373.912C111.172 373.912 113.485 376.681 115.309 380.388C117.469 384.773 122.572 386.699 127.26 387.467C129.21 387.787 131.443 388.23 133.296 388.975L138.793 391.167C139.808 391.577 140.565 391.874 141.642 392.092C142.852 392.337 143.697 394.043 147.517 394.043C151.449 394.043 157.757 390.603 160.673 392.162C161.575 392.644 163.142 394.714 164.003 395.698C165.474 397.38 167.364 399.111 169.825 399.111C171.55 399.111 172.197 398.797 172.723 399.275C173.125 399.641 173.358 399.852 173.864 400.122C177.544 402.083 182.241 400.527 184.921 397.742C186.721 395.871 186.815 393.363 190.046 392.921C192.356 392.605 196.337 392.747 197.233 395.369C197.444 395.986 197.515 396.724 197.69 397.301C197.9 397.991 198.123 398.493 198.522 398.995C199.249 399.911 200.318 400.66 201.893 400.66H214.859C218.018 400.66 219.026 398.79 220.112 396.813C222.158 393.084 226.135 392.079 229.562 394.684C230.38 395.306 231.616 397.14 232.705 397.14C238.409 397.14 242.726 397.343 247.964 395.231C249.373 394.663 250.494 393.931 251.809 393.341C259.716 389.79 262.607 391.026 265.553 389.904C266.741 389.451 270.197 387.762 271.086 386.902C273.649 384.423 270.908 383.234 270.908 381.936C270.908 380.422 273.543 376.164 276.067 376.164C278.22 376.164 282.218 376.758 282.046 379.662C281.909 381.969 280.871 381.795 284.85 381.795C288.045 381.795 291.172 379.836 293.189 378.53C299.817 374.24 298.822 373.926 307.484 369.595C310.603 368.036 313.789 366.239 316.521 364.078L318.908 362.124C319.197 361.843 319.377 361.611 319.673 361.348C319.991 361.065 320.119 361.032 320.444 360.718C320.801 360.373 320.845 360.234 321.142 359.875C324.995 355.221 331.311 354.718 334.708 350.204C336.456 347.881 336.115 345.993 339.191 342.905C341.153 340.935 343.449 339.4 345.723 337.815C349.307 335.318 351.724 332.379 353.679 328.392C357.125 321.366 358.522 323.258 362.336 319.394C363.318 318.4 364.269 317.502 365.013 316.326C365.706 315.231 367.046 311.956 367.853 310.324C370.228 305.523 375.464 299.655 378.571 294.679C379.815 292.687 380.217 291.929 380.217 289.443C380.217 287.492 379.502 284.634 378.486 283.73C376.882 282.302 374.222 283.308 374.222 280.011C374.222 278.373 374.579 277.435 375.275 276.429C375.94 275.47 377.544 274.802 378.823 274.802C379.739 274.802 380.536 275.156 381.254 275.444C381.681 275.615 382.212 275.762 382.419 276.099C382.637 276.452 382.563 276.709 382.727 277.055C383.215 276.923 384.45 275.385 384.923 274.908C385.67 274.154 386.344 273.492 386.865 272.525C388.294 269.874 387.735 267.186 389.639 262.213C391.141 258.29 391.727 255.119 394.437 251.717C394.785 251.281 395.132 250.971 395.478 250.51C397.83 247.379 397.073 242.931 397.087 239.185C397.096 236.661 397.561 233.764 394.823 232.743C393.132 232.113 393.116 232.828 391.822 231.409C389.746 229.132 390.259 226.935 391.929 224.544C392.687 223.459 393.785 222.573 395.275 222.573C395.981 222.573 397.489 222.784 397.924 222.995C398.932 221.071 399.906 219.084 400.591 216.819C402.084 211.885 402.517 206.022 401.272 200.891C401.075 200.078 400.89 199.395 400.654 198.559L399.597 196.247C399.101 198.122 394.511 200.287 391.754 197.128C390.17 195.313 389.41 190.978 391.664 189.222C394.134 187.297 397.449 188.914 399.424 190.931C399.819 191.334 400.127 191.722 400.573 192.023C400.573 190.755 400.294 189.677 400.294 188.222C400.294 184.392 401.131 181.152 401.131 177.382C401.131 175.119 400.561 172.891 400.191 171.011C399.74 168.725 399.42 167.201 397.78 166.125C396.93 165.567 396.255 165.387 395.276 164.992C392.016 163.679 389.419 163.845 389.419 159.081C389.419 157.494 389.824 156.297 390.399 155.284C392.338 151.865 397.088 154.828 397.088 147.396C397.088 142.732 393.678 136.637 391.327 132.659C389.428 129.444 387.49 126.669 386.916 122.472C386.65 120.527 386.969 118.862 386.277 117.204C385.375 115.042 383.727 114.735 381.611 114.735C379.554 114.735 373.971 117.417 371.453 110.633C370.328 107.604 370.658 104.053 372.581 102.097C374.087 100.565 374.278 100.792 375.941 99.9996C377.827 99.1014 376.426 95.4997 375.459 94.1984C374.606 93.0498 373.561 92.3124 373.126 90.9236C372.851 90.045 372.703 89.6761 371.573 89.6761C371.67 89.2529 371.734 88.9741 371.544 88.4448C371.029 87.0105 368.784 87.8848 368.784 89.1131C368.784 90.6029 370.248 94.0525 366.537 96.8389C363.443 99.1616 358.28 99.6011 355.504 96.4691C353.951 94.7172 352.409 90.4549 353.818 87.6567C354.138 87.0213 354.224 86.7879 354.639 86.2338C355.035 85.7062 355.336 85.4484 355.783 84.9951C356.523 84.2437 357.502 83.4381 358.51 82.962C360.124 82.1998 362.47 82.1435 364.308 82.9336C364.923 83.1976 365.206 83.6103 365.856 83.7633C366.718 83.1807 366.554 82.6057 366.554 81.2293C364.673 80.7871 365.359 78.87 364.821 77.3474L363.022 73.3915C360.139 68.0064 355.663 70.5406 351.449 61.9893C349.637 58.3127 347.548 54.4571 343.996 52.1995C339.898 49.5957 336.451 49.8713 334.205 44.769C332.178 40.165 328.128 37.4544 323.985 34.9571C322.252 33.9127 320.64 33.2453 319.583 36.196C319.271 37.0699 318.87 38.9758 318.87 40.1214Z" fill="url(#paint0_linear_3288_505)" fill-opacity="0.2"/>
<path fill-rule="evenodd" clip-rule="evenodd" d="M87.5629 287.76C88.4506 287.76 88.9865 287.718 89.6747 287.639L93.9393 287.656C97.0738 288.069 98.1857 288.422 98.8199 283.359C99.0801 281.281 98.9625 275.34 97.7012 273.722C97.1129 272.966 96.5813 272.48 95.7833 271.998C88.9792 267.889 81.9045 271.943 81.4384 278.056C81.1896 281.32 81.2771 285.512 84.26 287.012C84.9816 287.375 86.5424 287.76 87.5629 287.76Z" fill="url(#paint1_linear_3288_505)" fill-opacity="0.2"/>
<path fill-rule="evenodd" clip-rule="evenodd" d="M301.998 56.5969C301.998 59.513 302.724 61.5373 304.625 63.095C307.349 65.3275 310.159 65.1844 313.57 65.1844C319.75 65.1844 319.008 62.0133 319.008 56.1746C319.008 51.5697 317.11 48.0093 312.176 48.0093H310.921C306.41 48.0093 301.998 52.0875 301.998 56.5969Z" fill="url(#paint2_linear_3288_505)" fill-opacity="0.2"/>
<path fill-rule="evenodd" clip-rule="evenodd" d="M268.121 124.594C268.121 126.245 268.283 127.247 269.102 128.672L270.472 130.527C271.853 132.061 274.896 133.604 277.184 133.604C279.429 133.604 282.249 133.726 283.682 131.859C284.669 130.573 285.086 128.794 285.136 126.992C285.229 123.618 286.015 120.014 282.297 118.023C280.769 117.204 277.532 116.246 275.988 116.478C273.243 116.891 271.467 118.22 269.853 120.289C269.528 120.706 269.329 121.01 269.067 121.467C268.702 122.103 268.121 123.645 268.121 124.594Z" fill="url(#paint3_linear_3288_505)" fill-opacity="0.2"/>
<path fill-rule="evenodd" clip-rule="evenodd" d="M149.33 245.237C149.33 249.852 152.986 253.402 156.999 253.402C158.992 253.402 160.285 253.497 162.21 252.892C163.315 252.545 163.848 252.191 164.564 251.468C167.404 248.6 166.912 242.617 164.141 239.433C163.787 239.027 163.543 238.652 163.136 238.336C160.426 236.239 158.356 235.336 154.813 237.258C153.118 238.177 151.262 240.052 150.351 241.763C149.928 242.558 149.33 244.102 149.33 245.237Z" fill="url(#paint4_linear_3288_505)" fill-opacity="0.2"/>
<path fill-rule="evenodd" clip-rule="evenodd" d="M47.6866 279.025C47.6866 281.471 48.2305 283.98 50.193 285.504C51.0593 286.177 51.443 286.542 52.6043 287.011C53.6917 287.45 54.5066 287.601 55.9724 287.652C60.8654 287.823 64.6964 286.055 64.6964 280.574C64.6964 277.503 63.9721 275.659 62.2694 273.451C61.2387 272.115 58.8894 270.437 56.6097 270.437C54.1565 270.437 52.0538 272.007 50.7888 273.288C49.9422 274.146 49.4949 274.626 48.8275 275.672C48.3452 276.428 47.6866 277.841 47.6866 279.025Z" fill="url(#paint5_linear_3288_505)" fill-opacity="0.2"/>
<path fill-rule="evenodd" clip-rule="evenodd" d="M107.501 270.582C115.461 270.582 117.964 261.535 113.115 256.466C110.287 253.508 107.329 252.591 103.642 254.578C99.2839 256.927 96.0105 263.833 101.053 268.364C102.463 269.631 104.873 270.582 107.501 270.582Z" fill="url(#paint6_linear_3288_505)" fill-opacity="0.2"/>
<path fill-rule="evenodd" clip-rule="evenodd" d="M294.611 82.3577C299.617 82.3577 302.14 79.4983 302.14 74.1924C302.14 69.8754 297.78 65.0418 294.471 65.0418C290.191 65.0418 284.907 70.0658 285.016 73.757C285.151 78.3388 289.832 82.3577 294.611 82.3577Z" fill="url(#paint7_linear_3288_505)" fill-opacity="0.2"/>
<path fill-rule="evenodd" clip-rule="evenodd" d="M166.48 227.783C166.48 232.199 171.241 236.371 174.846 236.371C177.281 236.371 179.424 235.472 180.736 234.293C184.372 231.026 184.162 224.853 180.684 222.029C180.254 221.679 180.091 221.463 179.583 221.17C172.89 217.307 166.48 223.746 166.48 227.783Z" fill="url(#paint8_linear_3288_505)" fill-opacity="0.2"/>
<path fill-rule="evenodd" clip-rule="evenodd" d="M251.945 142.895C251.945 147.973 257.405 152.549 263.5 150.057C266.486 148.837 267.873 145.904 268.2 142.412C268.406 140.215 266.852 137.96 265.848 136.74C264.634 135.266 262.166 133.885 259.892 133.885C257.679 133.885 255.292 135.426 254.294 136.679C252.905 138.424 251.945 140.427 251.945 142.895Z" fill="url(#paint9_linear_3288_505)" fill-opacity="0.2"/>
<path fill-rule="evenodd" clip-rule="evenodd" d="M14.6444 276.773C14.6444 280.796 17.7633 285.77 21.5308 287.276C23.8967 288.222 25.9933 287.444 27.7947 285.968C29.1569 284.852 30.8178 282.684 30.8178 280.292C30.8178 275.255 26.6077 270.437 22.3128 270.437C20.3201 270.437 14.6444 274.952 14.6444 276.773Z" fill="url(#paint10_linear_3288_505)" fill-opacity="0.2"/>
<path fill-rule="evenodd" clip-rule="evenodd" d="M116.285 245.521C116.285 248.029 117.254 249.413 118.517 250.87C118.742 251.13 119.155 251.473 119.458 251.75C122.479 254.505 126.828 253.675 129.777 250.697C131.279 249.181 132.459 247.257 132.459 244.676C132.459 241.37 127.833 237.074 123.814 237.074C119.516 237.074 116.285 241.171 116.285 245.521Z" fill="url(#paint11_linear_3288_505)" fill-opacity="0.2"/>
<path fill-rule="evenodd" clip-rule="evenodd" d="M65.3978 262.691C65.3978 263.823 65.7487 265.003 66.0939 265.789C66.6865 267.139 67.6206 268.15 68.7417 269.028C71.5304 271.212 74.7928 270.916 77.5862 268.944C78.8576 268.047 79.6983 267.068 80.5169 265.709C81.3716 264.29 81.7656 262.742 81.298 260.855C80.0389 255.776 71.5899 250.464 66.816 257.788C66.1258 258.847 65.3978 260.979 65.3978 262.691Z" fill="url(#paint12_linear_3288_505)" fill-opacity="0.2"/>
<path fill-rule="evenodd" clip-rule="evenodd" d="M268.956 90.5191C268.956 95.9035 275.9 103.146 282.375 96.6078C288.849 90.0715 282.614 83.0577 277.461 83.0577C275.852 83.0577 275.196 83.1629 273.753 83.8192C271.431 84.8761 268.956 87.8216 268.956 90.5191Z" fill="url(#paint13_linear_3288_505)" fill-opacity="0.2"/>
<path fill-rule="evenodd" clip-rule="evenodd" d="M251.248 159.364C251.248 154.974 247.296 151.481 243.161 151.481C239.011 151.481 233.709 156.842 235.312 161.377C236.246 164.017 238.896 166.713 241.55 167.608C246.102 169.144 251.248 163.13 251.248 159.364Z" fill="url(#paint14_linear_3288_505)" fill-opacity="0.2"/>
<path fill-rule="evenodd" clip-rule="evenodd" d="M191.993 219.196C196.507 219.196 200.08 214.202 200.08 210.89C200.08 206.977 196.13 202.865 191.714 202.865C189.672 202.865 187.889 204.417 186.59 205.716C184.152 208.156 183.356 210.961 184.973 214.177C186.209 216.635 189.187 219.196 191.993 219.196Z" fill="url(#paint15_linear_3288_505)" fill-opacity="0.2"/>
<path fill-rule="evenodd" clip-rule="evenodd" d="M209.142 202.021C212.878 202.021 217.092 197.591 217.173 193.979C217.266 189.867 211.391 183.423 206.131 186.592C201.233 189.542 199.039 194.466 203.739 199.17C204.076 199.508 204.365 199.849 204.719 200.151C205.759 201.036 207.661 202.021 209.142 202.021Z" fill="url(#paint16_linear_3288_505)" fill-opacity="0.2"/>
<path fill-rule="evenodd" clip-rule="evenodd" d="M294.051 31.6729C289.951 31.6729 281.922 38.5025 288.23 44.8716C291.484 48.1574 296.038 47.824 299.492 45.1909C300.924 44.0991 302.123 41.5626 301.985 39.7208C301.758 36.709 299.517 33.8117 297.167 32.6091C296.389 32.2108 295.142 31.6729 294.051 31.6729Z" fill="url(#paint17_linear_3288_505)" fill-opacity="0.2"/>
<path fill-rule="evenodd" clip-rule="evenodd" d="M218.066 176.541C218.066 180.353 221.705 184.143 225.455 184.143C228.226 184.143 230.316 183.99 232.171 181.632C233.221 180.298 234.239 177.383 234.239 175.836C234.239 174.757 233.688 173.857 233.238 173.187C231.745 170.962 228.747 168.657 226.013 168.657C222.992 168.657 218.066 173.124 218.066 176.541Z" fill="url(#paint18_linear_3288_505)" fill-opacity="0.2"/>
<path fill-rule="evenodd" clip-rule="evenodd" d="M31.5129 261.993C31.5129 269.048 39.6879 271.79 44.5425 268.11C47.1938 266.101 47.4317 262.079 46.0165 259.174C44.8291 256.737 42.1346 254.25 39.0419 254.25C35.8447 254.25 31.5129 258.723 31.5129 261.993Z" fill="url(#paint19_linear_3288_505)" fill-opacity="0.2"/>
<path fill-rule="evenodd" clip-rule="evenodd" d="M141.382 235.526C145.089 235.526 148.632 232.26 148.632 227.924C148.632 223.029 143.393 219.891 139.175 221.051C136.468 221.795 134.219 223.942 133.521 226.744C133.065 228.569 133.551 230.013 134.221 231.353C135.428 233.764 138.571 235.526 141.382 235.526Z" fill="url(#paint20_linear_3288_505)" fill-opacity="0.2"/>
<path fill-rule="evenodd" clip-rule="evenodd" d="M252.785 107.836C252.785 111.68 256.416 115.72 259.616 115.72C261.873 115.72 263.276 114.779 264.779 113.611L266.403 111.591C267.284 109.916 267.285 109.652 267.285 107.836C267.285 104.124 263.458 100.234 260.314 100.234C258.795 100.234 258.179 100.226 256.658 101.188C256.243 101.45 256.064 101.649 255.711 101.921C254.259 103.042 252.785 105.86 252.785 107.836Z" fill="url(#paint21_linear_3288_505)" fill-opacity="0.2"/>
<path fill-rule="evenodd" clip-rule="evenodd" d="M269.793 56.1729V57.1582C269.793 60.2523 273.312 64.338 277.043 64.338C280.635 64.338 284.293 60.5629 284.293 56.4544C284.293 52.3841 279.079 46.8709 274.021 49.6015C273.419 49.9257 272.392 50.7293 272.002 51.2237C270.957 52.5487 269.793 54.2833 269.793 56.1729Z" fill="url(#paint22_linear_3288_505)" fill-opacity="0.2"/>
<path fill-rule="evenodd" clip-rule="evenodd" d="M83.2402 244.395C83.2402 247.577 84.0223 250.428 86.7304 251.852C90.246 253.701 94.793 251.971 96.9 248.333C98.8435 244.978 97.9624 237.919 89.6538 237.919C85.7738 237.919 83.2402 240.753 83.2402 244.395Z" fill="url(#paint23_linear_3288_505)" fill-opacity="0.2"/>
<path fill-rule="evenodd" clip-rule="evenodd" d="M165.086 211.166C165.086 207.427 162.06 203.705 158.672 203.705C156.545 203.705 155.769 203.923 154.027 205.35C147.612 210.605 153.261 217.138 156.577 218.068C160.429 219.149 165.086 215.14 165.086 211.166Z" fill="url(#paint24_linear_3288_505)" fill-opacity="0.2"/>
<path fill-rule="evenodd" clip-rule="evenodd" d="M49.3636 245.099C49.3636 246.495 49.3631 247.102 50.2257 248.452C51.4443 250.36 53.7637 252.56 56.1953 252.56C59.3209 252.56 63.7244 248.316 63.7244 245.24C63.7244 242.345 59.3945 237.919 56.056 237.919C52.5367 237.919 49.3636 242.064 49.3636 245.099Z" fill="url(#paint25_linear_3288_505)" fill-opacity="0.2"/>
<path fill-rule="evenodd" clip-rule="evenodd" d="M252.785 73.6276C252.785 76.5171 254.701 78.6252 257.105 79.8245C259.704 81.1218 262.818 80.7748 264.949 78.8711C271.008 73.4572 263.818 66.2741 260.096 66.7797C258.21 67.0361 256.556 67.5893 255.188 68.8745C254.113 69.8839 252.785 71.6103 252.785 73.6276Z" fill="url(#paint26_linear_3288_505)" fill-opacity="0.2"/>
<path fill-rule="evenodd" clip-rule="evenodd" d="M243.023 131.914C244.537 131.914 245.129 131.9 246.512 131.213C247.438 130.753 247.653 130.547 248.356 129.837C253.822 124.319 246.921 118.117 243.162 118.117C239.709 118.117 235.968 121.516 235.848 124.911C235.813 125.902 236.098 126.938 236.466 127.694C237.539 129.9 240.279 131.914 243.023 131.914Z" fill="url(#paint27_linear_3288_505)" fill-opacity="0.2"/>
<path fill-rule="evenodd" clip-rule="evenodd" d="M100.254 227.78C100.254 230.085 101.24 231.37 102.797 232.955C105.239 235.441 108.158 236.354 110.815 233.798C112.095 232.567 113.917 230.622 113.917 228.624C113.917 226.663 112.804 224.594 111.86 223.522C110.441 221.91 109.092 220.881 106.667 220.881C104.083 220.881 100.254 224.866 100.254 227.78Z" fill="url(#paint28_linear_3288_505)" fill-opacity="0.2"/>
<path fill-rule="evenodd" clip-rule="evenodd" d="M269.793 22.3836C269.793 25.2997 273.729 29.2819 276.625 29.2819C282.065 29.2819 285.809 22.4925 281.743 17.6379C279.177 14.5748 275.023 14.8959 272.198 17.7728C271.139 18.8512 269.793 20.3178 269.793 22.3836Z" fill="url(#paint29_linear_3288_505)" fill-opacity="0.2"/>
<path fill-rule="evenodd" clip-rule="evenodd" d="M22.7341 251.716C24.9704 251.716 25.8862 251.19 27.3732 249.642C29.6681 247.254 29.5301 244.046 27.7839 241.408C26.6766 239.735 24.4436 237.919 22.3159 237.919C19.3626 237.919 15.3243 242.034 15.3977 244.942C15.4471 246.9 16.7118 248.424 17.8166 249.501C18.767 250.428 20.9422 251.716 22.7341 251.716Z" fill="url(#paint30_linear_3288_505)" fill-opacity="0.2"/>
<path fill-rule="evenodd" clip-rule="evenodd" d="M168.152 193.852C168.152 196.527 171.63 199.946 174.823 200.361C178.068 200.783 181.676 197.618 181.676 194.275V193.571C181.676 190.574 178.218 186.673 175.263 186.673C171.74 186.673 168.152 190.321 168.152 193.852Z" fill="url(#paint31_linear_3288_505)" fill-opacity="0.2"/>
<path fill-rule="evenodd" clip-rule="evenodd" d="M219.74 142.328C219.74 146.116 222.83 149.456 226.036 148.974C230.538 148.296 232.567 146.349 232.567 141.905C232.567 140.815 231.736 139.375 231.116 138.584L229.531 136.946C225.119 133.036 219.74 137.471 219.74 142.328Z" fill="url(#paint32_linear_3288_505)" fill-opacity="0.2"/>
<path fill-rule="evenodd" clip-rule="evenodd" d="M202.732 159.648C202.732 163.045 205.928 166.124 208.309 166.124C210.037 166.124 211.458 165.979 212.93 164.877C215.468 162.978 216.382 159.783 215.005 156.97C212.666 152.195 206.536 152.489 204.295 154.751C203.307 155.749 202.732 157.691 202.732 159.648Z" fill="url(#paint33_linear_3288_505)" fill-opacity="0.2"/>
<path fill-rule="evenodd" clip-rule="evenodd" d="M236.748 90.0979C236.748 92.3084 236.852 93.9578 238.594 95.6951C240.527 97.6225 242.53 98.4118 245.208 96.9508C247.109 95.9134 249.575 93.112 249.575 90.9426C249.575 88.2614 246.436 84.7249 243.478 84.1376C240.538 83.5538 236.748 86.4869 236.748 90.0979Z" fill="url(#paint34_linear_3288_505)" fill-opacity="0.2"/>
<path fill-rule="evenodd" clip-rule="evenodd" d="M253.619 39.4137C253.619 41.3589 254.325 42.8632 255.209 44.0024C257.701 47.2112 262.044 47.0153 264.417 43.9814C266.256 41.631 267.279 39.8136 265.656 36.8332C264.235 34.224 260.942 31.6649 257.333 33.4494C255.3 34.4543 253.619 36.9801 253.619 39.4137Z" fill="url(#paint35_linear_3288_505)" fill-opacity="0.2"/>
<path fill-rule="evenodd" clip-rule="evenodd" d="M185.858 175.979V177.105C185.858 179.968 188.62 183.299 191.992 183.299C195.681 183.299 198.685 180.29 198.685 176.401C198.685 173.189 195.341 170.347 192.132 170.347C190.952 170.347 190.27 170.36 189.14 170.846C187.152 171.701 185.858 173.887 185.858 175.979Z" fill="url(#paint36_linear_3288_505)" fill-opacity="0.2"/>
<path fill-rule="evenodd" clip-rule="evenodd" d="M79.8973 228.067C79.8973 226.183 79.2946 224.584 77.8874 223.48C75.7886 221.834 74.9404 221.732 72.3683 221.732C67.628 221.732 64.9352 228.502 69.3344 232.961C73.9849 237.675 79.8973 230.883 79.8973 228.067Z" fill="url(#paint37_linear_3288_505)" fill-opacity="0.2"/>
<path fill-rule="evenodd" clip-rule="evenodd" d="M5.582 234.543C8.5203 234.543 15.3154 228.823 10.0806 223.525C8.30474 221.727 6.63016 221.732 4.32718 221.732C2.79949 221.732 1.45854 222.402 0.788972 223.791C0.178522 225.057 0.119568 227.218 0.0066012 228.784C-0.0487296 229.55 0.254604 230.552 0.511332 231.075C1.04751 232.168 2.2228 233.337 3.26815 233.923C3.78342 234.212 4.8385 234.543 5.582 234.543Z" fill="url(#paint38_linear_3288_505)" fill-opacity="0.2"/>
<path fill-rule="evenodd" clip-rule="evenodd" d="M33.19 227.926C33.19 231.124 35.8318 234.543 38.9065 234.543C40.7405 234.543 42.2548 233.922 43.4041 232.609C47.6843 227.718 43.4388 221.732 39.8823 221.732H38.767C35.8551 221.732 33.19 224.942 33.19 227.926Z" fill="url(#paint39_linear_3288_505)" fill-opacity="0.2"/>
<path fill-rule="evenodd" clip-rule="evenodd" d="M117.959 211.03C117.959 214.867 123.095 220.526 128.034 215.571C130.48 213.117 130.633 209.121 128.312 206.49C124.267 201.905 117.959 206.307 117.959 211.03Z" fill="url(#paint40_linear_3288_505)" fill-opacity="0.2"/>
<path fill-rule="evenodd" clip-rule="evenodd" d="M236.748 56.5986C236.748 58.6143 237.339 59.3752 238.802 60.8592C242.316 64.4215 248.738 62.6568 248.738 56.7392C248.738 50.8429 242.466 48.6256 238.733 52.4087C237.808 53.3467 236.748 54.7986 236.748 56.5986Z" fill="url(#paint41_linear_3288_505)" fill-opacity="0.2"/>
<path fill-rule="evenodd" clip-rule="evenodd" d="M16.3187 210.471C16.3187 214.471 21.4761 219.384 26.327 214.805C29.4736 211.834 28.5524 207.636 24.7688 205.318C20.6453 202.791 16.3187 207.581 16.3187 210.471Z" fill="url(#paint42_linear_3288_505)" fill-opacity="0.2"/>
<path fill-rule="evenodd" clip-rule="evenodd" d="M220.574 107.981C220.574 110.604 221.433 112.668 223.937 113.596C226.119 114.405 228.517 113.739 229.939 111.946C231.994 109.356 232.624 106.669 230.022 104.073C228.325 102.38 227.665 102.068 225.315 102.068C222.152 102.068 220.574 104.926 220.574 107.981Z" fill="url(#paint43_linear_3288_505)" fill-opacity="0.2"/>
<path fill-rule="evenodd" clip-rule="evenodd" d="M135.802 193.293V194.56C135.802 197.491 137.779 199.487 140.682 199.487C141.77 199.487 142.544 199.432 143.553 198.867C145.201 197.945 146.956 195.983 146.956 193.997C146.956 190.87 144.137 187.662 141.797 187.662H140.961C138.319 187.662 135.802 190.608 135.802 193.293Z" fill="url(#paint44_linear_3288_505)" fill-opacity="0.2"/>
<path fill-rule="evenodd" clip-rule="evenodd" d="M84.9118 210.887C84.9118 214.394 86.3333 216.659 90.0706 216.659C92.8434 216.659 99.0068 212.964 94.3957 206.801C91.1442 202.455 84.9118 205.504 84.9118 210.887Z" fill="url(#paint45_linear_3288_505)" fill-opacity="0.2"/>
<path fill-rule="evenodd" clip-rule="evenodd" d="M237.585 21.8188V22.8041C237.585 25.0397 241.587 31.5953 246.893 26.2897C247.365 25.8174 247.757 25.3066 248.09 24.6829C249.305 22.4074 248.574 20.1588 246.892 18.4748C245.963 17.5453 244.791 16.469 243.162 16.469C240.004 16.469 237.585 19.1472 237.585 21.8188Z" fill="url(#paint46_linear_3288_505)" fill-opacity="0.2"/>
<path fill-rule="evenodd" clip-rule="evenodd" d="M50.8956 212.294C50.8956 214.015 51.2876 214.983 53.2462 215.692C55.2189 216.406 57.243 217.127 59.0418 215.873C64.6414 211.97 61.5192 205.396 56.891 205.396C52.4113 205.396 50.8956 207.729 50.8956 212.294Z" fill="url(#paint47_linear_3288_505)" fill-opacity="0.2"/>
<path fill-rule="evenodd" clip-rule="evenodd" d="M259.894 11.2654C264.269 11.2654 267.535 6.62715 265.93 4.88957C264.775 3.63934 259.072 0.425399 257.385 0.425399C254.274 0.425399 251.774 6.42978 256.108 9.87933C256.979 10.5725 258.365 11.2654 259.894 11.2654Z" fill="url(#paint48_linear_3288_505)" fill-opacity="0.2"/>
<path fill-rule="evenodd" clip-rule="evenodd" d="M220.574 73.7693C220.574 76.4392 223.534 79.5412 226.151 79.5412C228.72 79.5412 231.728 76.5727 231.728 73.6285C231.728 71.0753 228.885 67.7157 225.733 67.7157C223.471 67.7157 220.574 71.3851 220.574 73.7693Z" fill="url(#paint49_linear_3288_505)" fill-opacity="0.2"/>
<path fill-rule="evenodd" clip-rule="evenodd" d="M225.873 45.3277C228.793 45.3277 231.589 42.6618 231.589 39.9781C231.589 38.817 231.004 36.9582 230.608 36.1824C229.472 33.9563 227.837 34.206 226.012 34.206C222.209 34.206 221.088 36.321 220.624 39.7586C220.294 42.2072 223.683 45.3277 225.873 45.3277Z" fill="url(#paint50_linear_3288_505)" fill-opacity="0.2"/>
<path fill-rule="evenodd" clip-rule="evenodd" d="M209.561 130.78C213.13 130.78 216.864 125.001 213.226 121.307C210.667 118.707 204.399 119.052 203.715 125.3C203.468 127.551 203.743 128.228 205.215 129.255C205.971 129.782 208.346 130.78 209.561 130.78Z" fill="url(#paint51_linear_3288_505)" fill-opacity="0.2"/>
<path fill-rule="evenodd" clip-rule="evenodd" d="M163.83 176.535C163.83 171.939 156.301 168.259 153.323 174.514C153.132 174.915 152.864 175.596 152.786 176.069C152.463 178.035 154.525 181.392 157.084 182.222C158.283 182.611 159.488 182.23 160.408 181.667C161.909 180.75 163.83 178.847 163.83 176.535Z" fill="url(#paint52_linear_3288_505)" fill-opacity="0.2"/>
<path fill-rule="evenodd" clip-rule="evenodd" d="M4.74646 198.643C7.24985 198.643 10.4628 198.382 10.4628 194.841C10.4628 192.37 10.3752 189.618 7.69629 188.625C5.82196 187.93 0.315063 187.948 0.141331 191.74C-0.0175802 195.206 -0.392876 198.643 4.74646 198.643Z" fill="url(#paint53_linear_3288_505)" fill-opacity="0.2"/>
<path fill-rule="evenodd" clip-rule="evenodd" d="M169.687 159.222C169.687 159.879 170.05 161.092 170.268 161.592C170.845 162.911 171.942 163.923 173.25 164.494C175.615 165.525 177.43 165.349 179.152 163.148C180.591 161.308 181.524 159.661 180.175 157.501C179.927 157.105 179.247 156.231 178.912 155.961C176.374 153.921 174.444 153.066 171.741 155.806C170.998 156.56 169.687 158.051 169.687 159.222Z" fill="url(#paint54_linear_3288_505)" fill-opacity="0.2"/>
<path fill-rule="evenodd" clip-rule="evenodd" d="M186.971 142.05C186.971 144.148 187.144 144.79 188.675 146.242C189.584 147.105 191.222 147.4 192.827 147.4C194.534 147.4 195.435 146.59 196.282 145.679C196.876 145.041 197.707 143.118 197.707 141.909C197.707 138.613 190.614 133.867 187.524 139.934C187.25 140.473 186.971 141.225 186.971 142.05Z" fill="url(#paint55_linear_3288_505)" fill-opacity="0.2"/>
<path fill-rule="evenodd" clip-rule="evenodd" d="M203.708 56.0294C203.708 61.7551 209.686 63.2527 212.39 60.29C213.879 58.6584 214.42 56.1719 213.333 54.0537C211.931 51.3185 208.021 50.4801 205.357 52.6261C204.511 53.3076 203.708 54.5322 203.708 56.0294Z" fill="url(#paint56_linear_3288_505)" fill-opacity="0.2"/>
<path fill-rule="evenodd" clip-rule="evenodd" d="M101.925 193.426C101.925 194.579 102.94 196.26 103.455 196.949C105.352 199.487 112.243 200.085 112.243 192.722C112.243 189.749 108.893 188.358 107.084 188.358C105.012 188.358 101.925 191.419 101.925 193.426Z" fill="url(#paint57_linear_3288_505)" fill-opacity="0.2"/>
<path fill-rule="evenodd" clip-rule="evenodd" d="M220.714 5.49042C220.714 7.63704 224.215 10.4177 225.454 10.4177C226.785 10.4177 228.598 9.66161 229.326 8.97755C231.877 6.58102 231.964 0 225.454 0C223.924 0 222.898 0.880595 222.225 1.80725C221.758 2.44941 220.714 4.4808 220.714 5.49042Z" fill="url(#paint58_linear_3288_505)" fill-opacity="0.2"/>
<path fill-rule="evenodd" clip-rule="evenodd" d="M34.1639 193.426C34.1639 198.82 40.054 199.948 42.779 197.198C44.2384 195.726 44.7798 193.619 43.9688 191.691C43.6959 191.043 43.4344 190.628 43.0318 190.103C41.9514 188.695 39.2879 187.576 37.2288 189.06C36.0074 189.94 34.1639 191.737 34.1639 193.426Z" fill="url(#paint59_linear_3288_505)" fill-opacity="0.2"/>
<path fill-rule="evenodd" clip-rule="evenodd" d="M203.845 90.8042C203.845 94.9703 209.739 97.8847 212.653 94.2074C213.127 93.61 214.023 91.6526 214.023 90.6634C214.023 88.5035 211.572 85.6061 208.884 85.7536C206.305 85.8951 203.845 88.0692 203.845 90.8042Z" fill="url(#paint60_linear_3288_505)" fill-opacity="0.2"/>
<path fill-rule="evenodd" clip-rule="evenodd" d="M203.708 22.666C203.708 24.4041 207.083 27.5932 209.007 27.5932C210.123 27.5932 211.636 26.6869 212.253 26.0851C214.361 24.0291 214.515 20.7458 212.391 18.685C210.998 17.3332 208.735 16.9496 206.873 17.8367C206.231 18.1426 205.887 18.568 205.415 19.0395C204.916 19.5387 204.63 19.9053 204.31 20.5985C204.064 21.1321 203.708 21.9739 203.708 22.666Z" fill="url(#paint61_linear_3288_505)" fill-opacity="0.2"/>
<path fill-rule="evenodd" clip-rule="evenodd" d="M68.0432 194.136C68.0432 195.52 71.3695 198.642 73.4808 198.642C75.0014 198.642 76.9001 197.42 77.6673 195.83C78.4019 194.307 78.4484 192.733 77.6598 191.184C76.8603 189.614 74.4937 188.284 72.7022 188.552C69.8655 188.977 68.0432 191.88 68.0432 194.136Z" fill="url(#paint62_linear_3288_505)" fill-opacity="0.2"/>
<path fill-rule="evenodd" clip-rule="evenodd" d="M22.036 171.606C21.6457 171.701 21.4494 171.59 20.93 171.757C18.6608 172.484 16.938 175.163 17.2016 176.9C17.5239 179.022 21.0224 181.687 22.7054 181.566C25.0833 181.395 27.7588 178.845 27.4037 176.191C27.0451 173.512 25.5823 172.039 23.1523 171.6C23.0354 171.579 22.57 171.496 22.5532 171.496C21.8078 171.467 22.1542 171.577 22.036 171.606Z" fill="url(#paint63_linear_3288_505)" fill-opacity="0.2"/>
<path fill-rule="evenodd" clip-rule="evenodd" d="M187.535 38.573V40.4032C187.535 44.3497 193.521 46.003 195.806 42.8415C198.349 39.3212 196.556 34.4904 191.996 34.4904C189.622 34.4904 187.535 36.145 187.535 38.573Z" fill="url(#paint64_linear_3288_505)" fill-opacity="0.2"/>
<path fill-rule="evenodd" clip-rule="evenodd" d="M186.834 5.20926C186.834 7.87515 189.391 10.1365 191.296 10.1365C192.903 10.1365 194.424 9.95809 195.639 8.60943C195.939 8.27704 196.418 7.57386 196.579 7.16515C197.314 5.30569 197.12 3.38305 195.654 2.07596C195.244 1.71015 193.299 0.563515 192.69 0.563515C190.593 0.563515 188.398 1.43846 187.446 3.15159C187.25 3.5031 186.834 4.75283 186.834 5.20926Z" fill="url(#paint65_linear_3288_505)" fill-opacity="0.2"/>
<path fill-rule="evenodd" clip-rule="evenodd" d="M4.8846 164.428C8.53066 164.428 12.8427 160.458 8.75627 156.295C8.29502 155.825 7.91346 155.364 7.3982 154.992C4.36949 152.801 1.70785 155.008 1.2792 159.239C1.12342 160.777 1.13742 161.885 1.9193 162.776C2.55692 163.503 3.60095 164.428 4.8846 164.428Z" fill="url(#paint66_linear_3288_505)" fill-opacity="0.2"/>
<path fill-rule="evenodd" clip-rule="evenodd" d="M152.952 5.34888C152.952 6.09878 153.131 6.61989 153.411 7.13817C153.594 7.47737 153.616 7.51329 153.871 7.79962L154.45 8.34184C155.537 9.26035 156.807 9.57228 158.39 9.57228C161.193 9.57228 162.852 6.85833 162.852 4.08186C162.852 2.76529 161.754 1.9374 160.855 1.45237C159.396 0.666389 158.691 0.336833 157.472 0.618836C155.156 1.15508 152.952 2.60117 152.952 5.34888Z" fill="url(#paint67_linear_3288_505)" fill-opacity="0.2"/>
<path fill-rule="evenodd" clip-rule="evenodd" d="M170.663 22.1003C170.663 23.4248 170.736 24.5337 171.603 25.5158C173.199 27.3228 176.839 27.0651 178.3 25.5881C179.362 24.5146 179.726 24.0058 179.726 22.2411C179.726 20.5213 178.635 18.7912 177.167 18.2083C176.059 17.7685 172.976 17.8371 171.88 18.8238C171.109 19.5187 170.663 20.6835 170.663 22.1003Z" fill="url(#paint68_linear_3288_505)" fill-opacity="0.2"/>
<path fill-rule="evenodd" clip-rule="evenodd" d="M119.631 177.098C119.631 182.768 128.275 182.526 128.275 177.379V175.268C128.275 173.387 126.522 172.17 124.65 172.17H123.535C120.966 172.17 119.631 174.479 119.631 177.098Z" fill="url(#paint69_linear_3288_505)" fill-opacity="0.2"/>
<path fill-rule="evenodd" clip-rule="evenodd" d="M187.535 73.9091C187.535 80.1827 196.179 79.7362 196.179 74.6129C196.179 72.4766 195.94 69.404 192.972 69.404C191.114 69.404 190.085 69.2708 188.68 70.7016C187.953 71.4424 187.535 72.4888 187.535 73.9091Z" fill="url(#paint70_linear_3288_505)" fill-opacity="0.2"/>
<path fill-rule="evenodd" clip-rule="evenodd" d="M187.671 107.419V108.264C187.671 111.67 190.494 112.346 193.248 112.346C195.673 112.346 198.529 107.802 195.309 104.775C192.788 102.405 187.671 103.929 187.671 107.419Z" fill="url(#paint71_linear_3288_505)" fill-opacity="0.2"/>
<path fill-rule="evenodd" clip-rule="evenodd" d="M309.248 30.1268L311.474 29.9797C312.506 30.0234 312.545 30.26 313.71 29.986C314.216 28.9222 313.691 27.8075 313.202 26.8386C311.71 23.883 308.623 22.3781 305.107 22.0573C303.975 21.9541 302.837 22.418 302.728 23.6767C302.645 24.6402 304.66 28.2473 305.926 29.1175C306.822 29.7341 308.064 30.1268 309.248 30.1268Z" fill="url(#paint72_linear_3288_505)" fill-opacity="0.2"/>
<path fill-rule="evenodd" clip-rule="evenodd" d="M136.645 159.93C136.645 163.749 139.505 163.59 141.803 163.59C144.947 163.59 145.289 160.792 145.289 158.381C145.289 157.241 144.651 156.426 143.997 155.884C142.071 154.29 136.645 154.468 136.645 159.93Z" fill="url(#paint73_linear_3288_505)" fill-opacity="0.2"/>
<path fill-rule="evenodd" clip-rule="evenodd" d="M102.902 22.6629C102.902 24.0566 103.52 25.1 104.459 25.7369C104.946 26.0676 105.342 26.2964 105.964 26.469C110.59 27.7508 113.853 21.9578 110.329 18.8241C109.546 18.1278 108.285 17.8077 107.06 17.9881C104.529 18.3612 102.902 20.1156 102.902 22.6629Z" fill="url(#paint74_linear_3288_505)" fill-opacity="0.2"/>
<path fill-rule="evenodd" clip-rule="evenodd" d="M34.8587 90.5215C34.8587 94.628 39.6564 96.3704 42.3556 93.4453C43.8184 91.8602 45.3057 86.4388 38.4839 86.4388C36.0584 86.4388 34.8587 88.1532 34.8587 90.5215Z" fill="url(#paint75_linear_3288_505)" fill-opacity="0.2"/>
<path fill-rule="evenodd" clip-rule="evenodd" d="M52.0118 175.831C52.0118 180.215 53.3633 180.758 56.8918 180.758C61.4663 180.758 62.0955 172.17 55.7763 172.17C53.8748 172.17 52.0118 173.959 52.0118 175.831Z" fill="url(#paint76_linear_3288_505)" fill-opacity="0.2"/>
<path fill-rule="evenodd" clip-rule="evenodd" d="M174.429 129.232C175.862 129.232 177.285 129.119 178.419 128.334C180.011 127.23 178.968 123.492 178.137 122.25C176.707 120.112 171.227 119.677 170.786 125.001C170.589 127.374 172.25 129.232 174.429 129.232Z" fill="url(#paint77_linear_3288_505)" fill-opacity="0.2"/>
<path fill-rule="evenodd" clip-rule="evenodd" d="M153.792 141.766C153.792 143.748 155.066 146.411 157.138 146.411C159.508 146.411 162.297 145.75 162.297 142.892C162.297 142.302 162.197 142.452 162.184 142.034C162.163 141.359 162.297 141.877 162.297 141.203C162.297 138.681 159.743 138.105 157.417 138.105C155.637 138.105 153.792 139.968 153.792 141.766Z" fill="url(#paint78_linear_3288_505)" fill-opacity="0.2"/>
<path fill-rule="evenodd" clip-rule="evenodd" d="M18.1325 141.766C18.1325 143.906 19.561 146.411 21.6181 146.411C24.1737 146.411 26.6374 145.778 26.6374 142.751C26.6374 138.294 22.0445 136.99 19.6419 138.925C18.9553 139.478 18.1325 140.585 18.1325 141.766Z" fill="url(#paint79_linear_3288_505)" fill-opacity="0.2"/>
<path fill-rule="evenodd" clip-rule="evenodd" d="M35.1405 125.152C35.1405 127.917 38.1114 129.661 39.5472 129.466C41.8253 129.156 43.3665 126.937 43.3665 124.307C43.3665 122.889 42.781 122.287 42.0098 121.594C40.7976 120.505 37.6887 120.141 36.2503 122.049C35.6947 122.786 35.1405 123.862 35.1405 125.152Z" fill="url(#paint80_linear_3288_505)" fill-opacity="0.2"/>
<path fill-rule="evenodd" clip-rule="evenodd" d="M35.001 159.085C35.001 162.255 38.0615 163.716 39.3054 163.685C41.0531 163.641 43.3665 161.471 43.3665 158.944C43.3665 153.675 35.001 153.708 35.001 159.085Z" fill="url(#paint81_linear_3288_505)" fill-opacity="0.2"/>
<path fill-rule="evenodd" clip-rule="evenodd" d="M51.8723 73.3426C51.8723 74.6977 52.397 75.8991 53.0869 76.621C55.6012 79.2514 60.4471 77.9243 60.4458 74.0481C60.4451 72.3837 59.7006 70.9374 58.3345 70.1963C55.9944 68.927 51.8723 70.2765 51.8723 73.3426Z" fill="url(#paint82_linear_3288_505)" fill-opacity="0.2"/>
<path fill-rule="evenodd" clip-rule="evenodd" d="M68.8804 56.1723C68.8804 62.0543 74.051 61.3791 75.7878 59.4865C76.5341 58.6734 76.9335 57.8371 77.3028 56.6435C77.5983 55.689 77.3491 55.3927 76.1526 53.8975C75.9383 53.63 75.387 53.0512 75.0985 52.8501C72.8039 51.2521 68.8804 52.9516 68.8804 56.1723Z" fill="url(#paint83_linear_3288_505)" fill-opacity="0.2"/>
<path fill-rule="evenodd" clip-rule="evenodd" d="M17.9875 109.246C17.9875 109.768 18.2565 110.365 18.5199 110.68C19.2945 111.606 21.729 112.062 23.0068 112.062C24.7973 112.062 25.7837 110.279 26.2342 108.843C26.5512 107.833 26.4029 107.384 25.9805 106.385C24.6374 103.205 17.9875 101.289 17.9875 109.246Z" fill="url(#paint84_linear_3288_505)" fill-opacity="0.2"/>
<path fill-rule="evenodd" clip-rule="evenodd" d="M85.8884 176.675C85.8884 179.515 90.0989 182.592 93.0348 179.246C95.3284 176.631 94.5284 172.17 89.5134 172.17C87.251 172.17 85.8884 174.798 85.8884 176.675Z" fill="url(#paint85_linear_3288_505)" fill-opacity="0.2"/>
<path fill-rule="evenodd" clip-rule="evenodd" d="M140.546 26.4707C141.983 26.4707 142.923 26.3784 143.956 24.9861C145.47 22.9454 145.761 21.1027 143.93 19.2525C142.69 17.9993 140.46 17.6255 139.016 18.4493C138.789 18.5783 138.678 18.6978 138.473 18.8866C137.547 19.7367 137.023 20.8752 136.83 22.3057C136.553 24.3494 138.767 26.4707 140.546 26.4707Z" fill="url(#paint86_linear_3288_505)" fill-opacity="0.2"/>
<path fill-rule="evenodd" clip-rule="evenodd" d="M68.8804 159.367C68.8804 161.405 70.1877 162.267 71.6621 163.175C72.7739 163.86 72.4192 163.85 73.8819 163.291C76.244 162.387 78.1244 160.009 77.0673 157.576C76.2898 155.786 74.4269 155.143 72.366 155.143C70.4356 155.143 68.8804 157.37 68.8804 159.367Z" fill="url(#paint87_linear_3288_505)" fill-opacity="0.2"/>
<path fill-rule="evenodd" clip-rule="evenodd" d="M145.147 56.3127C145.147 55.0636 144.824 54.1607 144.07 53.4584C143.686 53.1012 142.128 52.2301 141.521 52.2301C140.27 52.2301 138.277 53.2946 137.415 54.5596C135.43 57.4743 138.756 62.1671 142.595 60.3533C143.902 59.736 145.147 58.1937 145.147 56.3127Z" fill="url(#paint88_linear_3288_505)" fill-opacity="0.2"/>
<path fill-rule="evenodd" clip-rule="evenodd" d="M69.0172 91.0827C69.0172 94.3528 73.2946 96.2505 75.9424 93.5702C76.6722 92.8314 77.3826 91.4325 77.3826 90.0973C77.3826 89.6585 76.9981 89.0167 76.8292 88.6852C74.8947 84.8881 69.0172 86.1057 69.0172 91.0827Z" fill="url(#paint89_linear_3288_505)" fill-opacity="0.2"/>
<path fill-rule="evenodd" clip-rule="evenodd" d="M153.792 38.9995C153.792 41.2355 155.208 43.786 157.417 43.786C158.325 43.786 159.047 43.7651 159.814 43.2498C161.077 42.4011 162.297 39.5267 162.297 38.8586C162.297 37.7499 158.701 33.2548 155.151 36.4293C154.589 36.9312 153.792 38.0206 153.792 38.9995Z" fill="url(#paint90_linear_3288_505)" fill-opacity="0.2"/>
<path fill-rule="evenodd" clip-rule="evenodd" d="M85.8884 73.9141C85.8884 77.1816 90.1967 79.5439 93.0342 76.3429C93.6519 75.6461 94.3934 73.8611 94.3934 73.2101C94.3934 71.6674 92.2062 69.5499 90.0712 69.5499C87.8062 69.5499 85.8884 71.6175 85.8884 73.9141Z" fill="url(#paint91_linear_3288_505)" fill-opacity="0.2"/>
<path fill-rule="evenodd" clip-rule="evenodd" d="M153.653 73.492C153.653 75.0495 154.137 75.9045 154.938 76.6988C156.055 77.8071 157.2 77.9969 158.811 77.9969C161.597 77.9969 163.169 73.3171 161.013 70.9873C160.136 70.0395 159.498 70.1266 158.107 70.2462C156.748 70.3629 155.764 70.1752 154.942 70.8519C154.225 71.442 153.653 72.24 153.653 73.492Z" fill="url(#paint92_linear_3288_505)" fill-opacity="0.2"/>
<path fill-rule="evenodd" clip-rule="evenodd" d="M102.902 56.5951C102.902 60.0104 107.272 62.4758 109.974 59.2304C110.99 58.009 111.76 56.4175 110.949 54.8053C110.692 54.295 110.359 54.0519 109.981 53.6703C107.356 51.0162 102.902 52.9884 102.902 56.5951Z" fill="url(#paint93_linear_3288_505)" fill-opacity="0.2"/>
<path fill-rule="evenodd" clip-rule="evenodd" d="M90.6306 43.3629C92.8419 43.3629 93.9918 40.8204 94.4279 39.0145C94.6095 38.2619 92.1453 35.1976 90.3517 35.1976C88.8948 35.1976 87.884 35.1737 86.9197 36.8003C86.3021 37.842 85.0142 41.3438 87.2795 42.523C88.1527 42.9775 89.3015 43.3629 90.6306 43.3629Z" fill="url(#paint94_linear_3288_505)" fill-opacity="0.2"/>
<path fill-rule="evenodd" clip-rule="evenodd" d="M120.468 38.4324C120.468 38.9979 120.568 38.8848 120.567 39.2767L120.468 40.6849C120.468 43.2665 124.64 45.0216 126.982 42.1944C127.355 41.7449 127.582 41.366 127.822 40.7897C130.034 35.4669 122.21 33.7359 120.797 37.0756C120.691 37.3263 120.468 38.1612 120.468 38.4324Z" fill="url(#paint95_linear_3288_505)" fill-opacity="0.2"/>
<path fill-rule="evenodd" clip-rule="evenodd" d="M52.7074 106.574C52.7074 108.711 52.3303 110.345 53.843 111.341C57.053 113.453 60.3918 110.624 60.3226 107.858C60.2329 104.277 55.9681 102.768 53.8573 104.498C53.2763 104.974 52.7074 105.564 52.7074 106.574Z" fill="url(#paint96_linear_3288_505)" fill-opacity="0.2"/>
<path fill-rule="evenodd" clip-rule="evenodd" d="M55.0784 145.705C55.7165 145.705 55.7109 145.578 56.1807 145.592C57.4652 145.632 58.0131 146.157 59.3703 144.689C60.2102 143.781 60.2372 142.735 60.2372 141.623C60.2372 138.992 56.1763 136.52 53.5754 138.979C50.5345 141.854 52.5479 145.705 55.0784 145.705Z" fill="url(#paint97_linear_3288_505)" fill-opacity="0.2"/>
<path fill-rule="evenodd" clip-rule="evenodd" d="M171.357 89.8219L171.441 90.7928C171.427 91.2981 170.988 92.2585 171.689 93.2879C172.358 94.2713 173.253 94.4394 174.663 94.6562C177.391 95.076 179.026 92.9095 179.026 90.1036C179.026 86.2865 171.357 85.086 171.357 89.8219Z" fill="url(#paint98_linear_3288_505)" fill-opacity="0.2"/>
<path fill-rule="evenodd" clip-rule="evenodd" d="M11.8532 266.496C13.0416 266.496 14.2627 261.563 11.1156 257.808C10.3266 256.867 8.27841 255.259 6.97336 254.952C6.97336 257.692 6.53862 260.658 7.26813 262.679C7.93325 264.521 10.3349 266.496 11.8532 266.496Z" fill="url(#paint99_linear_3288_505)" fill-opacity="0.2"/>
<path fill-rule="evenodd" clip-rule="evenodd" d="M103.46 158.653C103.46 165.95 111.268 164.034 111.268 158.794C111.268 156.324 107.832 155.322 107.524 155.32C106.968 155.317 105.203 155.875 104.77 156.174C104.086 156.645 103.46 157.565 103.46 158.653Z" fill="url(#paint100_linear_3288_505)" fill-opacity="0.2"/>
<path fill-rule="evenodd" clip-rule="evenodd" d="M154.347 107.56C154.347 109.607 154.873 111.502 157.136 111.502C157.785 111.502 157.325 111.332 158.073 111.398C158.355 111.423 158.554 111.502 159.088 111.502C163.2 111.502 162.965 103.759 157.972 103.759C155.825 103.759 154.347 105.385 154.347 107.56Z" fill="url(#paint101_linear_3288_505)" fill-opacity="0.2"/>
<path fill-rule="evenodd" clip-rule="evenodd" d="M120.468 142.896C120.468 145.268 122.117 146.275 124.372 146.275C127.33 146.275 129.331 142.235 126.783 139.758C124.784 137.816 120.468 138.224 120.468 142.896Z" fill="url(#paint102_linear_3288_505)" fill-opacity="0.2"/>
<path fill-rule="evenodd" clip-rule="evenodd" d="M171.637 56.4535C171.637 60.273 174.248 60.1137 176.517 60.1137C177.952 60.1137 178.418 58.3231 178.604 57.0115C179.443 51.0856 171.637 51.4348 171.637 56.4535Z" fill="url(#paint103_linear_3288_505)" fill-opacity="0.2"/>
<path fill-rule="evenodd" clip-rule="evenodd" d="M124.37 77.0051C125.709 77.0051 126.236 76.6514 127.022 75.6002C128.081 74.1834 128.226 74.3467 127.937 73.1262C126.995 69.1394 123.102 68.7703 121.331 70.5576C119.271 72.635 121.464 77.0051 124.37 77.0051Z" fill="url(#paint104_linear_3288_505)" fill-opacity="0.2"/>
<path fill-rule="evenodd" clip-rule="evenodd" d="M69.5807 125.573C69.5807 130.26 75.8578 130.046 76.602 125.19C77.0542 122.24 74.9086 121.631 72.3692 121.631C70.0662 121.631 69.5807 123.281 69.5807 125.573Z" fill="url(#paint105_linear_3288_505)" fill-opacity="0.2"/>
<path fill-rule="evenodd" clip-rule="evenodd" d="M137.621 125.716C137.621 127.941 140.253 128.673 142.501 128.673C145.516 128.673 146.3 121.493 140.967 121.493C138.685 121.493 137.621 123.427 137.621 125.716Z" fill="url(#paint106_linear_3288_505)" fill-opacity="0.2"/>
<path fill-rule="evenodd" clip-rule="evenodd" d="M89.6556 145.702C93.8 145.702 94.7763 141.312 91.4127 139.282C90.8394 138.936 90.3662 138.558 89.693 138.826C88.1847 139.428 86.6643 141.491 87.007 143.299C87.234 144.497 88.2713 145.702 89.6556 145.702Z" fill="url(#paint107_linear_3288_505)" fill-opacity="0.2"/>
<path fill-rule="evenodd" clip-rule="evenodd" d="M121.863 7.88446C121.863 10.8033 123.075 10.4185 125.21 10.4185C128.384 10.4185 129.791 5.20975 128.416 5.20975H123.676C122.418 5.20975 121.863 6.58269 121.863 7.88446Z" fill="url(#paint108_linear_3288_505)" fill-opacity="0.2"/>
<path fill-rule="evenodd" clip-rule="evenodd" d="M138.313 90.5177C138.313 92.3562 139.162 92.6126 140.548 93.3292C141.094 93.6116 141.086 93.7436 141.52 94.037C143.474 92.9932 144.448 92.8104 144.448 90.7992C144.448 89.9355 143.94 88.9971 143.509 88.509C141.937 86.7282 141.237 87.4367 139.52 88.4981C138.833 88.9229 138.313 89.466 138.313 90.5177Z" fill="url(#paint109_linear_3288_505)" fill-opacity="0.2"/>
<path fill-rule="evenodd" clip-rule="evenodd" d="M106.388 92.6317C109.558 92.6317 109.322 88.2674 107.085 88.2674C106.112 88.2674 104.99 89.3339 104.788 90.1818C104.624 90.8708 105.042 92.6317 106.388 92.6317Z" fill="url(#paint110_linear_3288_505)" fill-opacity="0.2"/>
<path fill-rule="evenodd" clip-rule="evenodd" d="M87.5654 107.84C87.5654 109.746 89.4999 109.67 90.6328 109.67C92.4439 109.67 92.2806 106.151 90.6328 106.151C89.4933 106.151 87.5654 106.321 87.5654 107.84Z" fill="url(#paint111_linear_3288_505)" fill-opacity="0.2"/>
<path fill-rule="evenodd" clip-rule="evenodd" d="M105.411 124.869C105.411 127.366 108.757 127.527 108.757 124.306C108.757 122.527 105.411 123.278 105.411 124.869Z" fill="url(#paint112_linear_3288_505)" fill-opacity="0.2"/>
<defs>
<linearGradient id="paint0_linear_3288_505" x1="118" y1="-29.5" x2="201" y2="401" gradientUnits="userSpaceOnUse">
<stop stop-color="#E8E8E8"/>
<stop offset="1" stop-color="#1AE6AA"/>
</linearGradient>
<linearGradient id="paint1_linear_3288_505" x1="118" y1="-29.5" x2="201" y2="401" gradientUnits="userSpaceOnUse">
<stop stop-color="#E8E8E8"/>
<stop offset="1" stop-color="#1AE6AA"/>
</linearGradient>
<linearGradient id="paint2_linear_3288_505" x1="118" y1="-29.5" x2="201" y2="401" gradientUnits="userSpaceOnUse">
<stop stop-color="#E8E8E8"/>
<stop offset="1" stop-color="#1AE6AA"/>
</linearGradient>
<linearGradient id="paint3_linear_3288_505" x1="118" y1="-29.5" x2="201" y2="401" gradientUnits="userSpaceOnUse">
<stop stop-color="#E8E8E8"/>
<stop offset="1" stop-color="#1AE6AA"/>
</linearGradient>
<linearGradient id="paint4_linear_3288_505" x1="118" y1="-29.5" x2="201" y2="401" gradientUnits="userSpaceOnUse">
<stop stop-color="#E8E8E8"/>
<stop offset="1" stop-color="#1AE6AA"/>
</linearGradient>
<linearGradient id="paint5_linear_3288_505" x1="118" y1="-29.5" x2="201" y2="401" gradientUnits="userSpaceOnUse">
<stop stop-color="#E8E8E8"/>
<stop offset="1" stop-color="#1AE6AA"/>
</linearGradient>
<linearGradient id="paint6_linear_3288_505" x1="118" y1="-29.5" x2="201" y2="401" gradientUnits="userSpaceOnUse">
<stop stop-color="#E8E8E8"/>
<stop offset="1" stop-color="#1AE6AA"/>
</linearGradient>
<linearGradient id="paint7_linear_3288_505" x1="118" y1="-29.5" x2="201" y2="401" gradientUnits="userSpaceOnUse">
<stop stop-color="#E8E8E8"/>
<stop offset="1" stop-color="#1AE6AA"/>
</linearGradient>
<linearGradient id="paint8_linear_3288_505" x1="118" y1="-29.5" x2="201" y2="401" gradientUnits="userSpaceOnUse">
<stop stop-color="#E8E8E8"/>
<stop offset="1" stop-color="#1AE6AA"/>
</linearGradient>
<linearGradient id="paint9_linear_3288_505" x1="118" y1="-29.5" x2="201" y2="401" gradientUnits="userSpaceOnUse">
<stop stop-color="#E8E8E8"/>
<stop offset="1" stop-color="#1AE6AA"/>
</linearGradient>
<linearGradient id="paint10_linear_3288_505" x1="118" y1="-29.5" x2="201" y2="401" gradientUnits="userSpaceOnUse">
<stop stop-color="#E8E8E8"/>
<stop offset="1" stop-color="#1AE6AA"/>
</linearGradient>
<linearGradient id="paint11_linear_3288_505" x1="118" y1="-29.5" x2="201" y2="401" gradientUnits="userSpaceOnUse">
<stop stop-color="#E8E8E8"/>
<stop offset="1" stop-color="#1AE6AA"/>
</linearGradient>
<linearGradient id="paint12_linear_3288_505" x1="118" y1="-29.5" x2="201" y2="401" gradientUnits="userSpaceOnUse">
<stop stop-color="#E8E8E8"/>
<stop offset="1" stop-color="#1AE6AA"/>
</linearGradient>
<linearGradient id="paint13_linear_3288_505" x1="118" y1="-29.5" x2="201" y2="401" gradientUnits="userSpaceOnUse">
<stop stop-color="#E8E8E8"/>
<stop offset="1" stop-color="#1AE6AA"/>
</linearGradient>
<linearGradient id="paint14_linear_3288_505" x1="118" y1="-29.5" x2="201" y2="401" gradientUnits="userSpaceOnUse">
<stop stop-color="#E8E8E8"/>
<stop offset="1" stop-color="#1AE6AA"/>
</linearGradient>
<linearGradient id="paint15_linear_3288_505" x1="118" y1="-29.5" x2="201" y2="401" gradientUnits="userSpaceOnUse">
<stop stop-color="#E8E8E8"/>
<stop offset="1" stop-color="#1AE6AA"/>
</linearGradient>
<linearGradient id="paint16_linear_3288_505" x1="118" y1="-29.5" x2="201" y2="401" gradientUnits="userSpaceOnUse">
<stop stop-color="#E8E8E8"/>
<stop offset="1" stop-color="#1AE6AA"/>
</linearGradient>
<linearGradient id="paint17_linear_3288_505" x1="118" y1="-29.5" x2="201" y2="401" gradientUnits="userSpaceOnUse">
<stop stop-color="#E8E8E8"/>
<stop offset="1" stop-color="#1AE6AA"/>
</linearGradient>
<linearGradient id="paint18_linear_3288_505" x1="118" y1="-29.5" x2="201" y2="401" gradientUnits="userSpaceOnUse">
<stop stop-color="#E8E8E8"/>
<stop offset="1" stop-color="#1AE6AA"/>
</linearGradient>
<linearGradient id="paint19_linear_3288_505" x1="118" y1="-29.5" x2="201" y2="401" gradientUnits="userSpaceOnUse">
<stop stop-color="#E8E8E8"/>
<stop offset="1" stop-color="#1AE6AA"/>
</linearGradient>
<linearGradient id="paint20_linear_3288_505" x1="118" y1="-29.5" x2="201" y2="401" gradientUnits="userSpaceOnUse">
<stop stop-color="#E8E8E8"/>
<stop offset="1" stop-color="#1AE6AA"/>
</linearGradient>
<linearGradient id="paint21_linear_3288_505" x1="118" y1="-29.5" x2="201" y2="401" gradientUnits="userSpaceOnUse">
<stop stop-color="#E8E8E8"/>
<stop offset="1" stop-color="#1AE6AA"/>
</linearGradient>
<linearGradient id="paint22_linear_3288_505" x1="118" y1="-29.5" x2="201" y2="401" gradientUnits="userSpaceOnUse">
<stop stop-color="#E8E8E8"/>
<stop offset="1" stop-color="#1AE6AA"/>
</linearGradient>
<linearGradient id="paint23_linear_3288_505" x1="118" y1="-29.5" x2="201" y2="401" gradientUnits="userSpaceOnUse">
<stop stop-color="#E8E8E8"/>
<stop offset="1" stop-color="#1AE6AA"/>
</linearGradient>
<linearGradient id="paint24_linear_3288_505" x1="118" y1="-29.5" x2="201" y2="401" gradientUnits="userSpaceOnUse">
<stop stop-color="#E8E8E8"/>
<stop offset="1" stop-color="#1AE6AA"/>
</linearGradient>
<linearGradient id="paint25_linear_3288_505" x1="118" y1="-29.5" x2="201" y2="401" gradientUnits="userSpaceOnUse">
<stop stop-color="#E8E8E8"/>
<stop offset="1" stop-color="#1AE6AA"/>
</linearGradient>
<linearGradient id="paint26_linear_3288_505" x1="118" y1="-29.5" x2="201" y2="401" gradientUnits="userSpaceOnUse">
<stop stop-color="#E8E8E8"/>
<stop offset="1" stop-color="#1AE6AA"/>
</linearGradient>
<linearGradient id="paint27_linear_3288_505" x1="118" y1="-29.5" x2="201" y2="401" gradientUnits="userSpaceOnUse">
<stop stop-color="#E8E8E8"/>
<stop offset="1" stop-color="#1AE6AA"/>
</linearGradient>
<linearGradient id="paint28_linear_3288_505" x1="118" y1="-29.5" x2="201" y2="401" gradientUnits="userSpaceOnUse">
<stop stop-color="#E8E8E8"/>
<stop offset="1" stop-color="#1AE6AA"/>
</linearGradient>
<linearGradient id="paint29_linear_3288_505" x1="118" y1="-29.5" x2="201" y2="401" gradientUnits="userSpaceOnUse">
<stop stop-color="#E8E8E8"/>
<stop offset="1" stop-color="#1AE6AA"/>
</linearGradient>
<linearGradient id="paint30_linear_3288_505" x1="118" y1="-29.5" x2="201" y2="401" gradientUnits="userSpaceOnUse">
<stop stop-color="#E8E8E8"/>
<stop offset="1" stop-color="#1AE6AA"/>
</linearGradient>
<linearGradient id="paint31_linear_3288_505" x1="118" y1="-29.5" x2="201" y2="401" gradientUnits="userSpaceOnUse">
<stop stop-color="#E8E8E8"/>
<stop offset="1" stop-color="#1AE6AA"/>
</linearGradient>
<linearGradient id="paint32_linear_3288_505" x1="118" y1="-29.5" x2="201" y2="401" gradientUnits="userSpaceOnUse">
<stop stop-color="#E8E8E8"/>
<stop offset="1" stop-color="#1AE6AA"/>
</linearGradient>
<linearGradient id="paint33_linear_3288_505" x1="118" y1="-29.5" x2="201" y2="401" gradientUnits="userSpaceOnUse">
<stop stop-color="#E8E8E8"/>
<stop offset="1" stop-color="#1AE6AA"/>
</linearGradient>
<linearGradient id="paint34_linear_3288_505" x1="118" y1="-29.5" x2="201" y2="401" gradientUnits="userSpaceOnUse">
<stop stop-color="#E8E8E8"/>
<stop offset="1" stop-color="#1AE6AA"/>
</linearGradient>
<linearGradient id="paint35_linear_3288_505" x1="118" y1="-29.5" x2="201" y2="401" gradientUnits="userSpaceOnUse">
<stop stop-color="#E8E8E8"/>
<stop offset="1" stop-color="#1AE6AA"/>
</linearGradient>
<linearGradient id="paint36_linear_3288_505" x1="118" y1="-29.5" x2="201" y2="401" gradientUnits="userSpaceOnUse">
<stop stop-color="#E8E8E8"/>
<stop offset="1" stop-color="#1AE6AA"/>
</linearGradient>
<linearGradient id="paint37_linear_3288_505" x1="118" y1="-29.5" x2="201" y2="401" gradientUnits="userSpaceOnUse">
<stop stop-color="#E8E8E8"/>
<stop offset="1" stop-color="#1AE6AA"/>
</linearGradient>
<linearGradient id="paint38_linear_3288_505" x1="118" y1="-29.5" x2="201" y2="401" gradientUnits="userSpaceOnUse">
<stop stop-color="#E8E8E8"/>
<stop offset="1" stop-color="#1AE6AA"/>
</linearGradient>
<linearGradient id="paint39_linear_3288_505" x1="118" y1="-29.5" x2="201" y2="401" gradientUnits="userSpaceOnUse">
<stop stop-color="#E8E8E8"/>
<stop offset="1" stop-color="#1AE6AA"/>
</linearGradient>
<linearGradient id="paint40_linear_3288_505" x1="118" y1="-29.5" x2="201" y2="401" gradientUnits="userSpaceOnUse">
<stop stop-color="#E8E8E8"/>
<stop offset="1" stop-color="#1AE6AA"/>
</linearGradient>
<linearGradient id="paint41_linear_3288_505" x1="118" y1="-29.5" x2="201" y2="401" gradientUnits="userSpaceOnUse">
<stop stop-color="#E8E8E8"/>
<stop offset="1" stop-color="#1AE6AA"/>
</linearGradient>
<linearGradient id="paint42_linear_3288_505" x1="118" y1="-29.5" x2="201" y2="401" gradientUnits="userSpaceOnUse">
<stop stop-color="#E8E8E8"/>
<stop offset="1" stop-color="#1AE6AA"/>
</linearGradient>
<linearGradient id="paint43_linear_3288_505" x1="118" y1="-29.5" x2="201" y2="401" gradientUnits="userSpaceOnUse">
<stop stop-color="#E8E8E8"/>
<stop offset="1" stop-color="#1AE6AA"/>
</linearGradient>
<linearGradient id="paint44_linear_3288_505" x1="118" y1="-29.5" x2="201" y2="401" gradientUnits="userSpaceOnUse">
<stop stop-color="#E8E8E8"/>
<stop offset="1" stop-color="#1AE6AA"/>
</linearGradient>
<linearGradient id="paint45_linear_3288_505" x1="118" y1="-29.5" x2="201" y2="401" gradientUnits="userSpaceOnUse">
<stop stop-color="#E8E8E8"/>
<stop offset="1" stop-color="#1AE6AA"/>
</linearGradient>
<linearGradient id="paint46_linear_3288_505" x1="118" y1="-29.5" x2="201" y2="401" gradientUnits="userSpaceOnUse">
<stop stop-color="#E8E8E8"/>
<stop offset="1" stop-color="#1AE6AA"/>
</linearGradient>
<linearGradient id="paint47_linear_3288_505" x1="118" y1="-29.5" x2="201" y2="401" gradientUnits="userSpaceOnUse">
<stop stop-color="#E8E8E8"/>
<stop offset="1" stop-color="#1AE6AA"/>
</linearGradient>
<linearGradient id="paint48_linear_3288_505" x1="118" y1="-29.5" x2="201" y2="401" gradientUnits="userSpaceOnUse">
<stop stop-color="#E8E8E8"/>
<stop offset="1" stop-color="#1AE6AA"/>
</linearGradient>
<linearGradient id="paint49_linear_3288_505" x1="118" y1="-29.5" x2="201" y2="401" gradientUnits="userSpaceOnUse">
<stop stop-color="#E8E8E8"/>
<stop offset="1" stop-color="#1AE6AA"/>
</linearGradient>
<linearGradient id="paint50_linear_3288_505" x1="118" y1="-29.5" x2="201" y2="401" gradientUnits="userSpaceOnUse">
<stop stop-color="#E8E8E8"/>
<stop offset="1" stop-color="#1AE6AA"/>
</linearGradient>
<linearGradient id="paint51_linear_3288_505" x1="118" y1="-29.5" x2="201" y2="401" gradientUnits="userSpaceOnUse">
<stop stop-color="#E8E8E8"/>
<stop offset="1" stop-color="#1AE6AA"/>
</linearGradient>
<linearGradient id="paint52_linear_3288_505" x1="118" y1="-29.5" x2="201" y2="401" gradientUnits="userSpaceOnUse">
<stop stop-color="#E8E8E8"/>
<stop offset="1" stop-color="#1AE6AA"/>
</linearGradient>
<linearGradient id="paint53_linear_3288_505" x1="118" y1="-29.5" x2="201" y2="401" gradientUnits="userSpaceOnUse">
<stop stop-color="#E8E8E8"/>
<stop offset="1" stop-color="#1AE6AA"/>
</linearGradient>
<linearGradient id="paint54_linear_3288_505" x1="118" y1="-29.5" x2="201" y2="401" gradientUnits="userSpaceOnUse">
<stop stop-color="#E8E8E8"/>
<stop offset="1" stop-color="#1AE6AA"/>
</linearGradient>
<linearGradient id="paint55_linear_3288_505" x1="118" y1="-29.5" x2="201" y2="401" gradientUnits="userSpaceOnUse">
<stop stop-color="#E8E8E8"/>
<stop offset="1" stop-color="#1AE6AA"/>
</linearGradient>
<linearGradient id="paint56_linear_3288_505" x1="118" y1="-29.5" x2="201" y2="401" gradientUnits="userSpaceOnUse">
<stop stop-color="#E8E8E8"/>
<stop offset="1" stop-color="#1AE6AA"/>
</linearGradient>
<linearGradient id="paint57_linear_3288_505" x1="118" y1="-29.5" x2="201" y2="401" gradientUnits="userSpaceOnUse">
<stop stop-color="#E8E8E8"/>
<stop offset="1" stop-color="#1AE6AA"/>
</linearGradient>
<linearGradient id="paint58_linear_3288_505" x1="118" y1="-29.5" x2="201" y2="401" gradientUnits="userSpaceOnUse">
<stop stop-color="#E8E8E8"/>
<stop offset="1" stop-color="#1AE6AA"/>
</linearGradient>
<linearGradient id="paint59_linear_3288_505" x1="118" y1="-29.5" x2="201" y2="401" gradientUnits="userSpaceOnUse">
<stop stop-color="#E8E8E8"/>
<stop offset="1" stop-color="#1AE6AA"/>
</linearGradient>
<linearGradient id="paint60_linear_3288_505" x1="118" y1="-29.5" x2="201" y2="401" gradientUnits="userSpaceOnUse">
<stop stop-color="#E8E8E8"/>
<stop offset="1" stop-color="#1AE6AA"/>
</linearGradient>
<linearGradient id="paint61_linear_3288_505" x1="118" y1="-29.5" x2="201" y2="401" gradientUnits="userSpaceOnUse">
<stop stop-color="#E8E8E8"/>
<stop offset="1" stop-color="#1AE6AA"/>
</linearGradient>
<linearGradient id="paint62_linear_3288_505" x1="118" y1="-29.5" x2="201" y2="401" gradientUnits="userSpaceOnUse">
<stop stop-color="#E8E8E8"/>
<stop offset="1" stop-color="#1AE6AA"/>
</linearGradient>
<linearGradient id="paint63_linear_3288_505" x1="118" y1="-29.5" x2="201" y2="401" gradientUnits="userSpaceOnUse">
<stop stop-color="#E8E8E8"/>
<stop offset="1" stop-color="#1AE6AA"/>
</linearGradient>
<linearGradient id="paint64_linear_3288_505" x1="118" y1="-29.5" x2="201" y2="401" gradientUnits="userSpaceOnUse">
<stop stop-color="#E8E8E8"/>
<stop offset="1" stop-color="#1AE6AA"/>
</linearGradient>
<linearGradient id="paint65_linear_3288_505" x1="118" y1="-29.5" x2="201" y2="401" gradientUnits="userSpaceOnUse">
<stop stop-color="#E8E8E8"/>
<stop offset="1" stop-color="#1AE6AA"/>
</linearGradient>
<linearGradient id="paint66_linear_3288_505" x1="118" y1="-29.5" x2="201" y2="401" gradientUnits="userSpaceOnUse">
<stop stop-color="#E8E8E8"/>
<stop offset="1" stop-color="#1AE6AA"/>
</linearGradient>
<linearGradient id="paint67_linear_3288_505" x1="118" y1="-29.5" x2="201" y2="401" gradientUnits="userSpaceOnUse">
<stop stop-color="#E8E8E8"/>
<stop offset="1" stop-color="#1AE6AA"/>
</linearGradient>
<linearGradient id="paint68_linear_3288_505" x1="118" y1="-29.5" x2="201" y2="401" gradientUnits="userSpaceOnUse">
<stop stop-color="#E8E8E8"/>
<stop offset="1" stop-color="#1AE6AA"/>
</linearGradient>
<linearGradient id="paint69_linear_3288_505" x1="118" y1="-29.5" x2="201" y2="401" gradientUnits="userSpaceOnUse">
<stop stop-color="#E8E8E8"/>
<stop offset="1" stop-color="#1AE6AA"/>
</linearGradient>
<linearGradient id="paint70_linear_3288_505" x1="118" y1="-29.5" x2="201" y2="401" gradientUnits="userSpaceOnUse">
<stop stop-color="#E8E8E8"/>
<stop offset="1" stop-color="#1AE6AA"/>
</linearGradient>
<linearGradient id="paint71_linear_3288_505" x1="118" y1="-29.5" x2="201" y2="401" gradientUnits="userSpaceOnUse">
<stop stop-color="#E8E8E8"/>
<stop offset="1" stop-color="#1AE6AA"/>
</linearGradient>
<linearGradient id="paint72_linear_3288_505" x1="118" y1="-29.5" x2="201" y2="401" gradientUnits="userSpaceOnUse">
<stop stop-color="#E8E8E8"/>
<stop offset="1" stop-color="#1AE6AA"/>
</linearGradient>
<linearGradient id="paint73_linear_3288_505" x1="118" y1="-29.5" x2="201" y2="401" gradientUnits="userSpaceOnUse">
<stop stop-color="#E8E8E8"/>
<stop offset="1" stop-color="#1AE6AA"/>
</linearGradient>
<linearGradient id="paint74_linear_3288_505" x1="118" y1="-29.5" x2="201" y2="401" gradientUnits="userSpaceOnUse">
<stop stop-color="#E8E8E8"/>
<stop offset="1" stop-color="#1AE6AA"/>
</linearGradient>
<linearGradient id="paint75_linear_3288_505" x1="118" y1="-29.5" x2="201" y2="401" gradientUnits="userSpaceOnUse">
<stop stop-color="#E8E8E8"/>
<stop offset="1" stop-color="#1AE6AA"/>
</linearGradient>
<linearGradient id="paint76_linear_3288_505" x1="118" y1="-29.5" x2="201" y2="401" gradientUnits="userSpaceOnUse">
<stop stop-color="#E8E8E8"/>
<stop offset="1" stop-color="#1AE6AA"/>
</linearGradient>
<linearGradient id="paint77_linear_3288_505" x1="118" y1="-29.5" x2="201" y2="401" gradientUnits="userSpaceOnUse">
<stop stop-color="#E8E8E8"/>
<stop offset="1" stop-color="#1AE6AA"/>
</linearGradient>
<linearGradient id="paint78_linear_3288_505" x1="118" y1="-29.5" x2="201" y2="401" gradientUnits="userSpaceOnUse">
<stop stop-color="#E8E8E8"/>
<stop offset="1" stop-color="#1AE6AA"/>
</linearGradient>
<linearGradient id="paint79_linear_3288_505" x1="118" y1="-29.5" x2="201" y2="401" gradientUnits="userSpaceOnUse">
<stop stop-color="#E8E8E8"/>
<stop offset="1" stop-color="#1AE6AA"/>
</linearGradient>
<linearGradient id="paint80_linear_3288_505" x1="118" y1="-29.5" x2="201" y2="401" gradientUnits="userSpaceOnUse">
<stop stop-color="#E8E8E8"/>
<stop offset="1" stop-color="#1AE6AA"/>
</linearGradient>
<linearGradient id="paint81_linear_3288_505" x1="118" y1="-29.5" x2="201" y2="401" gradientUnits="userSpaceOnUse">
<stop stop-color="#E8E8E8"/>
<stop offset="1" stop-color="#1AE6AA"/>
</linearGradient>
<linearGradient id="paint82_linear_3288_505" x1="118" y1="-29.5" x2="201" y2="401" gradientUnits="userSpaceOnUse">
<stop stop-color="#E8E8E8"/>
<stop offset="1" stop-color="#1AE6AA"/>
</linearGradient>
<linearGradient id="paint83_linear_3288_505" x1="118" y1="-29.5" x2="201" y2="401" gradientUnits="userSpaceOnUse">
<stop stop-color="#E8E8E8"/>
<stop offset="1" stop-color="#1AE6AA"/>
</linearGradient>
<linearGradient id="paint84_linear_3288_505" x1="118" y1="-29.5" x2="201" y2="401" gradientUnits="userSpaceOnUse">
<stop stop-color="#E8E8E8"/>
<stop offset="1" stop-color="#1AE6AA"/>
</linearGradient>
<linearGradient id="paint85_linear_3288_505" x1="118" y1="-29.5" x2="201" y2="401" gradientUnits="userSpaceOnUse">
<stop stop-color="#E8E8E8"/>
<stop offset="1" stop-color="#1AE6AA"/>
</linearGradient>
<linearGradient id="paint86_linear_3288_505" x1="118" y1="-29.5" x2="201" y2="401" gradientUnits="userSpaceOnUse">
<stop stop-color="#E8E8E8"/>
<stop offset="1" stop-color="#1AE6AA"/>
</linearGradient>
<linearGradient id="paint87_linear_3288_505" x1="118" y1="-29.5" x2="201" y2="401" gradientUnits="userSpaceOnUse">
<stop stop-color="#E8E8E8"/>
<stop offset="1" stop-color="#1AE6AA"/>
</linearGradient>
<linearGradient id="paint88_linear_3288_505" x1="118" y1="-29.5" x2="201" y2="401" gradientUnits="userSpaceOnUse">
<stop stop-color="#E8E8E8"/>
<stop offset="1" stop-color="#1AE6AA"/>
</linearGradient>
<linearGradient id="paint89_linear_3288_505" x1="118" y1="-29.5" x2="201" y2="401" gradientUnits="userSpaceOnUse">
<stop stop-color="#E8E8E8"/>
<stop offset="1" stop-color="#1AE6AA"/>
</linearGradient>
<linearGradient id="paint90_linear_3288_505" x1="118" y1="-29.5" x2="201" y2="401" gradientUnits="userSpaceOnUse">
<stop stop-color="#E8E8E8"/>
<stop offset="1" stop-color="#1AE6AA"/>
</linearGradient>
<linearGradient id="paint91_linear_3288_505" x1="118" y1="-29.5" x2="201" y2="401" gradientUnits="userSpaceOnUse">
<stop stop-color="#E8E8E8"/>
<stop offset="1" stop-color="#1AE6AA"/>
</linearGradient>
<linearGradient id="paint92_linear_3288_505" x1="118" y1="-29.5" x2="201" y2="401" gradientUnits="userSpaceOnUse">
<stop stop-color="#E8E8E8"/>
<stop offset="1" stop-color="#1AE6AA"/>
</linearGradient>
<linearGradient id="paint93_linear_3288_505" x1="118" y1="-29.5" x2="201" y2="401" gradientUnits="userSpaceOnUse">
<stop stop-color="#E8E8E8"/>
<stop offset="1" stop-color="#1AE6AA"/>
</linearGradient>
<linearGradient id="paint94_linear_3288_505" x1="118" y1="-29.5" x2="201" y2="401" gradientUnits="userSpaceOnUse">
<stop stop-color="#E8E8E8"/>
<stop offset="1" stop-color="#1AE6AA"/>
</linearGradient>
<linearGradient id="paint95_linear_3288_505" x1="118" y1="-29.5" x2="201" y2="401" gradientUnits="userSpaceOnUse">
<stop stop-color="#E8E8E8"/>
<stop offset="1" stop-color="#1AE6AA"/>
</linearGradient>
<linearGradient id="paint96_linear_3288_505" x1="118" y1="-29.5" x2="201" y2="401" gradientUnits="userSpaceOnUse">
<stop stop-color="#E8E8E8"/>
<stop offset="1" stop-color="#1AE6AA"/>
</linearGradient>
<linearGradient id="paint97_linear_3288_505" x1="118" y1="-29.5" x2="201" y2="401" gradientUnits="userSpaceOnUse">
<stop stop-color="#E8E8E8"/>
<stop offset="1" stop-color="#1AE6AA"/>
</linearGradient>
<linearGradient id="paint98_linear_3288_505" x1="118" y1="-29.5" x2="201" y2="401" gradientUnits="userSpaceOnUse">
<stop stop-color="#E8E8E8"/>
<stop offset="1" stop-color="#1AE6AA"/>
</linearGradient>
<linearGradient id="paint99_linear_3288_505" x1="118" y1="-29.5" x2="201" y2="401" gradientUnits="userSpaceOnUse">
<stop stop-color="#E8E8E8"/>
<stop offset="1" stop-color="#1AE6AA"/>
</linearGradient>
<linearGradient id="paint100_linear_3288_505" x1="118" y1="-29.5" x2="201" y2="401" gradientUnits="userSpaceOnUse">
<stop stop-color="#E8E8E8"/>
<stop offset="1" stop-color="#1AE6AA"/>
</linearGradient>
<linearGradient id="paint101_linear_3288_505" x1="118" y1="-29.5" x2="201" y2="401" gradientUnits="userSpaceOnUse">
<stop stop-color="#E8E8E8"/>
<stop offset="1" stop-color="#1AE6AA"/>
</linearGradient>
<linearGradient id="paint102_linear_3288_505" x1="118" y1="-29.5" x2="201" y2="401" gradientUnits="userSpaceOnUse">
<stop stop-color="#E8E8E8"/>
<stop offset="1" stop-color="#1AE6AA"/>
</linearGradient>
<linearGradient id="paint103_linear_3288_505" x1="118" y1="-29.5" x2="201" y2="401" gradientUnits="userSpaceOnUse">
<stop stop-color="#E8E8E8"/>
<stop offset="1" stop-color="#1AE6AA"/>
</linearGradient>
<linearGradient id="paint104_linear_3288_505" x1="118" y1="-29.5" x2="201" y2="401" gradientUnits="userSpaceOnUse">
<stop stop-color="#E8E8E8"/>
<stop offset="1" stop-color="#1AE6AA"/>
</linearGradient>
<linearGradient id="paint105_linear_3288_505" x1="118" y1="-29.5" x2="201" y2="401" gradientUnits="userSpaceOnUse">
<stop stop-color="#E8E8E8"/>
<stop offset="1" stop-color="#1AE6AA"/>
</linearGradient>
<linearGradient id="paint106_linear_3288_505" x1="118" y1="-29.5" x2="201" y2="401" gradientUnits="userSpaceOnUse">
<stop stop-color="#E8E8E8"/>
<stop offset="1" stop-color="#1AE6AA"/>
</linearGradient>
<linearGradient id="paint107_linear_3288_505" x1="118" y1="-29.5" x2="201" y2="401" gradientUnits="userSpaceOnUse">
<stop stop-color="#E8E8E8"/>
<stop offset="1" stop-color="#1AE6AA"/>
</linearGradient>
<linearGradient id="paint108_linear_3288_505" x1="118" y1="-29.5" x2="201" y2="401" gradientUnits="userSpaceOnUse">
<stop stop-color="#E8E8E8"/>
<stop offset="1" stop-color="#1AE6AA"/>
</linearGradient>
<linearGradient id="paint109_linear_3288_505" x1="118" y1="-29.5" x2="201" y2="401" gradientUnits="userSpaceOnUse">
<stop stop-color="#E8E8E8"/>
<stop offset="1" stop-color="#1AE6AA"/>
</linearGradient>
<linearGradient id="paint110_linear_3288_505" x1="118" y1="-29.5" x2="201" y2="401" gradientUnits="userSpaceOnUse">
<stop stop-color="#E8E8E8"/>
<stop offset="1" stop-color="#1AE6AA"/>
</linearGradient>
<linearGradient id="paint111_linear_3288_505" x1="118" y1="-29.5" x2="201" y2="401" gradientUnits="userSpaceOnUse">
<stop stop-color="#E8E8E8"/>
<stop offset="1" stop-color="#1AE6AA"/>
</linearGradient>
<linearGradient id="paint112_linear_3288_505" x1="118" y1="-29.5" x2="201" y2="401" gradientUnits="userSpaceOnUse">
<stop stop-color="#E8E8E8"/>
<stop offset="1" stop-color="#1AE6AA"/>
</linearGradient>
</defs>
</svg>
