<svg width="283" height="279" viewBox="0 0 283 279" fill="none" xmlns="http://www.w3.org/2000/svg">
<path fill-rule="evenodd" clip-rule="evenodd" d="M93.741 266.225C93.741 264.579 94.2625 263.604 95.5272 262.428C96.3831 261.633 97.6084 260.964 98.8682 260.882C101.184 260.732 103.732 263.198 103.732 266.029C103.732 270.445 98.6726 272.593 95.4781 269.386C94.7653 268.67 93.741 267.322 93.741 266.225ZM167.007 266.225C167.007 264.659 168.013 263.265 169.193 262.633C170.705 261.822 171.685 261.978 172.927 263.635C175.885 267.58 172.312 269.654 170.239 269.654C169.135 269.654 167.007 267.423 167.007 266.225ZM143.205 265.638C143.205 262.642 147.154 261.045 149.107 263.262C150.818 265.203 150.278 267.587 148.185 268.952C147.983 269.083 147.291 269.458 147.025 269.458C146.063 269.458 144.823 268.839 144.305 268.358C143.675 267.775 143.205 266.818 143.205 265.638ZM122.636 269.751C122.207 269.751 121.402 269.612 121.03 269.496C119.358 268.975 118.718 267.398 118.718 265.736C118.718 263.835 121.67 259.163 125.406 262.98C126.771 264.375 127.394 265.527 126.523 267.272C126.351 267.619 125.865 268.274 125.591 268.494C124.785 269.14 123.771 269.751 122.636 269.751ZM82.3788 254.08C82.3788 251.662 84.4479 248.986 87.1783 248.986C89.1926 248.986 91.7819 251.717 91.7819 253.688C91.7819 255.248 91.6029 256.173 90.2852 257.284C88.4059 258.869 82.3788 259.53 82.3788 254.08ZM182.777 256.43C181.915 256.43 181.246 256.478 180.595 255.772C179.27 254.333 180.452 251.435 181.895 251.435C183.498 251.435 184.939 251.721 185.104 253.811C185.207 255.102 183.981 256.43 182.777 256.43ZM202.856 253.59C202.856 252.691 203.563 252.1 204.227 251.63C206.769 249.829 209.713 251.05 209.713 253.492C209.713 254.681 209.79 255.603 208.811 256.508C207.889 257.359 206.273 257.214 205.011 257.214C204.27 257.214 203.778 256.377 203.541 255.843C203.391 255.504 202.856 253.993 202.856 253.59ZM110.882 249.574C112.912 249.574 116.216 252.202 114.639 255.29C113.38 257.755 109.992 258.916 107.928 256.348C104.872 252.545 108.988 249.574 110.882 249.574ZM158.779 250.749C160.902 250.749 162.229 253.796 160.613 255.718C159.153 257.455 155.978 256.638 155.665 253.66C155.563 252.689 156.147 252.098 156.706 251.713C156.917 251.567 158.572 250.749 158.779 250.749ZM135.076 257.214C131.056 257.214 130.325 252.94 132.318 251.126C135.521 248.212 140.29 252.431 137.362 255.974C137.062 256.337 136.823 256.533 136.409 256.784C136.136 256.95 135.452 257.214 135.076 257.214ZM70.0372 242.032C70.0372 239.56 70.7878 238.117 73.108 237.365C74.9706 236.761 77.3996 237.009 78.6356 238.331C80.4137 240.233 80.3156 243.63 78.6115 245.219C77.3695 246.377 74.8966 246.866 73.0852 246.232C71.3769 245.634 70.0372 244.094 70.0372 242.032ZM215.786 242.228C215.786 240.192 216.712 239.562 218.555 239.413C220.57 239.249 222.515 241.554 220.714 244.022C220.098 244.868 219.623 244.881 218.815 244.784C217.94 244.679 217.306 244.552 216.707 244.147C216.164 243.78 215.786 243.088 215.786 242.228ZM94.3286 241.934C94.3286 240.217 95.6197 238.443 97.1028 237.656C99.0086 236.645 100.517 236.986 101.994 238.481C102.81 239.307 103.634 240.134 103.634 241.64C103.634 244.399 101.625 245.726 99.0773 245.889C96.83 246.032 94.3286 244.142 94.3286 241.934ZM143.205 241.64C143.205 240.642 145.172 238.006 147.303 238.321C147.951 238.417 148.635 238.745 149.044 239.23C149.767 240.087 150.371 241.682 149.8 243.043C148.831 245.352 145.869 245.884 144.309 244.062C143.917 243.604 143.205 242.425 143.205 241.64ZM194.531 239.485C197.471 239.485 197.579 244.089 193.747 244.089C191.672 244.089 191.277 239.485 194.531 239.485ZM124.203 245.362H121.754C119.964 245.362 118.816 243.637 118.816 241.836C118.816 240.71 118.895 240.353 119.653 239.343C120.041 238.826 120.599 238.408 121.165 238.112C122.768 237.271 124.047 237.718 125.282 238.602C125.782 238.96 126.238 239.533 126.553 240.074C127.225 241.233 126.73 243.274 126.009 244.328C125.666 244.83 124.989 245.362 124.203 245.362ZM170.729 244.187C168.33 244.187 168.084 243.177 168.084 241.248C168.084 239.035 171.189 238.513 172.473 239.7C173.085 240.265 172.899 240.674 172.8 241.556C172.707 242.391 173.065 243.683 171.748 244.031C171.535 244.087 170.936 244.187 170.729 244.187ZM57.4997 229.984C57.4997 227.155 60.6294 224.107 63.4746 224.107C65.0139 224.107 66.0271 225.048 66.8294 225.846C70.6836 229.678 67.5987 235.175 63.3767 235.175C61.5969 235.175 60.4625 234.527 59.337 233.534C58.3739 232.685 57.4997 231.394 57.4997 229.984ZM230.086 232.629C229.143 232.629 228.457 232.067 228.089 231.295C227.221 229.474 229.043 227.829 229.89 227.829C230.852 227.829 231.773 228.005 232.462 228.685C233.388 229.598 232.73 232.629 230.086 232.629ZM81.7911 229.592C81.7911 227.031 84.5758 224.597 86.6886 224.597C87.7811 224.597 88.3354 224.545 89.3691 225.051C89.9076 225.315 90.2025 225.584 90.5838 225.991C91.8301 227.322 91.7819 229.019 91.7819 230.67C91.7819 232.949 89.7827 234.588 87.2763 234.588H86.7865C84.2365 234.588 81.7911 232.142 81.7911 229.592ZM134.782 234C132.772 234 130.668 231.85 130.668 229.886C130.668 228.529 130.934 227.967 132.012 226.921C136.036 223.018 142.373 230.029 136.37 233.532C136.067 233.709 135.212 234 134.782 234ZM110.686 225.185C112.256 225.185 113.242 225.427 114.287 226.481C117.96 230.19 113.359 234.588 110.882 234.588C110.203 234.588 109.632 234.309 109.15 234.067L107.781 233.085C105.537 230.851 105.585 227.297 108.824 225.673C109.382 225.394 109.838 225.185 110.686 225.185ZM204.424 229.2C204.424 227.731 206.395 227 207.734 228.339C208.832 229.437 208.66 230.236 207.771 231.372C206.668 232.783 204.424 232.216 204.424 229.2ZM158.289 233.118C157.023 233.118 154.923 231.096 155.108 229.745C155.349 227.989 156.76 226.36 158.485 226.36C159.366 226.36 160.15 227.071 160.671 227.505C161.129 227.887 161.116 227.887 161.493 228.348C161.608 228.489 162.109 229.26 162.109 229.396C162.109 230.314 161.407 231.452 160.948 231.957C160.393 232.569 159.19 233.118 158.289 233.118ZM182.777 232.139C181.922 232.139 181.141 232.18 180.558 231.321C179.563 229.857 179.917 227.144 181.993 227.144C182.898 227.144 183.534 227.134 184.265 227.712C184.869 228.19 184.845 228.571 184.752 229.411C184.652 230.321 184.558 232.139 182.777 232.139ZM166.909 218.132C166.909 213.445 171.825 213.875 173.097 215.471C173.59 216.089 173.961 217.228 173.961 218.328C173.961 219.309 171.82 221.462 170.631 221.462C170.388 221.462 169.589 221.113 169.329 221.001C168.143 220.492 166.909 219.568 166.909 218.132ZM191.886 217.936C191.886 214.03 196.686 214.71 196.686 217.251C196.686 220.621 196.034 220.287 193.355 220.287C192.87 220.287 192.435 219.887 192.241 219.54C192.055 219.206 191.886 218.406 191.886 217.936ZM123.028 213.235C125.581 213.235 127.533 215.149 127.533 217.545C127.533 219.128 127.248 219.936 126.04 221.145C123.905 223.28 121.666 223.02 119.569 221.101L118.52 219.798C117.257 217.395 118.731 213.235 123.028 213.235ZM69.2537 217.838C69.2537 214.25 71.7826 212.059 75.5223 212.059C79.291 212.059 82.4305 216.395 80.5536 220.225C79.9409 221.475 78.8507 222.375 77.541 222.893C75.3572 223.758 72.8733 223.263 71.0015 221.772C70.5452 221.408 70.0843 220.703 69.8066 220.126C69.5565 219.606 69.2537 218.55 69.2537 217.838ZM142.52 217.74C142.52 214.185 146.8 211.704 149.453 214.529C150.728 215.887 151.211 218.345 150.294 219.819C150.228 219.925 150.252 219.876 150.168 219.996C149.453 221.006 148.158 222.05 146.927 222.05C145.131 222.05 144.277 221.686 143.185 220.019L142.852 219.368C142.72 219.025 142.52 218.15 142.52 217.74ZM99.324 223.226H98.7364C96.1676 223.226 93.741 220.619 93.741 218.034C93.741 216.005 93.9352 215.439 95.1654 213.876C95.4762 213.481 96.0312 213.094 96.4623 212.822C97.3417 212.266 98.1032 212.255 99.1281 212.255C101.365 212.255 107.046 215.988 102.768 221.282C102.167 222.026 100.621 223.226 99.324 223.226ZM242.428 220.581C241.437 220.581 239.881 219.579 239.881 218.328C239.881 216.204 242.337 214.69 244.023 216.439C244.283 216.708 244.892 217.58 244.838 217.996C244.731 218.828 243.885 220.581 242.428 220.581ZM218.528 215.879C219.281 215.879 220.389 216.802 220.389 218.034C220.389 219.573 218.503 220.958 216.932 219.337C216.484 218.874 216.124 217.766 216.386 216.972C216.664 216.13 218.366 215.879 218.528 215.879ZM49.5658 211.961C51.5008 211.961 53.717 211.973 55.3422 212.848C57.7703 214.156 58.7637 220.739 53.6485 223.292C52.1504 224.04 50.3359 224.076 48.8075 223.494C48.281 223.294 47.4683 222.797 47.144 222.415C45.0473 219.946 44.4015 214.42 47.4497 212.588C47.9099 212.311 48.8892 211.961 49.5658 211.961ZM251.537 206.378V205.889C251.537 204.647 252.675 203.44 254.182 203.44C257.262 203.44 258.145 209.023 254.28 209.023C253.43 209.023 252.711 208.833 252.247 208.411C251.829 208.031 251.537 207.171 251.537 206.378ZM203.346 206.476V205.987C203.346 203.593 207.154 202.105 208.247 204.22C211.045 209.635 203.346 209.901 203.346 206.476ZM129.492 206.378C129.492 204.612 129.893 203.837 130.919 202.515C132.706 200.213 135.589 200.45 137.802 201.889C139.604 203.06 139.483 204.598 139.483 206.28C139.483 210.131 135.132 212.388 131.212 209.458C130.485 208.915 129.492 207.589 129.492 206.378ZM153.882 206.084C153.882 204.007 156.51 201.383 158.094 201.383C159.558 201.383 160.444 201.727 161.352 202.63C162.417 203.687 162.697 204.555 162.697 206.084C162.697 212.423 153.882 210.731 153.882 206.084ZM105.005 205.889C105.005 204.139 105.621 203.06 106.374 202.067C106.948 201.31 108.492 200.207 109.805 200.207C111.85 200.207 113.167 200.465 114.869 201.901C115.342 202.3 115.796 202.928 116.132 203.479C119.061 208.294 111.197 214.312 106.694 209.782C105.705 208.786 105.005 207.453 105.005 205.889ZM228.225 205.595C228.225 203.993 230.156 203.06 231.581 204.599C232.5 205.592 232.567 206.481 231.679 207.481C230.281 209.055 228.225 208.138 228.225 205.595ZM87.2763 211.961C82.9686 211.961 81.2034 209.38 81.2034 205.203C81.2034 199.776 81.7418 200.207 88.8434 200.207C90.413 200.207 91.8154 200.539 92.5036 201.935C93.0505 203.044 93.1017 205.268 92.942 206.755C92.6439 209.531 90.3759 211.961 87.2763 211.961ZM182.483 209.513H181.797C180.419 209.513 178.467 207.484 178.467 206.084C178.467 204.543 179.65 203.43 180.816 202.655C182.216 201.723 183.535 202.243 184.915 203.163C185.549 203.586 186.147 204.515 185.984 205.665C185.811 206.874 185.924 208.41 183.998 209.166C183.593 209.325 182.991 209.513 182.483 209.513ZM123.42 200.012C121.458 200.012 119.938 199.595 118.642 198.325C117.122 196.836 116.955 195.264 116.955 193.155C116.955 189.726 118.921 188.258 122.244 188.258C124.327 188.258 125.419 188.458 126.948 189.641C127.901 190.38 128.709 191.946 128.709 193.155V194.233C128.709 196.476 125.337 200.012 123.42 200.012ZM190.319 194.233C190.319 193.086 191.036 192.038 191.885 191.391C192.261 191.105 192.538 190.789 192.994 190.541C193.489 190.272 193.884 190.025 194.477 190.085C197.289 190.371 199.02 194.876 196.92 196.818C194.448 199.106 190.319 196.346 190.319 194.233ZM217.941 196.877C217.015 196.877 215.069 195.715 215.373 193.925C215.501 193.173 215.83 192.407 216.248 191.953C217.452 190.647 220.677 190.888 220.953 194.259C221.024 195.129 220.511 195.757 219.995 196.092C219.573 196.366 218.322 196.877 217.941 196.877ZM170.141 189.433C172.632 189.433 176.483 192.366 174.813 195.672C173.526 198.223 170.258 198.807 168.31 197.827C165.145 196.234 165.214 192.731 167.078 190.777C167.731 190.093 168.8 189.433 170.141 189.433ZM241.938 196.485C241.851 196.485 239.783 195.248 239.783 194.331C239.783 193.599 239.9 192.997 240.494 192.494C242.728 190.604 245.752 193.33 243.533 195.534C243.273 195.791 242.346 196.485 241.938 196.485ZM141.344 193.351C141.344 192.167 142.09 190.655 142.883 189.897C145.583 187.316 148.964 188.238 150.828 191.018C151.019 191.303 151.196 191.542 151.368 191.849C152.151 193.246 152.202 194.824 151.514 196.273C150.49 198.432 148.209 198.934 145.654 198.934C142.807 198.934 141.344 195.707 141.344 193.351ZM158.289 187.572C155.602 187.572 152.706 184.536 152.706 182.283C152.706 180.849 153.015 180.074 153.957 178.93C158.526 173.378 163.873 178.105 163.873 181.303C163.873 184.187 163.019 185.914 160.643 187.085C160.069 187.368 159.156 187.572 158.289 187.572ZM177.683 181.891C177.683 180.541 178.256 179.698 178.856 178.95C179.826 177.739 181.267 177.581 182.679 177.581C183.809 177.581 184.98 178.314 185.633 178.839C189.122 181.643 185.592 186.886 182.679 186.886C180.192 186.886 177.683 184.378 177.683 181.891ZM251.635 181.793C251.635 179.188 256.239 179.437 256.239 181.499C256.239 184.038 255.357 184.536 253.3 184.536C252.207 184.536 251.635 182.977 251.635 181.793ZM230.282 185.025C225.964 185.025 226.186 179.344 230.38 179.344C231.527 179.344 232.123 180.431 232.652 181.186C232.93 181.583 233.082 181.565 232.958 182.104C232.779 182.88 232.516 183.459 232.104 184.007C231.745 184.484 231.061 185.025 230.282 185.025ZM205.991 185.809C204.737 185.809 203.934 185.453 203.33 184.65C202.967 184.168 202.367 182.69 202.367 181.891C202.367 180.429 204.63 178.169 205.893 178.169C206.163 178.169 207.075 178.483 207.335 178.588C207.917 178.821 208.14 178.944 208.618 179.263C209.997 180.182 209.931 182.355 209.519 183.46C208.946 184.999 207.634 185.809 205.991 185.809ZM218.136 173.859C215.381 173.859 214.61 172.199 214.61 169.647C214.61 166.871 218.183 165.435 220.504 167.182C221.753 168.123 221.663 169.105 221.663 170.333C221.663 172.365 220.169 173.859 218.136 173.859ZM189.633 170.333C189.633 169.006 189.864 167.795 190.83 166.829C191.15 166.509 191.657 166.213 192.082 166.023C193.709 165.296 196.593 165.438 197.863 167.098C198.512 167.946 199.024 169.485 199.028 170.53C199.035 172.31 195.784 176.455 192.528 174.49C191.847 174.08 191.757 173.973 191.225 173.443C190.535 172.755 189.633 171.647 189.633 170.333ZM239.098 170.137C239.098 168.26 240.003 167.395 241.742 167.395C245.203 167.395 245.494 170.95 244.122 172.321C242.666 173.775 239.098 173.653 239.098 170.137ZM164.558 170.137C164.558 167.169 167.542 164.456 170.239 164.456C172.839 164.456 174.445 165.6 175.4 167.817C176.238 169.764 175.772 172.442 174.522 173.93L173.712 174.673C171.949 175.988 169.282 175.856 167.397 174.944L167.084 174.776C165.51 173.762 164.558 171.99 164.558 170.137ZM265.544 167.59C267.725 167.59 268.776 168.995 268.776 171.117C268.776 172.813 267.031 173.076 265.544 173.076C263.119 173.076 263.529 170.764 263.46 170.262C263.238 168.649 263.923 167.59 265.544 167.59ZM176.508 158.481C176.508 156.358 177.085 155.519 178.393 154.195C180.363 152.201 183.83 151.843 186.036 153.949C189.134 156.906 188.012 163.77 182.091 163.77C178.983 163.77 176.508 161.325 176.508 158.481ZM254.084 161.322C251.986 161.322 250.949 160.333 250.949 158.089C250.949 155.666 252.575 155.655 253.917 155.469C256.377 155.129 257.254 157.216 256.634 159.463C256.33 160.565 255.356 161.322 254.084 161.322ZM206.284 163.183C204.325 163.183 202.442 161.443 201.889 159.952C201.883 159.936 201.816 159.731 201.814 159.725C201.008 157.287 201.665 154.449 204.232 153.881C210.316 152.536 213.295 158.51 208.75 162.122C208.256 162.514 207.115 163.183 206.284 163.183ZM226.07 157.991C226.07 157.187 226.873 156.197 227.398 155.792C227.753 155.519 228.016 155.251 228.389 155.02C228.717 154.816 229.257 154.497 229.699 154.462C230.859 154.369 233.612 155.543 233.612 157.796C233.612 159.523 232.931 161.063 231.419 161.675C229.901 162.291 228.047 162.009 227.204 160.776C226.756 160.121 226.07 158.594 226.07 157.991ZM194.727 151.821C192.855 151.821 191.612 151.568 190.261 150.508C188.57 149.181 188.458 147.749 188.458 145.944C188.458 144.143 190.117 142.079 191.721 141.273C195.313 139.469 199.624 141.549 199.624 146.629C199.624 148.107 198.977 149.479 198.23 150.231C197.309 151.159 196.168 151.821 194.727 151.821ZM213.435 146.335C213.435 141.559 218.666 140.636 221.297 143.273C225.466 147.453 220.059 151.233 218.136 151.233C215.767 151.233 213.435 148.723 213.435 146.335ZM262.312 146.433C262.312 144.943 264.973 143.005 266.034 143.005C266.491 143.005 267.816 143.96 268.118 144.251C269.747 145.814 269.585 147.251 268.066 148.76C267.416 149.406 266.881 149.96 265.838 149.96C264.733 149.96 263.309 148.812 262.766 147.742C262.62 147.455 262.312 146.788 262.312 146.433ZM237.922 146.237C237.922 144.859 240.677 142.417 242.036 142.417C243.945 142.417 245.464 144.709 245.464 146.923C245.464 147.775 245.352 148.241 244.809 148.913C243.592 150.419 240.35 150.548 239.068 148.814C238.729 148.356 237.922 146.924 237.922 146.237ZM249.872 134.484C249.872 132.941 252.31 130.566 254.182 130.566C255.676 130.566 257.904 132.612 257.904 134.092C257.904 135.491 257.608 136.169 256.608 137.105C255.496 138.146 252.27 138.844 251.043 137.23C250.624 136.679 249.872 135.221 249.872 134.484ZM230.184 139.283C227.551 139.283 225.385 136.635 225.385 134.875C225.385 133.412 225.614 132.234 226.679 131.174C228.028 129.83 229.791 129.568 231.585 130.34C232.955 130.931 234.788 132.635 234.788 134.386C234.788 136.486 232.257 139.283 230.184 139.283ZM200.31 134.679C200.31 131.836 203.182 128.705 205.991 128.705C210.496 128.705 213.568 134.695 209.983 138.28C209.49 138.772 209.057 139.118 208.357 139.397C208.058 139.516 207.67 139.672 207.339 139.75C204.514 140.422 202.016 139.136 200.894 136.935C200.618 136.393 200.31 135.497 200.31 134.679ZM265.446 118.616H266.132C267.819 118.616 271.501 121.749 269.031 125.041C267.507 127.072 264.728 126.769 262.897 125.377C259.919 123.113 263.05 118.616 265.446 118.616ZM237.237 122.534C237.237 120.152 239.391 118.028 241.35 118.028C242.934 118.028 243.67 118.39 244.856 119.42C245.175 119.696 245.115 119.622 245.399 119.955C246.498 121.246 246.542 121.539 246.542 123.024C246.542 124.134 245.78 125.24 245.16 125.756C242.318 128.121 237.237 126.464 237.237 122.534ZM217.843 128.019C215.451 128.019 212.259 125.325 212.259 122.632C212.259 121.103 213.129 119.754 214.096 118.787C219.172 113.711 223.426 120.039 223.426 121.946C223.426 124.024 222.388 126.617 220.281 127.519C219.708 127.764 218.633 128.019 217.843 128.019ZM253.986 115.482C251.629 115.482 249.186 112.564 249.186 111.074C249.186 108.328 251.965 106.078 253.79 106.078C255.472 106.078 257.086 107.566 257.924 108.898C259.783 111.854 256.245 115.482 253.986 115.482ZM235.375 110.682C235.375 111.419 235.06 112.266 234.785 112.736C233.894 114.259 231.853 116.069 230.086 116.069C228.72 116.069 227.786 115.875 226.778 114.871C226.022 114.118 225.615 113.645 225.159 112.573C222.743 106.905 230.472 102.661 234.327 107.812C234.916 108.599 235.375 109.643 235.375 110.682ZM202.269 104.805L204.994 104.99C207.044 104.82 209.264 104.697 210.817 106.248C213.284 108.713 212.424 115.709 208.257 116.572C207.327 116.765 204.802 116.98 203.679 116.731C203.32 116.652 203.11 116.547 202.821 116.398C200.681 115.295 200.293 114.682 200.308 111.957C200.317 110.429 200.335 108.82 200.215 107.442C200.147 106.675 200.354 105.983 200.683 105.57C201.037 105.124 201.658 104.805 202.269 104.805ZM218.234 104.805C216.366 104.805 214.758 104.31 213.751 103.215C212.339 101.681 212.259 99.8166 212.259 97.7527C212.259 94.0222 214.467 92.7434 218.142 93.0434C219.946 93.1907 220.792 93.3681 222.182 94.3931C223.825 95.6061 224.013 97.2481 224.013 99.124C224.013 100.556 222.926 102.218 222.179 102.97C221.342 103.813 219.867 104.805 218.234 104.805ZM265.348 94.2266H266.229C269.097 94.2266 270.441 96.5304 270.441 99.4178C270.441 100.966 267.67 103.63 266.132 103.63C263.884 103.63 260.064 100.755 261.343 97.2742C261.924 95.6953 263.556 94.2266 265.348 94.2266ZM242.036 103.63C240.283 103.63 239.113 103.19 238.101 102.373C237.164 101.617 236.649 99.9856 236.649 98.6343C236.649 97.1701 237.438 96.031 238.191 95.2786C240.559 92.9099 243.299 93.1808 245.542 95.4225L246.6 96.8128C247.776 98.7462 247.035 100.623 245.587 102.087C244.827 102.855 243.521 103.63 242.036 103.63ZM254.378 91.6798H253.496C250.864 91.6798 248.599 89.8771 248.599 87.2721C248.599 85.5507 248.991 84.4771 250.238 83.2302C252.222 81.2458 255.456 81.1637 257.49 83.1807C258.706 84.3872 259.177 85.2852 259.177 87.0762C259.177 88.273 258.539 89.6215 257.733 90.3339C256.989 90.9918 255.74 91.6798 254.378 91.6798ZM229.596 81.1013C233.07 81.1013 235.963 84.1243 235.963 86.8802C235.963 89.6374 232.306 92.8552 230.086 92.8552C228.946 92.8552 228.478 92.8209 227.322 92.093C224.826 90.5209 223.362 87.4439 224.57 84.5965C225.419 82.5961 227.092 81.1013 229.596 81.1013ZM242.036 80.4156C237.054 80.4156 234.387 75.7246 237.207 71.963C240.737 67.2543 246.11 69.1262 247.072 73.3228C247.909 76.9769 246.26 80.4156 242.036 80.4156ZM224.111 62.7848C224.111 61.8152 224.181 59.3297 224.569 58.5412C225.353 56.9518 228.842 57.2997 230.87 57.2997C234.225 57.2997 235.963 59.0061 235.963 62.5889C235.963 64.4617 235.782 66.097 234.508 67.5006C233.639 68.4581 231.699 69.0536 230.282 69.0536C228.194 69.0536 225.806 69.3201 224.795 67.3904C224.104 66.0709 224.289 65.1006 224.204 64.0633C224.168 63.6201 224.111 63.3698 224.111 62.7848ZM241.938 57.2017C238.323 57.2017 236.061 54.7558 236.061 51.1289C236.061 46.972 237.055 45.3498 241.742 45.3498C243.45 45.3498 245.376 45.6838 246.319 46.4539C249.567 49.106 247.678 57.2017 241.938 57.2017ZM224.013 27.9149C224.013 29.7891 224.307 31.1392 225.663 32.2402C229.139 35.0636 234.559 31.6633 235.71 35.0246C236.506 37.3473 235.963 41.5929 235.181 43.5884C234.436 45.491 233.634 45.252 231.164 45.252C229.557 45.252 227.144 45.0746 225.653 45.4221C224.784 45.6246 224.397 45.9753 224.213 46.8228C223.614 49.5776 224.456 52.5859 223.977 55.3038C223.601 57.4354 221.605 57.2017 219.802 57.2017C217.759 57.2017 215.604 56.9932 214.333 57.8057C213.004 58.6554 212.162 60.0047 212.162 61.7074C212.162 63.2611 211.895 66.5691 212.617 67.9123C212.919 68.475 213.324 68.8851 213.983 69.0931C216.376 69.8479 221.506 67.9202 223.326 70.7207C224.545 72.5972 225.136 76.0508 223.948 78.1952C222.104 81.5232 217.358 81.0033 213.925 81.0033C213.253 81.0033 212.6 80.865 212.361 80.2154C212.177 79.7127 212.259 78.6463 212.259 77.967C212.259 76.3997 212.259 74.8325 212.259 73.2654C212.259 71.491 212.41 70.2677 211.201 69.6221C209.896 68.9248 207.22 69.0536 205.501 69.0536C200.573 69.0536 199.089 75.3094 200.974 78.5758C203.93 83.6984 210.402 78.9124 211.871 81.7834C212.719 83.4411 212.211 85.7019 212.158 87.4648C212.126 88.5567 212.277 89.6329 212.003 90.5414C210.485 95.5756 203.127 90.6705 200.973 94.1066C200.365 95.0777 200.274 96.4928 200.211 97.6543C199.88 103.788 201.371 104.806 194.335 104.805C191.747 104.805 189.491 105.165 188.664 107.754C188.483 108.319 188.352 108.862 188.358 109.603C188.372 111.237 187.791 115.204 189.339 116.168C190.602 116.954 192.776 116.853 194.237 116.853C196.474 116.853 198.4 116.317 199.365 117.994C200.908 120.677 201.269 127.664 196.009 128.714C193.86 129.143 190.729 129.656 189.378 127.392C188.676 126.215 188.448 124.866 188.459 123.022L188.355 120.482C188.045 116.526 185.466 116.755 182.091 116.755C181.223 116.755 180.291 116.987 179.674 117.276C178.822 117.675 178.563 117.856 177.951 118.491C176.364 120.137 176.061 123.677 176.812 125.952C177.015 126.567 177.385 127.194 177.918 127.589C180.726 129.673 186.117 127.95 187.313 129.163C188.747 130.617 188.816 135.276 188.178 137.338C187.007 141.116 182.961 140.557 179.74 140.557C175.148 140.557 176.606 140.011 176.606 133.896C176.606 130.454 174.803 128.607 171.121 128.607H169.847C167.125 128.607 164.46 131.926 164.46 134.679C164.46 143.588 172.929 139.381 175.59 140.985C176.398 141.473 176.401 141.666 176.526 142.791C176.616 143.608 176.593 144.508 176.494 145.44C176.276 147.485 176.101 150.435 174.509 151.683C173.061 152.819 171.62 152.406 169.847 152.408C164.832 152.414 164.558 152.753 164.558 147.413C164.558 143.9 165.014 142.081 161.607 140.863C158.814 139.864 156.278 140.375 154.249 142.393C153.658 142.981 153.223 143.575 152.915 144.389C152.071 146.619 152.373 150.363 154.583 151.805C156.742 153.212 160.287 152.058 162.952 152.741C164.682 153.185 164.46 155.336 164.46 156.816C164.46 157.867 164.567 158.593 164.562 159.562C164.547 162.552 163.237 163.583 160.779 164.203C160.088 164.377 159.089 164.554 158.289 164.554C156.691 164.554 154.047 163.99 153.178 163.298C151.554 162.003 152.804 160.173 152.804 158.187C152.804 156.343 152.695 154.749 151.36 153.559C149.583 151.975 143.949 151.815 142.224 154.072C142.006 154.358 141.802 154.567 141.606 154.923C140.405 157.097 140.045 161.46 141.954 163.357C144.152 165.541 150.082 163.652 151.69 164.689C152.953 165.503 152.608 170.018 152.608 171.606C152.608 173.011 151.56 174.546 150.596 175.275C149.215 176.319 145.039 177.127 143.146 175.976C139.574 173.802 141.306 168.742 140.641 166.628C140.491 166.15 140.191 165.728 139.794 165.427C139.69 165.348 139.753 165.396 139.625 165.309C138.641 164.635 136.171 164.162 134.684 164.162C132.434 164.162 130.305 165.353 129.255 167.059C128.367 168.503 128.64 173.234 129.019 174.627C129.587 176.718 131.534 176.4 133.313 176.406C135.814 176.415 138.472 175.713 139.995 178.147C140.899 179.592 141.073 183.176 140.366 184.733C139.185 187.331 136.588 188.16 133.606 188.16C130.497 188.16 128.792 185.8 128.804 182.677C128.832 176.009 128.1 176.21 122.048 176.21C120.096 176.21 118.333 176.5 117.559 177.695C115.764 180.464 118.241 185.914 115.569 187.656C114.973 188.044 113.964 188.018 113.038 188.063C110.752 188.171 108.114 188.559 105.872 187.782C105.463 187.64 105.364 187.694 105.201 187.376C105.059 187.1 105.098 186.73 105.102 186.397L105.04 180.1C104.969 179.61 104.938 179.376 104.771 178.991C103.951 177.098 98.3299 174.314 94.4999 178.144C92.4116 180.233 92.7913 182.768 93.4469 185.417C93.6492 186.235 93.8745 187.166 94.3955 187.701C94.9529 188.273 96.2783 188.112 97.1696 188.159C99.0877 188.262 101.444 188.599 103.381 188.103C103.907 187.968 104.722 187.604 105.103 187.572C105.103 189.518 104.907 191.352 104.907 193.351C104.907 195.704 105.334 197.021 104.052 198.471C103.344 199.271 101.115 200.207 99.6179 200.207C97.2891 200.207 93.6834 200.06 93.1903 197.232C92.9314 195.747 93.2305 190.797 93.074 190.296C92.5469 188.608 89.382 187.474 87.864 187.474C86.3688 187.474 84.8609 187.72 83.734 188.633C78.9352 192.521 82.6436 199.344 80.1821 199.97C79.9309 200.034 79.1303 200.11 78.8566 200.113C77.7373 200.127 76.993 200.012 75.9141 200.012C74.834 200.012 74.0547 200.115 72.9744 200.108C68.9106 200.084 69.3247 202.329 69.1551 205.398C69.125 205.945 69.1773 206.411 69.2302 206.8C69.314 207.418 69.1751 208.849 68.8924 209.445C68.3927 210.498 67.3959 211.059 66.3305 211.487C63.9835 212.431 60.7049 212.192 58.6184 210.843C56.7549 209.638 57.5513 207.267 57.3966 205.404C57.2665 203.837 57.4018 204.212 57.4018 202.754C57.4018 199.664 48.7608 198.948 46.4531 201.307C44.9807 202.812 45.4519 203.965 45.4519 206.476C45.4519 207.307 45.3527 207.723 45.3567 208.536C45.3666 210.499 44.2005 211.961 42.0238 211.961H38.2037C34.8768 211.961 33.5969 211.278 33.5968 208.145C33.5967 207.116 33.5022 206.45 33.5022 205.399C33.5022 203.223 34.025 202.592 31.7218 201.204C30.9672 200.75 30.4411 200.574 29.525 200.267C27.1388 199.466 24.0808 199.792 22.7063 201.851C21.6095 203.495 21.4543 205.758 21.4543 208.043C21.4543 213.474 28.1404 211.51 31.5393 212.259C33.0361 212.589 33.4042 213.701 33.4042 215.194V220.581C33.4042 221.973 33.054 222.942 32.1282 223.419C31.5365 223.724 29.6273 224.107 28.7026 224.107C28.8331 224.667 30.6678 227.686 31.0387 228.138C31.1749 228.304 31.4927 228.7 31.6272 228.823C32.1046 229.256 32.6241 229.577 33.2083 229.886C34.0751 228.592 33.0466 227.181 34.4233 225.42C35.3013 224.298 36.6293 223.898 38.5986 223.908L41.2658 224.094C41.9825 224.248 42.7064 224.631 43.201 224.987C45.0262 226.3 45.3541 227.481 45.3541 229.592C45.3541 232.609 43.7785 235.381 40.8552 235.77C40.5484 235.811 40.4807 235.813 40.1517 235.85C39.8436 235.884 39.673 235.825 39.673 236.155C39.673 238.34 42.3382 241.444 44.4725 241.444H45.3541C45.3541 239.921 45.9162 238.6 47.0419 237.549C50.1128 234.683 55.1544 235.908 56.6764 239.721C57.5155 241.823 57.5758 243.561 56.0059 245.24C55.5285 245.75 54.311 247.155 53.7646 247.406C52.7439 247.874 51.7572 247.544 53.3145 249.645C55.3806 252.432 57.4016 251.366 59.4348 249.55C60.9195 248.224 63.39 247.941 65.3786 248.845C67.0566 249.608 68.666 251.171 68.666 253.296C68.666 257.28 66.2761 257.578 69.8413 259.368C72.9791 260.944 72.2271 260.152 74.8367 260.152C78.1009 260.152 79.7254 262.08 81.0074 264.658C82.5244 267.709 86.1095 269.049 89.4029 269.584C90.7727 269.806 92.3414 270.115 93.6431 270.633L97.5049 272.158C98.2181 272.444 98.7502 272.65 99.5064 272.801C100.357 272.972 100.951 274.159 103.634 274.159C106.396 274.159 110.828 271.765 112.876 272.85C113.51 273.186 114.611 274.626 115.216 275.311C116.249 276.481 117.577 277.685 119.306 277.685C120.518 277.685 120.972 277.467 121.342 277.799C121.624 278.054 121.787 278.201 122.143 278.389C124.729 279.753 128.028 278.671 129.911 276.733C131.175 275.431 131.241 273.686 133.511 273.379C135.134 273.159 137.931 273.257 138.561 275.082C138.709 275.511 138.758 276.024 138.882 276.426C139.029 276.906 139.186 277.255 139.466 277.604C139.977 278.241 140.728 278.763 141.834 278.763H150.943C153.162 278.763 153.871 277.462 154.633 276.086C156.071 273.492 158.865 272.793 161.272 274.605C161.847 275.038 162.715 276.314 163.481 276.314C167.487 276.314 170.52 276.455 174.2 274.986C175.19 274.591 175.978 274.081 176.901 273.671C182.456 271.2 184.488 272.06 186.557 271.279C187.392 270.964 189.819 269.789 190.444 269.191C192.244 267.466 190.319 266.638 190.319 265.736C190.319 264.682 192.17 261.72 193.943 261.72C195.456 261.72 198.264 262.133 198.144 264.153C198.048 265.758 197.318 265.638 200.114 265.638C202.358 265.638 204.555 264.274 205.972 263.366C210.628 260.381 209.929 260.162 216.015 257.149C218.205 256.064 220.444 254.814 222.363 253.311L224.04 251.951C224.243 251.756 224.37 251.594 224.577 251.411C224.801 251.215 224.89 251.192 225.119 250.973C225.37 250.733 225.401 250.636 225.609 250.386C228.316 247.148 232.753 246.798 235.14 243.657C236.368 242.042 236.128 240.727 238.289 238.579C239.667 237.209 241.281 236.141 242.878 235.038C245.396 233.3 247.094 231.256 248.468 228.482C250.888 223.593 251.87 224.91 254.549 222.222C255.239 221.529 255.907 220.905 256.43 220.087C256.916 219.325 257.858 217.047 258.425 215.911C260.094 212.57 263.772 208.488 265.955 205.025C266.828 203.639 267.111 203.112 267.111 201.383C267.111 200.025 266.608 198.037 265.895 197.408C264.768 196.415 262.899 197.114 262.899 194.82C262.899 193.68 263.15 193.028 263.639 192.328C264.106 191.66 265.233 191.196 266.132 191.196C266.775 191.196 267.335 191.443 267.84 191.643C268.14 191.762 268.512 191.864 268.658 192.098C268.811 192.344 268.759 192.523 268.874 192.763C269.217 192.672 270.085 191.602 270.417 191.27C270.942 190.745 271.415 190.285 271.781 189.612C272.785 187.767 272.393 185.897 273.73 182.437C274.786 179.708 275.197 177.501 277.101 175.134C277.345 174.831 277.589 174.615 277.832 174.295C279.484 172.116 278.953 169.022 278.963 166.415C278.969 164.659 279.295 162.644 277.372 161.933C276.184 161.495 276.173 161.992 275.264 161.005C273.805 159.421 274.165 157.892 275.339 156.229C275.871 155.474 276.643 154.857 277.69 154.857C278.185 154.857 279.245 155.004 279.551 155.151C280.259 153.812 280.943 152.43 281.424 150.854C282.473 147.421 282.777 143.342 281.903 139.772C281.764 139.206 281.634 138.731 281.468 138.149L280.726 136.541C280.378 137.845 277.153 139.352 275.216 137.153C274.103 135.891 273.569 132.874 275.152 131.653C276.888 130.313 279.217 131.438 280.604 132.842C280.882 133.123 281.098 133.392 281.412 133.602C281.412 132.719 281.216 131.97 281.216 130.957C281.216 128.293 281.803 126.038 281.803 123.415C281.803 121.84 281.403 120.29 281.143 118.982C280.827 117.392 280.602 116.332 279.449 115.583C278.852 115.195 278.378 115.069 277.69 114.795C275.4 113.881 273.576 113.997 273.576 110.682C273.576 109.578 273.86 108.745 274.264 108.04C275.626 105.662 278.963 107.723 278.963 102.552C278.963 99.3073 276.567 95.0667 274.916 92.2985C273.582 90.0621 272.22 88.1308 271.817 85.2109C271.63 83.8576 271.854 82.6996 271.368 81.5458C270.735 80.0418 269.577 79.8279 268.09 79.8279C266.645 79.8279 262.723 81.6939 260.954 76.9739C260.164 74.8668 260.396 72.3956 261.746 71.035C262.805 69.9689 262.939 70.1268 264.107 69.5757C265.432 68.9507 264.448 66.4448 263.769 65.5394C263.169 64.7403 262.435 64.2272 262.129 63.261C261.936 62.6497 261.832 62.393 261.038 62.393C261.107 62.0985 261.152 61.9045 261.018 61.5363C260.656 60.5384 259.079 61.1466 259.079 62.0012C259.079 63.0378 260.108 65.4379 257.5 67.3766C255.327 68.9926 251.7 69.2984 249.749 67.1193C248.658 65.9004 247.575 62.9348 248.565 60.9879C248.789 60.5459 248.85 60.3835 249.142 59.998C249.42 59.6309 249.632 59.4515 249.945 59.1361C250.465 58.6133 251.153 58.0528 251.861 57.7216C252.995 57.1913 254.643 57.1521 255.934 57.7018C256.366 57.8855 256.565 58.1727 257.022 58.2791C257.628 57.8737 257.512 57.4737 257.512 56.516C256.191 56.2084 256.673 54.8745 256.295 53.8152L255.031 51.0628C253.005 47.3161 249.861 49.0793 246.901 43.1297C245.628 40.5716 244.16 37.889 241.664 36.3183C238.786 34.5066 236.365 34.6984 234.787 31.1484C233.363 27.9452 230.517 26.0592 227.607 24.3217C226.389 23.5951 225.256 23.1307 224.514 25.1837C224.295 25.7918 224.013 27.1178 224.013 27.9149Z" fill="#20E0A1"/>
<path fill-rule="evenodd" clip-rule="evenodd" d="M61.5149 200.211C62.1385 200.211 62.515 200.182 62.9984 200.128L65.9944 200.14C68.1965 200.427 68.9777 200.672 69.4232 197.149C69.6059 195.704 69.5233 191.571 68.6373 190.444C68.2239 189.919 67.8505 189.58 67.2899 189.245C62.5099 186.387 57.5397 189.207 57.2123 193.46C57.0375 195.731 57.0989 198.648 59.1945 199.691C59.7015 199.944 60.7979 200.211 61.5149 200.211Z" fill="#20E0A1"/>
<path fill-rule="evenodd" clip-rule="evenodd" d="M212.16 39.3778C212.16 41.4068 212.67 42.8151 214.006 43.8989C215.919 45.4522 217.893 45.3526 220.29 45.3526C224.631 45.3526 224.11 43.1464 224.11 39.084C224.11 35.8801 222.777 33.4029 219.31 33.4029H218.429C215.26 33.4029 212.16 36.2404 212.16 39.3778Z" fill="#20E0A1"/>
<path fill-rule="evenodd" clip-rule="evenodd" d="M188.361 86.6875C188.361 87.8358 188.475 88.5336 189.05 89.5249L190.012 90.8152C190.982 91.8824 193.12 92.9563 194.728 92.9563C196.305 92.9563 198.286 93.0411 199.293 91.742C199.986 90.8472 200.279 89.6094 200.314 88.3558C200.38 86.0083 200.932 83.5006 198.32 82.1156C197.246 81.5458 194.973 80.8795 193.888 81.041C191.959 81.3279 190.712 82.2523 189.578 83.6922C189.349 83.9821 189.209 84.1938 189.026 84.5115C188.769 84.9544 188.361 86.0271 188.361 86.6875Z" fill="#20E0A1"/>
<path fill-rule="evenodd" clip-rule="evenodd" d="M104.908 170.626C104.908 173.837 107.476 176.307 110.295 176.307C111.696 176.307 112.604 176.373 113.956 175.952C114.733 175.711 115.107 175.464 115.61 174.961C117.605 172.966 117.259 168.803 115.312 166.588C115.064 166.305 114.893 166.044 114.606 165.825C112.703 164.366 111.249 163.737 108.759 165.074C107.569 165.714 106.265 167.018 105.625 168.209C105.327 168.762 104.908 169.837 104.908 170.626Z" fill="#20E0A1"/>
<path fill-rule="evenodd" clip-rule="evenodd" d="M33.5009 194.134C33.5009 195.836 33.883 197.582 35.2617 198.642C35.8703 199.11 36.1399 199.364 36.9557 199.691C37.7196 199.996 38.2921 200.101 39.3219 200.136C42.7593 200.256 45.4506 199.025 45.4506 195.212C45.4506 193.075 44.9419 191.792 43.7456 190.256C43.0215 189.326 41.3711 188.159 39.7696 188.159C38.0462 188.159 36.5689 189.251 35.6802 190.143C35.0855 190.739 34.7713 191.074 34.3024 191.801C33.9635 192.328 33.5009 193.31 33.5009 194.134Z" fill="#20E0A1"/>
<path fill-rule="evenodd" clip-rule="evenodd" d="M75.5215 188.26C81.1138 188.26 82.8724 181.966 79.466 178.438C77.479 176.381 75.4009 175.743 72.8107 177.125C69.7491 178.76 67.4495 183.564 70.992 186.716C71.9827 187.598 73.6759 188.26 75.5215 188.26Z" fill="#20E0A1"/>
<path fill-rule="evenodd" clip-rule="evenodd" d="M206.97 57.3011C210.488 57.3011 212.26 55.3117 212.26 51.6201C212.26 48.6165 209.197 45.2534 206.872 45.2534C203.866 45.2534 200.154 48.7489 200.23 51.3171C200.325 54.505 203.614 57.3011 206.97 57.3011Z" fill="#20E0A1"/>
<path fill-rule="evenodd" clip-rule="evenodd" d="M116.956 158.482C116.956 161.554 120.301 164.457 122.833 164.457C124.544 164.457 126.049 163.832 126.971 163.012C129.525 160.739 129.378 156.443 126.935 154.478C126.633 154.235 126.518 154.085 126.161 153.881C121.459 151.193 116.956 155.673 116.956 158.482Z" fill="#20E0A1"/>
<path fill-rule="evenodd" clip-rule="evenodd" d="M176.997 99.4202C176.997 102.953 180.833 106.137 185.115 104.404C187.212 103.555 188.187 101.514 188.416 99.0848C188.561 97.5561 187.469 95.9872 186.764 95.1383C185.911 94.1128 184.178 93.1514 182.58 93.1514C181.025 93.1514 179.348 94.2236 178.647 95.0956C177.671 96.3097 176.997 97.7031 176.997 99.4202Z" fill="#20E0A1"/>
<path fill-rule="evenodd" clip-rule="evenodd" d="M10.288 192.567C10.288 195.367 12.4791 198.827 15.1258 199.875C16.7879 200.533 18.2609 199.992 19.5264 198.965C20.4833 198.188 21.6502 196.68 21.6502 195.016C21.6502 191.511 18.6925 188.159 15.6752 188.159C14.2753 188.159 10.288 191.3 10.288 192.567Z" fill="#20E0A1"/>
<path fill-rule="evenodd" clip-rule="evenodd" d="M81.6929 170.823C81.6929 172.568 82.3736 173.532 83.2607 174.545C83.4191 174.726 83.7094 174.965 83.922 175.157C86.0441 177.074 89.0994 176.497 91.1712 174.425C92.2262 173.37 93.0551 172.032 93.0551 170.236C93.0551 167.935 89.8058 164.946 86.9823 164.946C83.9628 164.946 81.6929 167.797 81.6929 170.823Z" fill="#20E0A1"/>
<path fill-rule="evenodd" clip-rule="evenodd" d="M45.9434 182.77C45.9434 183.557 46.1899 184.378 46.4324 184.925C46.8488 185.865 47.5049 186.568 48.2925 187.179C50.2517 188.698 52.5436 188.492 54.506 187.121C55.3992 186.496 55.9898 185.815 56.5649 184.87C57.1653 183.882 57.4422 182.805 57.1136 181.492C56.2291 177.958 50.2935 174.263 46.9397 179.358C46.4548 180.095 45.9434 181.579 45.9434 182.77Z" fill="#20E0A1"/>
<path fill-rule="evenodd" clip-rule="evenodd" d="M188.947 62.9795C188.947 66.7257 193.826 71.7646 198.375 67.2158C202.923 62.6681 198.543 57.7882 194.922 57.7882C193.792 57.7882 193.331 57.8614 192.318 58.318C190.686 59.0533 188.947 61.1027 188.947 62.9795Z" fill="#20E0A1"/>
<path fill-rule="evenodd" clip-rule="evenodd" d="M176.507 110.879C176.507 107.824 173.731 105.394 170.826 105.394C167.911 105.394 164.186 109.124 165.312 112.279C165.968 114.117 167.83 115.992 169.694 116.615C172.892 117.683 176.507 113.499 176.507 110.879Z" fill="#20E0A1"/>
<path fill-rule="evenodd" clip-rule="evenodd" d="M134.879 152.508C138.051 152.508 140.561 149.033 140.561 146.729C140.561 144.006 137.785 141.145 134.684 141.145C133.249 141.145 131.996 142.225 131.084 143.129C129.371 144.826 128.812 146.778 129.948 149.016C130.816 150.726 132.908 152.508 134.879 152.508Z" fill="#20E0A1"/>
<path fill-rule="evenodd" clip-rule="evenodd" d="M146.927 140.558C149.552 140.558 152.512 137.476 152.569 134.963C152.634 132.101 148.507 127.619 144.812 129.823C141.37 131.875 139.829 135.302 143.131 138.574C143.368 138.809 143.571 139.047 143.82 139.257C144.551 139.873 145.886 140.558 146.927 140.558Z" fill="#20E0A1"/>
<path fill-rule="evenodd" clip-rule="evenodd" d="M206.577 22.0367C203.697 22.0367 198.056 26.7884 202.488 31.2199C204.774 33.506 207.973 33.274 210.4 31.442C211.406 30.6824 212.248 28.9176 212.151 27.6361C211.991 25.5406 210.418 23.5248 208.767 22.6881C208.22 22.4109 207.344 22.0367 206.577 22.0367Z" fill="#20E0A1"/>
<path fill-rule="evenodd" clip-rule="evenodd" d="M153.196 122.83C153.196 125.482 155.753 128.119 158.387 128.119C160.334 128.119 161.802 128.012 163.105 126.372C163.843 125.444 164.558 123.416 164.558 122.34C164.558 121.589 164.171 120.963 163.855 120.496C162.806 118.949 160.699 117.344 158.779 117.344C156.657 117.344 153.196 120.453 153.196 122.83Z" fill="#20E0A1"/>
<path fill-rule="evenodd" clip-rule="evenodd" d="M22.1385 182.284C22.1385 187.193 27.8816 189.1 31.2921 186.54C33.1547 185.142 33.3219 182.344 32.3276 180.323C31.4934 178.627 29.6005 176.897 27.4278 176.897C25.1817 176.897 22.1385 180.009 22.1385 182.284Z" fill="#20E0A1"/>
<path fill-rule="evenodd" clip-rule="evenodd" d="M99.3239 163.87C101.928 163.87 104.417 161.597 104.417 158.58C104.417 155.174 100.737 152.991 97.7739 153.798C95.8716 154.316 94.292 155.81 93.8011 157.759C93.4812 159.029 93.8222 160.034 94.2935 160.966C95.1415 162.644 97.3494 163.87 99.3239 163.87Z" fill="#20E0A1"/>
<path fill-rule="evenodd" clip-rule="evenodd" d="M177.587 75.0279C177.587 77.7021 180.138 80.513 182.386 80.513C183.972 80.513 184.957 79.8583 186.013 79.0461L187.154 77.6408C187.773 76.4748 187.774 76.2915 187.774 75.0279C187.774 72.4454 185.085 69.7386 182.876 69.7386C181.809 69.7386 181.376 69.7332 180.308 70.4024C180.016 70.5851 179.89 70.7232 179.642 70.9126C178.622 71.6922 177.587 73.653 177.587 75.0279Z" fill="#20E0A1"/>
<path fill-rule="evenodd" clip-rule="evenodd" d="M189.535 39.0828V39.7684C189.535 41.9211 192.008 44.7638 194.629 44.7638C197.153 44.7638 199.722 42.1372 199.722 39.2787C199.722 36.4467 196.059 32.6109 192.506 34.5107C192.083 34.7363 191.361 35.2954 191.087 35.6393C190.354 36.5613 189.535 37.7681 189.535 39.0828Z" fill="#20E0A1"/>
<path fill-rule="evenodd" clip-rule="evenodd" d="M58.4781 170.04C58.4781 172.254 59.0275 174.238 60.93 175.228C63.3998 176.514 66.5942 175.311 68.0744 172.78C69.4398 170.445 68.8207 165.535 62.9838 165.535C60.258 165.535 58.4781 167.506 58.4781 170.04Z" fill="#20E0A1"/>
<path fill-rule="evenodd" clip-rule="evenodd" d="M115.976 146.921C115.976 144.32 113.851 141.73 111.471 141.73C109.976 141.73 109.431 141.881 108.207 142.874C103.701 146.53 107.669 151.076 109.999 151.723C112.705 152.475 115.976 149.686 115.976 146.921Z" fill="#20E0A1"/>
<path fill-rule="evenodd" clip-rule="evenodd" d="M34.679 170.53C34.679 171.501 34.6787 171.923 35.2847 172.863C36.1408 174.19 37.7702 175.721 39.4785 175.721C41.6742 175.721 44.7678 172.768 44.7678 170.628C44.7678 168.614 41.7259 165.535 39.3806 165.535C36.9082 165.535 34.679 168.418 34.679 170.53Z" fill="#20E0A1"/>
<path fill-rule="evenodd" clip-rule="evenodd" d="M177.587 51.2271C177.587 53.2375 178.933 54.7042 180.622 55.5387C182.448 56.4412 184.636 56.1998 186.133 54.8753C190.389 51.1085 185.338 46.1108 182.723 46.4626C181.398 46.641 180.236 47.0259 179.275 47.92C178.52 48.6224 177.587 49.8236 177.587 51.2271Z" fill="#20E0A1"/>
<path fill-rule="evenodd" clip-rule="evenodd" d="M170.729 91.7802C171.793 91.7802 172.208 91.7709 173.18 91.2928C173.83 90.9727 173.982 90.8295 174.476 90.3356C178.315 86.4959 173.468 82.1811 170.827 82.1811C168.401 82.1811 165.773 84.5459 165.688 86.9076C165.664 87.5971 165.864 88.3186 166.123 88.8444C166.877 90.3793 168.802 91.7802 170.729 91.7802Z" fill="#20E0A1"/>
<path fill-rule="evenodd" clip-rule="evenodd" d="M70.4305 158.48C70.4305 160.084 71.1236 160.978 72.2172 162.08C73.933 163.811 75.9831 164.446 77.8503 162.667C78.7493 161.811 80.0295 160.457 80.0295 159.067C80.0295 157.703 79.2474 156.263 78.5842 155.517C77.5872 154.396 76.6395 153.68 74.9361 153.68C73.1207 153.68 70.4305 156.453 70.4305 158.48Z" fill="#20E0A1"/>
<path fill-rule="evenodd" clip-rule="evenodd" d="M189.535 15.5736C189.535 17.6025 192.301 20.3731 194.335 20.3731C198.157 20.3731 200.787 15.6494 197.931 12.2717C196.128 10.1405 193.209 10.3639 191.225 12.3656C190.481 13.1159 189.535 14.1363 189.535 15.5736Z" fill="#20E0A1"/>
<path fill-rule="evenodd" clip-rule="evenodd" d="M15.9712 175.134C17.5423 175.134 18.1856 174.768 19.2303 173.691C20.8425 172.029 20.7456 169.797 19.5188 167.962C18.7409 166.798 17.1722 165.535 15.6774 165.535C13.6026 165.535 10.7656 168.397 10.8172 170.421C10.8519 171.783 11.7404 172.844 12.5166 173.593C13.1842 174.238 14.7123 175.134 15.9712 175.134Z" fill="#20E0A1"/>
<path fill-rule="evenodd" clip-rule="evenodd" d="M118.131 134.875C118.131 136.735 120.574 139.114 122.817 139.403C125.097 139.696 127.632 137.495 127.632 135.168V134.679C127.632 132.594 125.202 129.879 123.126 129.879C120.651 129.879 118.131 132.417 118.131 134.875Z" fill="#20E0A1"/>
<path fill-rule="evenodd" clip-rule="evenodd" d="M154.372 99.0259C154.372 101.661 156.543 103.985 158.795 103.65C161.958 103.179 163.383 101.824 163.383 98.7321C163.383 97.9735 162.8 96.9714 162.364 96.4214L161.251 95.2818C158.151 92.5607 154.372 95.647 154.372 99.0259Z" fill="#20E0A1"/>
<path fill-rule="evenodd" clip-rule="evenodd" d="M142.424 111.076C142.424 113.44 144.669 115.582 146.341 115.582C147.556 115.582 148.554 115.481 149.588 114.715C151.371 113.394 152.013 111.17 151.046 109.213C149.403 105.891 145.096 106.095 143.522 107.669C142.828 108.364 142.424 109.715 142.424 111.076Z" fill="#20E0A1"/>
<path fill-rule="evenodd" clip-rule="evenodd" d="M166.321 62.6864C166.321 64.2244 166.394 65.372 167.618 66.5807C168.975 67.9218 170.383 68.4709 172.264 67.4544C173.6 66.7326 175.332 64.7835 175.332 63.2741C175.332 61.4087 173.126 58.9481 171.048 58.5395C168.983 58.1333 166.321 60.174 166.321 62.6864Z" fill="#20E0A1"/>
<path fill-rule="evenodd" clip-rule="evenodd" d="M178.173 27.4224C178.173 28.7759 178.669 29.8225 179.29 30.6151C181.041 32.8476 184.092 32.7113 185.759 30.6005C187.051 28.9651 187.769 27.7007 186.629 25.6271C185.631 23.8117 183.318 22.0311 180.782 23.2727C179.354 23.9719 178.173 25.7292 178.173 27.4224Z" fill="#20E0A1"/>
<path fill-rule="evenodd" clip-rule="evenodd" d="M130.569 122.439V123.222C130.569 125.214 132.51 127.532 134.879 127.532C137.47 127.532 139.58 125.439 139.58 122.733C139.58 120.498 137.232 118.521 134.977 118.521C134.148 118.521 133.669 118.529 132.875 118.868C131.479 119.462 130.569 120.983 130.569 122.439Z" fill="#20E0A1"/>
<path fill-rule="evenodd" clip-rule="evenodd" d="M56.1296 158.68C56.1296 157.369 55.7062 156.256 54.7176 155.488C53.2432 154.343 52.6473 154.272 50.8404 154.272C47.5102 154.272 45.6184 158.982 48.7089 162.085C51.9761 165.365 56.1296 160.639 56.1296 158.68Z" fill="#20E0A1"/>
<path fill-rule="evenodd" clip-rule="evenodd" d="M3.92148 163.186C5.9857 163.186 10.7594 159.206 7.08184 155.519C5.83426 154.269 4.65784 154.272 3.03994 154.272C1.9667 154.272 1.02466 154.738 0.554271 155.704C0.125416 156.586 0.0839993 158.089 0.00463749 159.179C-0.0342336 159.711 0.178865 160.409 0.359222 160.773C0.735902 161.533 1.56157 162.347 2.29595 162.754C2.65794 162.955 3.39915 163.186 3.92148 163.186Z" fill="#20E0A1"/>
<path fill-rule="evenodd" clip-rule="evenodd" d="M23.3167 158.582C23.3167 160.806 25.1727 163.186 27.3327 163.186C28.6211 163.186 29.6849 162.753 30.4923 161.84C33.4993 158.437 30.5167 154.272 28.0182 154.272H27.2347C25.189 154.272 23.3167 156.505 23.3167 158.582Z" fill="#20E0A1"/>
<path fill-rule="evenodd" clip-rule="evenodd" d="M82.8691 146.826C82.8691 149.495 86.4772 153.433 89.9466 149.986C91.6649 148.278 91.7726 145.498 90.1421 143.667C87.3003 140.477 82.8691 143.54 82.8691 146.826Z" fill="#20E0A1"/>
<path fill-rule="evenodd" clip-rule="evenodd" d="M166.321 39.379C166.321 40.7815 166.736 41.3108 167.764 42.3433C170.232 44.8218 174.744 43.5941 174.744 39.4768C174.744 35.3744 170.338 33.8317 167.715 36.4639C167.065 37.1165 166.321 38.1266 166.321 39.379Z" fill="#20E0A1"/>
<path fill-rule="evenodd" clip-rule="evenodd" d="M11.4642 146.437C11.4642 149.22 15.0875 152.638 18.4953 149.452C20.7058 147.386 20.0587 144.465 17.4006 142.852C14.5038 141.094 11.4642 144.426 11.4642 146.437Z" fill="#20E0A1"/>
<path fill-rule="evenodd" clip-rule="evenodd" d="M154.958 75.1286C154.958 76.9535 155.561 78.3895 157.32 79.0354C158.854 79.5983 160.538 79.1347 161.537 77.8874C162.981 76.0854 163.424 74.2161 161.595 72.4097C160.403 71.2321 159.939 71.0148 158.289 71.0148C156.067 71.0148 154.958 73.0031 154.958 75.1286Z" fill="#20E0A1"/>
<path fill-rule="evenodd" clip-rule="evenodd" d="M95.4039 134.485V135.367C95.4039 137.406 96.7927 138.795 98.8321 138.795C99.5969 138.795 100.14 138.757 100.849 138.364C102.007 137.722 103.24 136.357 103.24 134.975C103.24 132.799 101.26 130.567 99.6157 130.567H99.028C97.1723 130.567 95.4039 132.617 95.4039 134.485Z" fill="#20E0A1"/>
<path fill-rule="evenodd" clip-rule="evenodd" d="M59.6524 146.726C59.6524 149.167 60.651 150.742 63.2766 150.742C65.2245 150.742 69.5545 148.172 66.3151 143.884C64.0308 140.86 59.6524 142.981 59.6524 146.726Z" fill="#20E0A1"/>
<path fill-rule="evenodd" clip-rule="evenodd" d="M166.909 15.1806V15.8662C166.909 17.4216 169.72 21.9827 173.448 18.2913C173.78 17.9627 174.055 17.6073 174.289 17.1733C175.143 15.5901 174.629 14.0257 173.447 12.854C172.795 12.2073 171.971 11.4585 170.827 11.4585C168.608 11.4585 166.909 13.3218 166.909 15.1806Z" fill="#20E0A1"/>
<path fill-rule="evenodd" clip-rule="evenodd" d="M35.7553 147.705C35.7553 148.903 36.0307 149.577 37.4066 150.07C38.7925 150.567 40.2145 151.068 41.4782 150.196C45.412 147.48 43.2186 142.906 39.9672 142.906C36.8201 142.906 35.7553 144.529 35.7553 147.705Z" fill="#20E0A1"/>
<path fill-rule="evenodd" clip-rule="evenodd" d="M182.581 7.83801C185.655 7.83801 187.949 4.6109 186.822 3.40196C186.011 2.53211 182.004 0.295975 180.818 0.295975C178.633 0.295975 176.877 4.47358 179.922 6.87364C180.534 7.35594 181.507 7.83801 182.581 7.83801Z" fill="#20E0A1"/>
<path fill-rule="evenodd" clip-rule="evenodd" d="M154.958 51.3257C154.958 53.1833 157.037 55.3415 158.876 55.3415C160.681 55.3415 162.794 53.2762 162.794 51.2277C162.794 49.4513 160.797 47.1138 158.582 47.1138C156.993 47.1138 154.958 49.6668 154.958 51.3257Z" fill="#20E0A1"/>
<path fill-rule="evenodd" clip-rule="evenodd" d="M158.681 31.5372C160.732 31.5372 162.696 29.6823 162.696 27.8151C162.696 27.0073 162.285 25.714 162.007 25.1742C161.209 23.6254 160.061 23.7991 158.778 23.7991C156.107 23.7991 155.319 25.2707 154.993 27.6624C154.761 29.366 157.142 31.5372 158.681 31.5372Z" fill="#20E0A1"/>
<path fill-rule="evenodd" clip-rule="evenodd" d="M147.221 90.9915C149.729 90.9915 152.352 86.9705 149.796 84.4002C147.998 82.5914 143.595 82.8314 143.114 87.1784C142.941 88.7448 143.134 89.2157 144.168 89.9302C144.699 90.2968 146.368 90.9915 147.221 90.9915Z" fill="#20E0A1"/>
<path fill-rule="evenodd" clip-rule="evenodd" d="M115.094 122.826C115.094 119.628 109.805 117.068 107.713 121.42C107.579 121.699 107.39 122.172 107.335 122.502C107.109 123.87 108.557 126.205 110.355 126.783C111.197 127.054 112.044 126.788 112.69 126.397C113.745 125.758 115.094 124.434 115.094 122.826Z" fill="#20E0A1"/>
<path fill-rule="evenodd" clip-rule="evenodd" d="M3.3345 138.207C5.09318 138.207 7.35037 138.026 7.35037 135.563C7.35037 133.843 7.28882 131.928 5.40681 131.238C4.09006 130.754 0.221339 130.767 0.0992882 133.405C-0.0123505 135.817 -0.276004 138.207 3.3345 138.207Z" fill="#20E0A1"/>
<path fill-rule="evenodd" clip-rule="evenodd" d="M119.209 110.78C119.209 111.238 119.464 112.081 119.617 112.429C120.022 113.347 120.793 114.051 121.712 114.448C123.373 115.166 124.649 115.043 125.858 113.512C126.869 112.232 127.525 111.085 126.577 109.583C126.402 109.307 125.925 108.699 125.689 108.511C123.907 107.092 122.551 106.497 120.652 108.404C120.13 108.928 119.209 109.966 119.209 110.78Z" fill="#20E0A1"/>
<path fill-rule="evenodd" clip-rule="evenodd" d="M131.351 98.8327C131.351 100.292 131.473 100.739 132.548 101.75C133.187 102.349 134.338 102.555 135.465 102.555C136.664 102.555 137.297 101.991 137.892 101.358C138.309 100.914 138.894 99.5755 138.894 98.7347C138.894 96.441 133.911 93.1391 131.74 97.3602C131.547 97.7351 131.351 98.2583 131.351 98.8327Z" fill="#20E0A1"/>
<path fill-rule="evenodd" clip-rule="evenodd" d="M143.11 38.983C143.11 42.9667 147.309 44.0087 149.208 41.9474C150.255 40.8121 150.635 39.0821 149.871 37.6084C148.886 35.7053 146.139 35.122 144.268 36.6151C143.674 37.0893 143.11 37.9413 143.11 38.983Z" fill="#20E0A1"/>
<path fill-rule="evenodd" clip-rule="evenodd" d="M71.6048 134.578C71.6048 135.38 72.3174 136.55 72.6794 137.029C74.0124 138.795 78.853 139.211 78.853 134.088C78.853 132.019 76.5 131.052 75.2288 131.052C73.7731 131.052 71.6048 133.181 71.6048 134.578Z" fill="#20E0A1"/>
<path fill-rule="evenodd" clip-rule="evenodd" d="M155.056 3.82001C155.056 5.31354 157.516 7.24819 158.387 7.24819C159.322 7.24819 160.595 6.72216 161.107 6.24622C162.899 4.57881 162.96 0 158.387 0C157.311 0 156.591 0.612682 156.118 1.25741C155.79 1.7042 155.056 3.11755 155.056 3.82001Z" fill="#20E0A1"/>
<path fill-rule="evenodd" clip-rule="evenodd" d="M24.0009 134.578C24.0009 138.331 28.1388 139.116 30.0532 137.202C31.0784 136.178 31.4588 134.712 30.889 133.371C30.6974 132.92 30.5136 132.632 30.2308 132.266C29.4718 131.286 27.6006 130.507 26.1541 131.54C25.296 132.153 24.0009 133.403 24.0009 134.578Z" fill="#20E0A1"/>
<path fill-rule="evenodd" clip-rule="evenodd" d="M143.206 63.1779C143.206 66.0764 147.346 68.1042 149.394 65.5457C149.726 65.13 150.356 63.7681 150.356 63.0799C150.356 61.5771 148.634 59.5612 146.746 59.6639C144.934 59.7623 143.206 61.2749 143.206 63.1779Z" fill="#20E0A1"/>
<path fill-rule="evenodd" clip-rule="evenodd" d="M143.11 15.7701C143.11 16.9793 145.48 19.1982 146.832 19.1982C147.616 19.1982 148.679 18.5676 149.113 18.149C150.594 16.7185 150.702 14.4341 149.21 13.0003C148.231 12.0597 146.641 11.7928 145.333 12.41C144.882 12.6229 144.64 12.9188 144.309 13.2469C143.958 13.5942 143.757 13.8493 143.532 14.3316C143.36 14.7028 143.11 15.2886 143.11 15.7701Z" fill="#20E0A1"/>
<path fill-rule="evenodd" clip-rule="evenodd" d="M47.8019 135.072C47.8019 136.035 50.1387 138.207 51.6219 138.207C52.6902 138.207 54.024 137.357 54.563 136.25C55.0791 135.191 55.1117 134.096 54.5577 133.018C53.996 131.926 52.3335 131.001 51.0749 131.187C49.0821 131.482 47.8019 133.503 47.8019 135.072Z" fill="#20E0A1"/>
<path fill-rule="evenodd" clip-rule="evenodd" d="M15.4808 119.397C15.2066 119.463 15.0687 119.385 14.7038 119.501C13.1096 120.007 11.8993 121.871 12.0845 123.08C12.3109 124.556 14.7687 126.41 15.951 126.326C17.6216 126.207 19.5012 124.433 19.2517 122.587C18.9998 120.722 17.9721 119.698 16.265 119.392C16.1829 119.377 15.856 119.32 15.8442 119.32C15.3204 119.3 15.5638 119.377 15.4808 119.397Z" fill="#20E0A1"/>
<path fill-rule="evenodd" clip-rule="evenodd" d="M131.747 26.8375V28.1109C131.747 30.8567 135.953 32.007 137.558 29.8073C139.345 27.3581 138.085 23.997 134.882 23.997C133.214 23.997 131.747 25.1482 131.747 26.8375Z" fill="#20E0A1"/>
<path fill-rule="evenodd" clip-rule="evenodd" d="M131.255 3.62439C131.255 5.47921 133.051 7.05257 134.39 7.05257C135.519 7.05257 136.587 6.92843 137.441 5.99009C137.651 5.75883 137.988 5.26958 138.101 4.98522C138.617 3.69148 138.481 2.35379 137.451 1.44437C137.163 1.18985 135.797 0.392071 135.369 0.392071C133.896 0.392071 132.354 1.00082 131.685 2.19275C131.548 2.43731 131.255 3.30682 131.255 3.62439Z" fill="#20E0A1"/>
<path fill-rule="evenodd" clip-rule="evenodd" d="M3.43154 114.402C5.99298 114.402 9.02227 111.64 6.15147 108.744C5.82743 108.417 5.55938 108.096 5.1974 107.837C3.06967 106.313 1.1998 107.848 0.898668 110.792C0.789228 111.862 0.799062 112.633 1.34835 113.253C1.79629 113.759 2.52975 114.402 3.43154 114.402Z" fill="#20E0A1"/>
<path fill-rule="evenodd" clip-rule="evenodd" d="M107.452 3.72153C107.452 4.24328 107.578 4.60585 107.775 4.96645C107.903 5.20245 107.919 5.22744 108.098 5.42666L108.504 5.80391C109.268 6.44297 110.16 6.66 111.272 6.66C113.242 6.66 114.407 4.77175 114.407 2.83999C114.407 1.92397 113.636 1.34796 113.004 1.0105C111.979 0.463646 111.484 0.234354 110.627 0.430561C109.001 0.803654 107.452 1.80979 107.452 3.72153Z" fill="#20E0A1"/>
<path fill-rule="evenodd" clip-rule="evenodd" d="M119.895 15.3765C119.895 16.298 119.946 17.0696 120.555 17.7528C121.676 19.0101 124.233 18.8308 125.26 17.8032C126.006 17.0563 126.262 16.7023 126.262 15.4745C126.262 14.2779 125.495 13.0742 124.464 12.6686C123.686 12.3626 121.519 12.4104 120.75 13.0969C120.208 13.5803 119.895 14.3907 119.895 15.3765Z" fill="#20E0A1"/>
<path fill-rule="evenodd" clip-rule="evenodd" d="M84.0434 123.217C84.0434 127.163 90.1162 126.994 90.1162 123.413V121.944C90.1162 120.636 88.8843 119.789 87.5696 119.789H86.7859C84.9812 119.789 84.0434 121.395 84.0434 123.217Z" fill="#20E0A1"/>
<path fill-rule="evenodd" clip-rule="evenodd" d="M131.747 51.4229C131.747 55.7878 137.82 55.4772 137.82 51.9126C137.82 50.4263 137.652 48.2885 135.567 48.2885C134.262 48.2885 133.539 48.1958 132.552 49.1913C132.041 49.7067 131.747 50.4347 131.747 51.4229Z" fill="#20E0A1"/>
<path fill-rule="evenodd" clip-rule="evenodd" d="M131.843 74.7377V75.3254C131.843 77.6955 133.827 78.1659 135.761 78.1659C137.465 78.1659 139.471 75.0039 137.209 72.8981C135.438 71.2493 131.843 72.3094 131.843 74.7377Z" fill="#20E0A1"/>
<path fill-rule="evenodd" clip-rule="evenodd" d="M217.254 20.961L218.818 20.8586C219.542 20.8891 219.57 21.0537 220.388 20.863C220.743 20.1229 220.375 19.3473 220.031 18.6732C218.983 16.6168 216.814 15.5697 214.344 15.3466C213.549 15.2747 212.75 15.5975 212.673 16.4733C212.615 17.1437 214.03 19.6533 214.92 20.2588C215.549 20.6878 216.422 20.961 217.254 20.961Z" fill="#20E0A1"/>
<path fill-rule="evenodd" clip-rule="evenodd" d="M95.9958 111.273C95.9958 113.93 98.0053 113.819 99.62 113.819C101.828 113.819 102.069 111.872 102.069 110.195C102.069 109.402 101.621 108.835 101.161 108.458C99.8077 107.349 95.9958 107.472 95.9958 111.273Z" fill="#20E0A1"/>
<path fill-rule="evenodd" clip-rule="evenodd" d="M72.2909 15.7679C72.2909 16.7376 72.7253 17.4636 73.3845 17.9067C73.727 18.1368 74.0048 18.2959 74.4424 18.416C77.6918 19.3079 79.984 15.2773 77.5084 13.0971C76.9584 12.6126 76.0723 12.3899 75.2119 12.5154C73.4339 12.775 72.2909 13.9956 72.2909 15.7679Z" fill="#20E0A1"/>
<path fill-rule="evenodd" clip-rule="evenodd" d="M24.489 62.9812C24.489 65.8383 27.8595 67.0506 29.7557 65.0154C30.7834 63.9126 31.8283 60.1406 27.0358 60.1406C25.3318 60.1406 24.489 61.3334 24.489 62.9812Z" fill="#20E0A1"/>
<path fill-rule="evenodd" clip-rule="evenodd" d="M36.5395 122.336C36.5395 125.386 37.4889 125.764 39.9678 125.764C43.1814 125.764 43.6235 119.789 39.1841 119.789C37.8482 119.789 36.5395 121.034 36.5395 122.336Z" fill="#20E0A1"/>
<path fill-rule="evenodd" clip-rule="evenodd" d="M122.54 89.9145C123.547 89.9145 124.547 89.836 125.343 89.2894C126.461 88.5216 125.729 85.9206 125.145 85.0565C124.141 83.5694 120.29 83.2663 119.981 86.9703C119.843 88.6216 121.009 89.9145 122.54 89.9145Z" fill="#20E0A1"/>
<path fill-rule="evenodd" clip-rule="evenodd" d="M108.042 98.6348C108.042 100.014 108.937 101.867 110.393 101.867C112.058 101.867 114.017 101.407 114.017 99.4184C114.017 99.0079 113.947 99.1123 113.938 98.8212C113.923 98.3521 114.017 98.7126 114.017 98.243C114.017 96.4887 112.223 96.0881 110.589 96.0881C109.339 96.0881 108.042 97.3844 108.042 98.6348Z" fill="#20E0A1"/>
<path fill-rule="evenodd" clip-rule="evenodd" d="M12.7385 98.6347C12.7385 100.124 13.742 101.867 15.1872 101.867C16.9826 101.867 18.7134 101.426 18.7134 99.3203C18.7134 96.2192 15.4867 95.3118 13.7989 96.6586C13.3165 97.0434 12.7385 97.8131 12.7385 98.6347Z" fill="#20E0A1"/>
<path fill-rule="evenodd" clip-rule="evenodd" d="M24.687 87.0754C24.687 88.9996 26.7741 90.2125 27.7828 90.0769C29.3832 89.8617 30.466 88.3173 30.466 86.4877C30.466 85.5013 30.0546 85.0825 29.5128 84.6003C28.6612 83.8422 26.4772 83.589 25.4666 84.9166C25.0763 85.4295 24.687 86.1779 24.687 87.0754Z" fill="#20E0A1"/>
<path fill-rule="evenodd" clip-rule="evenodd" d="M24.589 110.685C24.589 112.891 26.739 113.907 27.6129 113.885C28.8407 113.855 30.4659 112.345 30.4659 110.587C30.4659 106.921 24.589 106.944 24.589 110.685Z" fill="#20E0A1"/>
<path fill-rule="evenodd" clip-rule="evenodd" d="M36.4414 51.0288C36.4414 51.9716 36.81 52.8075 37.2948 53.3098C39.0611 55.1399 42.4654 54.2166 42.4645 51.5196C42.464 50.3616 41.941 49.3554 40.9813 48.8397C39.3373 47.9566 36.4414 48.8955 36.4414 51.0288Z" fill="#20E0A1"/>
<path fill-rule="evenodd" clip-rule="evenodd" d="M48.39 39.0824C48.39 43.1749 52.0225 42.7051 53.2426 41.3883C53.7669 40.8226 54.0475 40.2407 54.307 39.4103C54.5145 38.7461 54.3395 38.5399 53.4989 37.4997C53.3484 37.3135 52.961 36.9108 52.7584 36.771C51.1464 35.6591 48.39 36.8415 48.39 39.0824Z" fill="#20E0A1"/>
<path fill-rule="evenodd" clip-rule="evenodd" d="M12.6366 76.0092C12.6366 76.3718 12.8256 76.7874 13.0106 77.0066C13.5548 77.6509 15.2651 77.9683 16.1628 77.9683C17.4206 77.9683 18.1136 76.7279 18.4301 75.7287C18.6528 75.0258 18.5486 74.7137 18.2519 74.0181C17.3083 71.8058 12.6366 70.4727 12.6366 76.0092Z" fill="#20E0A1"/>
<path fill-rule="evenodd" clip-rule="evenodd" d="M60.3385 122.923C60.3385 124.899 63.2964 127.04 65.359 124.712C66.9703 122.893 66.4083 119.789 62.8852 119.789C61.2957 119.789 60.3385 121.617 60.3385 122.923Z" fill="#20E0A1"/>
<path fill-rule="evenodd" clip-rule="evenodd" d="M98.7369 18.4173C99.7462 18.4173 100.406 18.353 101.132 17.3843C102.196 15.9644 102.401 14.6824 101.114 13.3951C100.243 12.5232 98.6766 12.2631 97.6616 12.8362C97.5024 12.926 97.4245 13.0092 97.2801 13.1405C96.6297 13.732 96.262 14.5241 96.1258 15.5194C95.9313 16.9413 97.4866 18.4173 98.7369 18.4173Z" fill="#20E0A1"/>
<path fill-rule="evenodd" clip-rule="evenodd" d="M48.39 110.881C48.39 112.299 49.3084 112.899 50.3442 113.531C51.1253 114.007 50.8761 114 51.9037 113.611C53.5631 112.982 54.8841 111.328 54.1415 109.635C53.5952 108.39 52.2866 107.942 50.8387 107.942C49.4825 107.942 48.39 109.491 48.39 110.881Z" fill="#20E0A1"/>
<path fill-rule="evenodd" clip-rule="evenodd" d="M101.969 39.1801C101.969 38.311 101.742 37.6828 101.212 37.1942C100.942 36.9457 99.8478 36.3396 99.422 36.3396C98.5428 36.3396 97.1427 37.0802 96.5372 37.9604C95.1423 39.9883 97.4789 43.2533 100.176 41.9914C101.095 41.5618 101.969 40.4888 101.969 39.1801Z" fill="#20E0A1"/>
<path fill-rule="evenodd" clip-rule="evenodd" d="M48.4861 63.3716C48.4861 65.6468 51.4911 66.9672 53.3512 65.1023C53.8639 64.5883 54.363 63.615 54.363 62.686C54.363 62.3807 54.0929 61.9342 53.9742 61.7035C52.6152 59.0617 48.4861 59.9088 48.4861 63.3716Z" fill="#20E0A1"/>
<path fill-rule="evenodd" clip-rule="evenodd" d="M108.042 27.1342C108.042 28.69 109.037 30.4645 110.589 30.4645C111.227 30.4645 111.734 30.45 112.273 30.0914C113.16 29.501 114.017 27.5011 114.017 27.0363C114.017 26.2648 111.491 23.1373 108.997 25.3461C108.602 25.6952 108.042 26.4532 108.042 27.1342Z" fill="#20E0A1"/>
<path fill-rule="evenodd" clip-rule="evenodd" d="M60.3385 51.4264C60.3385 53.6998 63.3652 55.3434 65.3586 53.1163C65.7925 52.6314 66.3135 51.3895 66.3135 50.9366C66.3135 49.8633 64.7769 48.39 63.277 48.39C61.6858 48.39 60.3385 49.8286 60.3385 51.4264Z" fill="#20E0A1"/>
<path fill-rule="evenodd" clip-rule="evenodd" d="M107.944 51.1328C107.944 52.2164 108.285 52.8113 108.847 53.3639C109.632 54.135 110.437 54.2671 111.568 54.2671C113.525 54.2671 114.63 51.0111 113.115 49.39C112.499 48.7306 112.051 48.7912 111.074 48.8744C110.119 48.9556 109.428 48.825 108.85 49.2959C108.347 49.7065 107.944 50.2616 107.944 51.1328Z" fill="#20E0A1"/>
<path fill-rule="evenodd" clip-rule="evenodd" d="M72.2909 39.3766C72.2909 41.7528 75.3613 43.4681 77.259 41.2101C77.9733 40.3603 78.5139 39.253 77.9439 38.1313C77.7634 37.7763 77.5295 37.6071 77.2643 37.3416C75.4198 35.495 72.2909 36.8672 72.2909 39.3766Z" fill="#20E0A1"/>
<path fill-rule="evenodd" clip-rule="evenodd" d="M63.67 30.1701C65.2235 30.1701 66.0313 28.4012 66.3377 27.1447C66.4653 26.6211 64.7341 24.4891 63.474 24.4891C62.4506 24.4891 61.7405 24.4724 61.063 25.6042C60.6292 26.329 59.7244 28.7653 61.3158 29.5858C61.9293 29.902 62.7363 30.1701 63.67 30.1701Z" fill="#20E0A1"/>
<path fill-rule="evenodd" clip-rule="evenodd" d="M84.6315 26.7397C84.6315 27.1331 84.702 27.0545 84.7012 27.3271L84.6315 28.3069C84.6315 30.1031 87.5624 31.3242 89.2079 29.3571C89.4695 29.0444 89.6295 28.7808 89.7977 28.3798C91.3519 24.6764 85.8555 23.4721 84.8628 25.7957C84.7883 25.9701 84.6315 26.551 84.6315 26.7397Z" fill="#20E0A1"/>
<path fill-rule="evenodd" clip-rule="evenodd" d="M37.0281 74.1502C37.0281 75.6365 36.7632 76.7737 37.8259 77.4662C40.081 78.9357 42.4266 76.9676 42.378 75.043C42.3149 72.5514 39.3188 71.5016 37.836 72.7052C37.4278 73.0364 37.0281 73.4472 37.0281 74.1502Z" fill="#20E0A1"/>
<path fill-rule="evenodd" clip-rule="evenodd" d="M38.6938 101.376C39.1421 101.376 39.1382 101.287 39.4682 101.297C40.3706 101.324 40.7555 101.69 41.709 100.669C42.299 100.037 42.318 99.309 42.318 98.5353C42.318 96.7053 39.4651 94.9848 37.6379 96.6958C35.5016 98.6963 36.916 101.376 38.6938 101.376Z" fill="#20E0A1"/>
<path fill-rule="evenodd" clip-rule="evenodd" d="M120.382 62.4944L120.441 63.1699C120.431 63.5215 120.123 64.1897 120.615 64.9059C121.085 65.5901 121.714 65.7071 122.704 65.8579C124.621 66.15 125.769 64.6426 125.769 62.6904C125.769 60.0347 120.382 59.1994 120.382 62.4944Z" fill="#20E0A1"/>
<path fill-rule="evenodd" clip-rule="evenodd" d="M8.32712 185.417C9.16203 185.417 10.0199 181.985 7.80895 179.372C7.25469 178.718 5.81576 177.599 4.89894 177.385C4.89894 179.291 4.59352 181.355 5.10602 182.761C5.57328 184.043 7.26047 185.417 8.32712 185.417Z" fill="#20E0A1"/>
<path fill-rule="evenodd" clip-rule="evenodd" d="M72.683 110.384C72.683 115.461 78.1681 114.128 78.1681 110.482C78.1681 108.764 75.7543 108.067 75.538 108.065C75.1475 108.063 73.9077 108.452 73.6029 108.66C73.1227 108.987 72.683 109.628 72.683 110.384Z" fill="#20E0A1"/>
<path fill-rule="evenodd" clip-rule="evenodd" d="M108.433 74.8356C108.433 76.2603 108.802 77.5782 110.391 77.5782C110.848 77.5782 110.524 77.4606 111.05 77.5063C111.248 77.5235 111.388 77.5782 111.763 77.5782C114.652 77.5782 114.486 72.191 110.979 72.191C109.47 72.191 108.433 73.3226 108.433 74.8356Z" fill="#20E0A1"/>
<path fill-rule="evenodd" clip-rule="evenodd" d="M84.6315 99.4212C84.6315 101.072 85.7899 101.772 87.374 101.772C89.4519 101.772 90.8581 98.9613 89.0676 97.2379C87.6636 95.8864 84.6315 96.1704 84.6315 99.4212Z" fill="#20E0A1"/>
<path fill-rule="evenodd" clip-rule="evenodd" d="M120.579 39.278C120.579 41.9355 122.413 41.8246 124.007 41.8246C125.015 41.8246 125.343 40.5788 125.473 39.6663C126.063 35.5433 120.579 35.7862 120.579 39.278Z" fill="#20E0A1"/>
<path fill-rule="evenodd" clip-rule="evenodd" d="M87.3727 53.577C88.3131 53.577 88.6835 53.3309 89.2357 52.5996C89.9798 51.6138 90.0815 51.7274 89.8788 50.8782C89.2167 48.1044 86.4821 47.8476 85.2375 49.0911C83.7909 50.5365 85.3311 53.577 87.3727 53.577Z" fill="#20E0A1"/>
<path fill-rule="evenodd" clip-rule="evenodd" d="M48.882 87.3684C48.882 90.6293 53.2918 90.4805 53.8146 87.102C54.1323 85.0493 52.625 84.6258 50.8409 84.6258C49.223 84.6258 48.882 85.774 48.882 87.3684Z" fill="#20E0A1"/>
<path fill-rule="evenodd" clip-rule="evenodd" d="M96.6819 87.4683C96.6819 89.0163 98.5308 89.5252 100.11 89.5252C102.228 89.5252 102.779 84.5297 99.0327 84.5297C97.4295 84.5297 96.6819 85.8758 96.6819 87.4683Z" fill="#20E0A1"/>
<path fill-rule="evenodd" clip-rule="evenodd" d="M62.985 101.373C65.8966 101.373 66.5825 98.3188 64.2194 96.9066C63.8167 96.666 63.4842 96.4028 63.0113 96.5895C61.9517 97.0081 60.8836 98.4439 61.1243 99.7013C61.2838 100.535 62.0126 101.373 62.985 101.373Z" fill="#20E0A1"/>
<path fill-rule="evenodd" clip-rule="evenodd" d="M85.6117 5.48569C85.6117 7.51647 86.4632 7.24877 87.9625 7.24877C90.1928 7.24877 91.1809 3.62473 90.2154 3.62473H86.8851C86.0015 3.62473 85.6117 4.57997 85.6117 5.48569Z" fill="#20E0A1"/>
<path fill-rule="evenodd" clip-rule="evenodd" d="M97.1682 62.9785C97.1682 64.2577 97.7642 64.4361 98.7382 64.9347C99.1217 65.1311 99.1161 65.223 99.421 65.4271C100.794 64.7009 101.478 64.5737 101.478 63.1744C101.478 62.5735 101.121 61.9205 100.818 61.581C99.7139 60.342 99.2221 60.8349 98.0158 61.5733C97.533 61.8689 97.1682 62.2468 97.1682 62.9785Z" fill="#20E0A1"/>
<path fill-rule="evenodd" clip-rule="evenodd" d="M74.7402 64.4493C76.9671 64.4493 76.8009 61.4129 75.2299 61.4129C74.5459 61.4129 73.7575 62.1549 73.6157 62.7448C73.5006 63.2242 73.794 64.4493 74.7402 64.4493Z" fill="#20E0A1"/>
<path fill-rule="evenodd" clip-rule="evenodd" d="M61.5167 75.0307C61.5167 76.357 62.8757 76.304 63.6716 76.304C64.9439 76.304 64.8292 73.8554 63.6716 73.8554C62.871 73.8554 61.5167 73.9737 61.5167 75.0307Z" fill="#20E0A1"/>
<path fill-rule="evenodd" clip-rule="evenodd" d="M74.0533 86.8786C74.0533 88.6158 76.4041 88.7283 76.4041 86.4869C76.4041 85.2494 74.0533 85.7717 74.0533 86.8786Z" fill="#20E0A1"/>
</svg>
